G75*
G70*
%OFA0B0*%
%FSLAX24Y24*%
%IPPOS*%
%LPD*%
%AMOC8*
5,1,8,0,0,1.08239X$1,22.5*
%
%ADD10R,0.0631X0.0198*%
%ADD11R,0.0198X0.0631*%
%ADD12C,0.0600*%
%ADD13C,0.0580*%
%ADD14R,0.0277X0.0592*%
%ADD15R,0.0592X0.0277*%
%ADD16R,0.0552X0.0395*%
%ADD17R,0.0395X0.0552*%
%ADD18R,0.0552X0.0867*%
%ADD19R,0.0552X0.0297*%
%ADD20R,0.0395X0.0710*%
%ADD21R,0.0592X0.0671*%
%ADD22R,0.0867X0.0552*%
%ADD23R,0.0592X0.0710*%
%ADD24R,0.0710X0.0198*%
%ADD25R,0.0552X0.0277*%
%ADD26R,0.0277X0.0552*%
%ADD27R,0.0560X0.0960*%
%ADD28R,0.1497X0.0946*%
%ADD29R,0.0946X0.0316*%
%ADD30R,0.0395X0.0395*%
%ADD31R,0.0434X0.0395*%
%ADD32C,0.0440*%
D10*
X009185Y010238D03*
X009185Y010435D03*
X009185Y010631D03*
X009185Y010828D03*
X009185Y011025D03*
X009185Y011222D03*
X009185Y011419D03*
X009185Y011616D03*
X009185Y011813D03*
X009185Y012009D03*
X009185Y012206D03*
X009185Y012403D03*
X009185Y012600D03*
X009185Y012797D03*
X009185Y012994D03*
X009185Y013190D03*
X013752Y013190D03*
X013752Y012994D03*
X013752Y012797D03*
X013752Y012600D03*
X013752Y012403D03*
X013752Y012206D03*
X013752Y012009D03*
X013752Y011813D03*
X013752Y011616D03*
X013752Y011419D03*
X013752Y011222D03*
X013752Y011025D03*
X013752Y010828D03*
X013752Y010631D03*
X013752Y010435D03*
X013752Y010238D03*
D11*
X012945Y009431D03*
X012748Y009431D03*
X012551Y009431D03*
X012354Y009431D03*
X012158Y009431D03*
X011961Y009431D03*
X011764Y009431D03*
X011567Y009431D03*
X011370Y009431D03*
X011173Y009431D03*
X010977Y009431D03*
X010780Y009431D03*
X010583Y009431D03*
X010386Y009431D03*
X010189Y009431D03*
X009992Y009431D03*
X009992Y013998D03*
X010189Y013998D03*
X010386Y013998D03*
X010583Y013998D03*
X010780Y013998D03*
X010977Y013998D03*
X011173Y013998D03*
X011370Y013998D03*
X011567Y013998D03*
X011764Y013998D03*
X011961Y013998D03*
X012158Y013998D03*
X012354Y013998D03*
X012551Y013998D03*
X012748Y013998D03*
X012945Y013998D03*
D12*
X011869Y007764D03*
X011869Y005864D03*
D13*
X010669Y004814D03*
X009969Y004814D03*
X009369Y005164D03*
X009369Y005914D03*
X009369Y006614D03*
X009169Y008664D03*
X009169Y009364D03*
X008069Y011214D03*
X008069Y011864D03*
X008644Y014514D03*
X009244Y015714D03*
X009244Y016414D03*
X009269Y017414D03*
X008869Y017914D03*
X009719Y017914D03*
X010119Y017414D03*
X010619Y017914D03*
X009594Y019864D03*
X010094Y020364D03*
X010594Y020864D03*
X011144Y021364D03*
X014694Y017964D03*
X014619Y016164D03*
X015069Y015464D03*
X013819Y013889D03*
X013019Y014664D03*
X013019Y015314D03*
X012369Y015314D03*
X012369Y014664D03*
X011719Y015664D03*
X011019Y015664D03*
X011019Y015014D03*
X014369Y008914D03*
X014769Y009614D03*
X014769Y010364D03*
X014769Y011064D03*
X013969Y008214D03*
X013669Y007514D03*
X013669Y006814D03*
X013669Y006114D03*
X013669Y005414D03*
X014219Y006114D03*
X014369Y005414D03*
X014369Y006814D03*
X016069Y005664D03*
X017519Y006214D03*
X016919Y017764D03*
X007344Y017614D03*
X005644Y020114D03*
X005144Y020664D03*
X005169Y021364D03*
X004844Y016839D03*
X005219Y015714D03*
D14*
X005589Y015030D03*
X005904Y015030D03*
X006219Y015030D03*
X006534Y015030D03*
X006849Y015030D03*
X006849Y013298D03*
X006534Y013298D03*
X006219Y013298D03*
X005904Y013298D03*
X005589Y013298D03*
X005639Y010630D03*
X005954Y010630D03*
X006269Y010630D03*
X006584Y010630D03*
X006899Y010630D03*
X006899Y008898D03*
X006584Y008898D03*
X006269Y008898D03*
X005954Y008898D03*
X005639Y008898D03*
D15*
X005403Y009449D03*
X005403Y009764D03*
X005403Y010079D03*
X007135Y010079D03*
X007135Y009764D03*
X007135Y009449D03*
X007085Y013849D03*
X007085Y014164D03*
X007085Y014479D03*
X005353Y014479D03*
X005353Y014164D03*
X005353Y013849D03*
D16*
X004619Y012368D03*
X004619Y011660D03*
X004419Y013060D03*
X004419Y013768D03*
X007169Y016035D03*
X007169Y016743D03*
X008069Y017160D03*
X008069Y017868D03*
X008019Y015768D03*
X008019Y015060D03*
X008019Y014518D03*
X008019Y013810D03*
X008019Y013118D03*
X008019Y012410D03*
X008069Y010718D03*
X008069Y010010D03*
X009169Y008168D03*
X009169Y007460D03*
X015369Y005668D03*
X015369Y004960D03*
X016819Y005510D03*
X016819Y006218D03*
X017069Y011510D03*
X017069Y012218D03*
D17*
X014573Y014714D03*
X014323Y015514D03*
X013864Y014714D03*
X013614Y015514D03*
X008723Y009364D03*
X008014Y009364D03*
X007973Y008014D03*
X007264Y008014D03*
X006623Y008014D03*
X005914Y008014D03*
X005273Y008014D03*
X004823Y008664D03*
X004564Y008014D03*
X004114Y008664D03*
X005314Y011614D03*
X005314Y012364D03*
X006023Y012364D03*
X006564Y012414D03*
X006564Y011514D03*
X006023Y011614D03*
X007273Y011514D03*
X007273Y012414D03*
X007023Y006764D03*
X007564Y006764D03*
X007564Y005964D03*
X007023Y005964D03*
X007023Y005164D03*
X007564Y005164D03*
X008273Y005164D03*
X008273Y005964D03*
X008273Y006764D03*
X006314Y006764D03*
X006314Y005964D03*
X006314Y005164D03*
X015464Y006714D03*
X016173Y006714D03*
X016714Y007114D03*
X017423Y007114D03*
X016873Y004714D03*
X016164Y004714D03*
D18*
X004469Y014863D03*
X004469Y015965D03*
X004419Y010865D03*
X004419Y009763D03*
D19*
X015107Y012740D03*
X015107Y013488D03*
X016130Y013488D03*
X016130Y013114D03*
X016130Y012740D03*
D20*
X017069Y013095D03*
X017069Y014433D03*
D21*
X016843Y015364D03*
X016095Y015364D03*
D22*
X015867Y017014D03*
X016970Y017014D03*
X016120Y011914D03*
X015017Y011914D03*
X006545Y017614D03*
X005442Y017614D03*
D23*
X015195Y014414D03*
X015943Y014414D03*
X016095Y016164D03*
X016843Y016164D03*
D24*
X008394Y020269D03*
X008394Y020466D03*
X008394Y020663D03*
X008394Y020859D03*
X008394Y021056D03*
X006373Y021059D03*
X006373Y020863D03*
X006373Y020666D03*
X006373Y020469D03*
X006373Y020272D03*
D25*
X004386Y005327D03*
X004386Y005642D03*
X004386Y005957D03*
X004386Y006272D03*
X004386Y006587D03*
X004386Y006901D03*
X005252Y006901D03*
X005252Y006587D03*
X005252Y006272D03*
X005252Y005957D03*
X005252Y005642D03*
X005252Y005327D03*
D26*
X004819Y005287D03*
X004819Y006941D03*
D27*
X015609Y008094D03*
X016519Y008094D03*
X017429Y008094D03*
D28*
X016519Y010534D03*
D29*
X013542Y016464D03*
X013542Y016964D03*
X013542Y017464D03*
X013542Y017964D03*
X011495Y017964D03*
X011495Y017464D03*
X011495Y016964D03*
X011495Y016464D03*
D30*
G36*
X017927Y005420D02*
X017649Y005698D01*
X017927Y005976D01*
X018205Y005698D01*
X017927Y005420D01*
G37*
G36*
X017510Y005002D02*
X017232Y005280D01*
X017510Y005558D01*
X017788Y005280D01*
X017510Y005002D01*
G37*
D31*
X006412Y016015D03*
X006412Y016763D03*
X005586Y016389D03*
D32*
X005219Y015714D03*
X004069Y018264D03*
X007469Y013064D03*
X005019Y010914D03*
X004869Y009014D03*
X005619Y004714D03*
X008419Y007364D03*
X008719Y005964D03*
X008719Y005164D03*
X012669Y010489D03*
X010769Y012364D03*
X014469Y007564D03*
X013044Y005239D03*
X015969Y009364D03*
X016569Y006714D03*
X015669Y017814D03*
X014019Y019664D03*
M02*
