G75*
G70*
%OFA0B0*%
%FSLAX24Y24*%
%IPPOS*%
%LPD*%
%AMOC8*
5,1,8,0,0,1.08239X$1,22.5*
%
%ADD10C,0.0000*%
%ADD11C,0.0050*%
%ADD12R,0.0382X0.0110*%
%ADD13R,0.0110X0.0382*%
%ADD14C,0.0160*%
%ADD15C,0.0060*%
%ADD16C,0.0080*%
%ADD17C,0.0010*%
%ADD18C,0.0040*%
%ADD19R,0.0098X0.0098*%
D10*
X001119Y003289D02*
X001519Y003289D01*
X001518Y003289D02*
X001521Y003360D01*
X001527Y003430D01*
X001538Y003500D01*
X001552Y003569D01*
X001570Y003637D01*
X001592Y003704D01*
X001618Y003770D01*
X001647Y003834D01*
X001680Y003897D01*
X001717Y003957D01*
X001756Y004015D01*
X001799Y004071D01*
X001845Y004125D01*
X001894Y004176D01*
X001945Y004224D01*
X002000Y004269D01*
X002056Y004311D01*
X002115Y004350D01*
X002176Y004386D01*
X002239Y004418D01*
X002303Y004446D01*
X002369Y004471D01*
X002437Y004492D01*
X002505Y004510D01*
X002574Y004523D01*
X002644Y004533D01*
X002715Y004538D01*
X002785Y004540D01*
X002856Y004538D01*
X002926Y004532D01*
X002996Y004522D01*
X003065Y004508D01*
X003133Y004490D01*
X003200Y004468D01*
X003266Y004443D01*
X003331Y004414D01*
X003393Y004382D01*
X003454Y004346D01*
X003513Y004307D01*
X003569Y004264D01*
X003623Y004219D01*
X003674Y004170D01*
X003723Y004119D01*
X003768Y004065D01*
X003811Y004009D01*
X003850Y003950D01*
X003886Y003889D01*
X003918Y003827D01*
X003947Y003762D01*
X003972Y003696D01*
X003994Y003629D01*
X004012Y003561D01*
X004026Y003492D01*
X004036Y003422D01*
X004042Y003352D01*
X004044Y003281D01*
X004042Y003211D01*
X004037Y003140D01*
X004027Y003070D01*
X004014Y003001D01*
X003996Y002933D01*
X003975Y002865D01*
X003950Y002799D01*
X003922Y002735D01*
X003890Y002672D01*
X003854Y002611D01*
X003815Y002552D01*
X003773Y002496D01*
X003728Y002441D01*
X003680Y002390D01*
X003629Y002341D01*
X003575Y002295D01*
X003519Y002252D01*
X003461Y002213D01*
X003401Y002176D01*
X003338Y002143D01*
X003274Y002114D01*
X003208Y002088D01*
X003141Y002066D01*
X003073Y002048D01*
X003004Y002034D01*
X002934Y002023D01*
X002864Y002017D01*
X002793Y002014D01*
X002794Y002014D02*
X002794Y001614D01*
X001119Y003289D02*
X001121Y003369D01*
X001127Y003448D01*
X001136Y003527D01*
X001149Y003606D01*
X001166Y003684D01*
X001187Y003761D01*
X001211Y003837D01*
X001239Y003912D01*
X001270Y003985D01*
X001305Y004057D01*
X001343Y004127D01*
X001385Y004195D01*
X001430Y004261D01*
X001477Y004324D01*
X001528Y004386D01*
X001582Y004445D01*
X001638Y004501D01*
X001697Y004555D01*
X001759Y004606D01*
X001822Y004653D01*
X001888Y004698D01*
X001956Y004740D01*
X002026Y004778D01*
X002098Y004813D01*
X002171Y004844D01*
X002246Y004872D01*
X002322Y004896D01*
X002399Y004917D01*
X002477Y004934D01*
X002556Y004947D01*
X002635Y004956D01*
X002714Y004962D01*
X002794Y004964D01*
X003669Y005914D01*
X003669Y017014D01*
X002794Y017964D01*
X004469Y019639D02*
X004467Y019719D01*
X004461Y019798D01*
X004452Y019877D01*
X004439Y019956D01*
X004422Y020034D01*
X004401Y020111D01*
X004377Y020187D01*
X004349Y020262D01*
X004318Y020335D01*
X004283Y020407D01*
X004245Y020476D01*
X004203Y020545D01*
X004158Y020611D01*
X004111Y020674D01*
X004060Y020736D01*
X004006Y020795D01*
X003950Y020851D01*
X003891Y020905D01*
X003829Y020956D01*
X003766Y021003D01*
X003700Y021048D01*
X003631Y021090D01*
X003562Y021128D01*
X003490Y021163D01*
X003417Y021194D01*
X003342Y021222D01*
X003266Y021246D01*
X003189Y021267D01*
X003111Y021284D01*
X003032Y021297D01*
X002953Y021306D01*
X002874Y021312D01*
X002794Y021314D01*
X002794Y020914D01*
X002793Y020915D02*
X002864Y020912D01*
X002934Y020906D01*
X003004Y020895D01*
X003073Y020881D01*
X003141Y020863D01*
X003208Y020841D01*
X003274Y020815D01*
X003338Y020786D01*
X003401Y020753D01*
X003461Y020716D01*
X003519Y020677D01*
X003575Y020634D01*
X003629Y020588D01*
X003680Y020539D01*
X003728Y020488D01*
X003773Y020433D01*
X003815Y020377D01*
X003854Y020318D01*
X003890Y020257D01*
X003922Y020194D01*
X003950Y020130D01*
X003975Y020064D01*
X003996Y019996D01*
X004014Y019928D01*
X004027Y019859D01*
X004037Y019789D01*
X004042Y019718D01*
X004044Y019648D01*
X004042Y019577D01*
X004036Y019507D01*
X004026Y019437D01*
X004012Y019368D01*
X003994Y019300D01*
X003972Y019233D01*
X003947Y019167D01*
X003918Y019102D01*
X003886Y019040D01*
X003850Y018979D01*
X003811Y018920D01*
X003768Y018864D01*
X003723Y018810D01*
X003674Y018759D01*
X003623Y018710D01*
X003569Y018665D01*
X003513Y018622D01*
X003454Y018583D01*
X003393Y018547D01*
X003331Y018515D01*
X003266Y018486D01*
X003200Y018461D01*
X003133Y018439D01*
X003065Y018421D01*
X002996Y018407D01*
X002926Y018397D01*
X002856Y018391D01*
X002785Y018389D01*
X002715Y018391D01*
X002644Y018396D01*
X002574Y018406D01*
X002505Y018419D01*
X002437Y018437D01*
X002369Y018458D01*
X002303Y018483D01*
X002239Y018511D01*
X002176Y018543D01*
X002115Y018579D01*
X002056Y018618D01*
X002000Y018660D01*
X001945Y018705D01*
X001894Y018753D01*
X001845Y018804D01*
X001799Y018858D01*
X001756Y018914D01*
X001717Y018972D01*
X001680Y019032D01*
X001647Y019095D01*
X001618Y019159D01*
X001592Y019225D01*
X001570Y019292D01*
X001552Y019360D01*
X001538Y019429D01*
X001527Y019499D01*
X001521Y019569D01*
X001518Y019640D01*
X001519Y019639D02*
X001119Y019639D01*
X001118Y019640D02*
X001121Y019557D01*
X001127Y019476D01*
X001138Y019394D01*
X001152Y019314D01*
X001171Y019234D01*
X001193Y019155D01*
X001219Y019077D01*
X001249Y019000D01*
X001282Y018925D01*
X001320Y018852D01*
X001360Y018781D01*
X001404Y018712D01*
X001452Y018645D01*
X001502Y018580D01*
X001556Y018518D01*
X001612Y018458D01*
X001672Y018402D01*
X001734Y018348D01*
X001799Y018298D01*
X001866Y018250D01*
X001935Y018206D01*
X002006Y018166D01*
X002079Y018128D01*
X002154Y018095D01*
X002231Y018065D01*
X002309Y018039D01*
X002388Y018017D01*
X002468Y017998D01*
X002548Y017984D01*
X002630Y017973D01*
X002711Y017967D01*
X002794Y017964D01*
X005694Y019514D02*
X004269Y020939D01*
X004269Y021814D01*
X012119Y021814D01*
X009819Y019514D01*
X005694Y019514D01*
X005419Y018764D02*
X009419Y018764D01*
X011719Y021064D01*
X015844Y021064D01*
X017269Y019639D01*
X017519Y019639D01*
X019194Y017964D02*
X018319Y017014D01*
X018319Y005914D01*
X019194Y004964D01*
X017519Y003289D02*
X017521Y003209D01*
X017527Y003130D01*
X017536Y003051D01*
X017549Y002972D01*
X017566Y002894D01*
X017587Y002817D01*
X017611Y002741D01*
X017639Y002666D01*
X017670Y002593D01*
X017705Y002521D01*
X017743Y002452D01*
X017785Y002383D01*
X017830Y002317D01*
X017877Y002254D01*
X017928Y002192D01*
X017982Y002133D01*
X018038Y002077D01*
X018097Y002023D01*
X018159Y001972D01*
X018222Y001925D01*
X018288Y001880D01*
X018356Y001838D01*
X018426Y001800D01*
X018498Y001765D01*
X018571Y001734D01*
X018646Y001706D01*
X018722Y001682D01*
X018799Y001661D01*
X018877Y001644D01*
X018956Y001631D01*
X019035Y001622D01*
X019114Y001616D01*
X019194Y001614D01*
X019194Y002014D01*
X019123Y002017D01*
X019053Y002023D01*
X018983Y002034D01*
X018914Y002048D01*
X018846Y002066D01*
X018779Y002088D01*
X018713Y002114D01*
X018649Y002143D01*
X018586Y002176D01*
X018526Y002213D01*
X018468Y002252D01*
X018412Y002295D01*
X018358Y002341D01*
X018307Y002390D01*
X018259Y002441D01*
X018214Y002496D01*
X018172Y002552D01*
X018133Y002611D01*
X018097Y002672D01*
X018065Y002735D01*
X018037Y002799D01*
X018012Y002865D01*
X017991Y002933D01*
X017973Y003001D01*
X017960Y003070D01*
X017950Y003140D01*
X017945Y003211D01*
X017943Y003281D01*
X017945Y003352D01*
X017951Y003422D01*
X017961Y003492D01*
X017975Y003561D01*
X017993Y003629D01*
X018015Y003696D01*
X018040Y003762D01*
X018069Y003827D01*
X018101Y003889D01*
X018137Y003950D01*
X018176Y004009D01*
X018219Y004065D01*
X018264Y004119D01*
X018313Y004170D01*
X018364Y004219D01*
X018418Y004264D01*
X018474Y004307D01*
X018533Y004346D01*
X018594Y004382D01*
X018656Y004414D01*
X018721Y004443D01*
X018787Y004468D01*
X018854Y004490D01*
X018922Y004508D01*
X018991Y004522D01*
X019061Y004532D01*
X019131Y004538D01*
X019202Y004540D01*
X019272Y004538D01*
X019343Y004533D01*
X019413Y004523D01*
X019482Y004510D01*
X019550Y004492D01*
X019618Y004471D01*
X019684Y004446D01*
X019748Y004418D01*
X019811Y004386D01*
X019872Y004350D01*
X019931Y004311D01*
X019987Y004269D01*
X020042Y004224D01*
X020093Y004176D01*
X020142Y004125D01*
X020188Y004071D01*
X020231Y004015D01*
X020270Y003957D01*
X020307Y003897D01*
X020340Y003834D01*
X020369Y003770D01*
X020395Y003704D01*
X020417Y003637D01*
X020435Y003569D01*
X020449Y003500D01*
X020460Y003430D01*
X020466Y003360D01*
X020469Y003289D01*
X020869Y003289D01*
X020866Y003372D01*
X020860Y003453D01*
X020849Y003535D01*
X020835Y003615D01*
X020816Y003695D01*
X020794Y003774D01*
X020768Y003852D01*
X020738Y003929D01*
X020705Y004004D01*
X020667Y004077D01*
X020627Y004148D01*
X020583Y004217D01*
X020535Y004284D01*
X020485Y004349D01*
X020431Y004411D01*
X020375Y004471D01*
X020315Y004527D01*
X020253Y004581D01*
X020188Y004631D01*
X020121Y004679D01*
X020052Y004723D01*
X019981Y004763D01*
X019908Y004801D01*
X019833Y004834D01*
X019756Y004864D01*
X019678Y004890D01*
X019599Y004912D01*
X019519Y004931D01*
X019439Y004945D01*
X019357Y004956D01*
X019276Y004962D01*
X019193Y004965D01*
X017519Y003289D02*
X016569Y004164D01*
X005419Y004164D01*
X004469Y003289D01*
X004469Y003290D02*
X004466Y003207D01*
X004460Y003126D01*
X004449Y003044D01*
X004435Y002964D01*
X004416Y002884D01*
X004394Y002805D01*
X004368Y002727D01*
X004338Y002650D01*
X004305Y002575D01*
X004267Y002502D01*
X004227Y002431D01*
X004183Y002362D01*
X004135Y002295D01*
X004085Y002230D01*
X004031Y002168D01*
X003975Y002108D01*
X003915Y002052D01*
X003853Y001998D01*
X003788Y001948D01*
X003721Y001900D01*
X003652Y001856D01*
X003581Y001816D01*
X003508Y001778D01*
X003433Y001745D01*
X003356Y001715D01*
X003278Y001689D01*
X003199Y001667D01*
X003119Y001648D01*
X003039Y001634D01*
X002957Y001623D01*
X002876Y001617D01*
X002793Y001614D01*
X005419Y018764D02*
X004469Y019639D01*
X019194Y017964D02*
X019274Y017966D01*
X019353Y017972D01*
X019432Y017981D01*
X019511Y017994D01*
X019589Y018011D01*
X019666Y018032D01*
X019742Y018056D01*
X019817Y018084D01*
X019890Y018115D01*
X019962Y018150D01*
X020032Y018188D01*
X020100Y018230D01*
X020166Y018275D01*
X020229Y018322D01*
X020291Y018373D01*
X020350Y018427D01*
X020406Y018483D01*
X020460Y018542D01*
X020511Y018604D01*
X020558Y018667D01*
X020603Y018733D01*
X020645Y018802D01*
X020683Y018871D01*
X020718Y018943D01*
X020749Y019016D01*
X020777Y019091D01*
X020801Y019167D01*
X020822Y019244D01*
X020839Y019322D01*
X020852Y019401D01*
X020861Y019480D01*
X020867Y019559D01*
X020869Y019639D01*
X020469Y019639D01*
X020469Y019640D02*
X020466Y019569D01*
X020460Y019499D01*
X020449Y019429D01*
X020435Y019360D01*
X020417Y019292D01*
X020395Y019225D01*
X020369Y019159D01*
X020340Y019095D01*
X020307Y019032D01*
X020270Y018972D01*
X020231Y018914D01*
X020188Y018858D01*
X020142Y018804D01*
X020093Y018753D01*
X020042Y018705D01*
X019987Y018660D01*
X019931Y018618D01*
X019872Y018579D01*
X019811Y018543D01*
X019748Y018511D01*
X019684Y018483D01*
X019618Y018458D01*
X019550Y018437D01*
X019482Y018419D01*
X019413Y018406D01*
X019343Y018396D01*
X019272Y018391D01*
X019202Y018389D01*
X019131Y018391D01*
X019061Y018397D01*
X018991Y018407D01*
X018922Y018421D01*
X018854Y018439D01*
X018787Y018461D01*
X018721Y018486D01*
X018656Y018515D01*
X018594Y018547D01*
X018533Y018583D01*
X018474Y018622D01*
X018418Y018665D01*
X018364Y018710D01*
X018313Y018759D01*
X018264Y018810D01*
X018219Y018864D01*
X018176Y018920D01*
X018137Y018979D01*
X018101Y019040D01*
X018069Y019102D01*
X018040Y019167D01*
X018015Y019233D01*
X017993Y019300D01*
X017975Y019368D01*
X017961Y019437D01*
X017951Y019507D01*
X017945Y019577D01*
X017943Y019648D01*
X017945Y019718D01*
X017950Y019789D01*
X017960Y019859D01*
X017973Y019928D01*
X017991Y019996D01*
X018012Y020064D01*
X018037Y020130D01*
X018065Y020194D01*
X018097Y020257D01*
X018133Y020318D01*
X018172Y020377D01*
X018214Y020433D01*
X018259Y020488D01*
X018307Y020539D01*
X018358Y020588D01*
X018412Y020634D01*
X018468Y020677D01*
X018526Y020716D01*
X018586Y020753D01*
X018649Y020786D01*
X018713Y020815D01*
X018779Y020841D01*
X018846Y020863D01*
X018914Y020881D01*
X018983Y020895D01*
X019053Y020906D01*
X019123Y020912D01*
X019194Y020915D01*
X019194Y020914D02*
X019194Y021314D01*
X019194Y021315D02*
X019111Y021312D01*
X019030Y021306D01*
X018948Y021295D01*
X018868Y021281D01*
X018788Y021262D01*
X018709Y021240D01*
X018631Y021214D01*
X018554Y021184D01*
X018479Y021151D01*
X018406Y021113D01*
X018335Y021073D01*
X018266Y021029D01*
X018199Y020981D01*
X018134Y020931D01*
X018072Y020877D01*
X018012Y020821D01*
X017956Y020761D01*
X017902Y020699D01*
X017852Y020634D01*
X017804Y020567D01*
X017760Y020498D01*
X017720Y020427D01*
X017682Y020354D01*
X017649Y020279D01*
X017619Y020202D01*
X017593Y020124D01*
X017571Y020045D01*
X017552Y019965D01*
X017538Y019885D01*
X017527Y019803D01*
X017521Y019722D01*
X017518Y019639D01*
D11*
X013437Y013683D02*
X009500Y013683D01*
X009500Y009746D01*
X013437Y009746D01*
X013437Y013683D01*
X013394Y008679D02*
X013394Y008379D01*
X013394Y008529D02*
X012943Y008529D01*
X013093Y008379D01*
X013018Y008219D02*
X013319Y008219D01*
X013394Y008144D01*
X013394Y007993D01*
X013319Y007918D01*
X013018Y007918D01*
X012943Y007993D01*
X012943Y008144D01*
X013018Y008219D01*
X013244Y008068D02*
X013394Y008219D01*
X009625Y009996D02*
X009627Y010017D01*
X009633Y010036D01*
X009642Y010055D01*
X009654Y010071D01*
X009670Y010085D01*
X009687Y010096D01*
X009706Y010104D01*
X009727Y010108D01*
X009747Y010108D01*
X009768Y010104D01*
X009787Y010096D01*
X009804Y010085D01*
X009820Y010071D01*
X009832Y010055D01*
X009841Y010036D01*
X009847Y010017D01*
X009849Y009996D01*
X009847Y009975D01*
X009841Y009956D01*
X009832Y009937D01*
X009820Y009921D01*
X009804Y009907D01*
X009787Y009896D01*
X009768Y009888D01*
X009747Y009884D01*
X009727Y009884D01*
X009706Y009888D01*
X009687Y009896D01*
X009670Y009907D01*
X009654Y009921D01*
X009642Y009937D01*
X009633Y009956D01*
X009627Y009975D01*
X009625Y009996D01*
X006544Y025714D02*
X006444Y025714D01*
D12*
X009286Y013190D03*
X009286Y012994D03*
X009286Y012797D03*
X009286Y012600D03*
X009286Y012403D03*
X009286Y012206D03*
X009286Y012009D03*
X009286Y011813D03*
X009286Y011616D03*
X009286Y011419D03*
X009286Y011222D03*
X009286Y011025D03*
X009286Y010828D03*
X009286Y010631D03*
X009286Y010435D03*
X009286Y010238D03*
X013652Y010238D03*
X013652Y010435D03*
X013652Y010631D03*
X013652Y010828D03*
X013652Y011025D03*
X013652Y011222D03*
X013652Y011419D03*
X013652Y011616D03*
X013652Y011813D03*
X013652Y012009D03*
X013652Y012206D03*
X013652Y012403D03*
X013652Y012600D03*
X013652Y012797D03*
X013652Y012994D03*
X013652Y013190D03*
D13*
X012945Y013897D03*
X012748Y013897D03*
X012551Y013897D03*
X012354Y013897D03*
X012158Y013897D03*
X011961Y013897D03*
X011764Y013897D03*
X011567Y013897D03*
X011370Y013897D03*
X011173Y013897D03*
X010977Y013897D03*
X010780Y013897D03*
X010583Y013897D03*
X010386Y013897D03*
X010189Y013897D03*
X009992Y013897D03*
X009992Y009531D03*
X010189Y009531D03*
X010386Y009531D03*
X010583Y009531D03*
X010780Y009531D03*
X010977Y009531D03*
X011173Y009531D03*
X011370Y009531D03*
X011567Y009531D03*
X011764Y009531D03*
X011961Y009531D03*
X012158Y009531D03*
X012354Y009531D03*
X012551Y009531D03*
X012748Y009531D03*
X012945Y009531D03*
D14*
X012719Y008014D02*
X012719Y005614D01*
X012717Y005557D01*
X012711Y005501D01*
X012702Y005445D01*
X012689Y005389D01*
X012672Y005335D01*
X012652Y005282D01*
X012628Y005231D01*
X012600Y005181D01*
X012570Y005133D01*
X012536Y005087D01*
X012499Y005044D01*
X012460Y005003D01*
X012418Y004965D01*
X012373Y004930D01*
X012326Y004898D01*
X012277Y004869D01*
X012227Y004843D01*
X012174Y004821D01*
X012121Y004802D01*
X012066Y004787D01*
X012010Y004776D01*
X011954Y004768D01*
X011897Y004764D01*
X011841Y004764D01*
X011784Y004768D01*
X011728Y004776D01*
X011672Y004787D01*
X011617Y004802D01*
X011564Y004821D01*
X011511Y004843D01*
X011461Y004869D01*
X011412Y004898D01*
X011365Y004930D01*
X011320Y004965D01*
X011278Y005003D01*
X011239Y005044D01*
X011202Y005087D01*
X011168Y005133D01*
X011138Y005181D01*
X011110Y005231D01*
X011086Y005282D01*
X011066Y005335D01*
X011049Y005389D01*
X011036Y005445D01*
X011027Y005501D01*
X011021Y005557D01*
X011019Y005614D01*
X011019Y008014D01*
X011021Y008071D01*
X011027Y008127D01*
X011036Y008183D01*
X011049Y008239D01*
X011066Y008293D01*
X011086Y008346D01*
X011110Y008397D01*
X011138Y008447D01*
X011168Y008495D01*
X011202Y008541D01*
X011239Y008584D01*
X011278Y008625D01*
X011320Y008663D01*
X011365Y008698D01*
X011412Y008730D01*
X011461Y008759D01*
X011511Y008785D01*
X011564Y008807D01*
X011617Y008826D01*
X011672Y008841D01*
X011728Y008852D01*
X011784Y008860D01*
X011841Y008864D01*
X011897Y008864D01*
X011954Y008860D01*
X012010Y008852D01*
X012066Y008841D01*
X012121Y008826D01*
X012174Y008807D01*
X012227Y008785D01*
X012277Y008759D01*
X012326Y008730D01*
X012373Y008698D01*
X012418Y008663D01*
X012460Y008625D01*
X012499Y008584D01*
X012536Y008541D01*
X012570Y008495D01*
X012600Y008447D01*
X012628Y008397D01*
X012652Y008346D01*
X012672Y008293D01*
X012689Y008239D01*
X012702Y008183D01*
X012711Y008127D01*
X012717Y008071D01*
X012719Y008014D01*
D15*
X012519Y008014D02*
X012519Y005614D01*
X012517Y005564D01*
X012511Y005515D01*
X012502Y005466D01*
X012489Y005418D01*
X012472Y005371D01*
X012452Y005326D01*
X012428Y005282D01*
X012401Y005240D01*
X012370Y005200D01*
X012337Y005163D01*
X012301Y005129D01*
X012263Y005097D01*
X012222Y005068D01*
X012180Y005043D01*
X012135Y005021D01*
X012089Y005002D01*
X012041Y004987D01*
X011993Y004976D01*
X011944Y004968D01*
X011894Y004964D01*
X011844Y004964D01*
X011794Y004968D01*
X011745Y004976D01*
X011697Y004987D01*
X011649Y005002D01*
X011603Y005021D01*
X011558Y005043D01*
X011516Y005068D01*
X011475Y005097D01*
X011437Y005129D01*
X011401Y005163D01*
X011368Y005200D01*
X011337Y005240D01*
X011310Y005282D01*
X011286Y005326D01*
X011266Y005371D01*
X011249Y005418D01*
X011236Y005466D01*
X011227Y005515D01*
X011221Y005564D01*
X011219Y005614D01*
X011219Y008014D01*
X011569Y007064D02*
X011869Y007064D01*
X011869Y007314D01*
X011869Y007064D02*
X012169Y007064D01*
X012169Y006914D02*
X011569Y006914D01*
X011569Y006714D01*
X012169Y006714D01*
X012169Y006914D01*
X012169Y006564D02*
X011869Y006564D01*
X011869Y006314D01*
X011869Y006564D02*
X011569Y006564D01*
X011219Y008014D02*
X011221Y008064D01*
X011227Y008113D01*
X011236Y008162D01*
X011249Y008210D01*
X011266Y008257D01*
X011286Y008302D01*
X011310Y008346D01*
X011337Y008388D01*
X011368Y008428D01*
X011401Y008465D01*
X011437Y008499D01*
X011475Y008531D01*
X011516Y008560D01*
X011558Y008585D01*
X011603Y008607D01*
X011649Y008626D01*
X011697Y008641D01*
X011745Y008652D01*
X011794Y008660D01*
X011844Y008664D01*
X011894Y008664D01*
X011944Y008660D01*
X011993Y008652D01*
X012041Y008641D01*
X012089Y008626D01*
X012135Y008607D01*
X012180Y008585D01*
X012222Y008560D01*
X012263Y008531D01*
X012301Y008499D01*
X012337Y008465D01*
X012370Y008428D01*
X012401Y008388D01*
X012428Y008346D01*
X012452Y008302D01*
X012472Y008257D01*
X012489Y008210D01*
X012502Y008162D01*
X012511Y008113D01*
X012517Y008064D01*
X012519Y008014D01*
X015132Y005432D02*
X015132Y005196D01*
X015605Y005196D02*
X015605Y005432D01*
X015701Y006478D02*
X015937Y006478D01*
X015937Y006950D02*
X015701Y006950D01*
X016582Y005982D02*
X016582Y005746D01*
X017055Y005746D02*
X017055Y005982D01*
X016951Y006878D02*
X017187Y006878D01*
X017187Y007350D02*
X016951Y007350D01*
X016637Y004950D02*
X016401Y004950D01*
X016401Y004478D02*
X016637Y004478D01*
X016832Y011746D02*
X016832Y011982D01*
X017305Y011982D02*
X017305Y011746D01*
X015938Y012554D02*
X015938Y012591D01*
X015938Y012554D02*
X015300Y012554D01*
X015300Y012591D01*
X015300Y012909D02*
X015300Y013320D01*
X015300Y013637D02*
X015300Y013674D01*
X015938Y013674D01*
X015938Y013637D01*
X015938Y013320D02*
X015938Y013283D01*
X015938Y012946D02*
X015938Y012909D01*
X014337Y014478D02*
X014101Y014478D01*
X014101Y014950D02*
X014337Y014950D01*
X014087Y015278D02*
X013851Y015278D01*
X013851Y015750D02*
X014087Y015750D01*
X009405Y007932D02*
X009405Y007696D01*
X008932Y007696D02*
X008932Y007932D01*
X008487Y009128D02*
X008251Y009128D01*
X008251Y009600D02*
X008487Y009600D01*
X008305Y010246D02*
X008305Y010482D01*
X007832Y010482D02*
X007832Y010246D01*
X007037Y011278D02*
X006801Y011278D01*
X006801Y011750D02*
X007037Y011750D01*
X007037Y012178D02*
X006801Y012178D01*
X006801Y012650D02*
X007037Y012650D01*
X007782Y012646D02*
X007782Y012882D01*
X008255Y012882D02*
X008255Y012646D01*
X008255Y014046D02*
X008255Y014282D01*
X007782Y014282D02*
X007782Y014046D01*
X007782Y015296D02*
X007782Y015532D01*
X007405Y016271D02*
X007405Y016507D01*
X006932Y016507D02*
X006932Y016271D01*
X007832Y017396D02*
X007832Y017632D01*
X008305Y017632D02*
X008305Y017396D01*
X008255Y015532D02*
X008255Y015296D01*
X005787Y012600D02*
X005551Y012600D01*
X005551Y012128D02*
X005787Y012128D01*
X005787Y011850D02*
X005551Y011850D01*
X005551Y011378D02*
X005787Y011378D01*
X004855Y011896D02*
X004855Y012132D01*
X004382Y012132D02*
X004382Y011896D01*
X004182Y013296D02*
X004182Y013532D01*
X004655Y013532D02*
X004655Y013296D01*
X004587Y008900D02*
X004351Y008900D01*
X004351Y008428D02*
X004587Y008428D01*
X004801Y008250D02*
X005037Y008250D01*
X005037Y007778D02*
X004801Y007778D01*
X006151Y007778D02*
X006387Y007778D01*
X006387Y008250D02*
X006151Y008250D01*
X006551Y007000D02*
X006787Y007000D01*
X006787Y006528D02*
X006551Y006528D01*
X006551Y006200D02*
X006787Y006200D01*
X006787Y005728D02*
X006551Y005728D01*
X006551Y005400D02*
X006787Y005400D01*
X006787Y004928D02*
X006551Y004928D01*
X007801Y004928D02*
X008037Y004928D01*
X008037Y005400D02*
X007801Y005400D01*
X007801Y005728D02*
X008037Y005728D01*
X008037Y006200D02*
X007801Y006200D01*
X007801Y006528D02*
X008037Y006528D01*
X008037Y007000D02*
X007801Y007000D01*
X007737Y007778D02*
X007501Y007778D01*
X007501Y008250D02*
X007737Y008250D01*
D16*
X007253Y008780D02*
X007135Y008780D01*
X007253Y008780D02*
X007253Y009174D01*
X007253Y010355D02*
X007253Y010748D01*
X007135Y010748D01*
X007203Y013180D02*
X007085Y013180D01*
X007203Y013180D02*
X007203Y013574D01*
X007203Y014755D02*
X007203Y015148D01*
X007085Y015148D01*
X006058Y015838D02*
X005743Y015838D01*
X005743Y016074D01*
X005743Y016704D02*
X005743Y016940D01*
X006058Y016940D01*
X005353Y015148D02*
X005234Y015148D01*
X005234Y014755D01*
X005234Y013574D02*
X005234Y013180D01*
X005274Y013180D01*
X005274Y013574D01*
X005313Y013574D02*
X005313Y013180D01*
X005274Y013180D01*
X005313Y013180D02*
X005353Y013180D01*
X005353Y013574D01*
X005284Y010748D02*
X005403Y010748D01*
X005284Y010748D02*
X005284Y010355D01*
X005284Y009174D02*
X005284Y008780D01*
X005324Y008780D01*
X005324Y009174D01*
X005363Y009174D02*
X005363Y008780D01*
X005324Y008780D01*
X005363Y008780D02*
X005403Y008780D01*
X005403Y009174D01*
X005409Y007098D02*
X005094Y007098D01*
X004543Y007098D02*
X004228Y007098D01*
X004780Y005720D02*
X004782Y005732D01*
X004787Y005743D01*
X004796Y005752D01*
X004807Y005757D01*
X004819Y005759D01*
X004831Y005757D01*
X004842Y005752D01*
X004851Y005743D01*
X004856Y005732D01*
X004858Y005720D01*
X004856Y005708D01*
X004851Y005697D01*
X004842Y005688D01*
X004831Y005683D01*
X004819Y005681D01*
X004807Y005683D01*
X004796Y005688D01*
X004787Y005697D01*
X004782Y005708D01*
X004780Y005720D01*
X004543Y005130D02*
X004228Y005130D01*
X005094Y005130D02*
X005409Y005130D01*
X006394Y019684D02*
X008394Y019684D01*
X008392Y019687D02*
X008392Y019998D01*
X008396Y021332D02*
X008396Y021683D01*
X008394Y021684D02*
X006394Y021684D01*
X006389Y021683D02*
X006389Y021340D01*
X006392Y019998D02*
X006392Y019690D01*
X003544Y021914D02*
X003544Y037714D01*
X017544Y037714D01*
X017544Y021914D01*
X003544Y021914D01*
X005044Y025714D02*
X006444Y025714D01*
X016044Y025714D01*
X016044Y036314D01*
X005044Y036314D01*
X005044Y025714D01*
X015229Y009964D02*
X015229Y008664D01*
X017809Y008664D01*
X017809Y009964D01*
X015229Y009964D01*
D17*
X016199Y011094D02*
X016249Y011094D01*
X016224Y011094D02*
X016224Y011244D01*
X016199Y011244D02*
X016249Y011244D01*
X016297Y011219D02*
X016297Y011119D01*
X016322Y011094D01*
X016372Y011094D01*
X016397Y011119D01*
X016444Y011094D02*
X016544Y011094D01*
X016494Y011094D02*
X016494Y011244D01*
X016444Y011194D01*
X016397Y011219D02*
X016372Y011244D01*
X016322Y011244D01*
X016297Y011219D01*
X016589Y011569D02*
X016739Y011569D01*
X016739Y011669D01*
X016739Y011716D02*
X016739Y011816D01*
X016739Y011766D02*
X016589Y011766D01*
X016639Y011716D01*
X017464Y011691D02*
X017489Y011716D01*
X017589Y011616D01*
X017614Y011641D01*
X017614Y011691D01*
X017589Y011716D01*
X017489Y011716D01*
X017464Y011691D02*
X017464Y011641D01*
X017489Y011616D01*
X017589Y011616D01*
X017614Y011569D02*
X017614Y011469D01*
X017614Y011519D02*
X017464Y011519D01*
X017514Y011469D01*
X017514Y011764D02*
X017589Y011764D01*
X017614Y011789D01*
X017614Y011864D01*
X017514Y011864D01*
X017539Y011911D02*
X017539Y012011D01*
X017464Y012011D02*
X017614Y012011D01*
X017614Y011911D02*
X017464Y011911D01*
X016971Y007594D02*
X016921Y007544D01*
X016874Y007569D02*
X016849Y007594D01*
X016799Y007594D01*
X016774Y007569D01*
X016774Y007469D01*
X016799Y007444D01*
X016849Y007444D01*
X016874Y007469D01*
X016921Y007444D02*
X017021Y007444D01*
X016971Y007444D02*
X016971Y007594D01*
X016993Y006719D02*
X017043Y006719D01*
X017068Y006694D01*
X016968Y006594D01*
X016993Y006569D01*
X017043Y006569D01*
X017068Y006594D01*
X017068Y006694D01*
X017116Y006669D02*
X017191Y006669D01*
X017216Y006644D01*
X017216Y006569D01*
X017116Y006569D02*
X017116Y006669D01*
X016993Y006719D02*
X016968Y006694D01*
X016968Y006594D01*
X016921Y006594D02*
X016896Y006569D01*
X016846Y006569D01*
X016821Y006594D01*
X016921Y006694D01*
X016921Y006594D01*
X016821Y006594D02*
X016821Y006694D01*
X016846Y006719D01*
X016896Y006719D01*
X016921Y006694D01*
X016774Y006569D02*
X016674Y006569D01*
X016724Y006569D02*
X016724Y006719D01*
X016674Y006669D01*
X016424Y006222D02*
X016374Y006172D01*
X016374Y006197D02*
X016374Y006122D01*
X016424Y006122D02*
X016274Y006122D01*
X016274Y006197D01*
X016299Y006222D01*
X016349Y006222D01*
X016374Y006197D01*
X016399Y006075D02*
X016424Y006049D01*
X016424Y005999D01*
X016399Y005974D01*
X016299Y006075D01*
X016399Y006075D01*
X016299Y006075D02*
X016274Y006049D01*
X016274Y005999D01*
X016299Y005974D01*
X016399Y005974D01*
X016399Y005927D02*
X016424Y005902D01*
X016424Y005852D01*
X016399Y005827D01*
X016374Y005827D01*
X016349Y005852D01*
X016349Y005902D01*
X016374Y005927D01*
X016399Y005927D01*
X016349Y005902D02*
X016324Y005927D01*
X016299Y005927D01*
X016274Y005902D01*
X016274Y005852D01*
X016299Y005827D01*
X016324Y005827D01*
X016349Y005852D01*
X016349Y005780D02*
X016399Y005780D01*
X016424Y005755D01*
X016424Y005705D01*
X016399Y005680D01*
X016349Y005680D02*
X016324Y005730D01*
X016324Y005755D01*
X016349Y005780D01*
X016274Y005780D02*
X016274Y005680D01*
X016349Y005680D01*
X016299Y005194D02*
X016224Y005194D01*
X016224Y005044D01*
X016224Y005094D02*
X016299Y005094D01*
X016324Y005119D01*
X016324Y005169D01*
X016299Y005194D01*
X016371Y005144D02*
X016421Y005194D01*
X016421Y005044D01*
X016371Y005044D02*
X016471Y005044D01*
X016518Y005069D02*
X016618Y005169D01*
X016618Y005069D01*
X016593Y005044D01*
X016543Y005044D01*
X016518Y005069D01*
X016518Y005169D01*
X016543Y005194D01*
X016593Y005194D01*
X016618Y005169D01*
X016324Y005044D02*
X016274Y005094D01*
X015914Y005091D02*
X015889Y005066D01*
X015789Y005166D01*
X015889Y005166D01*
X015914Y005141D01*
X015914Y005091D01*
X015889Y005066D02*
X015789Y005066D01*
X015764Y005091D01*
X015764Y005141D01*
X015789Y005166D01*
X015764Y005214D02*
X015914Y005214D01*
X015864Y005214D02*
X015814Y005289D01*
X015864Y005214D02*
X015914Y005289D01*
X015914Y005019D02*
X015914Y004919D01*
X015914Y004969D02*
X015764Y004969D01*
X015814Y004919D01*
X016174Y004319D02*
X016174Y004169D01*
X016124Y004169D02*
X016224Y004169D01*
X016271Y004194D02*
X016371Y004294D01*
X016371Y004194D01*
X016346Y004169D01*
X016296Y004169D01*
X016271Y004194D01*
X016271Y004294D01*
X016296Y004319D01*
X016346Y004319D01*
X016371Y004294D01*
X016418Y004319D02*
X016418Y004169D01*
X016418Y004219D02*
X016493Y004269D01*
X016418Y004219D02*
X016493Y004169D01*
X016174Y004319D02*
X016124Y004269D01*
X017149Y005727D02*
X017149Y005802D01*
X017174Y005827D01*
X017224Y005827D01*
X017249Y005802D01*
X017249Y005727D01*
X017299Y005727D02*
X017149Y005727D01*
X017249Y005777D02*
X017299Y005827D01*
X017299Y005874D02*
X017299Y005975D01*
X017299Y006022D02*
X017274Y006022D01*
X017174Y006122D01*
X017149Y006122D01*
X017149Y006022D01*
X017149Y005924D02*
X017299Y005924D01*
X017199Y005874D02*
X017149Y005924D01*
X016076Y006259D02*
X016051Y006234D01*
X016001Y006234D01*
X015976Y006259D01*
X015929Y006259D02*
X015904Y006234D01*
X015854Y006234D01*
X015829Y006259D01*
X015829Y006359D01*
X015854Y006384D01*
X015904Y006384D01*
X015929Y006359D01*
X015976Y006384D02*
X015976Y006309D01*
X016026Y006334D01*
X016051Y006334D01*
X016076Y006309D01*
X016076Y006259D01*
X016076Y006384D02*
X015976Y006384D01*
X015954Y007109D02*
X015929Y007134D01*
X016029Y007234D01*
X016029Y007134D01*
X016004Y007109D01*
X015954Y007109D01*
X015929Y007134D02*
X015929Y007234D01*
X015954Y007259D01*
X016004Y007259D01*
X016029Y007234D01*
X016076Y007209D02*
X016151Y007209D01*
X016176Y007184D01*
X016176Y007109D01*
X016076Y007109D02*
X016076Y007209D01*
X015882Y007234D02*
X015782Y007134D01*
X015807Y007109D01*
X015857Y007109D01*
X015882Y007134D01*
X015882Y007234D01*
X015857Y007259D01*
X015807Y007259D01*
X015782Y007234D01*
X015782Y007134D01*
X015734Y007109D02*
X015634Y007109D01*
X015684Y007109D02*
X015684Y007259D01*
X015634Y007209D01*
X014914Y005266D02*
X015014Y005166D01*
X015039Y005166D01*
X015039Y005119D02*
X014989Y005069D01*
X014989Y005094D02*
X014989Y005019D01*
X015039Y005019D02*
X014889Y005019D01*
X014889Y005094D01*
X014914Y005119D01*
X014964Y005119D01*
X014989Y005094D01*
X014889Y005166D02*
X014889Y005266D01*
X014914Y005266D01*
X009649Y007677D02*
X009499Y007677D01*
X009499Y007752D01*
X009524Y007777D01*
X009574Y007777D01*
X009599Y007752D01*
X009599Y007677D01*
X009599Y007727D02*
X009649Y007777D01*
X009649Y007824D02*
X009649Y007925D01*
X009649Y007874D02*
X009499Y007874D01*
X009549Y007824D01*
X009524Y007972D02*
X009499Y007997D01*
X009499Y008047D01*
X009524Y008072D01*
X009549Y008072D01*
X009574Y008047D01*
X009599Y008072D01*
X009624Y008072D01*
X009649Y008047D01*
X009649Y007997D01*
X009624Y007972D01*
X009574Y008022D02*
X009574Y008047D01*
X008774Y008024D02*
X008774Y007974D01*
X008749Y007949D01*
X008649Y008049D01*
X008749Y008049D01*
X008774Y008024D01*
X008774Y008096D02*
X008624Y008096D01*
X008649Y008049D02*
X008624Y008024D01*
X008624Y007974D01*
X008649Y007949D01*
X008749Y007949D01*
X008774Y007902D02*
X008774Y007802D01*
X008774Y007852D02*
X008624Y007852D01*
X008674Y007802D01*
X008724Y008096D02*
X008674Y008171D01*
X008724Y008096D02*
X008774Y008171D01*
X008343Y008819D02*
X008268Y008869D01*
X008343Y008919D01*
X008268Y008969D02*
X008268Y008819D01*
X008221Y008844D02*
X008196Y008819D01*
X008146Y008819D01*
X008121Y008844D01*
X008221Y008944D01*
X008221Y008844D01*
X008121Y008844D02*
X008121Y008944D01*
X008146Y008969D01*
X008196Y008969D01*
X008221Y008944D01*
X008074Y008819D02*
X007974Y008819D01*
X008024Y008819D02*
X008024Y008969D01*
X007974Y008919D01*
X007901Y008559D02*
X007901Y008409D01*
X007901Y008459D02*
X007976Y008509D01*
X007901Y008459D02*
X007976Y008409D01*
X007854Y008434D02*
X007829Y008409D01*
X007779Y008409D01*
X007754Y008434D01*
X007854Y008534D01*
X007854Y008434D01*
X007854Y008534D02*
X007829Y008559D01*
X007779Y008559D01*
X007754Y008534D01*
X007754Y008434D01*
X007706Y008409D02*
X007606Y008409D01*
X007656Y008409D02*
X007656Y008559D01*
X007606Y008509D01*
X007629Y007684D02*
X007704Y007684D01*
X007729Y007659D01*
X007729Y007609D01*
X007704Y007584D01*
X007629Y007584D01*
X007629Y007534D02*
X007629Y007684D01*
X007679Y007584D02*
X007729Y007534D01*
X007776Y007559D02*
X007801Y007534D01*
X007851Y007534D01*
X007876Y007559D01*
X007876Y007584D01*
X007851Y007609D01*
X007776Y007609D01*
X007776Y007559D01*
X007776Y007609D02*
X007826Y007659D01*
X007876Y007684D01*
X007907Y007309D02*
X007957Y007309D01*
X007982Y007284D01*
X007882Y007184D01*
X007907Y007159D01*
X007957Y007159D01*
X007982Y007184D01*
X007982Y007284D01*
X008029Y007284D02*
X008029Y007184D01*
X008129Y007284D01*
X008129Y007184D01*
X008104Y007159D01*
X008054Y007159D01*
X008029Y007184D01*
X008029Y007284D02*
X008054Y007309D01*
X008104Y007309D01*
X008129Y007284D01*
X008176Y007259D02*
X008251Y007259D01*
X008276Y007234D01*
X008276Y007159D01*
X008176Y007159D02*
X008176Y007259D01*
X007907Y007309D02*
X007882Y007284D01*
X007882Y007184D01*
X007834Y007159D02*
X007734Y007159D01*
X007784Y007159D02*
X007784Y007309D01*
X007734Y007259D01*
X007784Y006509D02*
X007784Y006359D01*
X007734Y006359D02*
X007834Y006359D01*
X007882Y006384D02*
X007982Y006484D01*
X007982Y006384D01*
X007957Y006359D01*
X007907Y006359D01*
X007882Y006384D01*
X007882Y006484D01*
X007907Y006509D01*
X007957Y006509D01*
X007982Y006484D01*
X008029Y006484D02*
X008054Y006509D01*
X008104Y006509D01*
X008129Y006484D01*
X008029Y006384D01*
X008054Y006359D01*
X008104Y006359D01*
X008129Y006384D01*
X008129Y006484D01*
X008176Y006459D02*
X008251Y006459D01*
X008276Y006434D01*
X008276Y006359D01*
X008176Y006359D02*
X008176Y006459D01*
X008176Y006434D02*
X008126Y006409D01*
X008076Y006359D01*
X008151Y006359D01*
X008176Y006334D01*
X008176Y006309D01*
X008151Y006284D01*
X008101Y006284D01*
X008076Y006309D01*
X008076Y006359D01*
X008029Y006384D02*
X008029Y006484D01*
X008004Y006434D02*
X008029Y006409D01*
X008004Y006434D02*
X007954Y006434D01*
X007929Y006409D01*
X007929Y006309D01*
X007954Y006284D01*
X008004Y006284D01*
X008029Y006309D01*
X007784Y006509D02*
X007734Y006459D01*
X007784Y005709D02*
X007784Y005559D01*
X007734Y005559D02*
X007834Y005559D01*
X007882Y005584D02*
X007982Y005684D01*
X007982Y005584D01*
X007957Y005559D01*
X007907Y005559D01*
X007882Y005584D01*
X007882Y005684D01*
X007907Y005709D01*
X007957Y005709D01*
X007982Y005684D01*
X008029Y005684D02*
X008054Y005709D01*
X008104Y005709D01*
X008129Y005684D01*
X008029Y005584D01*
X008054Y005559D01*
X008104Y005559D01*
X008129Y005584D01*
X008129Y005684D01*
X008176Y005659D02*
X008251Y005659D01*
X008276Y005634D01*
X008276Y005559D01*
X008176Y005559D02*
X008176Y005659D01*
X008151Y005634D02*
X008176Y005609D01*
X008176Y005584D01*
X008151Y005559D01*
X008101Y005559D01*
X008076Y005584D01*
X008076Y005609D01*
X008101Y005634D01*
X008151Y005634D01*
X008151Y005559D02*
X008176Y005534D01*
X008176Y005509D01*
X008151Y005484D01*
X008101Y005484D01*
X008076Y005509D01*
X008076Y005534D01*
X008101Y005559D01*
X008029Y005584D02*
X008029Y005684D01*
X007979Y005634D02*
X007979Y005484D01*
X007929Y005484D02*
X008029Y005484D01*
X007929Y005584D02*
X007979Y005634D01*
X007882Y005609D02*
X007857Y005634D01*
X007807Y005634D01*
X007782Y005609D01*
X007782Y005509D01*
X007807Y005484D01*
X007857Y005484D01*
X007882Y005509D01*
X007734Y005659D02*
X007784Y005709D01*
X007807Y004834D02*
X007782Y004809D01*
X007782Y004709D01*
X007807Y004684D01*
X007857Y004684D01*
X007882Y004709D01*
X007929Y004684D02*
X008029Y004684D01*
X007979Y004684D02*
X007979Y004834D01*
X007929Y004784D01*
X007882Y004809D02*
X007857Y004834D01*
X007807Y004834D01*
X008076Y004809D02*
X008076Y004784D01*
X008101Y004759D01*
X008176Y004759D01*
X008176Y004709D02*
X008176Y004809D01*
X008151Y004834D01*
X008101Y004834D01*
X008076Y004809D01*
X008076Y004709D02*
X008101Y004684D01*
X008151Y004684D01*
X008176Y004709D01*
X006643Y004719D02*
X006568Y004669D01*
X006643Y004619D01*
X006568Y004619D02*
X006568Y004769D01*
X006521Y004744D02*
X006421Y004644D01*
X006446Y004619D01*
X006496Y004619D01*
X006521Y004644D01*
X006521Y004744D01*
X006496Y004769D01*
X006446Y004769D01*
X006421Y004744D01*
X006421Y004644D01*
X006374Y004619D02*
X006274Y004619D01*
X006324Y004619D02*
X006324Y004769D01*
X006274Y004719D01*
X006274Y005419D02*
X006374Y005419D01*
X006324Y005419D02*
X006324Y005569D01*
X006274Y005519D01*
X006374Y005494D02*
X006374Y005644D01*
X006449Y005644D01*
X006474Y005619D01*
X006474Y005569D01*
X006449Y005544D01*
X006374Y005544D01*
X006421Y005544D02*
X006446Y005569D01*
X006496Y005569D01*
X006521Y005544D01*
X006421Y005444D01*
X006446Y005419D01*
X006496Y005419D01*
X006521Y005444D01*
X006521Y005544D01*
X006521Y005519D02*
X006546Y005494D01*
X006596Y005494D01*
X006621Y005519D01*
X006621Y005544D01*
X006596Y005569D01*
X006571Y005569D01*
X006568Y005569D02*
X006568Y005419D01*
X006568Y005469D02*
X006643Y005519D01*
X006596Y005569D02*
X006621Y005594D01*
X006621Y005619D01*
X006596Y005644D01*
X006546Y005644D01*
X006521Y005619D01*
X006424Y005544D02*
X006474Y005494D01*
X006421Y005444D02*
X006421Y005544D01*
X006568Y005469D02*
X006643Y005419D01*
X006643Y006219D02*
X006568Y006269D01*
X006643Y006319D01*
X006596Y006294D02*
X006596Y006444D01*
X006521Y006369D01*
X006621Y006369D01*
X006568Y006369D02*
X006568Y006219D01*
X006521Y006244D02*
X006496Y006219D01*
X006446Y006219D01*
X006421Y006244D01*
X006521Y006344D01*
X006521Y006244D01*
X006474Y006294D02*
X006424Y006344D01*
X006421Y006344D02*
X006446Y006369D01*
X006496Y006369D01*
X006521Y006344D01*
X006474Y006369D02*
X006449Y006344D01*
X006374Y006344D01*
X006421Y006344D02*
X006421Y006244D01*
X006374Y006219D02*
X006274Y006219D01*
X006324Y006219D02*
X006324Y006369D01*
X006274Y006319D01*
X006374Y006294D02*
X006374Y006444D01*
X006449Y006444D01*
X006474Y006419D01*
X006474Y006369D01*
X006474Y007094D02*
X006424Y007144D01*
X006449Y007144D02*
X006374Y007144D01*
X006374Y007094D02*
X006374Y007244D01*
X006449Y007244D01*
X006474Y007219D01*
X006474Y007169D01*
X006449Y007144D01*
X006521Y007119D02*
X006546Y007094D01*
X006596Y007094D01*
X006621Y007119D01*
X006621Y007169D01*
X006596Y007194D01*
X006571Y007194D01*
X006521Y007169D01*
X006521Y007244D01*
X006621Y007244D01*
X006316Y007469D02*
X006316Y007619D01*
X006416Y007619D01*
X006366Y007544D02*
X006316Y007544D01*
X006268Y007544D02*
X006268Y007469D01*
X006268Y007544D02*
X006243Y007569D01*
X006168Y007569D01*
X006168Y007469D01*
X006121Y007494D02*
X006096Y007469D01*
X006046Y007469D01*
X006021Y007494D01*
X006121Y007594D01*
X006121Y007494D01*
X006021Y007494D02*
X006021Y007594D01*
X006046Y007619D01*
X006096Y007619D01*
X006121Y007594D01*
X005974Y007469D02*
X005874Y007469D01*
X005924Y007469D02*
X005924Y007619D01*
X005874Y007569D01*
X005824Y006872D02*
X005824Y006772D01*
X005824Y006822D02*
X005674Y006822D01*
X005724Y006772D01*
X005674Y006725D02*
X005799Y006725D01*
X005824Y006699D01*
X005824Y006649D01*
X005799Y006624D01*
X005674Y006624D01*
X005151Y007534D02*
X005176Y007559D01*
X005176Y007659D01*
X005151Y007684D01*
X005101Y007684D01*
X005076Y007659D01*
X005076Y007634D01*
X005101Y007609D01*
X005176Y007609D01*
X005151Y007534D02*
X005101Y007534D01*
X005076Y007559D01*
X005029Y007559D02*
X005004Y007534D01*
X004954Y007534D01*
X004929Y007559D01*
X004929Y007659D01*
X004954Y007684D01*
X005004Y007684D01*
X005029Y007659D01*
X004616Y008119D02*
X004616Y008194D01*
X004591Y008219D01*
X004516Y008219D01*
X004516Y008119D01*
X004468Y008144D02*
X004443Y008119D01*
X004393Y008119D01*
X004368Y008144D01*
X004468Y008244D01*
X004468Y008144D01*
X004368Y008144D02*
X004368Y008244D01*
X004393Y008269D01*
X004443Y008269D01*
X004468Y008244D01*
X004321Y008244D02*
X004221Y008144D01*
X004246Y008119D01*
X004296Y008119D01*
X004321Y008144D01*
X004321Y008244D01*
X004296Y008269D01*
X004246Y008269D01*
X004221Y008244D01*
X004221Y008144D01*
X004174Y008119D02*
X004074Y008119D01*
X004124Y008119D02*
X004124Y008269D01*
X004074Y008219D01*
X004587Y008484D02*
X004687Y008484D01*
X004734Y008434D02*
X004734Y008409D01*
X004734Y008434D02*
X004834Y008534D01*
X004834Y008559D01*
X004734Y008559D01*
X004662Y008559D02*
X004587Y008484D01*
X004662Y008409D02*
X004662Y008559D01*
X004882Y008534D02*
X004907Y008559D01*
X004957Y008559D01*
X004982Y008534D01*
X004882Y008434D01*
X004907Y008409D01*
X004957Y008409D01*
X004982Y008434D01*
X004982Y008534D01*
X005029Y008509D02*
X005104Y008509D01*
X005129Y008484D01*
X005129Y008409D01*
X005176Y008409D02*
X005176Y008559D01*
X005276Y008559D01*
X005226Y008484D02*
X005176Y008484D01*
X005029Y008509D02*
X005029Y008409D01*
X004882Y008434D02*
X004882Y008534D01*
X004468Y008994D02*
X004468Y009019D01*
X004568Y009119D01*
X004568Y009144D01*
X004468Y009144D01*
X004371Y009144D02*
X004371Y008994D01*
X004321Y008994D02*
X004421Y008994D01*
X004321Y009094D02*
X004371Y009144D01*
X004274Y009119D02*
X004249Y009144D01*
X004199Y009144D01*
X004174Y009119D01*
X004174Y009019D01*
X004199Y008994D01*
X004249Y008994D01*
X004274Y009019D01*
X005274Y011069D02*
X005374Y011069D01*
X005324Y011069D02*
X005324Y011219D01*
X005274Y011169D01*
X005421Y011194D02*
X005446Y011219D01*
X005496Y011219D01*
X005521Y011194D01*
X005421Y011094D01*
X005446Y011069D01*
X005496Y011069D01*
X005521Y011094D01*
X005521Y011194D01*
X005568Y011219D02*
X005568Y011069D01*
X005568Y011119D02*
X005643Y011069D01*
X005568Y011119D02*
X005643Y011169D01*
X005421Y011194D02*
X005421Y011094D01*
X005557Y011884D02*
X005607Y011884D01*
X005632Y011909D01*
X005596Y011944D02*
X005546Y011944D01*
X005521Y011969D01*
X005521Y011994D01*
X005546Y012019D01*
X005596Y012019D01*
X005621Y011994D01*
X005621Y011969D01*
X005596Y011944D01*
X005557Y011884D02*
X005532Y011909D01*
X005532Y012009D01*
X005557Y012034D01*
X005607Y012034D01*
X005632Y012009D01*
X005621Y012044D02*
X005596Y012019D01*
X005621Y012044D02*
X005621Y012069D01*
X005596Y012094D01*
X005546Y012094D01*
X005521Y012069D01*
X005521Y012044D01*
X005546Y012019D01*
X005474Y012019D02*
X005449Y011994D01*
X005374Y011994D01*
X005424Y011994D02*
X005474Y011944D01*
X005474Y012019D02*
X005474Y012069D01*
X005449Y012094D01*
X005374Y012094D01*
X005374Y011944D01*
X005679Y011984D02*
X005729Y012034D01*
X005729Y011884D01*
X005679Y011884D02*
X005779Y011884D01*
X005826Y011959D02*
X005926Y011959D01*
X005901Y011884D02*
X005901Y012034D01*
X005826Y011959D01*
X005779Y012759D02*
X005779Y012859D01*
X005854Y012859D01*
X005879Y012834D01*
X005879Y012759D01*
X005926Y012759D02*
X005926Y012909D01*
X006026Y012909D01*
X005976Y012834D02*
X005926Y012834D01*
X005732Y012784D02*
X005707Y012759D01*
X005657Y012759D01*
X005632Y012784D01*
X005732Y012884D01*
X005732Y012784D01*
X005732Y012884D02*
X005707Y012909D01*
X005657Y012909D01*
X005632Y012884D01*
X005632Y012784D01*
X005584Y012759D02*
X005484Y012759D01*
X005534Y012759D02*
X005534Y012909D01*
X005484Y012859D01*
X004964Y013019D02*
X004964Y013119D01*
X004964Y013069D02*
X004814Y013069D01*
X004864Y013019D01*
X004839Y013166D02*
X004814Y013191D01*
X004814Y013241D01*
X004839Y013266D01*
X004939Y013166D01*
X004964Y013191D01*
X004964Y013241D01*
X004939Y013266D01*
X004839Y013266D01*
X004839Y013314D02*
X004814Y013339D01*
X004814Y013389D01*
X004839Y013414D01*
X004939Y013314D01*
X004964Y013339D01*
X004964Y013389D01*
X004939Y013414D01*
X004839Y013414D01*
X004864Y013461D02*
X004864Y013536D01*
X004889Y013561D01*
X004964Y013561D01*
X004964Y013461D02*
X004864Y013461D01*
X004839Y013314D02*
X004939Y013314D01*
X004939Y013166D02*
X004839Y013166D01*
X004974Y012272D02*
X004999Y012272D01*
X005024Y012247D01*
X005049Y012272D01*
X005074Y012272D01*
X005099Y012247D01*
X005099Y012197D01*
X005074Y012172D01*
X005099Y012125D02*
X005099Y012024D01*
X005099Y012074D02*
X004949Y012074D01*
X004999Y012024D01*
X004974Y011977D02*
X004949Y011952D01*
X004949Y011902D01*
X004974Y011877D01*
X005074Y011877D01*
X005099Y011902D01*
X005099Y011952D01*
X005074Y011977D01*
X004974Y012172D02*
X004949Y012197D01*
X004949Y012247D01*
X004974Y012272D01*
X005024Y012247D02*
X005024Y012222D01*
X004224Y012225D02*
X004149Y012225D01*
X004124Y012199D01*
X004124Y012124D01*
X004224Y012124D01*
X004199Y012077D02*
X004224Y012052D01*
X004224Y012002D01*
X004199Y011977D01*
X004099Y012077D01*
X004199Y012077D01*
X004199Y011977D02*
X004099Y011977D01*
X004074Y012002D01*
X004074Y012052D01*
X004099Y012077D01*
X004099Y011930D02*
X004199Y011830D01*
X004224Y011830D01*
X004224Y011758D02*
X004074Y011758D01*
X004149Y011682D01*
X004149Y011783D01*
X004074Y011830D02*
X004074Y011930D01*
X004099Y011930D01*
X004074Y012272D02*
X004074Y012372D01*
X004149Y012322D02*
X004149Y012272D01*
X004224Y012272D02*
X004074Y012272D01*
X004064Y013119D02*
X003964Y013119D01*
X003939Y013144D01*
X003939Y013194D01*
X003964Y013219D01*
X003989Y013266D02*
X003939Y013316D01*
X004089Y013316D01*
X004089Y013266D02*
X004089Y013366D01*
X004064Y013414D02*
X004089Y013439D01*
X004089Y013489D01*
X004064Y013514D01*
X004014Y013514D01*
X003989Y013489D01*
X003989Y013464D01*
X004014Y013414D01*
X003939Y013414D01*
X003939Y013514D01*
X004064Y013219D02*
X004089Y013194D01*
X004089Y013144D01*
X004064Y013119D01*
X005189Y016069D02*
X005164Y016094D01*
X005164Y016144D01*
X005189Y016169D01*
X005289Y016169D01*
X005314Y016144D01*
X005314Y016094D01*
X005289Y016069D01*
X005189Y016069D01*
X005264Y016119D02*
X005314Y016169D01*
X005314Y016216D02*
X005214Y016316D01*
X005189Y016316D01*
X005164Y016291D01*
X005164Y016241D01*
X005189Y016216D01*
X005314Y016216D02*
X005314Y016316D01*
X005939Y016314D02*
X005964Y016289D01*
X005989Y016289D01*
X006014Y016314D01*
X006014Y016364D01*
X006039Y016389D01*
X006064Y016389D01*
X006089Y016364D01*
X006089Y016314D01*
X006064Y016289D01*
X006064Y016241D02*
X005964Y016241D01*
X005939Y016216D01*
X005939Y016166D01*
X005964Y016141D01*
X006064Y016141D01*
X006089Y016166D01*
X006089Y016216D01*
X006064Y016241D01*
X005939Y016314D02*
X005939Y016364D01*
X005964Y016389D01*
X005939Y016436D02*
X005939Y016536D01*
X005939Y016583D02*
X006089Y016583D01*
X006089Y016683D01*
X006014Y016633D02*
X006014Y016583D01*
X005939Y016583D02*
X005939Y016683D01*
X005939Y016731D02*
X005939Y016831D01*
X005939Y016781D02*
X006089Y016781D01*
X006014Y016878D02*
X006014Y016978D01*
X006089Y017025D02*
X005939Y017025D01*
X006089Y017125D01*
X005939Y017125D01*
X005964Y017173D02*
X006064Y017173D01*
X006089Y017198D01*
X006089Y017248D01*
X006064Y017273D01*
X006089Y017320D02*
X005939Y017320D01*
X005964Y017273D02*
X005939Y017248D01*
X005939Y017198D01*
X005964Y017173D01*
X006014Y017320D02*
X006014Y017420D01*
X006014Y017467D02*
X006014Y017567D01*
X005989Y017567D02*
X006089Y017567D01*
X006089Y017615D02*
X005939Y017615D01*
X006089Y017715D01*
X005939Y017715D01*
X005939Y017762D02*
X006089Y017862D01*
X005939Y017862D01*
X005939Y017909D02*
X006089Y017909D01*
X006089Y018009D01*
X006089Y018057D02*
X006089Y018157D01*
X006064Y018204D02*
X006089Y018229D01*
X006089Y018279D01*
X006064Y018304D01*
X006039Y018304D01*
X006014Y018279D01*
X006014Y018229D01*
X005989Y018204D01*
X005964Y018204D01*
X005939Y018229D01*
X005939Y018279D01*
X005964Y018304D01*
X005939Y018351D02*
X005989Y018401D01*
X005939Y018451D01*
X006089Y018451D01*
X006089Y018499D02*
X006089Y018574D01*
X006064Y018599D01*
X005964Y018599D01*
X005939Y018574D01*
X005939Y018499D01*
X006089Y018499D01*
X006089Y018351D02*
X005939Y018351D01*
X005939Y018057D02*
X006089Y018057D01*
X006014Y017959D02*
X006014Y017909D01*
X005939Y017909D02*
X005939Y018009D01*
X005939Y017762D02*
X006089Y017762D01*
X005989Y017567D02*
X005939Y017517D01*
X005989Y017467D01*
X006089Y017467D01*
X006089Y017420D02*
X005939Y017420D01*
X006014Y016486D02*
X006014Y016436D01*
X006089Y016436D02*
X005939Y016436D01*
X005939Y016094D02*
X006089Y016094D01*
X006089Y015994D02*
X005939Y015994D01*
X005989Y016044D01*
X005939Y016094D01*
X006624Y016427D02*
X006774Y016427D01*
X006774Y016377D02*
X006774Y016477D01*
X006749Y016524D02*
X006649Y016624D01*
X006749Y016624D01*
X006774Y016599D01*
X006774Y016549D01*
X006749Y016524D01*
X006649Y016524D01*
X006624Y016549D01*
X006624Y016599D01*
X006649Y016624D01*
X006624Y016671D02*
X006774Y016671D01*
X006724Y016671D02*
X006674Y016746D01*
X006724Y016671D02*
X006774Y016746D01*
X006624Y016427D02*
X006674Y016377D01*
X007499Y016327D02*
X007524Y016352D01*
X007574Y016352D01*
X007599Y016327D01*
X007599Y016252D01*
X007649Y016252D02*
X007499Y016252D01*
X007499Y016327D01*
X007549Y016399D02*
X007499Y016449D01*
X007649Y016449D01*
X007649Y016399D02*
X007649Y016500D01*
X007624Y016547D02*
X007649Y016572D01*
X007649Y016622D01*
X007624Y016647D01*
X007524Y016647D01*
X007499Y016622D01*
X007499Y016572D01*
X007524Y016547D01*
X007549Y016547D01*
X007574Y016572D01*
X007574Y016647D01*
X007649Y016352D02*
X007599Y016302D01*
X007589Y015514D02*
X007564Y015514D01*
X007539Y015489D01*
X007539Y015439D01*
X007564Y015414D01*
X007539Y015316D02*
X007689Y015316D01*
X007689Y015266D02*
X007689Y015366D01*
X007689Y015414D02*
X007589Y015514D01*
X007689Y015514D02*
X007689Y015414D01*
X007589Y015266D02*
X007539Y015316D01*
X007564Y015219D02*
X007614Y015219D01*
X007639Y015194D01*
X007639Y015119D01*
X007689Y015119D02*
X007539Y015119D01*
X007539Y015194D01*
X007564Y015219D01*
X007639Y015169D02*
X007689Y015219D01*
X007624Y014522D02*
X007549Y014522D01*
X007524Y014497D01*
X007524Y014422D01*
X007624Y014422D01*
X007599Y014375D02*
X007624Y014349D01*
X007624Y014299D01*
X007599Y014274D01*
X007499Y014375D01*
X007599Y014375D01*
X007499Y014375D02*
X007474Y014349D01*
X007474Y014299D01*
X007499Y014274D01*
X007599Y014274D01*
X007599Y014227D02*
X007624Y014202D01*
X007624Y014152D01*
X007599Y014127D01*
X007499Y014227D01*
X007599Y014227D01*
X007599Y014127D02*
X007499Y014127D01*
X007474Y014152D01*
X007474Y014202D01*
X007499Y014227D01*
X007624Y014080D02*
X007624Y013980D01*
X007624Y014030D02*
X007474Y014030D01*
X007524Y013980D01*
X007564Y012864D02*
X007664Y012764D01*
X007689Y012789D01*
X007689Y012839D01*
X007664Y012864D01*
X007564Y012864D01*
X007539Y012839D01*
X007539Y012789D01*
X007564Y012764D01*
X007664Y012764D01*
X007689Y012716D02*
X007689Y012616D01*
X007689Y012666D02*
X007539Y012666D01*
X007589Y012616D01*
X007564Y012569D02*
X007539Y012544D01*
X007539Y012494D01*
X007564Y012469D01*
X007664Y012469D01*
X007689Y012494D01*
X007689Y012544D01*
X007664Y012569D01*
X007276Y012009D02*
X007201Y011959D01*
X007276Y011909D01*
X007201Y011909D02*
X007201Y012059D01*
X007154Y012034D02*
X007054Y011934D01*
X007079Y011909D01*
X007129Y011909D01*
X007154Y011934D01*
X007154Y012034D01*
X007129Y012059D01*
X007079Y012059D01*
X007054Y012034D01*
X007054Y011934D01*
X007006Y011909D02*
X006906Y011909D01*
X006893Y011869D02*
X006818Y011919D01*
X006893Y011969D01*
X006906Y012009D02*
X006956Y012059D01*
X006956Y011909D01*
X006818Y011869D02*
X006818Y012019D01*
X006771Y011994D02*
X006671Y011894D01*
X006696Y011869D01*
X006746Y011869D01*
X006771Y011894D01*
X006771Y011994D01*
X006746Y012019D01*
X006696Y012019D01*
X006671Y011994D01*
X006671Y011894D01*
X006624Y011869D02*
X006524Y011869D01*
X006574Y011869D02*
X006574Y012019D01*
X006524Y011969D01*
X006624Y012744D02*
X006624Y012894D01*
X006699Y012894D01*
X006724Y012869D01*
X006724Y012819D01*
X006699Y012794D01*
X006624Y012794D01*
X006674Y012794D02*
X006724Y012744D01*
X006771Y012744D02*
X006871Y012744D01*
X006918Y012744D02*
X007018Y012744D01*
X006968Y012744D02*
X006968Y012894D01*
X006918Y012844D01*
X006821Y012894D02*
X006821Y012744D01*
X006771Y012844D02*
X006821Y012894D01*
X006929Y011184D02*
X007004Y011184D01*
X007029Y011159D01*
X007029Y011109D01*
X007004Y011084D01*
X006929Y011084D01*
X006929Y011034D02*
X006929Y011184D01*
X006979Y011084D02*
X007029Y011034D01*
X007076Y011059D02*
X007101Y011034D01*
X007151Y011034D01*
X007176Y011059D01*
X007176Y011159D01*
X007151Y011184D01*
X007101Y011184D01*
X007076Y011159D01*
X007076Y011134D01*
X007101Y011109D01*
X007176Y011109D01*
X007589Y010464D02*
X007614Y010414D01*
X007664Y010364D01*
X007664Y010439D01*
X007689Y010464D01*
X007714Y010464D01*
X007739Y010439D01*
X007739Y010389D01*
X007714Y010364D01*
X007664Y010364D01*
X007739Y010316D02*
X007739Y010216D01*
X007739Y010266D02*
X007589Y010266D01*
X007639Y010216D01*
X007614Y010169D02*
X007589Y010144D01*
X007589Y010094D01*
X007614Y010069D01*
X007714Y010069D01*
X007739Y010094D01*
X007739Y010144D01*
X007714Y010169D01*
X008074Y009844D02*
X008149Y009844D01*
X008174Y009819D01*
X008174Y009769D01*
X008149Y009744D01*
X008074Y009744D01*
X008124Y009744D02*
X008174Y009694D01*
X008221Y009694D02*
X008321Y009694D01*
X008271Y009694D02*
X008271Y009844D01*
X008221Y009794D01*
X008368Y009769D02*
X008468Y009769D01*
X008443Y009694D02*
X008443Y009844D01*
X008368Y009769D01*
X008514Y009969D02*
X008464Y010019D01*
X008614Y010019D01*
X008614Y009969D02*
X008614Y010069D01*
X008589Y010116D02*
X008489Y010216D01*
X008589Y010216D01*
X008614Y010191D01*
X008614Y010141D01*
X008589Y010116D01*
X008489Y010116D01*
X008464Y010141D01*
X008464Y010191D01*
X008489Y010216D01*
X008489Y010264D02*
X008464Y010289D01*
X008464Y010339D01*
X008489Y010364D01*
X008589Y010264D01*
X008614Y010289D01*
X008614Y010339D01*
X008589Y010364D01*
X008489Y010364D01*
X008514Y010411D02*
X008514Y010486D01*
X008539Y010511D01*
X008614Y010511D01*
X008614Y010411D02*
X008514Y010411D01*
X008489Y010264D02*
X008589Y010264D01*
X008074Y009844D02*
X008074Y009694D01*
X008464Y012369D02*
X008414Y012419D01*
X008564Y012419D01*
X008564Y012369D02*
X008564Y012469D01*
X008539Y012516D02*
X008439Y012616D01*
X008539Y012616D01*
X008564Y012591D01*
X008564Y012541D01*
X008539Y012516D01*
X008439Y012516D01*
X008414Y012541D01*
X008414Y012591D01*
X008439Y012616D01*
X008439Y012664D02*
X008414Y012689D01*
X008414Y012739D01*
X008439Y012764D01*
X008539Y012664D01*
X008564Y012689D01*
X008564Y012739D01*
X008539Y012764D01*
X008439Y012764D01*
X008464Y012811D02*
X008464Y012886D01*
X008489Y012911D01*
X008564Y012911D01*
X008564Y012811D02*
X008464Y012811D01*
X008439Y012664D02*
X008539Y012664D01*
X008474Y014174D02*
X008374Y014174D01*
X008349Y014199D01*
X008349Y014249D01*
X008374Y014275D01*
X008349Y014322D02*
X008349Y014422D01*
X008374Y014422D01*
X008474Y014322D01*
X008499Y014322D01*
X008474Y014275D02*
X008499Y014249D01*
X008499Y014199D01*
X008474Y014174D01*
X008464Y015019D02*
X008414Y015069D01*
X008564Y015069D01*
X008564Y015019D02*
X008564Y015119D01*
X008539Y015166D02*
X008439Y015266D01*
X008539Y015266D01*
X008564Y015241D01*
X008564Y015191D01*
X008539Y015166D01*
X008439Y015166D01*
X008414Y015191D01*
X008414Y015241D01*
X008439Y015266D01*
X008414Y015314D02*
X008564Y015314D01*
X008514Y015314D02*
X008464Y015389D01*
X008514Y015314D02*
X008564Y015389D01*
X008614Y017119D02*
X008614Y017219D01*
X008614Y017169D02*
X008464Y017169D01*
X008514Y017119D01*
X008489Y017266D02*
X008464Y017291D01*
X008464Y017341D01*
X008489Y017366D01*
X008589Y017266D01*
X008614Y017291D01*
X008614Y017341D01*
X008589Y017366D01*
X008489Y017366D01*
X008464Y017414D02*
X008614Y017414D01*
X008564Y017414D02*
X008514Y017489D01*
X008564Y017414D02*
X008614Y017489D01*
X008589Y017266D02*
X008489Y017266D01*
X007739Y017219D02*
X007589Y017219D01*
X007589Y017294D01*
X007614Y017319D01*
X007664Y017319D01*
X007689Y017294D01*
X007689Y017219D01*
X007689Y017269D02*
X007739Y017319D01*
X007739Y017366D02*
X007739Y017466D01*
X007739Y017416D02*
X007589Y017416D01*
X007639Y017366D01*
X007639Y017514D02*
X007614Y017514D01*
X007589Y017539D01*
X007589Y017589D01*
X007614Y017614D01*
X007639Y017614D01*
X007664Y017589D01*
X007664Y017539D01*
X007639Y017514D01*
X007664Y017539D02*
X007689Y017514D01*
X007714Y017514D01*
X007739Y017539D01*
X007739Y017589D01*
X007714Y017614D01*
X007689Y017614D01*
X007664Y017589D01*
X006343Y008494D02*
X006293Y008494D01*
X006268Y008469D01*
X006343Y008494D02*
X006368Y008469D01*
X006368Y008444D01*
X006268Y008344D01*
X006368Y008344D01*
X006221Y008344D02*
X006121Y008344D01*
X006171Y008344D02*
X006171Y008494D01*
X006121Y008444D01*
X006074Y008469D02*
X006049Y008494D01*
X005999Y008494D01*
X005974Y008469D01*
X005974Y008369D01*
X005999Y008344D01*
X006049Y008344D01*
X006074Y008369D01*
X013574Y014969D02*
X013674Y014969D01*
X013624Y014969D02*
X013624Y015119D01*
X013574Y015069D01*
X013721Y015094D02*
X013746Y015119D01*
X013796Y015119D01*
X013821Y015094D01*
X013721Y014994D01*
X013746Y014969D01*
X013796Y014969D01*
X013821Y014994D01*
X013821Y015094D01*
X013868Y015119D02*
X013868Y014969D01*
X013868Y015019D02*
X013943Y015069D01*
X013924Y015044D02*
X013924Y015194D01*
X013999Y015194D01*
X014024Y015169D01*
X014024Y015119D01*
X013999Y015094D01*
X013924Y015094D01*
X013974Y015094D02*
X014024Y015044D01*
X014071Y015044D02*
X014171Y015044D01*
X014121Y015044D02*
X014121Y015194D01*
X014071Y015144D01*
X014218Y015119D02*
X014293Y015119D01*
X014318Y015094D01*
X014318Y015069D01*
X014293Y015044D01*
X014243Y015044D01*
X014218Y015069D01*
X014218Y015119D01*
X014268Y015169D01*
X014318Y015194D01*
X013943Y014969D02*
X013868Y015019D01*
X013721Y014994D02*
X013721Y015094D01*
X013674Y015844D02*
X013674Y015994D01*
X013749Y015994D01*
X013774Y015969D01*
X013774Y015919D01*
X013749Y015894D01*
X013674Y015894D01*
X013724Y015894D02*
X013774Y015844D01*
X013821Y015844D02*
X013921Y015844D01*
X013871Y015844D02*
X013871Y015994D01*
X013821Y015944D01*
X013968Y015919D02*
X014018Y015944D01*
X014043Y015944D01*
X014068Y015919D01*
X014068Y015869D01*
X014043Y015844D01*
X013993Y015844D01*
X013968Y015869D01*
X013968Y015919D02*
X013968Y015994D01*
X014068Y015994D01*
X014046Y014319D02*
X013996Y014319D01*
X013971Y014294D01*
X013971Y014194D01*
X014071Y014294D01*
X014071Y014194D01*
X014046Y014169D01*
X013996Y014169D01*
X013971Y014194D01*
X013924Y014169D02*
X013824Y014169D01*
X013874Y014169D02*
X013874Y014319D01*
X013824Y014269D01*
X014046Y014319D02*
X014071Y014294D01*
X014118Y014319D02*
X014118Y014169D01*
X014118Y014219D02*
X014193Y014269D01*
X014118Y014219D02*
X014193Y014169D01*
D18*
X014465Y013612D02*
X014388Y013535D01*
X014388Y013381D01*
X014465Y013305D01*
X014465Y013151D02*
X014388Y013075D01*
X014388Y012921D01*
X014465Y012844D01*
X014542Y012844D01*
X014619Y012921D01*
X014619Y013075D01*
X014695Y013151D01*
X014772Y013151D01*
X014849Y013075D01*
X014849Y012921D01*
X014772Y012844D01*
X014819Y012894D02*
X014665Y012894D01*
X014589Y012818D01*
X014589Y012511D01*
X014665Y012434D01*
X014819Y012434D01*
X014896Y012511D01*
X014849Y012461D02*
X014849Y012614D01*
X014772Y012691D01*
X014388Y012691D01*
X014388Y012384D02*
X014772Y012384D01*
X014849Y012461D01*
X015049Y012511D02*
X015126Y012434D01*
X015279Y012434D01*
X015356Y012511D01*
X015356Y012588D01*
X015279Y012664D01*
X015202Y012664D01*
X015279Y012664D02*
X015356Y012741D01*
X015356Y012818D01*
X015279Y012894D01*
X015126Y012894D01*
X015049Y012818D01*
X014896Y012818D02*
X014819Y012894D01*
X014925Y012998D02*
X014312Y012998D01*
X014849Y013305D02*
X014542Y013612D01*
X014465Y013612D01*
X014849Y013612D02*
X014849Y013305D01*
X015089Y013434D02*
X015396Y013434D01*
X015242Y013434D02*
X015242Y013894D01*
X015089Y013741D01*
X015549Y013664D02*
X015702Y013741D01*
X015779Y013741D01*
X015856Y013664D01*
X015856Y013511D01*
X015779Y013434D01*
X015626Y013434D01*
X015549Y013511D01*
X015549Y013664D02*
X015549Y013894D01*
X015856Y013894D01*
X015838Y013843D02*
X015915Y013920D01*
X015992Y013920D01*
X016069Y013843D01*
X016145Y013920D01*
X016222Y013920D01*
X016299Y013843D01*
X016299Y013690D01*
X016222Y013613D01*
X016316Y013511D02*
X016240Y013434D01*
X016086Y013434D01*
X016009Y013511D01*
X016316Y013818D01*
X016316Y013511D01*
X016222Y013460D02*
X016299Y013383D01*
X016299Y013229D01*
X016222Y013153D01*
X016069Y013153D02*
X015992Y013306D01*
X015992Y013383D01*
X016069Y013460D01*
X016222Y013460D01*
X016009Y013511D02*
X016009Y013818D01*
X016086Y013894D01*
X016240Y013894D01*
X016316Y013818D01*
X016470Y013894D02*
X016470Y013434D01*
X016488Y013381D02*
X016565Y013305D01*
X016642Y013305D01*
X016719Y013381D01*
X016719Y013535D01*
X016795Y013612D01*
X016872Y013612D01*
X016949Y013535D01*
X016949Y013381D01*
X016872Y013305D01*
X016700Y013434D02*
X016470Y013588D01*
X016700Y013741D01*
X016719Y013765D02*
X016565Y013919D01*
X016488Y014072D01*
X016299Y014150D02*
X016222Y014074D01*
X015915Y014380D01*
X016222Y014380D01*
X016299Y014304D01*
X016299Y014150D01*
X016222Y014074D02*
X015915Y014074D01*
X015838Y014150D01*
X015838Y014304D01*
X015915Y014380D01*
X016068Y014461D02*
X016068Y014768D01*
X016145Y014844D01*
X016298Y014844D01*
X016375Y014768D01*
X016488Y014763D02*
X016488Y014916D01*
X016565Y014993D01*
X016872Y014686D01*
X016949Y014763D01*
X016949Y014916D01*
X016872Y014993D01*
X016565Y014993D01*
X016605Y014844D02*
X016528Y014768D01*
X016488Y014763D02*
X016565Y014686D01*
X016872Y014686D01*
X016835Y014691D02*
X016835Y014768D01*
X016758Y014844D01*
X016605Y014844D01*
X016835Y014691D02*
X016528Y014384D01*
X016835Y014384D01*
X016949Y014379D02*
X016488Y014379D01*
X016642Y014226D01*
X016795Y014072D02*
X016719Y013995D01*
X016719Y013765D01*
X016872Y013765D01*
X016949Y013842D01*
X016949Y013995D01*
X016872Y014072D01*
X016795Y014072D01*
X016949Y014226D02*
X016949Y014532D01*
X016986Y015184D02*
X016909Y015261D01*
X017216Y015568D01*
X017216Y015261D01*
X017140Y015184D01*
X016986Y015184D01*
X016909Y015261D02*
X016909Y015568D01*
X016986Y015644D01*
X017140Y015644D01*
X017216Y015568D01*
X017370Y015644D02*
X017370Y015184D01*
X017370Y015338D02*
X017600Y015491D01*
X017370Y015338D02*
X017600Y015184D01*
X017208Y016034D02*
X017208Y016494D01*
X016978Y016264D01*
X017285Y016264D01*
X016949Y016220D02*
X016488Y016220D01*
X016642Y016067D01*
X016595Y016034D02*
X016518Y016111D01*
X016518Y016418D01*
X016595Y016494D01*
X016748Y016494D01*
X016825Y016418D01*
X016835Y016344D02*
X016528Y016344D01*
X016528Y015884D01*
X016565Y015913D02*
X016872Y015607D01*
X016949Y015683D01*
X016949Y015837D01*
X016872Y015913D01*
X016565Y015913D01*
X016488Y015837D01*
X016488Y015683D01*
X016565Y015607D01*
X016872Y015607D01*
X016756Y015568D02*
X016756Y015491D01*
X016679Y015414D01*
X016526Y015414D01*
X016449Y015491D01*
X016449Y015568D01*
X016526Y015644D01*
X016679Y015644D01*
X016756Y015568D01*
X016719Y015453D02*
X016719Y015146D01*
X016488Y015376D01*
X016949Y015376D01*
X016756Y015338D02*
X016756Y015261D01*
X016679Y015184D01*
X016526Y015184D01*
X016449Y015261D01*
X016449Y015338D01*
X016526Y015414D01*
X016679Y015414D02*
X016756Y015338D01*
X016748Y016034D02*
X016595Y016034D01*
X016528Y016114D02*
X016682Y016114D01*
X016748Y016034D02*
X016825Y016111D01*
X016949Y016067D02*
X016949Y016374D01*
X016756Y016684D02*
X016449Y016684D01*
X016602Y016684D02*
X016602Y017144D01*
X016449Y016991D01*
X016296Y016914D02*
X016219Y016838D01*
X015989Y016838D01*
X016142Y016838D02*
X016296Y016684D01*
X016296Y016914D02*
X016296Y017068D01*
X016219Y017144D01*
X015989Y017144D01*
X015989Y016684D01*
X015838Y016344D02*
X015684Y016344D01*
X015607Y016268D01*
X015454Y016268D02*
X015377Y016344D01*
X015224Y016344D01*
X015147Y016268D01*
X015011Y016144D02*
X015011Y015684D01*
X014858Y015761D02*
X014781Y015684D01*
X014627Y015684D01*
X014551Y015761D01*
X014627Y015914D02*
X014781Y015914D01*
X014858Y015838D01*
X014858Y015761D01*
X014627Y015914D02*
X014551Y015991D01*
X014551Y016068D01*
X014627Y016144D01*
X014781Y016144D01*
X014858Y016068D01*
X015011Y016144D02*
X015318Y015684D01*
X015318Y016144D01*
X015454Y016191D02*
X015147Y015884D01*
X015454Y015884D01*
X015607Y015884D02*
X015914Y016191D01*
X015914Y016268D01*
X015838Y016344D01*
X016068Y016191D02*
X016068Y015731D01*
X016068Y015884D02*
X016298Y015884D01*
X016375Y015961D01*
X016375Y016114D01*
X016298Y016191D01*
X016068Y016191D01*
X015914Y015884D02*
X015607Y015884D01*
X015454Y016191D02*
X015454Y016268D01*
X015319Y015394D02*
X015089Y015394D01*
X015089Y014934D01*
X015089Y015088D02*
X015319Y015088D01*
X015396Y015164D01*
X015396Y015318D01*
X015319Y015394D01*
X015549Y015318D02*
X015626Y015394D01*
X015779Y015394D01*
X015856Y015318D01*
X015856Y015241D01*
X015549Y014934D01*
X015856Y014934D01*
X016065Y015184D02*
X015989Y015261D01*
X015989Y015414D01*
X016219Y015414D01*
X016296Y015338D01*
X016296Y015261D01*
X016219Y015184D01*
X016065Y015184D01*
X015989Y015414D02*
X016142Y015568D01*
X016296Y015644D01*
X016375Y014461D02*
X016298Y014384D01*
X016145Y014384D01*
X016068Y014461D01*
X016069Y013843D02*
X016069Y013767D01*
X015915Y013613D02*
X015838Y013690D01*
X015838Y013843D01*
X015838Y013460D02*
X015838Y013153D01*
X016069Y013153D01*
X016222Y012999D02*
X016299Y012923D01*
X016299Y012769D01*
X016222Y012692D01*
X015915Y012999D01*
X016222Y012999D01*
X016222Y012692D02*
X015915Y012692D01*
X015838Y012769D01*
X015838Y012923D01*
X015915Y012999D01*
X015915Y012539D02*
X016069Y012539D01*
X016145Y012462D01*
X016145Y012232D01*
X016145Y012079D02*
X016222Y012079D01*
X016299Y012002D01*
X016299Y011772D01*
X015838Y011772D01*
X015838Y012002D01*
X015915Y012079D01*
X015992Y012079D01*
X016069Y012002D01*
X016069Y011772D01*
X016069Y012002D02*
X016145Y012079D01*
X016299Y012232D02*
X015838Y012232D01*
X015838Y012462D01*
X015915Y012539D01*
X016145Y012386D02*
X016299Y012539D01*
X016488Y012538D02*
X016949Y012538D01*
X016949Y012844D02*
X016488Y012844D01*
X016488Y013075D01*
X016565Y013151D01*
X016719Y013151D01*
X016795Y013075D01*
X016795Y012844D01*
X016488Y012691D02*
X016488Y012384D01*
X016299Y011618D02*
X015838Y011618D01*
X015992Y011465D01*
X015838Y011311D01*
X016299Y011311D01*
X016277Y011394D02*
X015970Y011394D01*
X015970Y010934D01*
X015816Y010934D02*
X015816Y011241D01*
X015970Y011164D02*
X016123Y011164D01*
X015816Y010934D02*
X015586Y010934D01*
X015509Y011011D01*
X015509Y011241D01*
X015356Y011318D02*
X015356Y011011D01*
X015279Y010934D01*
X015126Y010934D01*
X015049Y011011D01*
X015356Y011318D01*
X015279Y011394D01*
X015126Y011394D01*
X015049Y011318D01*
X015049Y011011D01*
X014896Y010934D02*
X014589Y010934D01*
X014742Y010934D02*
X014742Y011394D01*
X014589Y011241D01*
X016488Y013381D02*
X016488Y013535D01*
X016565Y013612D01*
X015396Y014934D02*
X015242Y015088D01*
X014397Y015684D02*
X014397Y015991D01*
X014244Y016144D01*
X014090Y015991D01*
X014090Y015684D01*
X013937Y015684D02*
X013630Y015684D01*
X013784Y015684D02*
X013784Y016144D01*
X013630Y015991D01*
X013477Y016068D02*
X013170Y015761D01*
X013246Y015684D01*
X013400Y015684D01*
X013477Y015761D01*
X013477Y016068D01*
X013400Y016144D01*
X013246Y016144D01*
X013170Y016068D01*
X013170Y015761D01*
X013016Y015761D02*
X012940Y015684D01*
X012786Y015684D01*
X012709Y015761D01*
X012709Y016068D01*
X012786Y016144D01*
X012940Y016144D01*
X013016Y016068D01*
X012556Y015914D02*
X012249Y015914D01*
X012479Y016144D01*
X012479Y015684D01*
X012096Y015684D02*
X011789Y015684D01*
X012096Y015991D01*
X012096Y016068D01*
X012019Y016144D01*
X011865Y016144D01*
X011789Y016068D01*
X011789Y018284D02*
X011942Y018284D01*
X011865Y018284D02*
X011865Y018744D01*
X011789Y018744D02*
X011942Y018744D01*
X012096Y018668D02*
X012096Y018361D01*
X012172Y018284D01*
X012326Y018284D01*
X012402Y018361D01*
X012556Y018284D02*
X012863Y018591D01*
X012863Y018668D01*
X012786Y018744D01*
X012633Y018744D01*
X012556Y018668D01*
X012402Y018668D02*
X012326Y018744D01*
X012172Y018744D01*
X012096Y018668D01*
X012556Y018284D02*
X012863Y018284D01*
X014090Y015914D02*
X014397Y015914D01*
X015597Y017534D02*
X015904Y017534D01*
X015751Y017534D02*
X015751Y017994D01*
X015597Y017841D01*
X016057Y017918D02*
X016134Y017994D01*
X016288Y017994D01*
X016364Y017918D01*
X016057Y017611D01*
X016134Y017534D01*
X016288Y017534D01*
X016364Y017611D01*
X016364Y017918D01*
X016518Y017841D02*
X016518Y017611D01*
X016595Y017534D01*
X016825Y017534D01*
X016825Y017841D01*
X016978Y017764D02*
X017132Y017764D01*
X016978Y017534D02*
X016978Y017994D01*
X017285Y017994D01*
X016057Y017918D02*
X016057Y017611D01*
X017838Y014227D02*
X018299Y014227D01*
X018299Y014074D02*
X018299Y014381D01*
X018222Y013920D02*
X017915Y013920D01*
X017838Y013844D01*
X017838Y013613D01*
X018299Y013613D01*
X018299Y013844D01*
X018222Y013920D01*
X017992Y014074D02*
X017838Y014227D01*
X017948Y006751D02*
X018273Y006426D01*
X018165Y006317D02*
X018382Y006534D01*
X017948Y006534D02*
X017948Y006751D01*
X017785Y006480D02*
X017677Y006480D01*
X017514Y006317D01*
X017839Y005992D01*
X018002Y006154D01*
X018002Y006263D01*
X017785Y006480D01*
X017405Y006209D02*
X017188Y005992D01*
X017514Y005666D01*
X017731Y005883D01*
X017460Y005937D02*
X017351Y005829D01*
X017405Y005558D02*
X017188Y005341D01*
X016863Y005666D01*
X006783Y016634D02*
X006630Y016634D01*
X006553Y016711D01*
X006860Y017018D01*
X006860Y016711D01*
X006783Y016634D01*
X006553Y016711D02*
X006553Y017018D01*
X006630Y017094D01*
X006783Y017094D01*
X006860Y017018D01*
X006400Y017018D02*
X006323Y017094D01*
X006170Y017094D01*
X006093Y017018D01*
X005939Y017018D02*
X005863Y017094D01*
X005709Y017094D01*
X005633Y017018D01*
X005633Y016711D01*
X005709Y016634D01*
X005863Y016634D01*
X005939Y016711D01*
X006093Y016634D02*
X006400Y016941D01*
X006400Y017018D01*
X006400Y016634D02*
X006093Y016634D01*
X005449Y015662D02*
X005142Y015662D01*
X005449Y015662D02*
X005449Y015431D01*
X005372Y015355D01*
X005142Y015355D01*
X005065Y015201D02*
X005372Y014894D01*
X005449Y014971D01*
X005449Y015125D01*
X005372Y015201D01*
X005065Y015201D01*
X004988Y015125D01*
X004988Y014971D01*
X005065Y014894D01*
X005372Y014894D01*
X005449Y014741D02*
X005449Y014434D01*
X005449Y014588D02*
X004988Y014588D01*
X005142Y014434D01*
X003949Y014511D02*
X003949Y014664D01*
X003872Y014741D01*
X003872Y014894D02*
X003795Y014894D01*
X003719Y014971D01*
X003719Y015125D01*
X003795Y015201D01*
X003872Y015201D01*
X003949Y015125D01*
X003949Y014971D01*
X003872Y014894D01*
X003719Y014971D02*
X003642Y014894D01*
X003565Y014894D01*
X003488Y014971D01*
X003488Y015125D01*
X003565Y015201D01*
X003642Y015201D01*
X003719Y015125D01*
X003565Y014741D02*
X003488Y014664D01*
X003488Y014511D01*
X003565Y014434D01*
X003872Y014434D01*
X003949Y014511D01*
X005172Y018134D02*
X005479Y018134D01*
X005326Y018134D02*
X005326Y018594D01*
X005172Y018441D01*
X005632Y018518D02*
X005632Y018211D01*
X005939Y018518D01*
X005939Y018211D01*
X005863Y018134D01*
X005709Y018134D01*
X005632Y018211D01*
X005632Y018518D02*
X005709Y018594D01*
X005863Y018594D01*
X005939Y018518D01*
X006093Y018441D02*
X006093Y018211D01*
X006170Y018134D01*
X006400Y018134D01*
X006400Y018441D01*
X006553Y018364D02*
X006707Y018364D01*
X006553Y018594D02*
X006860Y018594D01*
X006553Y018594D02*
X006553Y018134D01*
X005399Y010562D02*
X005092Y010562D01*
X005092Y010255D02*
X005322Y010255D01*
X005399Y010331D01*
X005399Y010562D01*
X005322Y010101D02*
X005399Y010025D01*
X005399Y009871D01*
X005322Y009794D01*
X005015Y010101D01*
X005322Y010101D01*
X005322Y009794D02*
X005015Y009794D01*
X004938Y009871D01*
X004938Y010025D01*
X005015Y010101D01*
X005399Y009641D02*
X005399Y009334D01*
X005399Y009488D02*
X004938Y009488D01*
X005092Y009334D01*
X003899Y009411D02*
X003899Y009564D01*
X003822Y009641D01*
X003899Y009794D02*
X003899Y010101D01*
X003899Y009948D02*
X003438Y009948D01*
X003592Y009794D01*
X003515Y009641D02*
X003438Y009564D01*
X003438Y009411D01*
X003515Y009334D01*
X003822Y009334D01*
X003899Y009411D01*
X003899Y010255D02*
X003899Y010562D01*
X003899Y010408D02*
X003438Y010408D01*
X003592Y010255D01*
D19*
G36*
X017753Y005455D02*
X017684Y005524D01*
X017753Y005593D01*
X017822Y005524D01*
X017753Y005455D01*
G37*
M02*
