G75*
G70*
%OFA0B0*%
%FSLAX24Y24*%
%IPPOS*%
%LPD*%
%AMOC8*
5,1,8,0,0,1.08239X$1,22.5*
%
%ADD10C,0.0520*%
%ADD11C,0.0100*%
%ADD12C,0.0360*%
D10*
X011869Y005864D03*
X011869Y007764D03*
D11*
X001301Y003486D02*
X001300Y003459D01*
X001350Y003459D01*
X001351Y003517D01*
X001494Y003945D01*
X001762Y004309D01*
X001762Y004309D01*
X001762Y004309D01*
X002130Y004572D01*
X002130Y004572D01*
X002560Y004710D01*
X002560Y004710D01*
X003012Y004708D01*
X003012Y004708D01*
X003441Y004568D01*
X003441Y004568D01*
X003807Y004302D01*
X003807Y004302D01*
X003807Y004302D01*
X004072Y003937D01*
X004072Y003937D01*
X004213Y003507D01*
X004213Y003507D01*
X004214Y003055D01*
X004214Y003055D01*
X004077Y002625D01*
X004077Y002625D01*
X003813Y002258D01*
X003813Y002258D01*
X003450Y001990D01*
X003450Y001990D01*
X003021Y001846D01*
X003021Y001846D01*
X002964Y001846D01*
X002964Y001796D01*
X002989Y001798D01*
X003367Y001902D01*
X003706Y002099D01*
X003984Y002376D01*
X004181Y002716D01*
X004284Y003094D01*
X004298Y003287D01*
X004299Y003293D01*
X004299Y003361D01*
X004302Y003363D01*
X004302Y003366D01*
X004351Y003412D01*
X004399Y003460D01*
X004403Y003460D01*
X005301Y004287D01*
X005348Y004334D01*
X005352Y004334D01*
X005355Y004337D01*
X005422Y004334D01*
X016565Y004334D01*
X016632Y004337D01*
X016635Y004334D01*
X016639Y004334D01*
X016686Y004287D01*
X017585Y003459D01*
X017589Y003459D01*
X017636Y003412D01*
X017686Y003366D01*
X017686Y003362D01*
X017689Y003359D01*
X017689Y003293D01*
X017689Y003283D01*
X017701Y003093D01*
X017803Y002713D01*
X018000Y002373D01*
X018277Y002095D01*
X018618Y001899D01*
X018997Y001797D01*
X019024Y001795D01*
X019024Y001846D01*
X018966Y001846D01*
X018966Y001846D01*
X018538Y001990D01*
X018538Y001990D01*
X018174Y002258D01*
X018174Y002258D01*
X017910Y002625D01*
X017773Y003055D01*
X017774Y003507D01*
X017915Y003937D01*
X017915Y003937D01*
X018181Y004302D01*
X018181Y004302D01*
X018546Y004568D01*
X018546Y004568D01*
X018975Y004708D01*
X018976Y004708D01*
X019427Y004710D01*
X019427Y004710D01*
X019858Y004572D01*
X019858Y004572D01*
X020225Y004309D01*
X020225Y004309D01*
X020225Y004309D01*
X020493Y003945D01*
X020493Y003945D01*
X020636Y003517D01*
X020636Y003517D01*
X020637Y003459D01*
X020686Y003459D01*
X020684Y003484D01*
X020581Y003863D01*
X020384Y004202D01*
X020106Y004479D01*
X019767Y004676D01*
X019389Y004780D01*
X019195Y004794D01*
X019190Y004794D01*
X019122Y004795D01*
X019120Y004797D01*
X019116Y004797D01*
X019071Y004847D01*
X019023Y004895D01*
X019023Y004898D01*
X018196Y005796D01*
X018149Y005844D01*
X018149Y005848D01*
X018146Y005851D01*
X018149Y005918D01*
X018149Y017011D01*
X018146Y017077D01*
X018149Y017080D01*
X018149Y017084D01*
X018196Y017132D01*
X019024Y018030D01*
X019024Y018034D01*
X019071Y018082D01*
X019116Y018131D01*
X019120Y018131D01*
X019123Y018134D01*
X019190Y018134D01*
X019200Y018134D01*
X019390Y018147D01*
X019770Y018249D01*
X020110Y018445D01*
X020388Y018723D01*
X020584Y019063D01*
X020686Y019443D01*
X020688Y019469D01*
X020637Y019469D01*
X020636Y019411D01*
X020636Y019411D01*
X020493Y018983D01*
X020493Y018983D01*
X020225Y018619D01*
X020225Y018619D01*
X020225Y018619D01*
X019858Y018356D01*
X019858Y018356D01*
X019427Y018218D01*
X019427Y018218D01*
X018976Y018220D01*
X018975Y018220D01*
X018546Y018360D01*
X018546Y018360D01*
X018181Y018626D01*
X018181Y018626D01*
X017915Y018991D01*
X017915Y018991D01*
X017774Y019421D01*
X017773Y019873D01*
X017910Y020303D01*
X017911Y020303D01*
X018174Y020670D01*
X018174Y020670D01*
X018538Y020939D01*
X018538Y020939D01*
X018966Y021082D01*
X018966Y021082D01*
X019024Y021082D01*
X019024Y021132D01*
X018999Y021130D01*
X018620Y021026D01*
X018281Y020829D01*
X018003Y020552D01*
X017806Y020213D01*
X017703Y019834D01*
X017689Y019638D01*
X017689Y019637D01*
X017689Y019569D01*
X017688Y019568D01*
X017688Y019567D01*
X017637Y019518D01*
X017589Y019469D01*
X017588Y019469D01*
X017588Y019469D01*
X017517Y019469D01*
X017198Y019469D01*
X017099Y019569D01*
X015773Y020894D01*
X011789Y020894D01*
X009489Y018594D01*
X009348Y018594D01*
X005422Y018594D01*
X005355Y018591D01*
X005352Y018594D01*
X005348Y018594D01*
X005301Y018641D01*
X004402Y019469D01*
X004398Y019469D01*
X004351Y019516D01*
X004302Y019562D01*
X004302Y019566D01*
X004299Y019569D01*
X004299Y019635D01*
X004298Y019645D01*
X004286Y019836D01*
X004184Y020215D01*
X003988Y020555D01*
X003710Y020833D01*
X003370Y021030D01*
X002990Y021131D01*
X002964Y021133D01*
X002964Y021082D01*
X003021Y021082D01*
X003021Y021082D01*
X003450Y020939D01*
X003450Y020939D01*
X003813Y020670D01*
X003813Y020670D01*
X004077Y020303D01*
X004077Y020303D01*
X004214Y019873D01*
X004214Y019873D01*
X004213Y019421D01*
X004213Y019421D01*
X004072Y018991D01*
X003807Y018626D01*
X003807Y018626D01*
X003441Y018360D01*
X003012Y018220D01*
X003012Y018220D01*
X002560Y018218D01*
X002560Y018218D01*
X002130Y018356D01*
X002130Y018356D01*
X001762Y018619D01*
X001762Y018619D01*
X001762Y018619D01*
X001494Y018983D01*
X001494Y018983D01*
X001351Y019411D01*
X001351Y019411D01*
X001350Y019469D01*
X001301Y019469D01*
X001303Y019444D01*
X001406Y019066D01*
X001603Y018726D01*
X001881Y018449D01*
X002220Y018252D01*
X002599Y018148D01*
X002792Y018134D01*
X002798Y018134D01*
X002865Y018134D01*
X002868Y018131D01*
X002871Y018131D01*
X002917Y018081D01*
X002964Y018033D01*
X002964Y018030D01*
X003791Y017132D01*
X003839Y017084D01*
X003839Y017080D01*
X003841Y017077D01*
X003839Y017011D01*
X003839Y005918D01*
X003841Y005851D01*
X003839Y005848D01*
X003839Y005844D01*
X003791Y005796D01*
X002964Y004898D01*
X002964Y004894D01*
X002916Y004846D01*
X002871Y004797D01*
X002867Y004797D01*
X002864Y004794D01*
X002797Y004794D01*
X002788Y004794D01*
X002597Y004781D01*
X002218Y004680D01*
X001877Y004483D01*
X001600Y004205D01*
X001403Y003865D01*
X001301Y003486D01*
X001301Y003477D02*
X001351Y003477D01*
X001371Y003576D02*
X001326Y003576D01*
X001352Y003674D02*
X001404Y003674D01*
X001378Y003773D02*
X001437Y003773D01*
X001407Y003871D02*
X001470Y003871D01*
X001464Y003970D02*
X001512Y003970D01*
X001521Y004068D02*
X001585Y004068D01*
X001578Y004167D02*
X001658Y004167D01*
X001660Y004266D02*
X001731Y004266D01*
X001758Y004364D02*
X001840Y004364D01*
X001857Y004463D02*
X001977Y004463D01*
X002013Y004561D02*
X002114Y004561D01*
X002183Y004660D02*
X002403Y004660D01*
X002512Y004758D02*
X019468Y004758D01*
X019584Y004660D02*
X019796Y004660D01*
X019873Y004561D02*
X019966Y004561D01*
X020010Y004463D02*
X020123Y004463D01*
X020148Y004364D02*
X020222Y004364D01*
X020257Y004266D02*
X020320Y004266D01*
X020329Y004167D02*
X020404Y004167D01*
X020402Y004068D02*
X020461Y004068D01*
X020475Y003970D02*
X020519Y003970D01*
X020518Y003871D02*
X020576Y003871D01*
X020551Y003773D02*
X020606Y003773D01*
X020584Y003674D02*
X020632Y003674D01*
X020617Y003576D02*
X020659Y003576D01*
X020637Y003477D02*
X020685Y003477D01*
X019061Y004857D02*
X002927Y004857D01*
X003017Y004955D02*
X018971Y004955D01*
X018880Y005054D02*
X003107Y005054D01*
X003198Y005152D02*
X018789Y005152D01*
X018698Y005251D02*
X003289Y005251D01*
X003380Y005350D02*
X018608Y005350D01*
X018517Y005448D02*
X011988Y005448D01*
X011954Y005434D02*
X012112Y005500D01*
X012233Y005621D01*
X012299Y005779D01*
X012299Y005950D01*
X012233Y006108D01*
X012112Y006229D01*
X011954Y006294D01*
X011783Y006294D01*
X011625Y006229D01*
X011504Y006108D01*
X011439Y005950D01*
X011439Y005779D01*
X011504Y005621D01*
X011625Y005500D01*
X011783Y005434D01*
X011954Y005434D01*
X011749Y005448D02*
X003470Y005448D01*
X003561Y005547D02*
X011578Y005547D01*
X011494Y005645D02*
X003652Y005645D01*
X003743Y005744D02*
X011453Y005744D01*
X011439Y005842D02*
X003837Y005842D01*
X003839Y005941D02*
X011439Y005941D01*
X011476Y006039D02*
X003839Y006039D01*
X003839Y006138D02*
X011534Y006138D01*
X011644Y006236D02*
X003839Y006236D01*
X003839Y006335D02*
X018149Y006335D01*
X018149Y006434D02*
X003839Y006434D01*
X003839Y006532D02*
X018149Y006532D01*
X018149Y006631D02*
X003839Y006631D01*
X003839Y006729D02*
X018149Y006729D01*
X018149Y006828D02*
X003839Y006828D01*
X003839Y006926D02*
X018149Y006926D01*
X018149Y007025D02*
X003839Y007025D01*
X003839Y007123D02*
X018149Y007123D01*
X018149Y007222D02*
X003839Y007222D01*
X003839Y007320D02*
X018149Y007320D01*
X018149Y007419D02*
X012132Y007419D01*
X012112Y007400D02*
X012233Y007521D01*
X012299Y007679D01*
X012299Y007850D01*
X012233Y008008D01*
X012112Y008129D01*
X011954Y008194D01*
X011783Y008194D01*
X011625Y008129D01*
X011504Y008008D01*
X011439Y007850D01*
X011439Y007679D01*
X011504Y007521D01*
X011625Y007400D01*
X011783Y007334D01*
X011954Y007334D01*
X012112Y007400D01*
X012230Y007517D02*
X018149Y007517D01*
X018149Y007616D02*
X012273Y007616D01*
X012299Y007715D02*
X018149Y007715D01*
X018149Y007813D02*
X012299Y007813D01*
X012273Y007912D02*
X018149Y007912D01*
X018149Y008010D02*
X012231Y008010D01*
X012132Y008109D02*
X018149Y008109D01*
X018149Y008207D02*
X003839Y008207D01*
X003839Y008109D02*
X011605Y008109D01*
X011507Y008010D02*
X003839Y008010D01*
X003839Y007912D02*
X011464Y007912D01*
X011439Y007813D02*
X003839Y007813D01*
X003839Y007715D02*
X011439Y007715D01*
X011465Y007616D02*
X003839Y007616D01*
X003839Y007517D02*
X011507Y007517D01*
X011606Y007419D02*
X003839Y007419D01*
X003839Y008306D02*
X018149Y008306D01*
X018149Y008404D02*
X003839Y008404D01*
X003839Y008503D02*
X018149Y008503D01*
X018149Y008601D02*
X003839Y008601D01*
X003839Y008700D02*
X018149Y008700D01*
X018149Y008799D02*
X003839Y008799D01*
X003839Y008897D02*
X018149Y008897D01*
X018149Y008996D02*
X003839Y008996D01*
X003839Y009094D02*
X018149Y009094D01*
X018149Y009193D02*
X003839Y009193D01*
X003839Y009291D02*
X018149Y009291D01*
X018149Y009390D02*
X003839Y009390D01*
X003839Y009488D02*
X018149Y009488D01*
X018149Y009587D02*
X003839Y009587D01*
X003839Y009685D02*
X018149Y009685D01*
X018149Y009784D02*
X003839Y009784D01*
X003839Y009883D02*
X018149Y009883D01*
X018149Y009981D02*
X003839Y009981D01*
X003839Y010080D02*
X018149Y010080D01*
X018149Y010178D02*
X003839Y010178D01*
X003839Y010277D02*
X018149Y010277D01*
X018149Y010375D02*
X003839Y010375D01*
X003839Y010474D02*
X018149Y010474D01*
X018149Y010572D02*
X003839Y010572D01*
X003839Y010671D02*
X018149Y010671D01*
X018149Y010769D02*
X003839Y010769D01*
X003839Y010868D02*
X018149Y010868D01*
X018149Y010966D02*
X003839Y010966D01*
X003839Y011065D02*
X018149Y011065D01*
X018149Y011164D02*
X003839Y011164D01*
X003839Y011262D02*
X018149Y011262D01*
X018149Y011361D02*
X003839Y011361D01*
X003839Y011459D02*
X018149Y011459D01*
X018149Y011558D02*
X003839Y011558D01*
X003839Y011656D02*
X018149Y011656D01*
X018149Y011755D02*
X003839Y011755D01*
X003839Y011853D02*
X018149Y011853D01*
X018149Y011952D02*
X003839Y011952D01*
X003839Y012050D02*
X018149Y012050D01*
X018149Y012149D02*
X003839Y012149D01*
X003839Y012248D02*
X018149Y012248D01*
X018149Y012346D02*
X003839Y012346D01*
X003839Y012445D02*
X018149Y012445D01*
X018149Y012543D02*
X003839Y012543D01*
X003839Y012642D02*
X018149Y012642D01*
X018149Y012740D02*
X003839Y012740D01*
X003839Y012839D02*
X018149Y012839D01*
X018149Y012937D02*
X003839Y012937D01*
X003839Y013036D02*
X018149Y013036D01*
X018149Y013134D02*
X003839Y013134D01*
X003839Y013233D02*
X018149Y013233D01*
X018149Y013332D02*
X003839Y013332D01*
X003839Y013430D02*
X018149Y013430D01*
X018149Y013529D02*
X003839Y013529D01*
X003839Y013627D02*
X018149Y013627D01*
X018149Y013726D02*
X003839Y013726D01*
X003839Y013824D02*
X018149Y013824D01*
X018149Y013923D02*
X003839Y013923D01*
X003839Y014021D02*
X018149Y014021D01*
X018149Y014120D02*
X003839Y014120D01*
X003839Y014218D02*
X018149Y014218D01*
X018149Y014317D02*
X003839Y014317D01*
X003839Y014416D02*
X018149Y014416D01*
X018149Y014514D02*
X003839Y014514D01*
X003839Y014613D02*
X018149Y014613D01*
X018149Y014711D02*
X003839Y014711D01*
X003839Y014810D02*
X018149Y014810D01*
X018149Y014908D02*
X003839Y014908D01*
X003839Y015007D02*
X018149Y015007D01*
X018149Y015105D02*
X003839Y015105D01*
X003839Y015204D02*
X018149Y015204D01*
X018149Y015302D02*
X003839Y015302D01*
X003839Y015401D02*
X018149Y015401D01*
X018149Y015499D02*
X003839Y015499D01*
X003839Y015598D02*
X018149Y015598D01*
X018149Y015697D02*
X003839Y015697D01*
X003839Y015795D02*
X018149Y015795D01*
X018149Y015894D02*
X003839Y015894D01*
X003839Y015992D02*
X018149Y015992D01*
X018149Y016091D02*
X003839Y016091D01*
X003839Y016189D02*
X018149Y016189D01*
X018149Y016288D02*
X003839Y016288D01*
X003839Y016386D02*
X018149Y016386D01*
X018149Y016485D02*
X003839Y016485D01*
X003839Y016583D02*
X018149Y016583D01*
X018149Y016682D02*
X003839Y016682D01*
X003839Y016781D02*
X018149Y016781D01*
X018149Y016879D02*
X003839Y016879D01*
X003839Y016978D02*
X018149Y016978D01*
X018146Y017076D02*
X003841Y017076D01*
X003752Y017175D02*
X018236Y017175D01*
X018326Y017273D02*
X003661Y017273D01*
X003570Y017372D02*
X018417Y017372D01*
X018508Y017470D02*
X003479Y017470D01*
X003389Y017569D02*
X018599Y017569D01*
X018689Y017667D02*
X003298Y017667D01*
X003207Y017766D02*
X018780Y017766D01*
X018871Y017865D02*
X003116Y017865D01*
X003026Y017963D02*
X018962Y017963D01*
X019051Y018062D02*
X002936Y018062D01*
X003131Y018259D02*
X018856Y018259D01*
X018555Y018357D02*
X003432Y018357D01*
X003573Y018456D02*
X018415Y018456D01*
X018279Y018554D02*
X003708Y018554D01*
X003826Y018653D02*
X005288Y018653D01*
X005181Y018751D02*
X003898Y018751D01*
X003970Y018850D02*
X005074Y018850D01*
X004967Y018949D02*
X004041Y018949D01*
X004091Y019047D02*
X004860Y019047D01*
X004754Y019146D02*
X004123Y019146D01*
X004155Y019244D02*
X004646Y019244D01*
X004540Y019343D02*
X004187Y019343D01*
X004213Y019441D02*
X004433Y019441D01*
X004326Y019540D02*
X004213Y019540D01*
X004214Y019638D02*
X004299Y019638D01*
X004292Y019737D02*
X004214Y019737D01*
X004214Y019835D02*
X004286Y019835D01*
X004259Y019934D02*
X004195Y019934D01*
X004163Y020032D02*
X004233Y020032D01*
X004207Y020131D02*
X004132Y020131D01*
X004100Y020230D02*
X004176Y020230D01*
X004119Y020328D02*
X004059Y020328D01*
X004062Y020427D02*
X003988Y020427D01*
X004005Y020525D02*
X003917Y020525D01*
X003919Y020624D02*
X003847Y020624D01*
X003821Y020722D02*
X003743Y020722D01*
X003722Y020821D02*
X003609Y020821D01*
X003560Y020919D02*
X003476Y020919D01*
X003390Y021018D02*
X003212Y021018D01*
X003045Y021116D02*
X002964Y021116D01*
X001592Y018850D02*
X001531Y018850D01*
X001520Y018949D02*
X001474Y018949D01*
X001473Y019047D02*
X001417Y019047D01*
X001440Y019146D02*
X001384Y019146D01*
X001407Y019244D02*
X001358Y019244D01*
X001374Y019343D02*
X001331Y019343D01*
X001351Y019441D02*
X001304Y019441D01*
X001589Y018751D02*
X001665Y018751D01*
X001677Y018653D02*
X001738Y018653D01*
X001775Y018554D02*
X001853Y018554D01*
X001874Y018456D02*
X001990Y018456D01*
X002038Y018357D02*
X002128Y018357D01*
X002208Y018259D02*
X002434Y018259D01*
X002555Y018160D02*
X019439Y018160D01*
X019554Y018259D02*
X019787Y018259D01*
X019860Y018357D02*
X019958Y018357D01*
X019997Y018456D02*
X020121Y018456D01*
X020134Y018554D02*
X020219Y018554D01*
X020250Y018653D02*
X020318Y018653D01*
X020322Y018751D02*
X020404Y018751D01*
X020395Y018850D02*
X020461Y018850D01*
X020468Y018949D02*
X020518Y018949D01*
X020514Y019047D02*
X020575Y019047D01*
X020547Y019146D02*
X020606Y019146D01*
X020580Y019244D02*
X020633Y019244D01*
X020613Y019343D02*
X020659Y019343D01*
X020637Y019441D02*
X020685Y019441D01*
X019024Y021116D02*
X018950Y021116D01*
X018775Y021018D02*
X018605Y021018D01*
X018512Y020919D02*
X018436Y020919D01*
X018378Y020821D02*
X018272Y020821D01*
X018244Y020722D02*
X018174Y020722D01*
X018141Y020624D02*
X018075Y020624D01*
X018070Y020525D02*
X017988Y020525D01*
X017999Y020427D02*
X017931Y020427D01*
X017928Y020328D02*
X017873Y020328D01*
X017887Y020230D02*
X017816Y020230D01*
X017784Y020131D02*
X017855Y020131D01*
X017824Y020032D02*
X017757Y020032D01*
X017730Y019934D02*
X017792Y019934D01*
X017773Y019835D02*
X017703Y019835D01*
X017696Y019737D02*
X017773Y019737D01*
X017774Y019638D02*
X017689Y019638D01*
X017660Y019540D02*
X017774Y019540D01*
X017774Y019441D02*
X010336Y019441D01*
X010238Y019343D02*
X017800Y019343D01*
X017832Y019244D02*
X010139Y019244D01*
X010041Y019146D02*
X017864Y019146D01*
X017897Y019047D02*
X009942Y019047D01*
X009843Y018949D02*
X017946Y018949D01*
X018018Y018850D02*
X009745Y018850D01*
X009646Y018751D02*
X018089Y018751D01*
X018161Y018653D02*
X009548Y018653D01*
X010435Y019540D02*
X017128Y019540D01*
X017029Y019638D02*
X010533Y019638D01*
X010632Y019737D02*
X016930Y019737D01*
X016832Y019835D02*
X010730Y019835D01*
X010829Y019934D02*
X016733Y019934D01*
X016635Y020032D02*
X010927Y020032D01*
X011026Y020131D02*
X016536Y020131D01*
X016438Y020230D02*
X011125Y020230D01*
X011223Y020328D02*
X016339Y020328D01*
X016241Y020427D02*
X011322Y020427D01*
X011420Y020525D02*
X016142Y020525D01*
X016044Y020624D02*
X011519Y020624D01*
X011617Y020722D02*
X015945Y020722D01*
X015846Y020821D02*
X011716Y020821D01*
X012093Y006236D02*
X018149Y006236D01*
X018149Y006138D02*
X012203Y006138D01*
X012261Y006039D02*
X018149Y006039D01*
X018149Y005941D02*
X012299Y005941D01*
X012299Y005842D02*
X018150Y005842D01*
X018244Y005744D02*
X012284Y005744D01*
X012243Y005645D02*
X018335Y005645D01*
X018426Y005547D02*
X012159Y005547D01*
X016709Y004266D02*
X018154Y004266D01*
X018181Y004302D02*
X018181Y004302D01*
X018266Y004364D02*
X003721Y004364D01*
X003833Y004266D02*
X005278Y004266D01*
X005171Y004167D02*
X003905Y004167D01*
X003977Y004068D02*
X005064Y004068D01*
X004957Y003970D02*
X004048Y003970D01*
X004094Y003871D02*
X004850Y003871D01*
X004743Y003773D02*
X004126Y003773D01*
X004158Y003674D02*
X004636Y003674D01*
X004529Y003576D02*
X004191Y003576D01*
X004213Y003477D02*
X004422Y003477D01*
X004315Y003379D02*
X004213Y003379D01*
X004214Y003280D02*
X004298Y003280D01*
X004291Y003182D02*
X004214Y003182D01*
X004214Y003083D02*
X004281Y003083D01*
X004254Y002984D02*
X004192Y002984D01*
X004160Y002886D02*
X004228Y002886D01*
X004201Y002787D02*
X004129Y002787D01*
X004097Y002689D02*
X004166Y002689D01*
X004108Y002590D02*
X004052Y002590D01*
X004051Y002492D02*
X003981Y002492D01*
X003994Y002393D02*
X003910Y002393D01*
X003902Y002295D02*
X003840Y002295D01*
X003813Y002258D02*
X003813Y002258D01*
X003804Y002196D02*
X003730Y002196D01*
X003705Y002098D02*
X003596Y002098D01*
X003535Y001999D02*
X003462Y001999D01*
X003363Y001901D02*
X003183Y001901D01*
X003002Y001802D02*
X002964Y001802D01*
X003586Y004463D02*
X018401Y004463D01*
X018537Y004561D02*
X003451Y004561D01*
X003161Y004660D02*
X018827Y004660D01*
X018082Y004167D02*
X016816Y004167D01*
X016923Y004068D02*
X018011Y004068D01*
X017939Y003970D02*
X017030Y003970D01*
X017137Y003871D02*
X017893Y003871D01*
X017861Y003773D02*
X017244Y003773D01*
X017351Y003674D02*
X017829Y003674D01*
X017797Y003576D02*
X017458Y003576D01*
X017565Y003477D02*
X017774Y003477D01*
X017774Y003379D02*
X017672Y003379D01*
X017689Y003280D02*
X017774Y003280D01*
X017773Y003182D02*
X017696Y003182D01*
X017704Y003083D02*
X017773Y003083D01*
X017796Y002984D02*
X017731Y002984D01*
X017757Y002886D02*
X017827Y002886D01*
X017859Y002787D02*
X017783Y002787D01*
X017817Y002689D02*
X017890Y002689D01*
X017874Y002590D02*
X017935Y002590D01*
X017931Y002492D02*
X018006Y002492D01*
X017988Y002393D02*
X018077Y002393D01*
X018078Y002295D02*
X018147Y002295D01*
X018176Y002196D02*
X018258Y002196D01*
X018275Y002098D02*
X018391Y002098D01*
X018444Y001999D02*
X018525Y001999D01*
X018614Y001901D02*
X018804Y001901D01*
X018978Y001802D02*
X019024Y001802D01*
D12*
X016569Y006714D03*
X015969Y009364D03*
X014469Y007564D03*
X013044Y005239D03*
X012669Y010489D03*
X010769Y012364D03*
X008419Y007364D03*
X008719Y005964D03*
X008719Y005164D03*
X005619Y004714D03*
X004869Y009014D03*
X005019Y010914D03*
X007469Y013064D03*
X005219Y015714D03*
X004069Y018264D03*
X014019Y019664D03*
X015669Y017814D03*
M02*
