G75*
G70*
%OFA0B0*%
%FSLAX24Y24*%
%IPPOS*%
%LPD*%
%AMOC8*
5,1,8,0,0,1.08239X$1,22.5*
%
%ADD10C,0.0000*%
D10*
X001119Y003289D02*
X001519Y003289D01*
X001518Y003289D02*
X001521Y003360D01*
X001527Y003430D01*
X001538Y003500D01*
X001552Y003569D01*
X001570Y003637D01*
X001592Y003704D01*
X001618Y003770D01*
X001647Y003834D01*
X001680Y003897D01*
X001717Y003957D01*
X001756Y004015D01*
X001799Y004071D01*
X001845Y004125D01*
X001894Y004176D01*
X001945Y004224D01*
X002000Y004269D01*
X002056Y004311D01*
X002115Y004350D01*
X002176Y004386D01*
X002239Y004418D01*
X002303Y004446D01*
X002369Y004471D01*
X002437Y004492D01*
X002505Y004510D01*
X002574Y004523D01*
X002644Y004533D01*
X002715Y004538D01*
X002785Y004540D01*
X002856Y004538D01*
X002926Y004532D01*
X002996Y004522D01*
X003065Y004508D01*
X003133Y004490D01*
X003200Y004468D01*
X003266Y004443D01*
X003331Y004414D01*
X003393Y004382D01*
X003454Y004346D01*
X003513Y004307D01*
X003569Y004264D01*
X003623Y004219D01*
X003674Y004170D01*
X003723Y004119D01*
X003768Y004065D01*
X003811Y004009D01*
X003850Y003950D01*
X003886Y003889D01*
X003918Y003827D01*
X003947Y003762D01*
X003972Y003696D01*
X003994Y003629D01*
X004012Y003561D01*
X004026Y003492D01*
X004036Y003422D01*
X004042Y003352D01*
X004044Y003281D01*
X004042Y003211D01*
X004037Y003140D01*
X004027Y003070D01*
X004014Y003001D01*
X003996Y002933D01*
X003975Y002865D01*
X003950Y002799D01*
X003922Y002735D01*
X003890Y002672D01*
X003854Y002611D01*
X003815Y002552D01*
X003773Y002496D01*
X003728Y002441D01*
X003680Y002390D01*
X003629Y002341D01*
X003575Y002295D01*
X003519Y002252D01*
X003461Y002213D01*
X003401Y002176D01*
X003338Y002143D01*
X003274Y002114D01*
X003208Y002088D01*
X003141Y002066D01*
X003073Y002048D01*
X003004Y002034D01*
X002934Y002023D01*
X002864Y002017D01*
X002793Y002014D01*
X002794Y002014D02*
X002794Y001614D01*
X001119Y003289D02*
X001121Y003369D01*
X001127Y003448D01*
X001136Y003527D01*
X001149Y003606D01*
X001166Y003684D01*
X001187Y003761D01*
X001211Y003837D01*
X001239Y003912D01*
X001270Y003985D01*
X001305Y004057D01*
X001343Y004127D01*
X001385Y004195D01*
X001430Y004261D01*
X001477Y004324D01*
X001528Y004386D01*
X001582Y004445D01*
X001638Y004501D01*
X001697Y004555D01*
X001759Y004606D01*
X001822Y004653D01*
X001888Y004698D01*
X001956Y004740D01*
X002026Y004778D01*
X002098Y004813D01*
X002171Y004844D01*
X002246Y004872D01*
X002322Y004896D01*
X002399Y004917D01*
X002477Y004934D01*
X002556Y004947D01*
X002635Y004956D01*
X002714Y004962D01*
X002794Y004964D01*
X003669Y005914D01*
X003669Y017014D01*
X002794Y017964D01*
X004469Y019639D02*
X004467Y019719D01*
X004461Y019798D01*
X004452Y019877D01*
X004439Y019956D01*
X004422Y020034D01*
X004401Y020111D01*
X004377Y020187D01*
X004349Y020262D01*
X004318Y020335D01*
X004283Y020407D01*
X004245Y020476D01*
X004203Y020545D01*
X004158Y020611D01*
X004111Y020674D01*
X004060Y020736D01*
X004006Y020795D01*
X003950Y020851D01*
X003891Y020905D01*
X003829Y020956D01*
X003766Y021003D01*
X003700Y021048D01*
X003631Y021090D01*
X003562Y021128D01*
X003490Y021163D01*
X003417Y021194D01*
X003342Y021222D01*
X003266Y021246D01*
X003189Y021267D01*
X003111Y021284D01*
X003032Y021297D01*
X002953Y021306D01*
X002874Y021312D01*
X002794Y021314D01*
X002794Y020914D01*
X002793Y020915D02*
X002864Y020912D01*
X002934Y020906D01*
X003004Y020895D01*
X003073Y020881D01*
X003141Y020863D01*
X003208Y020841D01*
X003274Y020815D01*
X003338Y020786D01*
X003401Y020753D01*
X003461Y020716D01*
X003519Y020677D01*
X003575Y020634D01*
X003629Y020588D01*
X003680Y020539D01*
X003728Y020488D01*
X003773Y020433D01*
X003815Y020377D01*
X003854Y020318D01*
X003890Y020257D01*
X003922Y020194D01*
X003950Y020130D01*
X003975Y020064D01*
X003996Y019996D01*
X004014Y019928D01*
X004027Y019859D01*
X004037Y019789D01*
X004042Y019718D01*
X004044Y019648D01*
X004042Y019577D01*
X004036Y019507D01*
X004026Y019437D01*
X004012Y019368D01*
X003994Y019300D01*
X003972Y019233D01*
X003947Y019167D01*
X003918Y019102D01*
X003886Y019040D01*
X003850Y018979D01*
X003811Y018920D01*
X003768Y018864D01*
X003723Y018810D01*
X003674Y018759D01*
X003623Y018710D01*
X003569Y018665D01*
X003513Y018622D01*
X003454Y018583D01*
X003393Y018547D01*
X003331Y018515D01*
X003266Y018486D01*
X003200Y018461D01*
X003133Y018439D01*
X003065Y018421D01*
X002996Y018407D01*
X002926Y018397D01*
X002856Y018391D01*
X002785Y018389D01*
X002715Y018391D01*
X002644Y018396D01*
X002574Y018406D01*
X002505Y018419D01*
X002437Y018437D01*
X002369Y018458D01*
X002303Y018483D01*
X002239Y018511D01*
X002176Y018543D01*
X002115Y018579D01*
X002056Y018618D01*
X002000Y018660D01*
X001945Y018705D01*
X001894Y018753D01*
X001845Y018804D01*
X001799Y018858D01*
X001756Y018914D01*
X001717Y018972D01*
X001680Y019032D01*
X001647Y019095D01*
X001618Y019159D01*
X001592Y019225D01*
X001570Y019292D01*
X001552Y019360D01*
X001538Y019429D01*
X001527Y019499D01*
X001521Y019569D01*
X001518Y019640D01*
X001519Y019639D02*
X001119Y019639D01*
X001118Y019640D02*
X001121Y019557D01*
X001127Y019476D01*
X001138Y019394D01*
X001152Y019314D01*
X001171Y019234D01*
X001193Y019155D01*
X001219Y019077D01*
X001249Y019000D01*
X001282Y018925D01*
X001320Y018852D01*
X001360Y018781D01*
X001404Y018712D01*
X001452Y018645D01*
X001502Y018580D01*
X001556Y018518D01*
X001612Y018458D01*
X001672Y018402D01*
X001734Y018348D01*
X001799Y018298D01*
X001866Y018250D01*
X001935Y018206D01*
X002006Y018166D01*
X002079Y018128D01*
X002154Y018095D01*
X002231Y018065D01*
X002309Y018039D01*
X002388Y018017D01*
X002468Y017998D01*
X002548Y017984D01*
X002630Y017973D01*
X002711Y017967D01*
X002794Y017964D01*
X005694Y019514D02*
X004269Y020939D01*
X004269Y021814D01*
X012119Y021814D01*
X009819Y019514D01*
X005694Y019514D01*
X005419Y018764D02*
X009419Y018764D01*
X011719Y021064D01*
X015844Y021064D01*
X017269Y019639D01*
X017519Y019639D01*
X019194Y017964D02*
X018319Y017014D01*
X018319Y005914D01*
X019194Y004964D01*
X017519Y003289D02*
X017521Y003209D01*
X017527Y003130D01*
X017536Y003051D01*
X017549Y002972D01*
X017566Y002894D01*
X017587Y002817D01*
X017611Y002741D01*
X017639Y002666D01*
X017670Y002593D01*
X017705Y002521D01*
X017743Y002452D01*
X017785Y002383D01*
X017830Y002317D01*
X017877Y002254D01*
X017928Y002192D01*
X017982Y002133D01*
X018038Y002077D01*
X018097Y002023D01*
X018159Y001972D01*
X018222Y001925D01*
X018288Y001880D01*
X018356Y001838D01*
X018426Y001800D01*
X018498Y001765D01*
X018571Y001734D01*
X018646Y001706D01*
X018722Y001682D01*
X018799Y001661D01*
X018877Y001644D01*
X018956Y001631D01*
X019035Y001622D01*
X019114Y001616D01*
X019194Y001614D01*
X019194Y002014D01*
X019123Y002017D01*
X019053Y002023D01*
X018983Y002034D01*
X018914Y002048D01*
X018846Y002066D01*
X018779Y002088D01*
X018713Y002114D01*
X018649Y002143D01*
X018586Y002176D01*
X018526Y002213D01*
X018468Y002252D01*
X018412Y002295D01*
X018358Y002341D01*
X018307Y002390D01*
X018259Y002441D01*
X018214Y002496D01*
X018172Y002552D01*
X018133Y002611D01*
X018097Y002672D01*
X018065Y002735D01*
X018037Y002799D01*
X018012Y002865D01*
X017991Y002933D01*
X017973Y003001D01*
X017960Y003070D01*
X017950Y003140D01*
X017945Y003211D01*
X017943Y003281D01*
X017945Y003352D01*
X017951Y003422D01*
X017961Y003492D01*
X017975Y003561D01*
X017993Y003629D01*
X018015Y003696D01*
X018040Y003762D01*
X018069Y003827D01*
X018101Y003889D01*
X018137Y003950D01*
X018176Y004009D01*
X018219Y004065D01*
X018264Y004119D01*
X018313Y004170D01*
X018364Y004219D01*
X018418Y004264D01*
X018474Y004307D01*
X018533Y004346D01*
X018594Y004382D01*
X018656Y004414D01*
X018721Y004443D01*
X018787Y004468D01*
X018854Y004490D01*
X018922Y004508D01*
X018991Y004522D01*
X019061Y004532D01*
X019131Y004538D01*
X019202Y004540D01*
X019272Y004538D01*
X019343Y004533D01*
X019413Y004523D01*
X019482Y004510D01*
X019550Y004492D01*
X019618Y004471D01*
X019684Y004446D01*
X019748Y004418D01*
X019811Y004386D01*
X019872Y004350D01*
X019931Y004311D01*
X019987Y004269D01*
X020042Y004224D01*
X020093Y004176D01*
X020142Y004125D01*
X020188Y004071D01*
X020231Y004015D01*
X020270Y003957D01*
X020307Y003897D01*
X020340Y003834D01*
X020369Y003770D01*
X020395Y003704D01*
X020417Y003637D01*
X020435Y003569D01*
X020449Y003500D01*
X020460Y003430D01*
X020466Y003360D01*
X020469Y003289D01*
X020869Y003289D01*
X020866Y003372D01*
X020860Y003453D01*
X020849Y003535D01*
X020835Y003615D01*
X020816Y003695D01*
X020794Y003774D01*
X020768Y003852D01*
X020738Y003929D01*
X020705Y004004D01*
X020667Y004077D01*
X020627Y004148D01*
X020583Y004217D01*
X020535Y004284D01*
X020485Y004349D01*
X020431Y004411D01*
X020375Y004471D01*
X020315Y004527D01*
X020253Y004581D01*
X020188Y004631D01*
X020121Y004679D01*
X020052Y004723D01*
X019981Y004763D01*
X019908Y004801D01*
X019833Y004834D01*
X019756Y004864D01*
X019678Y004890D01*
X019599Y004912D01*
X019519Y004931D01*
X019439Y004945D01*
X019357Y004956D01*
X019276Y004962D01*
X019193Y004965D01*
X017519Y003289D02*
X016569Y004164D01*
X005419Y004164D01*
X004469Y003289D01*
X004469Y003290D02*
X004466Y003207D01*
X004460Y003126D01*
X004449Y003044D01*
X004435Y002964D01*
X004416Y002884D01*
X004394Y002805D01*
X004368Y002727D01*
X004338Y002650D01*
X004305Y002575D01*
X004267Y002502D01*
X004227Y002431D01*
X004183Y002362D01*
X004135Y002295D01*
X004085Y002230D01*
X004031Y002168D01*
X003975Y002108D01*
X003915Y002052D01*
X003853Y001998D01*
X003788Y001948D01*
X003721Y001900D01*
X003652Y001856D01*
X003581Y001816D01*
X003508Y001778D01*
X003433Y001745D01*
X003356Y001715D01*
X003278Y001689D01*
X003199Y001667D01*
X003119Y001648D01*
X003039Y001634D01*
X002957Y001623D01*
X002876Y001617D01*
X002793Y001614D01*
X005419Y018764D02*
X004469Y019639D01*
X019194Y017964D02*
X019274Y017966D01*
X019353Y017972D01*
X019432Y017981D01*
X019511Y017994D01*
X019589Y018011D01*
X019666Y018032D01*
X019742Y018056D01*
X019817Y018084D01*
X019890Y018115D01*
X019962Y018150D01*
X020032Y018188D01*
X020100Y018230D01*
X020166Y018275D01*
X020229Y018322D01*
X020291Y018373D01*
X020350Y018427D01*
X020406Y018483D01*
X020460Y018542D01*
X020511Y018604D01*
X020558Y018667D01*
X020603Y018733D01*
X020645Y018802D01*
X020683Y018871D01*
X020718Y018943D01*
X020749Y019016D01*
X020777Y019091D01*
X020801Y019167D01*
X020822Y019244D01*
X020839Y019322D01*
X020852Y019401D01*
X020861Y019480D01*
X020867Y019559D01*
X020869Y019639D01*
X020469Y019639D01*
X020469Y019640D02*
X020466Y019569D01*
X020460Y019499D01*
X020449Y019429D01*
X020435Y019360D01*
X020417Y019292D01*
X020395Y019225D01*
X020369Y019159D01*
X020340Y019095D01*
X020307Y019032D01*
X020270Y018972D01*
X020231Y018914D01*
X020188Y018858D01*
X020142Y018804D01*
X020093Y018753D01*
X020042Y018705D01*
X019987Y018660D01*
X019931Y018618D01*
X019872Y018579D01*
X019811Y018543D01*
X019748Y018511D01*
X019684Y018483D01*
X019618Y018458D01*
X019550Y018437D01*
X019482Y018419D01*
X019413Y018406D01*
X019343Y018396D01*
X019272Y018391D01*
X019202Y018389D01*
X019131Y018391D01*
X019061Y018397D01*
X018991Y018407D01*
X018922Y018421D01*
X018854Y018439D01*
X018787Y018461D01*
X018721Y018486D01*
X018656Y018515D01*
X018594Y018547D01*
X018533Y018583D01*
X018474Y018622D01*
X018418Y018665D01*
X018364Y018710D01*
X018313Y018759D01*
X018264Y018810D01*
X018219Y018864D01*
X018176Y018920D01*
X018137Y018979D01*
X018101Y019040D01*
X018069Y019102D01*
X018040Y019167D01*
X018015Y019233D01*
X017993Y019300D01*
X017975Y019368D01*
X017961Y019437D01*
X017951Y019507D01*
X017945Y019577D01*
X017943Y019648D01*
X017945Y019718D01*
X017950Y019789D01*
X017960Y019859D01*
X017973Y019928D01*
X017991Y019996D01*
X018012Y020064D01*
X018037Y020130D01*
X018065Y020194D01*
X018097Y020257D01*
X018133Y020318D01*
X018172Y020377D01*
X018214Y020433D01*
X018259Y020488D01*
X018307Y020539D01*
X018358Y020588D01*
X018412Y020634D01*
X018468Y020677D01*
X018526Y020716D01*
X018586Y020753D01*
X018649Y020786D01*
X018713Y020815D01*
X018779Y020841D01*
X018846Y020863D01*
X018914Y020881D01*
X018983Y020895D01*
X019053Y020906D01*
X019123Y020912D01*
X019194Y020915D01*
X019194Y020914D02*
X019194Y021314D01*
X019194Y021315D02*
X019111Y021312D01*
X019030Y021306D01*
X018948Y021295D01*
X018868Y021281D01*
X018788Y021262D01*
X018709Y021240D01*
X018631Y021214D01*
X018554Y021184D01*
X018479Y021151D01*
X018406Y021113D01*
X018335Y021073D01*
X018266Y021029D01*
X018199Y020981D01*
X018134Y020931D01*
X018072Y020877D01*
X018012Y020821D01*
X017956Y020761D01*
X017902Y020699D01*
X017852Y020634D01*
X017804Y020567D01*
X017760Y020498D01*
X017720Y020427D01*
X017682Y020354D01*
X017649Y020279D01*
X017619Y020202D01*
X017593Y020124D01*
X017571Y020045D01*
X017552Y019965D01*
X017538Y019885D01*
X017527Y019803D01*
X017521Y019722D01*
X017518Y019639D01*
M02*
