G75*
G70*
%OFA0B0*%
%FSLAX24Y24*%
%IPPOS*%
%LPD*%
%AMOC8*
5,1,8,0,0,1.08239X$1,0.0*
%
%ADD10R,0.0512X0.0591*%
%ADD11R,0.0591X0.0512*%
%ADD12C,0.0748*%
%ADD13R,0.0787X0.0787*%
%ADD14C,0.0118*%
%ADD15C,0.0160*%
%ADD16C,0.0300*%
D10*
X006331Y038198D03*
X007079Y038198D03*
G36*
X036071Y069949D02*
X036433Y070311D01*
X036849Y069895D01*
X036487Y069533D01*
X036071Y069949D01*
G37*
G36*
X036600Y070478D02*
X036962Y070840D01*
X037378Y070424D01*
X037016Y070062D01*
X036600Y070478D01*
G37*
G36*
X039189Y070062D02*
X038827Y070424D01*
X039243Y070840D01*
X039605Y070478D01*
X039189Y070062D01*
G37*
G36*
X039718Y069533D02*
X039356Y069895D01*
X039772Y070311D01*
X040134Y069949D01*
X039718Y069533D01*
G37*
X069126Y038198D03*
X069874Y038198D03*
D11*
X038102Y007273D03*
X038102Y006525D03*
D12*
X038102Y021663D03*
X021567Y038198D03*
X054638Y038198D03*
D13*
G36*
X048598Y048238D02*
X048043Y047683D01*
X047488Y048238D01*
X048043Y048793D01*
X048598Y048238D01*
G37*
G36*
X036157Y051941D02*
X036294Y051168D01*
X035521Y051031D01*
X035384Y051804D01*
X036157Y051941D01*
G37*
G36*
X028716Y048238D02*
X028161Y047683D01*
X027606Y048238D01*
X028161Y048793D01*
X028716Y048238D01*
G37*
G36*
X028716Y028159D02*
X028161Y027604D01*
X027606Y028159D01*
X028161Y028714D01*
X028716Y028159D01*
G37*
G36*
X048697Y028257D02*
X048142Y027702D01*
X047587Y028257D01*
X048142Y028812D01*
X048697Y028257D01*
G37*
D14*
X030500Y028050D02*
X027945Y028050D01*
X027829Y028166D02*
X030525Y028166D01*
X030550Y028283D02*
X027712Y028283D01*
X027689Y028306D02*
X027689Y028306D01*
X027094Y028740D01*
X026819Y028880D01*
X026814Y028892D01*
X026757Y028912D01*
X026701Y028941D01*
X026688Y028937D01*
X005575Y036484D01*
X005569Y039911D01*
X026688Y047460D01*
X026701Y047456D01*
X026757Y047485D01*
X026814Y047505D01*
X026819Y047517D01*
X027094Y047657D01*
X027689Y048091D01*
X028210Y048612D01*
X028643Y049207D01*
X028784Y049482D01*
X028796Y049487D01*
X028816Y049544D01*
X028845Y049600D01*
X028841Y049613D01*
X036125Y069990D01*
X036838Y069990D01*
X036943Y069884D01*
X037090Y069884D01*
X037196Y069990D01*
X039009Y069990D01*
X039115Y069884D01*
X039261Y069884D01*
X039367Y069990D01*
X040080Y069990D01*
X047364Y049613D01*
X047360Y049600D01*
X047389Y049544D01*
X047409Y049487D01*
X047421Y049482D01*
X047561Y049207D01*
X047995Y048612D01*
X048516Y048091D01*
X049111Y047657D01*
X049385Y047517D01*
X049391Y047505D01*
X049448Y047485D01*
X049504Y047456D01*
X049517Y047460D01*
X071022Y039773D01*
X071027Y036626D01*
X049517Y028937D01*
X049504Y028941D01*
X049448Y028912D01*
X049391Y028892D01*
X049385Y028880D01*
X049111Y028740D01*
X048516Y028306D01*
X048516Y028306D01*
X047995Y027785D01*
X047561Y027190D01*
X047561Y027190D01*
X047421Y026915D01*
X047409Y026910D01*
X047389Y026853D01*
X047360Y026797D01*
X047364Y026784D01*
X039728Y005423D01*
X036476Y005423D01*
X028841Y026784D01*
X028845Y026797D01*
X028816Y026853D01*
X028796Y026910D01*
X028784Y026915D01*
X028643Y027190D01*
X028210Y027785D01*
X027689Y028306D01*
X027561Y028400D02*
X030616Y028400D01*
X030557Y028318D02*
X030482Y027962D01*
X030557Y027606D01*
X030769Y027311D01*
X030925Y027219D01*
X031431Y026907D01*
X032496Y026366D01*
X033604Y025917D01*
X034745Y025563D01*
X035912Y025306D01*
X036434Y025237D01*
X036435Y025235D01*
X036508Y025227D01*
X036508Y025227D01*
X036577Y025218D01*
X036579Y025219D01*
X036629Y025213D01*
X036858Y025294D01*
X036858Y025294D01*
X037030Y025466D01*
X037111Y025696D01*
X037099Y025803D01*
X037111Y025954D01*
X037208Y026253D01*
X037393Y026507D01*
X037647Y026691D01*
X037945Y026788D01*
X038259Y026788D01*
X038558Y026691D01*
X038812Y026507D01*
X038997Y026253D01*
X039094Y025954D01*
X039106Y025803D01*
X039094Y025696D01*
X039094Y025696D01*
X039174Y025466D01*
X039346Y025294D01*
X039346Y025294D01*
X039576Y025213D01*
X039626Y025219D01*
X039628Y025218D01*
X039696Y025227D01*
X039697Y025227D01*
X039770Y025235D01*
X039771Y025237D01*
X040293Y025306D01*
X041460Y025563D01*
X042601Y025917D01*
X043708Y026366D01*
X043708Y026366D01*
X044774Y026907D01*
X045280Y027220D01*
X045436Y027311D01*
X045648Y027606D01*
X045723Y027962D01*
X045723Y027962D01*
X045648Y028318D01*
X045436Y028613D01*
X045436Y028613D01*
X045436Y028613D01*
X045279Y028705D01*
X045279Y028706D01*
X045126Y028809D01*
X044868Y029071D01*
X044685Y029391D01*
X044591Y029747D01*
X044579Y029931D01*
X044579Y029950D01*
X044615Y029950D01*
X044614Y029895D01*
X044614Y029895D01*
X044744Y029441D01*
X044744Y029441D01*
X045001Y029045D01*
X045001Y029045D01*
X045363Y028741D01*
X045798Y028557D01*
X046267Y028507D01*
X046267Y028507D01*
X046731Y028597D01*
X047148Y028819D01*
X047482Y029153D01*
X047703Y029570D01*
X047793Y030033D01*
X050253Y030033D01*
X050236Y030040D02*
X050513Y029920D01*
X050513Y029920D01*
X050815Y029910D01*
X050888Y029936D01*
X050888Y029936D01*
X050938Y029954D01*
X050957Y029961D01*
X051026Y029985D01*
X051027Y029985D01*
X069021Y036440D01*
X069045Y036435D01*
X069088Y036464D01*
X069137Y036481D01*
X069147Y036503D01*
X069211Y036546D01*
X069211Y036546D01*
X069348Y036758D01*
X069390Y037007D01*
X069328Y037252D01*
X069175Y037452D01*
X069175Y037452D01*
X069175Y037452D01*
X068954Y037575D01*
X068891Y037581D01*
X068884Y037588D01*
X068820Y037588D01*
X068755Y037595D01*
X068748Y037588D01*
X066080Y037588D01*
X065976Y037484D01*
X065391Y036899D01*
X063766Y036899D01*
X063181Y037484D01*
X063181Y037484D01*
X063077Y037588D01*
X057812Y037588D01*
X057708Y037484D01*
X057123Y036899D01*
X055499Y036899D01*
X054914Y037484D01*
X054914Y037484D01*
X054810Y037588D01*
X052793Y037588D01*
X052685Y037588D01*
X052340Y037478D01*
X052045Y037268D01*
X051949Y037140D01*
X051908Y037106D01*
X051906Y037083D01*
X051893Y037065D01*
X051900Y037014D01*
X051834Y036397D01*
X051610Y035140D01*
X051274Y033908D01*
X050827Y032712D01*
X050274Y031561D01*
X049984Y031051D01*
X049968Y031044D01*
X049949Y030991D01*
X049920Y030943D01*
X049925Y030924D01*
X049892Y030832D01*
X049902Y030531D01*
X049902Y030531D01*
X050023Y030254D01*
X050023Y030253D01*
X050236Y030040D01*
X050236Y030040D01*
X050127Y030149D02*
X047781Y030149D01*
X047793Y030033D02*
X047744Y030503D01*
X047560Y030938D01*
X047256Y031299D01*
X047256Y031299D01*
X046860Y031557D01*
X046406Y031687D01*
X046351Y031686D01*
X046351Y031722D01*
X046370Y031722D01*
X046554Y031710D01*
X046910Y031615D01*
X047229Y031433D01*
X047491Y031174D01*
X047595Y031022D01*
X047688Y030865D01*
X047983Y030653D01*
X048339Y030578D01*
X048694Y030653D01*
X048694Y030653D01*
X048990Y030865D01*
X049081Y031021D01*
X049394Y031527D01*
X049935Y032592D01*
X049935Y032592D01*
X050384Y033700D01*
X050738Y034841D01*
X050995Y036008D01*
X051064Y036530D01*
X051066Y036531D01*
X051074Y036604D01*
X051074Y036604D01*
X051083Y036673D01*
X051082Y036675D01*
X051087Y036725D01*
X051007Y036954D01*
X051007Y036954D01*
X050835Y037126D01*
X050835Y037126D01*
X050605Y037207D01*
X050498Y037195D01*
X050347Y037207D01*
X050048Y037304D01*
X049794Y037489D01*
X049610Y037743D01*
X049513Y038041D01*
X049513Y038355D01*
X049610Y038654D01*
X049794Y038908D01*
X050048Y039093D01*
X050347Y039190D01*
X050498Y039202D01*
X050605Y039190D01*
X050605Y039190D01*
X050835Y039270D01*
X051007Y039442D01*
X051007Y039442D01*
X051087Y039672D01*
X051082Y039722D01*
X051083Y039724D01*
X051074Y039793D01*
X051066Y039866D01*
X051064Y039867D01*
X050995Y040389D01*
X050995Y040389D01*
X050738Y041556D01*
X050384Y042697D01*
X049935Y043804D01*
X049394Y044870D01*
X049081Y045376D01*
X048990Y045532D01*
X048990Y045532D01*
X048990Y045532D01*
X048694Y045744D01*
X048339Y045819D01*
X047983Y045744D01*
X047688Y045532D01*
X047688Y045532D01*
X047688Y045532D01*
X047595Y045375D01*
X047491Y045223D01*
X047229Y044964D01*
X046910Y044781D01*
X046554Y044687D01*
X046370Y044675D01*
X046351Y044675D01*
X046351Y044711D01*
X046406Y044710D01*
X046860Y044840D01*
X047256Y045097D01*
X047560Y045459D01*
X047560Y045459D01*
X047744Y045894D01*
X047793Y046363D01*
X047703Y046827D01*
X047482Y047244D01*
X047148Y047578D01*
X046731Y047799D01*
X046267Y047890D01*
X045798Y047840D01*
X045363Y047656D01*
X045001Y047352D01*
X044744Y046956D01*
X044614Y046502D01*
X044615Y046447D01*
X044579Y046447D01*
X044579Y046466D01*
X044591Y046650D01*
X044685Y047006D01*
X044685Y047006D01*
X044868Y047326D01*
X045126Y047588D01*
X045279Y047691D01*
X045342Y047729D01*
X045436Y047784D01*
X045648Y048079D01*
X045723Y048435D01*
X045648Y048790D01*
X045648Y048790D01*
X045436Y049086D01*
X045280Y049177D01*
X044774Y049490D01*
X043708Y050031D01*
X042601Y050480D01*
X041460Y050834D01*
X041460Y050834D01*
X040293Y051091D01*
X039771Y051160D01*
X039770Y051162D01*
X039697Y051170D01*
X039696Y051170D01*
X039628Y051179D01*
X039626Y051178D01*
X039576Y051183D01*
X039346Y051103D01*
X039174Y050931D01*
X039174Y050931D01*
X039094Y050701D01*
X039106Y050594D01*
X039094Y050443D01*
X038997Y050144D01*
X038812Y049890D01*
X038558Y049706D01*
X038259Y049609D01*
X037945Y049609D01*
X037647Y049706D01*
X037393Y049890D01*
X037208Y050144D01*
X037111Y050443D01*
X037099Y050594D01*
X037111Y050701D01*
X037111Y050701D01*
X037030Y050931D01*
X036858Y051103D01*
X036629Y051183D01*
X036579Y051178D01*
X036577Y051179D01*
X036509Y051170D01*
X036508Y051170D01*
X036435Y051162D01*
X036434Y051160D01*
X035912Y051091D01*
X034745Y050834D01*
X034745Y050834D01*
X033604Y050480D01*
X032496Y050031D01*
X031431Y049490D01*
X031431Y049490D01*
X030925Y049177D01*
X030769Y049086D01*
X030769Y049086D01*
X030769Y049086D01*
X030557Y048790D01*
X030482Y048435D01*
X030482Y048435D01*
X030557Y048079D01*
X030557Y048079D01*
X030769Y047784D01*
X030769Y047784D01*
X030926Y047691D01*
X031078Y047588D01*
X031337Y047326D01*
X031519Y047006D01*
X031614Y046650D01*
X031626Y046466D01*
X031626Y046447D01*
X031590Y046447D01*
X031591Y046502D01*
X031460Y046956D01*
X031203Y047352D01*
X030842Y047656D01*
X030842Y047656D01*
X030407Y047840D01*
X029937Y047890D01*
X029474Y047799D01*
X029057Y047578D01*
X029057Y047578D01*
X028723Y047244D01*
X028501Y046827D01*
X028411Y046363D01*
X028461Y045894D01*
X028461Y045894D01*
X028645Y045459D01*
X028949Y045097D01*
X029345Y044840D01*
X029799Y044710D01*
X029854Y044711D01*
X029854Y044675D01*
X029834Y044675D01*
X029651Y044687D01*
X029295Y044781D01*
X028975Y044964D01*
X028713Y045223D01*
X028609Y045375D01*
X028572Y045438D01*
X028517Y045532D01*
X028222Y045744D01*
X028222Y045744D01*
X027866Y045819D01*
X027510Y045744D01*
X027215Y045532D01*
X027215Y045532D01*
X027215Y045532D01*
X027123Y045376D01*
X026811Y044870D01*
X026270Y043804D01*
X025821Y042697D01*
X025467Y041556D01*
X025210Y040389D01*
X025141Y039867D01*
X025139Y039866D01*
X025131Y039793D01*
X025131Y039792D01*
X025122Y039724D01*
X025123Y039722D01*
X025117Y039672D01*
X025198Y039442D01*
X025370Y039270D01*
X025599Y039190D01*
X025600Y039190D02*
X025707Y039202D01*
X025858Y039190D01*
X026156Y039093D01*
X026411Y038908D01*
X026595Y038654D01*
X026692Y038355D01*
X026692Y038041D01*
X026595Y037743D01*
X026411Y037489D01*
X026156Y037304D01*
X025858Y037207D01*
X025707Y037195D01*
X025600Y037207D01*
X025599Y037207D01*
X025370Y037126D01*
X025198Y036954D01*
X025117Y036725D01*
X025123Y036675D01*
X025122Y036673D01*
X025131Y036605D01*
X025131Y036604D01*
X025139Y036531D01*
X025141Y036530D01*
X025210Y036008D01*
X025467Y034841D01*
X025821Y033700D01*
X026270Y032592D01*
X026811Y031527D01*
X027123Y031021D01*
X027215Y030865D01*
X027215Y030865D01*
X027215Y030865D01*
X027510Y030653D01*
X027510Y030653D01*
X027866Y030578D01*
X027866Y030578D01*
X028222Y030653D01*
X028517Y030865D01*
X028517Y030865D01*
X028572Y030958D01*
X028609Y031022D01*
X028713Y031174D01*
X028975Y031433D01*
X029295Y031615D01*
X029651Y031710D01*
X029835Y031722D01*
X029854Y031722D01*
X029854Y031686D01*
X029799Y031687D01*
X029799Y031687D01*
X029345Y031557D01*
X028949Y031299D01*
X028949Y031299D01*
X028645Y030938D01*
X028645Y030938D01*
X028461Y030503D01*
X028411Y030033D01*
X028501Y029570D01*
X028723Y029153D01*
X029057Y028819D01*
X029474Y028597D01*
X029937Y028507D01*
X030407Y028557D01*
X030842Y028741D01*
X031203Y029045D01*
X031460Y029441D01*
X031591Y029895D01*
X031590Y029950D01*
X031626Y029950D01*
X031626Y029931D01*
X031614Y029747D01*
X031519Y029391D01*
X031337Y029071D01*
X031078Y028809D01*
X030926Y028706D01*
X030926Y028706D01*
X030769Y028613D01*
X030557Y028318D01*
X030557Y028318D01*
X030699Y028516D02*
X030022Y028516D01*
X029891Y028516D02*
X027400Y028516D01*
X027240Y028633D02*
X029407Y028633D01*
X029188Y028749D02*
X027074Y028749D01*
X026846Y028866D02*
X029010Y028866D01*
X029057Y028819D02*
X029057Y028819D01*
X028893Y028983D02*
X026559Y028983D01*
X026232Y029099D02*
X028776Y029099D01*
X028723Y029153D02*
X028723Y029153D01*
X028689Y029216D02*
X025906Y029216D01*
X025580Y029333D02*
X028627Y029333D01*
X028565Y029449D02*
X025253Y029449D01*
X024927Y029566D02*
X028503Y029566D01*
X028501Y029570D02*
X028501Y029570D01*
X028479Y029683D02*
X024601Y029683D01*
X024274Y029799D02*
X028457Y029799D01*
X028434Y029916D02*
X025579Y029916D01*
X025691Y029920D02*
X025691Y029920D01*
X025390Y029910D01*
X025390Y029910D01*
X025316Y029936D01*
X025316Y029936D01*
X025265Y029954D01*
X025247Y029961D01*
X025178Y029985D01*
X025178Y029985D01*
X007183Y036440D01*
X007160Y036435D01*
X007117Y036464D01*
X007068Y036481D01*
X007057Y036503D01*
X006993Y036546D01*
X006993Y036546D01*
X006993Y036546D01*
X006856Y036758D01*
X006856Y036758D01*
X006815Y037007D01*
X006815Y037007D01*
X006876Y037252D01*
X006876Y037252D01*
X007030Y037452D01*
X007030Y037452D01*
X007251Y037575D01*
X007251Y037575D01*
X007376Y037588D01*
X007449Y037595D01*
X007457Y037588D01*
X009904Y037588D01*
X009551Y037941D01*
X008682Y037941D01*
X008662Y037921D01*
X008541Y037871D01*
X008411Y037871D01*
X008291Y037921D01*
X008199Y038013D01*
X008149Y038133D01*
X008149Y038264D01*
X008199Y038384D01*
X008291Y038476D01*
X008411Y038526D01*
X008541Y038526D01*
X008662Y038476D01*
X008682Y038456D01*
X009606Y038456D01*
X009709Y038456D01*
X009803Y038416D01*
X011044Y037176D01*
X012405Y037176D01*
X012983Y037754D01*
X013055Y037826D01*
X013150Y037865D01*
X018465Y037865D01*
X018567Y037865D01*
X018661Y037826D01*
X019311Y037176D01*
X020673Y037176D01*
X021241Y037744D01*
X021100Y037886D01*
X021016Y038089D01*
X021016Y038308D01*
X021100Y038511D01*
X021255Y038666D01*
X021457Y038750D01*
X021677Y038750D01*
X021879Y038666D01*
X022034Y038511D01*
X022118Y038308D01*
X022118Y038089D01*
X022034Y037886D01*
X021879Y037731D01*
X021824Y037708D01*
X021824Y037655D01*
X021796Y037588D01*
X023265Y037588D01*
X023296Y037588D01*
X023510Y037588D01*
X023511Y037588D01*
X023519Y037588D01*
X023520Y037588D01*
X023864Y037478D01*
X023864Y037478D01*
X024159Y037268D01*
X024159Y037268D01*
X024256Y037140D01*
X024296Y037106D01*
X024298Y037083D01*
X024312Y037065D01*
X024305Y037014D01*
X024371Y036397D01*
X024594Y035140D01*
X024931Y033908D01*
X025378Y032712D01*
X025931Y031561D01*
X026221Y031051D01*
X026237Y031044D01*
X026256Y030991D01*
X026284Y030943D01*
X026280Y030924D01*
X026312Y030832D01*
X026312Y030832D01*
X026302Y030531D01*
X026302Y030531D01*
X026182Y030254D01*
X026182Y030253D01*
X025969Y030040D01*
X025969Y030040D01*
X025691Y029920D01*
X025952Y030033D02*
X028411Y030033D01*
X028411Y030033D01*
X028423Y030149D02*
X026078Y030149D01*
X026187Y030266D02*
X028436Y030266D01*
X028448Y030383D02*
X026238Y030383D01*
X026289Y030499D02*
X028460Y030499D01*
X028461Y030503D02*
X028461Y030503D01*
X028509Y030616D02*
X028046Y030616D01*
X028222Y030653D02*
X028222Y030653D01*
X028333Y030733D02*
X028558Y030733D01*
X028608Y030849D02*
X028495Y030849D01*
X028572Y030958D02*
X028572Y030958D01*
X028577Y030966D02*
X028669Y030966D01*
X028651Y031083D02*
X028767Y031083D01*
X028738Y031199D02*
X028865Y031199D01*
X028857Y031316D02*
X028974Y031316D01*
X028975Y031433D02*
X029154Y031433D01*
X029179Y031549D02*
X029333Y031549D01*
X029345Y031557D02*
X029345Y031557D01*
X029485Y031666D02*
X029726Y031666D01*
X031590Y029916D02*
X031625Y029916D01*
X031591Y029895D02*
X031591Y029895D01*
X031617Y029799D02*
X031563Y029799D01*
X031530Y029683D02*
X031597Y029683D01*
X031566Y029566D02*
X031496Y029566D01*
X031463Y029449D02*
X031535Y029449D01*
X031460Y029441D02*
X031460Y029441D01*
X031486Y029333D02*
X031390Y029333D01*
X031419Y029216D02*
X031315Y029216D01*
X031353Y029099D02*
X031239Y029099D01*
X031203Y029045D02*
X031203Y029045D01*
X031203Y029045D01*
X031249Y028983D02*
X031130Y028983D01*
X031134Y028866D02*
X030991Y028866D01*
X030990Y028749D02*
X030851Y028749D01*
X030842Y028741D02*
X030842Y028741D01*
X030802Y028633D02*
X030586Y028633D01*
X030769Y028613D02*
X030769Y028613D01*
X030769Y028613D01*
X030407Y028557D02*
X030407Y028557D01*
X030482Y027962D02*
X030482Y027962D01*
X030488Y027933D02*
X028062Y027933D01*
X028179Y027816D02*
X030513Y027816D01*
X030537Y027700D02*
X028272Y027700D01*
X028357Y027583D02*
X030574Y027583D01*
X030557Y027606D02*
X030557Y027606D01*
X030658Y027466D02*
X028442Y027466D01*
X028527Y027350D02*
X030741Y027350D01*
X030769Y027311D02*
X030769Y027311D01*
X030769Y027311D01*
X030902Y027233D02*
X028612Y027233D01*
X028681Y027116D02*
X031091Y027116D01*
X031280Y027000D02*
X028741Y027000D01*
X028805Y026883D02*
X031477Y026883D01*
X031431Y026907D02*
X031431Y026907D01*
X031707Y026766D02*
X028847Y026766D01*
X028889Y026650D02*
X031937Y026650D01*
X032167Y026533D02*
X028930Y026533D01*
X028972Y026416D02*
X032397Y026416D01*
X032660Y026300D02*
X030986Y026300D01*
X030955Y026317D02*
X030948Y026333D01*
X030895Y026352D01*
X030847Y026380D01*
X030828Y026376D01*
X030736Y026408D01*
X030434Y026398D01*
X030157Y026278D01*
X029944Y026065D01*
X029944Y026065D01*
X029944Y026065D01*
X029824Y025788D01*
X029824Y025788D01*
X029814Y025486D01*
X029814Y025486D01*
X029840Y025413D01*
X029840Y025412D01*
X029860Y025355D01*
X029864Y025344D01*
X029889Y025274D01*
X029889Y025274D01*
X036344Y007279D01*
X036339Y007256D01*
X036368Y007213D01*
X036385Y007164D01*
X036407Y007154D01*
X036450Y007090D01*
X036450Y007089D01*
X036662Y006952D01*
X036911Y006911D01*
X037156Y006972D01*
X037356Y007126D01*
X037356Y007126D01*
X037479Y007347D01*
X037485Y007409D01*
X037492Y007416D01*
X037492Y007481D01*
X037499Y007546D01*
X037492Y007553D01*
X037492Y010221D01*
X037388Y010325D01*
X036803Y010910D01*
X036803Y012534D01*
X037388Y013119D01*
X037388Y013119D01*
X037492Y013223D01*
X037492Y018488D01*
X037388Y018592D01*
X036803Y019177D01*
X036803Y020802D01*
X037388Y021387D01*
X037388Y021387D01*
X037492Y021491D01*
X037492Y023361D01*
X037492Y023435D01*
X037492Y023473D01*
X037492Y023508D01*
X037492Y023616D01*
X037382Y023960D01*
X037382Y023960D01*
X037172Y024255D01*
X037044Y024352D01*
X037009Y024393D01*
X036987Y024394D01*
X036969Y024408D01*
X036918Y024401D01*
X036301Y024467D01*
X035044Y024690D01*
X033812Y025027D01*
X032616Y025474D01*
X031465Y026027D01*
X030955Y026317D01*
X031191Y026183D02*
X032947Y026183D01*
X033235Y026066D02*
X031396Y026066D01*
X031626Y025950D02*
X033523Y025950D01*
X033874Y025833D02*
X031869Y025833D01*
X032111Y025716D02*
X034250Y025716D01*
X034626Y025600D02*
X032354Y025600D01*
X032596Y025483D02*
X035107Y025483D01*
X035638Y025367D02*
X032902Y025367D01*
X033215Y025250D02*
X036335Y025250D01*
X036629Y025213D02*
X036629Y025213D01*
X036733Y025250D02*
X037564Y025250D01*
X037667Y025146D02*
X037452Y025362D01*
X037335Y025644D01*
X037335Y025950D01*
X037111Y025950D01*
X037101Y025833D02*
X037335Y025833D01*
X037335Y025716D02*
X037109Y025716D01*
X037111Y025696D02*
X037111Y025696D01*
X037077Y025600D02*
X037353Y025600D01*
X037401Y025483D02*
X037036Y025483D01*
X037030Y025466D02*
X037030Y025466D01*
X036931Y025367D02*
X037450Y025367D01*
X037667Y025146D02*
X037950Y025029D01*
X038255Y025029D01*
X038537Y025146D01*
X038753Y025362D01*
X038870Y025644D01*
X038870Y025950D01*
X039094Y025950D01*
X039103Y025833D02*
X038870Y025833D01*
X038870Y025716D02*
X039096Y025716D01*
X039127Y025600D02*
X038852Y025600D01*
X038803Y025483D02*
X039168Y025483D01*
X039174Y025466D02*
X039174Y025466D01*
X039274Y025367D02*
X038755Y025367D01*
X038641Y025250D02*
X039472Y025250D01*
X039576Y025213D02*
X039576Y025213D01*
X039870Y025250D02*
X042990Y025250D01*
X043302Y025367D02*
X040567Y025367D01*
X041097Y025483D02*
X043609Y025483D01*
X043589Y025474D02*
X042393Y025027D01*
X041161Y024690D01*
X039903Y024467D01*
X039287Y024401D01*
X039236Y024408D01*
X039218Y024394D01*
X039195Y024393D01*
X039161Y024352D01*
X039032Y024255D01*
X038823Y023960D01*
X038712Y023616D01*
X038712Y023616D01*
X038712Y023508D01*
X038712Y023438D01*
X038712Y023435D01*
X038712Y023361D01*
X038712Y021810D01*
X038642Y021881D01*
X038602Y021898D01*
X038570Y021975D01*
X038415Y022130D01*
X038212Y022214D01*
X037993Y022214D01*
X037790Y022130D01*
X037635Y021975D01*
X037551Y021773D01*
X037551Y021553D01*
X037635Y021351D01*
X037790Y021196D01*
X037993Y021112D01*
X038212Y021112D01*
X038415Y021196D01*
X038507Y021288D01*
X039125Y020671D01*
X039125Y019309D01*
X038475Y018659D01*
X038436Y018565D01*
X038436Y018462D01*
X038436Y013147D01*
X038475Y013053D01*
X038547Y012980D01*
X039125Y012403D01*
X039125Y011041D01*
X037884Y009801D01*
X037845Y009706D01*
X037845Y009604D01*
X037845Y008680D01*
X037825Y008659D01*
X037775Y008539D01*
X037775Y008409D01*
X037825Y008289D01*
X037917Y008197D01*
X038037Y008147D01*
X038167Y008147D01*
X038288Y008197D01*
X038380Y008289D01*
X038429Y008409D01*
X038429Y008539D01*
X038380Y008659D01*
X038359Y008680D01*
X038359Y009549D01*
X038712Y009901D01*
X038712Y007553D01*
X038706Y007546D01*
X038712Y007481D01*
X038712Y007416D01*
X038719Y007409D01*
X038726Y007347D01*
X038726Y007347D01*
X038848Y007126D01*
X038848Y007126D01*
X038848Y007126D01*
X039049Y006972D01*
X039294Y006911D01*
X039543Y006952D01*
X039755Y007089D01*
X039797Y007154D01*
X039819Y007164D01*
X039837Y007213D01*
X039865Y007256D01*
X039861Y007279D01*
X046315Y025274D01*
X046316Y025274D01*
X046340Y025343D01*
X046344Y025354D01*
X046365Y025412D01*
X046365Y025413D01*
X046391Y025486D01*
X046381Y025788D01*
X046261Y026065D01*
X046047Y026278D01*
X045770Y026398D01*
X045468Y026408D01*
X045377Y026376D01*
X045358Y026380D01*
X045310Y026352D01*
X045257Y026333D01*
X045249Y026317D01*
X044739Y026027D01*
X043589Y025474D01*
X043851Y025600D02*
X041579Y025600D01*
X041460Y025563D02*
X041460Y025563D01*
X041955Y025716D02*
X044094Y025716D01*
X044336Y025833D02*
X042331Y025833D01*
X042601Y025917D02*
X042601Y025917D01*
X042682Y025950D02*
X044579Y025950D01*
X044808Y026066D02*
X042970Y026066D01*
X043257Y026183D02*
X045014Y026183D01*
X045219Y026300D02*
X043545Y026300D01*
X043808Y026416D02*
X047233Y026416D01*
X047191Y026300D02*
X045997Y026300D01*
X046047Y026278D02*
X046047Y026278D01*
X046142Y026183D02*
X047149Y026183D01*
X047108Y026066D02*
X046259Y026066D01*
X046261Y026065D02*
X046261Y026065D01*
X046311Y025950D02*
X047066Y025950D01*
X047024Y025833D02*
X046361Y025833D01*
X046381Y025788D02*
X046381Y025788D01*
X046383Y025716D02*
X046983Y025716D01*
X046941Y025600D02*
X046387Y025600D01*
X046391Y025486D02*
X046391Y025486D01*
X046390Y025483D02*
X046899Y025483D01*
X046857Y025367D02*
X046348Y025367D01*
X046307Y025250D02*
X046816Y025250D01*
X046774Y025133D02*
X046265Y025133D01*
X046223Y025017D02*
X046732Y025017D01*
X046691Y024900D02*
X046181Y024900D01*
X046139Y024783D02*
X046649Y024783D01*
X046607Y024667D02*
X046097Y024667D01*
X046056Y024550D02*
X046566Y024550D01*
X046524Y024433D02*
X046014Y024433D01*
X045972Y024317D02*
X046482Y024317D01*
X046440Y024200D02*
X045930Y024200D01*
X045888Y024083D02*
X046399Y024083D01*
X046357Y023967D02*
X045846Y023967D01*
X045804Y023850D02*
X046315Y023850D01*
X046274Y023733D02*
X045763Y023733D01*
X045721Y023617D02*
X046232Y023617D01*
X046190Y023500D02*
X045679Y023500D01*
X045637Y023383D02*
X046149Y023383D01*
X046107Y023267D02*
X045595Y023267D01*
X045553Y023150D02*
X046065Y023150D01*
X046023Y023033D02*
X045512Y023033D01*
X045470Y022917D02*
X045982Y022917D01*
X045940Y022800D02*
X045428Y022800D01*
X045386Y022684D02*
X045898Y022684D01*
X045857Y022567D02*
X045344Y022567D01*
X045302Y022450D02*
X045815Y022450D01*
X045773Y022334D02*
X045261Y022334D01*
X045219Y022217D02*
X045732Y022217D01*
X045690Y022100D02*
X045177Y022100D01*
X045135Y021984D02*
X045648Y021984D01*
X045606Y021867D02*
X045093Y021867D01*
X045051Y021750D02*
X045565Y021750D01*
X045523Y021634D02*
X045009Y021634D01*
X044968Y021517D02*
X045481Y021517D01*
X045440Y021400D02*
X044926Y021400D01*
X044884Y021284D02*
X045398Y021284D01*
X045356Y021167D02*
X044842Y021167D01*
X044800Y021050D02*
X045315Y021050D01*
X045273Y020934D02*
X044758Y020934D01*
X044717Y020817D02*
X045231Y020817D01*
X045189Y020700D02*
X044675Y020700D01*
X044633Y020584D02*
X045148Y020584D01*
X045106Y020467D02*
X044591Y020467D01*
X044549Y020350D02*
X045064Y020350D01*
X045023Y020234D02*
X044507Y020234D01*
X044466Y020117D02*
X044981Y020117D01*
X044939Y020000D02*
X044424Y020000D01*
X044382Y019884D02*
X044898Y019884D01*
X044856Y019767D02*
X044340Y019767D01*
X044298Y019651D02*
X044814Y019651D01*
X044772Y019534D02*
X044256Y019534D01*
X044214Y019417D02*
X044731Y019417D01*
X044689Y019301D02*
X044173Y019301D01*
X044131Y019184D02*
X044647Y019184D01*
X044606Y019067D02*
X044089Y019067D01*
X044047Y018951D02*
X044564Y018951D01*
X044522Y018834D02*
X044005Y018834D01*
X043963Y018717D02*
X044481Y018717D01*
X044439Y018601D02*
X043922Y018601D01*
X043880Y018484D02*
X044397Y018484D01*
X044355Y018367D02*
X043838Y018367D01*
X043796Y018251D02*
X044314Y018251D01*
X044272Y018134D02*
X043754Y018134D01*
X043712Y018017D02*
X044230Y018017D01*
X044189Y017901D02*
X043670Y017901D01*
X043629Y017784D02*
X044147Y017784D01*
X044105Y017667D02*
X043587Y017667D01*
X043545Y017551D02*
X044064Y017551D01*
X044022Y017434D02*
X043503Y017434D01*
X043461Y017317D02*
X043980Y017317D01*
X043938Y017201D02*
X043419Y017201D01*
X043378Y017084D02*
X043897Y017084D01*
X043855Y016967D02*
X043336Y016967D01*
X043294Y016851D02*
X043813Y016851D01*
X043772Y016734D02*
X043252Y016734D01*
X043210Y016618D02*
X043730Y016618D01*
X043688Y016501D02*
X043168Y016501D01*
X043127Y016384D02*
X043647Y016384D01*
X043605Y016268D02*
X043085Y016268D01*
X043043Y016151D02*
X043563Y016151D01*
X043521Y016034D02*
X043001Y016034D01*
X042959Y015918D02*
X043480Y015918D01*
X043438Y015801D02*
X042917Y015801D01*
X042875Y015684D02*
X043396Y015684D01*
X043355Y015568D02*
X042834Y015568D01*
X042792Y015451D02*
X043313Y015451D01*
X043271Y015334D02*
X042750Y015334D01*
X042708Y015218D02*
X043230Y015218D01*
X043188Y015101D02*
X042666Y015101D01*
X042624Y014984D02*
X043146Y014984D01*
X043104Y014868D02*
X042583Y014868D01*
X042541Y014751D02*
X043063Y014751D01*
X043021Y014634D02*
X042499Y014634D01*
X042457Y014518D02*
X042979Y014518D01*
X042938Y014401D02*
X042415Y014401D01*
X042373Y014284D02*
X042896Y014284D01*
X042854Y014168D02*
X042331Y014168D01*
X042290Y014051D02*
X042813Y014051D01*
X042771Y013934D02*
X042248Y013934D01*
X042206Y013818D02*
X042729Y013818D01*
X042687Y013701D02*
X042164Y013701D01*
X042122Y013585D02*
X042646Y013585D01*
X042604Y013468D02*
X042080Y013468D01*
X042039Y013351D02*
X042562Y013351D01*
X042521Y013235D02*
X041997Y013235D01*
X041955Y013118D02*
X042479Y013118D01*
X042437Y013001D02*
X041913Y013001D01*
X041871Y012885D02*
X042396Y012885D01*
X042354Y012768D02*
X041829Y012768D01*
X041788Y012651D02*
X042312Y012651D01*
X042270Y012535D02*
X041746Y012535D01*
X041704Y012418D02*
X042229Y012418D01*
X042187Y012301D02*
X041662Y012301D01*
X041620Y012185D02*
X042145Y012185D01*
X042104Y012068D02*
X041578Y012068D01*
X041536Y011951D02*
X042062Y011951D01*
X042020Y011835D02*
X041495Y011835D01*
X041453Y011718D02*
X041979Y011718D01*
X041937Y011601D02*
X041411Y011601D01*
X041369Y011485D02*
X041895Y011485D01*
X041853Y011368D02*
X041327Y011368D01*
X041285Y011251D02*
X041812Y011251D01*
X041770Y011135D02*
X041244Y011135D01*
X041202Y011018D02*
X041728Y011018D01*
X041687Y010901D02*
X041160Y010901D01*
X041118Y010785D02*
X041645Y010785D01*
X041603Y010668D02*
X041076Y010668D01*
X041034Y010552D02*
X041562Y010552D01*
X041520Y010435D02*
X040993Y010435D01*
X040951Y010318D02*
X041478Y010318D01*
X041436Y010202D02*
X040909Y010202D01*
X040867Y010085D02*
X041395Y010085D01*
X041353Y009968D02*
X040825Y009968D01*
X040783Y009852D02*
X041311Y009852D01*
X041270Y009735D02*
X040741Y009735D01*
X040700Y009618D02*
X041228Y009618D01*
X041186Y009502D02*
X040658Y009502D01*
X040616Y009385D02*
X041145Y009385D01*
X041103Y009268D02*
X040574Y009268D01*
X040532Y009152D02*
X041061Y009152D01*
X041019Y009035D02*
X040490Y009035D01*
X040449Y008918D02*
X040978Y008918D01*
X040936Y008802D02*
X040407Y008802D01*
X040365Y008685D02*
X040894Y008685D01*
X040853Y008568D02*
X040323Y008568D01*
X040281Y008452D02*
X040811Y008452D01*
X040769Y008335D02*
X040239Y008335D01*
X040198Y008218D02*
X040728Y008218D01*
X040686Y008102D02*
X040156Y008102D01*
X040114Y007985D02*
X040644Y007985D01*
X040602Y007869D02*
X040072Y007869D01*
X040030Y007752D02*
X040561Y007752D01*
X040519Y007635D02*
X039988Y007635D01*
X039946Y007519D02*
X040477Y007519D01*
X040436Y007402D02*
X039905Y007402D01*
X039863Y007285D02*
X040394Y007285D01*
X040352Y007169D02*
X039821Y007169D01*
X039755Y007089D02*
X039755Y007089D01*
X039696Y007052D02*
X040311Y007052D01*
X040269Y006935D02*
X039439Y006935D01*
X039197Y006935D02*
X038494Y006935D01*
X038471Y006958D02*
X038575Y006854D01*
X038575Y006196D01*
X038471Y006092D01*
X038383Y006092D01*
X038429Y005980D01*
X038429Y005850D01*
X038380Y005730D01*
X038288Y005638D01*
X038167Y005588D01*
X038037Y005588D01*
X037917Y005638D01*
X037825Y005730D01*
X037775Y005850D01*
X037775Y005980D01*
X037822Y006092D01*
X037734Y006092D01*
X037630Y006196D01*
X037630Y006854D01*
X037734Y006958D01*
X038471Y006958D01*
X038575Y006819D02*
X040227Y006819D01*
X040185Y006702D02*
X038575Y006702D01*
X038575Y006585D02*
X040144Y006585D01*
X040102Y006469D02*
X038575Y006469D01*
X038575Y006352D02*
X040060Y006352D01*
X040019Y006235D02*
X038575Y006235D01*
X038498Y006119D02*
X039977Y006119D01*
X039935Y006002D02*
X038420Y006002D01*
X038429Y005885D02*
X039894Y005885D01*
X039852Y005769D02*
X038396Y005769D01*
X038302Y005652D02*
X039810Y005652D01*
X039768Y005535D02*
X036436Y005535D01*
X036395Y005652D02*
X037903Y005652D01*
X037809Y005769D02*
X036353Y005769D01*
X036311Y005885D02*
X037775Y005885D01*
X037784Y006002D02*
X036269Y006002D01*
X036228Y006119D02*
X037707Y006119D01*
X037630Y006235D02*
X036186Y006235D01*
X036144Y006352D02*
X037630Y006352D01*
X037630Y006469D02*
X036103Y006469D01*
X036061Y006585D02*
X037630Y006585D01*
X037630Y006702D02*
X036019Y006702D01*
X035978Y006819D02*
X037630Y006819D01*
X037711Y006935D02*
X037007Y006935D01*
X036911Y006911D02*
X036911Y006911D01*
X036766Y006935D02*
X035936Y006935D01*
X035894Y007052D02*
X036508Y007052D01*
X036450Y007089D02*
X036450Y007089D01*
X036384Y007169D02*
X035852Y007169D01*
X035811Y007285D02*
X036342Y007285D01*
X036300Y007402D02*
X035769Y007402D01*
X035727Y007519D02*
X036258Y007519D01*
X036216Y007635D02*
X035686Y007635D01*
X035644Y007752D02*
X036174Y007752D01*
X036133Y007869D02*
X035602Y007869D01*
X035561Y007985D02*
X036091Y007985D01*
X036049Y008102D02*
X035519Y008102D01*
X035477Y008218D02*
X036007Y008218D01*
X035965Y008335D02*
X035435Y008335D01*
X035394Y008452D02*
X035923Y008452D01*
X035882Y008568D02*
X035352Y008568D01*
X035310Y008685D02*
X035840Y008685D01*
X035798Y008802D02*
X035269Y008802D01*
X035227Y008918D02*
X035756Y008918D01*
X035714Y009035D02*
X035185Y009035D01*
X035144Y009152D02*
X035672Y009152D01*
X035631Y009268D02*
X035102Y009268D01*
X035060Y009385D02*
X035589Y009385D01*
X035547Y009502D02*
X035018Y009502D01*
X034977Y009618D02*
X035505Y009618D01*
X035463Y009735D02*
X034935Y009735D01*
X034893Y009852D02*
X035421Y009852D01*
X035379Y009968D02*
X034852Y009968D01*
X034810Y010085D02*
X035338Y010085D01*
X035296Y010202D02*
X034768Y010202D01*
X034727Y010318D02*
X035254Y010318D01*
X035212Y010435D02*
X034685Y010435D01*
X034643Y010552D02*
X035170Y010552D01*
X035128Y010668D02*
X034601Y010668D01*
X034560Y010785D02*
X035087Y010785D01*
X035045Y010901D02*
X034518Y010901D01*
X034476Y011018D02*
X035003Y011018D01*
X034961Y011135D02*
X034435Y011135D01*
X034393Y011251D02*
X034919Y011251D01*
X034877Y011368D02*
X034351Y011368D01*
X034310Y011485D02*
X034836Y011485D01*
X034794Y011601D02*
X034268Y011601D01*
X034226Y011718D02*
X034752Y011718D01*
X034710Y011835D02*
X034184Y011835D01*
X034143Y011951D02*
X034668Y011951D01*
X034626Y012068D02*
X034101Y012068D01*
X034059Y012185D02*
X034584Y012185D01*
X034543Y012301D02*
X034018Y012301D01*
X033976Y012418D02*
X034501Y012418D01*
X034459Y012535D02*
X033934Y012535D01*
X033893Y012651D02*
X034417Y012651D01*
X034375Y012768D02*
X033851Y012768D01*
X033809Y012885D02*
X034333Y012885D01*
X034292Y013001D02*
X033767Y013001D01*
X033726Y013118D02*
X034250Y013118D01*
X034208Y013235D02*
X033684Y013235D01*
X033642Y013351D02*
X034166Y013351D01*
X034124Y013468D02*
X033601Y013468D01*
X033559Y013585D02*
X034082Y013585D01*
X034040Y013701D02*
X033517Y013701D01*
X033476Y013818D02*
X033999Y013818D01*
X033957Y013934D02*
X033434Y013934D01*
X033392Y014051D02*
X033915Y014051D01*
X033873Y014168D02*
X033350Y014168D01*
X033309Y014284D02*
X033831Y014284D01*
X033789Y014401D02*
X033267Y014401D01*
X033225Y014518D02*
X033748Y014518D01*
X033706Y014634D02*
X033184Y014634D01*
X033142Y014751D02*
X033664Y014751D01*
X033622Y014868D02*
X033100Y014868D01*
X033059Y014984D02*
X033580Y014984D01*
X033538Y015101D02*
X033017Y015101D01*
X032975Y015218D02*
X033497Y015218D01*
X033455Y015334D02*
X032933Y015334D01*
X032892Y015451D02*
X033413Y015451D01*
X033371Y015568D02*
X032850Y015568D01*
X032808Y015684D02*
X033329Y015684D01*
X033287Y015801D02*
X032767Y015801D01*
X032725Y015918D02*
X033245Y015918D01*
X033204Y016034D02*
X032683Y016034D01*
X032642Y016151D02*
X033162Y016151D01*
X033120Y016268D02*
X032600Y016268D01*
X032558Y016384D02*
X033078Y016384D01*
X033036Y016501D02*
X032516Y016501D01*
X032475Y016618D02*
X032994Y016618D01*
X032953Y016734D02*
X032433Y016734D01*
X032391Y016851D02*
X032911Y016851D01*
X032869Y016967D02*
X032350Y016967D01*
X032308Y017084D02*
X032827Y017084D01*
X032785Y017201D02*
X032266Y017201D01*
X032225Y017317D02*
X032743Y017317D01*
X032702Y017434D02*
X032183Y017434D01*
X032141Y017551D02*
X032660Y017551D01*
X032618Y017667D02*
X032099Y017667D01*
X032058Y017784D02*
X032576Y017784D01*
X032534Y017901D02*
X032016Y017901D01*
X031974Y018017D02*
X032492Y018017D01*
X032450Y018134D02*
X031933Y018134D01*
X031891Y018251D02*
X032409Y018251D01*
X032367Y018367D02*
X031849Y018367D01*
X031808Y018484D02*
X032325Y018484D01*
X032283Y018601D02*
X031766Y018601D01*
X031724Y018717D02*
X032241Y018717D01*
X032199Y018834D02*
X031682Y018834D01*
X031641Y018951D02*
X032158Y018951D01*
X032116Y019067D02*
X031599Y019067D01*
X031557Y019184D02*
X032074Y019184D01*
X032032Y019301D02*
X031516Y019301D01*
X031474Y019417D02*
X031990Y019417D01*
X031948Y019534D02*
X031432Y019534D01*
X031391Y019651D02*
X031906Y019651D01*
X031865Y019767D02*
X031349Y019767D01*
X031307Y019884D02*
X031823Y019884D01*
X031781Y020000D02*
X031265Y020000D01*
X031224Y020117D02*
X031739Y020117D01*
X031697Y020234D02*
X031182Y020234D01*
X031140Y020350D02*
X031655Y020350D01*
X031614Y020467D02*
X031099Y020467D01*
X031057Y020584D02*
X031572Y020584D01*
X031530Y020700D02*
X031015Y020700D01*
X030974Y020817D02*
X031488Y020817D01*
X031446Y020934D02*
X030932Y020934D01*
X030890Y021050D02*
X031404Y021050D01*
X031363Y021167D02*
X030848Y021167D01*
X030807Y021284D02*
X031321Y021284D01*
X031279Y021400D02*
X030765Y021400D01*
X030723Y021517D02*
X031237Y021517D01*
X031195Y021634D02*
X030682Y021634D01*
X030640Y021750D02*
X031153Y021750D01*
X031111Y021867D02*
X030598Y021867D01*
X030557Y021984D02*
X031070Y021984D01*
X031028Y022100D02*
X030515Y022100D01*
X030473Y022217D02*
X030986Y022217D01*
X030944Y022334D02*
X030431Y022334D01*
X030390Y022450D02*
X030902Y022450D01*
X030860Y022567D02*
X030348Y022567D01*
X030306Y022684D02*
X030819Y022684D01*
X030777Y022800D02*
X030265Y022800D01*
X030223Y022917D02*
X030735Y022917D01*
X030693Y023033D02*
X030181Y023033D01*
X030140Y023150D02*
X030651Y023150D01*
X030609Y023267D02*
X030098Y023267D01*
X030056Y023383D02*
X030568Y023383D01*
X030526Y023500D02*
X030014Y023500D01*
X029973Y023617D02*
X030484Y023617D01*
X030442Y023733D02*
X029931Y023733D01*
X029889Y023850D02*
X030400Y023850D01*
X030358Y023967D02*
X029848Y023967D01*
X029806Y024083D02*
X030316Y024083D01*
X030275Y024200D02*
X029764Y024200D01*
X029723Y024317D02*
X030233Y024317D01*
X030191Y024433D02*
X029681Y024433D01*
X029639Y024550D02*
X030149Y024550D01*
X030107Y024667D02*
X029597Y024667D01*
X029556Y024783D02*
X030065Y024783D01*
X030024Y024900D02*
X029514Y024900D01*
X029472Y025017D02*
X029982Y025017D01*
X029940Y025133D02*
X029431Y025133D01*
X029389Y025250D02*
X029898Y025250D01*
X029856Y025367D02*
X029347Y025367D01*
X029306Y025483D02*
X029815Y025483D01*
X029818Y025600D02*
X029264Y025600D01*
X029222Y025716D02*
X029821Y025716D01*
X029844Y025833D02*
X029180Y025833D01*
X029139Y025950D02*
X029894Y025950D01*
X029946Y026066D02*
X029097Y026066D01*
X029055Y026183D02*
X030062Y026183D01*
X030157Y026278D02*
X030157Y026278D01*
X030207Y026300D02*
X029014Y026300D01*
X033527Y025133D02*
X037698Y025133D01*
X038506Y025133D02*
X042678Y025133D01*
X042355Y025017D02*
X033849Y025017D01*
X034277Y024900D02*
X041928Y024900D01*
X041501Y024783D02*
X034704Y024783D01*
X035178Y024667D02*
X041027Y024667D01*
X040370Y024550D02*
X035835Y024550D01*
X036616Y024433D02*
X039589Y024433D01*
X039114Y024317D02*
X037091Y024317D01*
X037172Y024255D02*
X037172Y024255D01*
X037172Y024255D01*
X037212Y024200D02*
X038993Y024200D01*
X039032Y024255D02*
X039032Y024255D01*
X039032Y024255D01*
X038910Y024083D02*
X037295Y024083D01*
X037378Y023967D02*
X038827Y023967D01*
X038823Y023960D02*
X038823Y023960D01*
X038787Y023850D02*
X037417Y023850D01*
X037455Y023733D02*
X038750Y023733D01*
X038713Y023617D02*
X037492Y023617D01*
X037492Y023616D02*
X037492Y023616D01*
X037492Y023508D02*
X037492Y023508D01*
X037492Y023500D02*
X038712Y023500D01*
X038712Y023508D02*
X038712Y023508D01*
X038712Y023383D02*
X037492Y023383D01*
X037492Y023267D02*
X038712Y023267D01*
X038712Y023150D02*
X037492Y023150D01*
X037492Y023033D02*
X038712Y023033D01*
X038712Y022917D02*
X037492Y022917D01*
X037492Y022800D02*
X038712Y022800D01*
X038712Y022684D02*
X037492Y022684D01*
X037492Y022567D02*
X038712Y022567D01*
X038712Y022450D02*
X037492Y022450D01*
X037492Y022334D02*
X038712Y022334D01*
X038712Y022217D02*
X037492Y022217D01*
X037492Y022100D02*
X037760Y022100D01*
X037643Y021984D02*
X037492Y021984D01*
X037492Y021867D02*
X037590Y021867D01*
X037551Y021750D02*
X037492Y021750D01*
X037492Y021634D02*
X037551Y021634D01*
X037566Y021517D02*
X037492Y021517D01*
X037402Y021400D02*
X037615Y021400D01*
X037702Y021284D02*
X037285Y021284D01*
X037168Y021167D02*
X037859Y021167D01*
X038345Y021167D02*
X038628Y021167D01*
X038512Y021284D02*
X038502Y021284D01*
X038745Y021050D02*
X037051Y021050D01*
X036935Y020934D02*
X038862Y020934D01*
X038978Y020817D02*
X036818Y020817D01*
X036803Y020700D02*
X039095Y020700D01*
X039125Y020584D02*
X036803Y020584D01*
X036803Y020467D02*
X037640Y020467D01*
X037630Y020457D02*
X037630Y019523D01*
X037734Y019419D01*
X037880Y019419D01*
X038324Y019419D01*
X038471Y019419D01*
X038575Y019523D01*
X038575Y020457D01*
X038471Y020561D01*
X038324Y020561D01*
X037880Y020561D01*
X037734Y020561D01*
X037630Y020457D01*
X037630Y020350D02*
X036803Y020350D01*
X036803Y020234D02*
X037630Y020234D01*
X037630Y020117D02*
X036803Y020117D01*
X036803Y020000D02*
X037630Y020000D01*
X037630Y019884D02*
X036803Y019884D01*
X036803Y019767D02*
X037630Y019767D01*
X037630Y019651D02*
X036803Y019651D01*
X036803Y019534D02*
X037630Y019534D01*
X036803Y019417D02*
X039125Y019417D01*
X039116Y019301D02*
X036803Y019301D01*
X036803Y019184D02*
X039000Y019184D01*
X038883Y019067D02*
X036913Y019067D01*
X037030Y018951D02*
X038766Y018951D01*
X038650Y018834D02*
X037146Y018834D01*
X037263Y018717D02*
X038533Y018717D01*
X038451Y018601D02*
X037380Y018601D01*
X037388Y018592D02*
X037388Y018592D01*
X037492Y018484D02*
X038436Y018484D01*
X038436Y018367D02*
X037492Y018367D01*
X037492Y018251D02*
X038436Y018251D01*
X038436Y018134D02*
X037492Y018134D01*
X037492Y018017D02*
X038436Y018017D01*
X038436Y017901D02*
X037492Y017901D01*
X037492Y017784D02*
X038436Y017784D01*
X038436Y017667D02*
X037492Y017667D01*
X037492Y017551D02*
X038436Y017551D01*
X038436Y017434D02*
X037492Y017434D01*
X037492Y017317D02*
X038436Y017317D01*
X038436Y017201D02*
X037492Y017201D01*
X037492Y017084D02*
X038436Y017084D01*
X038436Y016967D02*
X037492Y016967D01*
X037492Y016851D02*
X038436Y016851D01*
X038436Y016734D02*
X037492Y016734D01*
X037492Y016618D02*
X038436Y016618D01*
X038436Y016501D02*
X037492Y016501D01*
X037492Y016384D02*
X038436Y016384D01*
X038436Y016268D02*
X037492Y016268D01*
X037492Y016151D02*
X038436Y016151D01*
X038436Y016034D02*
X037492Y016034D01*
X037492Y015918D02*
X038436Y015918D01*
X038436Y015801D02*
X037492Y015801D01*
X037492Y015684D02*
X038436Y015684D01*
X038436Y015568D02*
X037492Y015568D01*
X037492Y015451D02*
X038436Y015451D01*
X038436Y015334D02*
X037492Y015334D01*
X037492Y015218D02*
X038436Y015218D01*
X038436Y015101D02*
X037492Y015101D01*
X037492Y014984D02*
X038436Y014984D01*
X038436Y014868D02*
X037492Y014868D01*
X037492Y014751D02*
X038436Y014751D01*
X038436Y014634D02*
X037492Y014634D01*
X037492Y014518D02*
X038436Y014518D01*
X038436Y014401D02*
X037492Y014401D01*
X037492Y014284D02*
X038436Y014284D01*
X038436Y014168D02*
X037492Y014168D01*
X037492Y014051D02*
X038436Y014051D01*
X038436Y013934D02*
X037492Y013934D01*
X037492Y013818D02*
X038436Y013818D01*
X038436Y013701D02*
X037492Y013701D01*
X037492Y013585D02*
X038436Y013585D01*
X038436Y013468D02*
X037492Y013468D01*
X037492Y013351D02*
X038436Y013351D01*
X038436Y013235D02*
X037492Y013235D01*
X037387Y013118D02*
X038448Y013118D01*
X038526Y013001D02*
X037270Y013001D01*
X037153Y012885D02*
X038643Y012885D01*
X038760Y012768D02*
X037037Y012768D01*
X036920Y012651D02*
X038876Y012651D01*
X038993Y012535D02*
X036803Y012535D01*
X036803Y012418D02*
X039110Y012418D01*
X039125Y012301D02*
X036803Y012301D01*
X036803Y012185D02*
X037630Y012185D01*
X037630Y012189D02*
X037630Y011255D01*
X037734Y011151D01*
X037880Y011151D01*
X038324Y011151D01*
X038471Y011151D01*
X038575Y011255D01*
X038575Y012189D01*
X038471Y012293D01*
X038324Y012293D01*
X037880Y012293D01*
X037734Y012293D01*
X037630Y012189D01*
X037630Y012068D02*
X036803Y012068D01*
X036803Y011951D02*
X037630Y011951D01*
X037630Y011835D02*
X036803Y011835D01*
X036803Y011718D02*
X037630Y011718D01*
X037630Y011601D02*
X036803Y011601D01*
X036803Y011485D02*
X037630Y011485D01*
X037630Y011368D02*
X036803Y011368D01*
X036803Y011251D02*
X037633Y011251D01*
X037045Y010668D02*
X038752Y010668D01*
X038868Y010785D02*
X036928Y010785D01*
X036811Y010901D02*
X038985Y010901D01*
X039102Y011018D02*
X036803Y011018D01*
X036803Y011135D02*
X039125Y011135D01*
X039125Y011251D02*
X038571Y011251D01*
X038575Y011368D02*
X039125Y011368D01*
X039125Y011485D02*
X038575Y011485D01*
X038575Y011601D02*
X039125Y011601D01*
X039125Y011718D02*
X038575Y011718D01*
X038575Y011835D02*
X039125Y011835D01*
X039125Y011951D02*
X038575Y011951D01*
X038575Y012068D02*
X039125Y012068D01*
X039125Y012185D02*
X038575Y012185D01*
X038635Y010552D02*
X037161Y010552D01*
X037278Y010435D02*
X038518Y010435D01*
X038402Y010318D02*
X037395Y010318D01*
X037388Y010325D02*
X037388Y010325D01*
X037492Y010202D02*
X038285Y010202D01*
X038168Y010085D02*
X037492Y010085D01*
X037492Y009968D02*
X038052Y009968D01*
X037935Y009852D02*
X037492Y009852D01*
X037492Y009735D02*
X037857Y009735D01*
X037845Y009618D02*
X037492Y009618D01*
X037492Y009502D02*
X037845Y009502D01*
X037845Y009385D02*
X037492Y009385D01*
X037492Y009268D02*
X037845Y009268D01*
X037845Y009152D02*
X037492Y009152D01*
X037492Y009035D02*
X037845Y009035D01*
X037845Y008918D02*
X037492Y008918D01*
X037492Y008802D02*
X037845Y008802D01*
X037845Y008685D02*
X037492Y008685D01*
X037492Y008568D02*
X037787Y008568D01*
X037775Y008452D02*
X037492Y008452D01*
X037492Y008335D02*
X037806Y008335D01*
X037895Y008218D02*
X037492Y008218D01*
X037492Y008102D02*
X038712Y008102D01*
X038712Y008218D02*
X038309Y008218D01*
X038399Y008335D02*
X038712Y008335D01*
X038712Y008452D02*
X038429Y008452D01*
X038417Y008568D02*
X038712Y008568D01*
X038712Y008685D02*
X038359Y008685D01*
X038359Y008802D02*
X038712Y008802D01*
X038712Y008918D02*
X038359Y008918D01*
X038359Y009035D02*
X038712Y009035D01*
X038712Y009152D02*
X038359Y009152D01*
X038359Y009268D02*
X038712Y009268D01*
X038712Y009385D02*
X038359Y009385D01*
X038359Y009502D02*
X038712Y009502D01*
X038712Y009618D02*
X038429Y009618D01*
X038546Y009735D02*
X038712Y009735D01*
X038712Y009852D02*
X038663Y009852D01*
X038712Y007985D02*
X037492Y007985D01*
X037492Y007869D02*
X038712Y007869D01*
X038712Y007752D02*
X037492Y007752D01*
X037492Y007635D02*
X038712Y007635D01*
X038709Y007519D02*
X037496Y007519D01*
X037484Y007402D02*
X038720Y007402D01*
X038760Y007285D02*
X037445Y007285D01*
X037479Y007347D02*
X037479Y007347D01*
X037380Y007169D02*
X038825Y007169D01*
X038945Y007052D02*
X037260Y007052D01*
X037356Y007126D02*
X037356Y007126D01*
X037156Y006972D02*
X037156Y006972D01*
X036662Y006952D02*
X036662Y006952D01*
X038575Y019534D02*
X039125Y019534D01*
X039125Y019651D02*
X038575Y019651D01*
X038575Y019767D02*
X039125Y019767D01*
X039125Y019884D02*
X038575Y019884D01*
X038575Y020000D02*
X039125Y020000D01*
X039125Y020117D02*
X038575Y020117D01*
X038575Y020234D02*
X039125Y020234D01*
X039125Y020350D02*
X038575Y020350D01*
X038565Y020467D02*
X039125Y020467D01*
X038712Y021867D02*
X038656Y021867D01*
X038712Y021984D02*
X038561Y021984D01*
X038445Y022100D02*
X038712Y022100D01*
X038870Y025950D02*
X038753Y026232D01*
X038537Y026448D01*
X038255Y026565D01*
X037950Y026565D01*
X037667Y026448D01*
X037452Y026232D01*
X037335Y025950D01*
X037383Y026066D02*
X037148Y026066D01*
X037185Y026183D02*
X037431Y026183D01*
X037520Y026300D02*
X037242Y026300D01*
X037327Y026416D02*
X037636Y026416D01*
X037429Y026533D02*
X037874Y026533D01*
X037878Y026766D02*
X038327Y026766D01*
X038331Y026533D02*
X038776Y026533D01*
X038878Y026416D02*
X038568Y026416D01*
X038685Y026300D02*
X038962Y026300D01*
X039019Y026183D02*
X038773Y026183D01*
X038822Y026066D02*
X039057Y026066D01*
X038615Y026650D02*
X037590Y026650D01*
X044038Y026533D02*
X047274Y026533D01*
X047316Y026650D02*
X044268Y026650D01*
X044498Y026766D02*
X047358Y026766D01*
X047399Y026883D02*
X044728Y026883D01*
X044774Y026907D02*
X044774Y026907D01*
X044925Y027000D02*
X047464Y027000D01*
X047524Y027116D02*
X045113Y027116D01*
X045303Y027233D02*
X047593Y027233D01*
X047678Y027350D02*
X045463Y027350D01*
X045436Y027311D02*
X045436Y027311D01*
X045547Y027466D02*
X047763Y027466D01*
X047848Y027583D02*
X045631Y027583D01*
X045648Y027606D02*
X045648Y027606D01*
X045667Y027700D02*
X047933Y027700D01*
X047995Y027785D02*
X047995Y027785D01*
X047995Y027785D01*
X048026Y027816D02*
X045692Y027816D01*
X045716Y027933D02*
X048143Y027933D01*
X048259Y028050D02*
X045704Y028050D01*
X045680Y028166D02*
X048376Y028166D01*
X048493Y028283D02*
X045655Y028283D01*
X045648Y028318D02*
X045648Y028318D01*
X045589Y028400D02*
X048644Y028400D01*
X048804Y028516D02*
X046313Y028516D01*
X046183Y028516D02*
X045505Y028516D01*
X045402Y028633D02*
X045618Y028633D01*
X045798Y028557D02*
X045798Y028557D01*
X045363Y028741D02*
X045363Y028741D01*
X045353Y028749D02*
X045214Y028749D01*
X045214Y028866D02*
X045070Y028866D01*
X045075Y028983D02*
X044955Y028983D01*
X044966Y029099D02*
X044852Y029099D01*
X044890Y029216D02*
X044785Y029216D01*
X044814Y029333D02*
X044719Y029333D01*
X044742Y029449D02*
X044670Y029449D01*
X044639Y029566D02*
X044708Y029566D01*
X044675Y029683D02*
X044608Y029683D01*
X044587Y029799D02*
X044641Y029799D01*
X044614Y029916D02*
X044580Y029916D01*
X046406Y031687D02*
X046406Y031687D01*
X046479Y031666D02*
X046720Y031666D01*
X046860Y031557D02*
X046860Y031557D01*
X046871Y031549D02*
X047026Y031549D01*
X047051Y031433D02*
X047230Y031433D01*
X047231Y031316D02*
X047348Y031316D01*
X047256Y031299D02*
X047256Y031299D01*
X047340Y031199D02*
X047466Y031199D01*
X047438Y031083D02*
X047554Y031083D01*
X047536Y030966D02*
X047628Y030966D01*
X047560Y030938D02*
X047560Y030938D01*
X047597Y030849D02*
X047710Y030849D01*
X047688Y030865D02*
X047688Y030865D01*
X047688Y030865D01*
X047647Y030733D02*
X047872Y030733D01*
X047983Y030653D02*
X047983Y030653D01*
X048159Y030616D02*
X047696Y030616D01*
X047744Y030503D02*
X047744Y030503D01*
X047745Y030499D02*
X049916Y030499D01*
X049900Y030616D02*
X048518Y030616D01*
X048339Y030578D02*
X048339Y030578D01*
X048805Y030733D02*
X049896Y030733D01*
X049892Y030832D02*
X049892Y030832D01*
X049898Y030849D02*
X048967Y030849D01*
X048990Y030865D02*
X048990Y030865D01*
X048990Y030865D01*
X049049Y030966D02*
X049934Y030966D01*
X050002Y031083D02*
X049119Y031083D01*
X049192Y031199D02*
X050068Y031199D01*
X050134Y031316D02*
X049264Y031316D01*
X049336Y031433D02*
X050200Y031433D01*
X050267Y031549D02*
X049406Y031549D01*
X049394Y031527D02*
X049394Y031527D01*
X049465Y031666D02*
X050324Y031666D01*
X050380Y031782D02*
X049524Y031782D01*
X049583Y031899D02*
X050436Y031899D01*
X050492Y032016D02*
X049642Y032016D01*
X049701Y032132D02*
X050548Y032132D01*
X050604Y032249D02*
X049761Y032249D01*
X049820Y032366D02*
X050661Y032366D01*
X050717Y032482D02*
X049879Y032482D01*
X049937Y032599D02*
X050773Y032599D01*
X050827Y032712D02*
X050827Y032712D01*
X050829Y032716D02*
X049985Y032716D01*
X050032Y032832D02*
X050872Y032832D01*
X050916Y032949D02*
X050079Y032949D01*
X050127Y033066D02*
X050959Y033066D01*
X051003Y033182D02*
X050174Y033182D01*
X050221Y033299D02*
X051046Y033299D01*
X051090Y033416D02*
X050269Y033416D01*
X050316Y033532D02*
X051134Y033532D01*
X051177Y033649D02*
X050363Y033649D01*
X050384Y033700D02*
X050384Y033700D01*
X050404Y033766D02*
X051221Y033766D01*
X051264Y033882D02*
X050440Y033882D01*
X050476Y033999D02*
X051299Y033999D01*
X051331Y034116D02*
X050513Y034116D01*
X050549Y034232D02*
X051363Y034232D01*
X051394Y034349D02*
X050585Y034349D01*
X050621Y034466D02*
X051426Y034466D01*
X051458Y034582D02*
X050658Y034582D01*
X050694Y034699D02*
X051490Y034699D01*
X051522Y034815D02*
X050730Y034815D01*
X050738Y034841D02*
X050738Y034841D01*
X050758Y034932D02*
X051554Y034932D01*
X051586Y035049D02*
X050784Y035049D01*
X050809Y035165D02*
X051615Y035165D01*
X051636Y035282D02*
X050835Y035282D01*
X050861Y035399D02*
X051656Y035399D01*
X051677Y035515D02*
X050886Y035515D01*
X050912Y035632D02*
X051698Y035632D01*
X051718Y035749D02*
X050938Y035749D01*
X050963Y035865D02*
X051739Y035865D01*
X051760Y035982D02*
X050989Y035982D01*
X050995Y036008D02*
X050995Y036008D01*
X051007Y036099D02*
X051781Y036099D01*
X051801Y036215D02*
X051022Y036215D01*
X051038Y036332D02*
X051822Y036332D01*
X051839Y036449D02*
X051053Y036449D01*
X051070Y036565D02*
X051852Y036565D01*
X051864Y036682D02*
X051083Y036682D01*
X051087Y036725D02*
X051087Y036725D01*
X051061Y036799D02*
X051877Y036799D01*
X051889Y036915D02*
X051021Y036915D01*
X050929Y037032D02*
X051897Y037032D01*
X051956Y037149D02*
X050772Y037149D01*
X050605Y037207D02*
X050605Y037207D01*
X050657Y037431D02*
X050939Y037548D01*
X051155Y037764D01*
X051272Y038046D01*
X051272Y038351D01*
X051155Y038633D01*
X050939Y038849D01*
X050657Y038966D01*
X050351Y038966D01*
X050069Y038849D01*
X049853Y038633D01*
X049736Y038351D01*
X049736Y038046D01*
X049853Y037764D01*
X050069Y037548D01*
X050351Y037431D01*
X050657Y037431D01*
X050820Y037499D02*
X052404Y037499D01*
X052340Y037478D02*
X052340Y037478D01*
X052205Y037382D02*
X049941Y037382D01*
X049787Y037499D02*
X050188Y037499D01*
X050001Y037615D02*
X049702Y037615D01*
X049618Y037732D02*
X049885Y037732D01*
X049818Y037848D02*
X049575Y037848D01*
X049537Y037965D02*
X049770Y037965D01*
X049736Y038082D02*
X049513Y038082D01*
X049513Y038198D02*
X049736Y038198D01*
X049736Y038315D02*
X049513Y038315D01*
X049537Y038432D02*
X049770Y038432D01*
X049818Y038548D02*
X049575Y038548D01*
X049618Y038665D02*
X049885Y038665D01*
X050002Y038782D02*
X049702Y038782D01*
X049787Y038898D02*
X050188Y038898D01*
X050168Y039132D02*
X052043Y039132D01*
X052045Y039128D02*
X052045Y039128D01*
X052045Y039128D01*
X051949Y039257D01*
X051908Y039291D01*
X051906Y039314D01*
X051893Y039332D01*
X051900Y039383D01*
X051834Y039999D01*
X051610Y041257D01*
X051274Y042489D01*
X050827Y043685D01*
X050274Y044835D01*
X049984Y045346D01*
X049968Y045353D01*
X049949Y045406D01*
X049920Y045454D01*
X049925Y045473D01*
X049892Y045564D01*
X049892Y045564D01*
X049902Y045866D01*
X049902Y045866D01*
X050023Y046143D01*
X050023Y046143D01*
X050023Y046143D01*
X050236Y046357D01*
X050236Y046357D01*
X050513Y046477D01*
X050513Y046477D01*
X050815Y046487D01*
X050888Y046461D01*
X050888Y046461D01*
X050946Y046440D01*
X050957Y046436D01*
X051026Y046412D01*
X051026Y046411D01*
X069021Y039957D01*
X069045Y039961D01*
X069088Y039933D01*
X069137Y039915D01*
X069147Y039893D01*
X069211Y039851D01*
X069211Y039851D01*
X069211Y039851D01*
X069348Y039639D01*
X069348Y039639D01*
X069390Y039390D01*
X069390Y039390D01*
X069328Y039145D01*
X069328Y039145D01*
X069175Y038944D01*
X069175Y038944D01*
X069175Y038944D01*
X068954Y038822D01*
X068954Y038822D01*
X068891Y038816D01*
X068884Y038808D01*
X068820Y038808D01*
X068755Y038802D01*
X068748Y038808D01*
X066399Y038808D01*
X066752Y038456D01*
X067621Y038456D01*
X067641Y038476D01*
X067762Y038526D01*
X067892Y038526D01*
X068012Y038476D01*
X068104Y038384D01*
X068154Y038264D01*
X068154Y038133D01*
X068104Y038013D01*
X068012Y037921D01*
X067892Y037871D01*
X067762Y037871D01*
X067641Y037921D01*
X067621Y037941D01*
X066697Y037941D01*
X066594Y037941D01*
X066500Y037980D01*
X065260Y039221D01*
X063898Y039221D01*
X063320Y038643D01*
X063248Y038571D01*
X063154Y038532D01*
X057839Y038532D01*
X057736Y038532D01*
X057642Y038571D01*
X056992Y039221D01*
X055630Y039221D01*
X055012Y038603D01*
X055105Y038511D01*
X055189Y038308D01*
X055189Y038089D01*
X055105Y037886D01*
X054950Y037731D01*
X054747Y037647D01*
X054528Y037647D01*
X054326Y037731D01*
X054171Y037886D01*
X054087Y038089D01*
X054087Y038308D01*
X054171Y038511D01*
X054326Y038666D01*
X054403Y038698D01*
X054420Y038738D01*
X054490Y038808D01*
X052940Y038808D01*
X052866Y038808D01*
X052861Y038808D01*
X052793Y038808D01*
X052793Y038809D01*
X052685Y038809D01*
X052685Y038809D01*
X052340Y038919D01*
X052340Y038919D01*
X052045Y039128D01*
X051955Y039248D02*
X050772Y039248D01*
X050835Y039270D02*
X050835Y039270D01*
X050929Y039365D02*
X051898Y039365D01*
X051889Y039482D02*
X051021Y039482D01*
X051061Y039598D02*
X051877Y039598D01*
X051864Y039715D02*
X051083Y039715D01*
X051087Y039672D02*
X051087Y039672D01*
X051074Y039793D02*
X051074Y039793D01*
X051070Y039832D02*
X051852Y039832D01*
X051839Y039948D02*
X051053Y039948D01*
X051038Y040065D02*
X051822Y040065D01*
X051801Y040182D02*
X051022Y040182D01*
X051007Y040298D02*
X051781Y040298D01*
X051760Y040415D02*
X050989Y040415D01*
X050963Y040531D02*
X051739Y040531D01*
X051718Y040648D02*
X050938Y040648D01*
X050912Y040765D02*
X051698Y040765D01*
X051677Y040881D02*
X050886Y040881D01*
X050861Y040998D02*
X051656Y040998D01*
X051636Y041115D02*
X050835Y041115D01*
X050809Y041231D02*
X051615Y041231D01*
X051585Y041348D02*
X050784Y041348D01*
X050758Y041465D02*
X051554Y041465D01*
X051522Y041581D02*
X050730Y041581D01*
X050694Y041698D02*
X051490Y041698D01*
X051458Y041815D02*
X050658Y041815D01*
X050621Y041931D02*
X051426Y041931D01*
X051394Y042048D02*
X050585Y042048D01*
X050549Y042165D02*
X051362Y042165D01*
X051331Y042281D02*
X050513Y042281D01*
X050477Y042398D02*
X051299Y042398D01*
X051264Y042515D02*
X050440Y042515D01*
X050404Y042631D02*
X051221Y042631D01*
X051177Y042748D02*
X050363Y042748D01*
X050316Y042865D02*
X051134Y042865D01*
X051090Y042981D02*
X050269Y042981D01*
X050221Y043098D02*
X051046Y043098D01*
X051003Y043215D02*
X050174Y043215D01*
X050127Y043331D02*
X050959Y043331D01*
X050916Y043448D02*
X050079Y043448D01*
X050032Y043564D02*
X050872Y043564D01*
X050829Y043681D02*
X049985Y043681D01*
X049937Y043798D02*
X050773Y043798D01*
X050717Y043914D02*
X049879Y043914D01*
X049820Y044031D02*
X050661Y044031D01*
X050604Y044148D02*
X049761Y044148D01*
X049701Y044264D02*
X050548Y044264D01*
X050492Y044381D02*
X049642Y044381D01*
X049583Y044498D02*
X050436Y044498D01*
X050380Y044614D02*
X049524Y044614D01*
X049465Y044731D02*
X050324Y044731D01*
X050267Y044848D02*
X049406Y044848D01*
X049336Y044964D02*
X050200Y044964D01*
X050134Y045081D02*
X049264Y045081D01*
X049192Y045198D02*
X050068Y045198D01*
X050001Y045314D02*
X049119Y045314D01*
X049049Y045431D02*
X049934Y045431D01*
X049898Y045548D02*
X048967Y045548D01*
X048805Y045664D02*
X049896Y045664D01*
X049900Y045781D02*
X048518Y045781D01*
X048694Y045744D02*
X048694Y045744D01*
X048339Y045819D02*
X048339Y045819D01*
X048159Y045781D02*
X047696Y045781D01*
X047744Y045894D02*
X047744Y045894D01*
X047744Y045898D02*
X049916Y045898D01*
X049967Y046014D02*
X047757Y046014D01*
X047769Y046131D02*
X050017Y046131D01*
X050127Y046248D02*
X047781Y046248D01*
X047793Y046363D02*
X047793Y046363D01*
X047793Y046364D02*
X050253Y046364D01*
X050627Y046481D02*
X047771Y046481D01*
X047748Y046597D02*
X051930Y046597D01*
X052256Y046481D02*
X050833Y046481D01*
X051158Y046364D02*
X052583Y046364D01*
X052909Y046248D02*
X051483Y046248D01*
X051809Y046131D02*
X053235Y046131D01*
X053562Y046014D02*
X052134Y046014D01*
X052459Y045898D02*
X053888Y045898D01*
X054214Y045781D02*
X052784Y045781D01*
X053110Y045664D02*
X054541Y045664D01*
X054867Y045548D02*
X053435Y045548D01*
X053760Y045431D02*
X055193Y045431D01*
X055520Y045314D02*
X054085Y045314D01*
X054410Y045198D02*
X055846Y045198D01*
X056172Y045081D02*
X054736Y045081D01*
X055061Y044964D02*
X056499Y044964D01*
X056825Y044848D02*
X055386Y044848D01*
X055711Y044731D02*
X057151Y044731D01*
X057478Y044614D02*
X056036Y044614D01*
X056362Y044498D02*
X057804Y044498D01*
X058130Y044381D02*
X056687Y044381D01*
X057012Y044264D02*
X058457Y044264D01*
X058783Y044148D02*
X057337Y044148D01*
X057663Y044031D02*
X059109Y044031D01*
X059436Y043914D02*
X057988Y043914D01*
X058313Y043798D02*
X059762Y043798D01*
X060088Y043681D02*
X058638Y043681D01*
X058963Y043564D02*
X060415Y043564D01*
X060741Y043448D02*
X059289Y043448D01*
X059614Y043331D02*
X061067Y043331D01*
X061394Y043215D02*
X059939Y043215D01*
X060264Y043098D02*
X061720Y043098D01*
X062046Y042981D02*
X060590Y042981D01*
X060915Y042865D02*
X062373Y042865D01*
X062699Y042748D02*
X061240Y042748D01*
X061565Y042631D02*
X063025Y042631D01*
X063352Y042515D02*
X061890Y042515D01*
X062216Y042398D02*
X063678Y042398D01*
X064004Y042281D02*
X062541Y042281D01*
X062866Y042165D02*
X064331Y042165D01*
X064657Y042048D02*
X063191Y042048D01*
X063517Y041931D02*
X064983Y041931D01*
X065310Y041815D02*
X063842Y041815D01*
X064167Y041698D02*
X065636Y041698D01*
X065962Y041581D02*
X064492Y041581D01*
X064817Y041465D02*
X066289Y041465D01*
X066615Y041348D02*
X065143Y041348D01*
X065468Y041231D02*
X066941Y041231D01*
X067268Y041115D02*
X065793Y041115D01*
X066118Y040998D02*
X067594Y040998D01*
X067920Y040881D02*
X066444Y040881D01*
X066769Y040765D02*
X068247Y040765D01*
X068573Y040648D02*
X067094Y040648D01*
X067419Y040531D02*
X068899Y040531D01*
X069226Y040415D02*
X067744Y040415D01*
X068070Y040298D02*
X069552Y040298D01*
X069878Y040182D02*
X068395Y040182D01*
X068720Y040065D02*
X070205Y040065D01*
X070531Y039948D02*
X069065Y039948D01*
X069224Y039832D02*
X070857Y039832D01*
X071022Y039715D02*
X069299Y039715D01*
X069355Y039598D02*
X071023Y039598D01*
X071023Y039482D02*
X069374Y039482D01*
X069383Y039365D02*
X071023Y039365D01*
X071023Y039248D02*
X069354Y039248D01*
X069318Y039132D02*
X071023Y039132D01*
X071024Y039015D02*
X069229Y039015D01*
X069092Y038898D02*
X071024Y038898D01*
X071024Y038782D02*
X066426Y038782D01*
X066543Y038665D02*
X069539Y038665D01*
X069545Y038671D02*
X069441Y038567D01*
X069441Y037830D01*
X069545Y037726D01*
X070203Y037726D01*
X070307Y037830D01*
X070307Y037918D01*
X070419Y037871D01*
X070549Y037871D01*
X070670Y037921D01*
X070762Y038013D01*
X070811Y038133D01*
X070811Y038264D01*
X070762Y038384D01*
X070670Y038476D01*
X070549Y038526D01*
X070419Y038526D01*
X070307Y038479D01*
X070307Y038567D01*
X070203Y038671D01*
X069545Y038671D01*
X069441Y038548D02*
X066659Y038548D01*
X066282Y038198D02*
X065150Y038198D01*
X065150Y038082D02*
X066399Y038082D01*
X066537Y037965D02*
X065150Y037965D01*
X065150Y037848D02*
X069441Y037848D01*
X069441Y037965D02*
X068056Y037965D01*
X068133Y038082D02*
X069441Y038082D01*
X069441Y038198D02*
X068154Y038198D01*
X068133Y038315D02*
X069441Y038315D01*
X069441Y038432D02*
X068056Y038432D01*
X068954Y037575D02*
X068954Y037575D01*
X069092Y037499D02*
X071026Y037499D01*
X071026Y037615D02*
X051006Y037615D01*
X051123Y037732D02*
X054325Y037732D01*
X054208Y037848D02*
X051190Y037848D01*
X051238Y037965D02*
X054138Y037965D01*
X054089Y038082D02*
X051272Y038082D01*
X051272Y038198D02*
X054087Y038198D01*
X054090Y038315D02*
X051272Y038315D01*
X051238Y038432D02*
X054138Y038432D01*
X054208Y038548D02*
X051190Y038548D01*
X051123Y038665D02*
X054325Y038665D01*
X054464Y038782D02*
X051006Y038782D01*
X050820Y038898D02*
X052404Y038898D01*
X052205Y039015D02*
X049941Y039015D01*
X050168Y037265D02*
X052043Y037265D01*
X052045Y037268D02*
X052045Y037268D01*
X052045Y037268D01*
X052685Y037588D02*
X052685Y037588D01*
X052793Y037588D02*
X052793Y037588D01*
X054900Y037499D02*
X057722Y037499D01*
X057708Y037484D02*
X057708Y037484D01*
X057606Y037382D02*
X055016Y037382D01*
X055133Y037265D02*
X057489Y037265D01*
X057373Y037149D02*
X055249Y037149D01*
X055366Y037032D02*
X057256Y037032D01*
X057139Y036915D02*
X055483Y036915D01*
X055844Y037726D02*
X056778Y037726D01*
X056882Y037830D01*
X056882Y037977D01*
X056882Y038420D01*
X056882Y038567D01*
X056778Y038671D01*
X055844Y038671D01*
X055740Y038567D01*
X055740Y038420D01*
X055740Y037977D01*
X055740Y037830D01*
X055844Y037726D01*
X055838Y037732D02*
X054951Y037732D01*
X055067Y037848D02*
X055740Y037848D01*
X055740Y037965D02*
X055138Y037965D01*
X055186Y038082D02*
X055740Y038082D01*
X055740Y038198D02*
X055189Y038198D01*
X055186Y038315D02*
X055740Y038315D01*
X055740Y038432D02*
X055138Y038432D01*
X055067Y038548D02*
X055740Y038548D01*
X055838Y038665D02*
X055074Y038665D01*
X055191Y038782D02*
X057431Y038782D01*
X057314Y038898D02*
X055308Y038898D01*
X055424Y039015D02*
X057198Y039015D01*
X057081Y039132D02*
X055541Y039132D01*
X056784Y038665D02*
X057548Y038665D01*
X057696Y038548D02*
X056882Y038548D01*
X056882Y038432D02*
X064008Y038432D01*
X064008Y038420D02*
X064008Y037977D01*
X064008Y037830D01*
X064112Y037726D01*
X064899Y037726D01*
X065046Y037726D01*
X065150Y037830D01*
X065150Y038567D01*
X065046Y038671D01*
X064899Y038671D01*
X064112Y038671D01*
X064008Y038567D01*
X064008Y038420D01*
X064008Y038315D02*
X056882Y038315D01*
X056882Y038198D02*
X064008Y038198D01*
X064008Y038082D02*
X056882Y038082D01*
X056882Y037965D02*
X064008Y037965D01*
X064008Y037848D02*
X056882Y037848D01*
X056784Y037732D02*
X064106Y037732D01*
X064008Y038548D02*
X063194Y038548D01*
X063342Y038665D02*
X064106Y038665D01*
X063692Y039015D02*
X065465Y039015D01*
X065349Y039132D02*
X063809Y039132D01*
X063575Y038898D02*
X065582Y038898D01*
X065699Y038782D02*
X063459Y038782D01*
X063167Y037499D02*
X065990Y037499D01*
X065976Y037484D02*
X065976Y037484D01*
X065874Y037382D02*
X063284Y037382D01*
X063400Y037265D02*
X065757Y037265D01*
X065641Y037149D02*
X063517Y037149D01*
X063634Y037032D02*
X065524Y037032D01*
X065407Y036915D02*
X063750Y036915D01*
X065052Y037732D02*
X069539Y037732D01*
X069229Y037382D02*
X071026Y037382D01*
X071026Y037265D02*
X069318Y037265D01*
X069328Y037252D02*
X069328Y037252D01*
X069354Y037149D02*
X071026Y037149D01*
X071027Y037032D02*
X069383Y037032D01*
X069390Y037007D02*
X069390Y037007D01*
X069374Y036915D02*
X071027Y036915D01*
X071027Y036799D02*
X069355Y036799D01*
X069348Y036758D02*
X069348Y036758D01*
X069299Y036682D02*
X071027Y036682D01*
X070858Y036565D02*
X069224Y036565D01*
X069211Y036546D02*
X069211Y036546D01*
X069065Y036449D02*
X070531Y036449D01*
X070205Y036332D02*
X068720Y036332D01*
X068395Y036215D02*
X069879Y036215D01*
X069552Y036099D02*
X068070Y036099D01*
X067744Y035982D02*
X069226Y035982D01*
X068900Y035865D02*
X067419Y035865D01*
X067094Y035749D02*
X068573Y035749D01*
X068247Y035632D02*
X066769Y035632D01*
X066444Y035515D02*
X067921Y035515D01*
X067594Y035399D02*
X066118Y035399D01*
X065793Y035282D02*
X067268Y035282D01*
X066942Y035165D02*
X065468Y035165D01*
X065143Y035049D02*
X066615Y035049D01*
X066289Y034932D02*
X064817Y034932D01*
X064492Y034815D02*
X065963Y034815D01*
X065636Y034699D02*
X064167Y034699D01*
X063842Y034582D02*
X065310Y034582D01*
X064984Y034466D02*
X063517Y034466D01*
X063191Y034349D02*
X064657Y034349D01*
X064331Y034232D02*
X062866Y034232D01*
X062541Y034116D02*
X064005Y034116D01*
X063678Y033999D02*
X062216Y033999D01*
X061890Y033882D02*
X063352Y033882D01*
X063026Y033766D02*
X061565Y033766D01*
X061240Y033649D02*
X062699Y033649D01*
X062373Y033532D02*
X060915Y033532D01*
X060590Y033416D02*
X062047Y033416D01*
X061720Y033299D02*
X060264Y033299D01*
X059939Y033182D02*
X061394Y033182D01*
X061068Y033066D02*
X059614Y033066D01*
X059289Y032949D02*
X060741Y032949D01*
X060415Y032832D02*
X058964Y032832D01*
X058638Y032716D02*
X060089Y032716D01*
X059762Y032599D02*
X058313Y032599D01*
X057988Y032482D02*
X059436Y032482D01*
X059110Y032366D02*
X057663Y032366D01*
X057337Y032249D02*
X058783Y032249D01*
X058457Y032132D02*
X057012Y032132D01*
X056687Y032016D02*
X058131Y032016D01*
X057804Y031899D02*
X056362Y031899D01*
X056037Y031782D02*
X057478Y031782D01*
X057152Y031666D02*
X055711Y031666D01*
X055386Y031549D02*
X056825Y031549D01*
X056499Y031433D02*
X055061Y031433D01*
X054736Y031316D02*
X056173Y031316D01*
X055846Y031199D02*
X054411Y031199D01*
X054085Y031083D02*
X055520Y031083D01*
X055194Y030966D02*
X053760Y030966D01*
X053435Y030849D02*
X054867Y030849D01*
X054541Y030733D02*
X053110Y030733D01*
X052784Y030616D02*
X054215Y030616D01*
X053888Y030499D02*
X052459Y030499D01*
X052134Y030383D02*
X053562Y030383D01*
X053236Y030266D02*
X051809Y030266D01*
X051484Y030149D02*
X052909Y030149D01*
X052583Y030033D02*
X051158Y030033D01*
X050833Y029916D02*
X052257Y029916D01*
X051930Y029799D02*
X047748Y029799D01*
X047725Y029683D02*
X051604Y029683D01*
X051278Y029566D02*
X047701Y029566D01*
X047703Y029570D02*
X047703Y029570D01*
X047639Y029449D02*
X050951Y029449D01*
X050625Y029333D02*
X047577Y029333D01*
X047515Y029216D02*
X050299Y029216D01*
X049972Y029099D02*
X047428Y029099D01*
X047482Y029153D02*
X047482Y029153D01*
X047312Y028983D02*
X049646Y028983D01*
X049358Y028866D02*
X047195Y028866D01*
X047148Y028819D02*
X047148Y028819D01*
X047017Y028749D02*
X049131Y028749D01*
X049111Y028740D02*
X049111Y028740D01*
X048965Y028633D02*
X046798Y028633D01*
X046731Y028597D02*
X046731Y028597D01*
X047771Y029916D02*
X050626Y029916D01*
X050815Y029910D02*
X050815Y029910D01*
X050017Y030266D02*
X047769Y030266D01*
X047757Y030383D02*
X049967Y030383D01*
X045770Y026398D02*
X045770Y026398D01*
X045468Y026408D02*
X045468Y026408D01*
X027686Y030616D02*
X026305Y030616D01*
X026309Y030733D02*
X027400Y030733D01*
X027237Y030849D02*
X026306Y030849D01*
X026271Y030966D02*
X027156Y030966D01*
X027085Y031083D02*
X026203Y031083D01*
X026137Y031199D02*
X027013Y031199D01*
X026941Y031316D02*
X026071Y031316D01*
X026004Y031433D02*
X026869Y031433D01*
X026799Y031549D02*
X025938Y031549D01*
X025881Y031666D02*
X026740Y031666D01*
X026681Y031782D02*
X025825Y031782D01*
X025769Y031899D02*
X026622Y031899D01*
X026562Y032016D02*
X025713Y032016D01*
X025656Y032132D02*
X026503Y032132D01*
X026444Y032249D02*
X025600Y032249D01*
X025544Y032366D02*
X026385Y032366D01*
X026326Y032482D02*
X025488Y032482D01*
X025432Y032599D02*
X026267Y032599D01*
X026220Y032716D02*
X025376Y032716D01*
X025333Y032832D02*
X026173Y032832D01*
X026125Y032949D02*
X025289Y032949D01*
X025245Y033066D02*
X026078Y033066D01*
X026031Y033182D02*
X025202Y033182D01*
X025158Y033299D02*
X025983Y033299D01*
X025936Y033416D02*
X025115Y033416D01*
X025071Y033532D02*
X025889Y033532D01*
X025842Y033649D02*
X025028Y033649D01*
X024984Y033766D02*
X025801Y033766D01*
X025764Y033882D02*
X024940Y033882D01*
X024906Y033999D02*
X025728Y033999D01*
X025692Y034116D02*
X024874Y034116D01*
X024842Y034232D02*
X025656Y034232D01*
X025620Y034349D02*
X024810Y034349D01*
X024779Y034466D02*
X025583Y034466D01*
X025547Y034582D02*
X024747Y034582D01*
X024715Y034699D02*
X025511Y034699D01*
X025475Y034815D02*
X024683Y034815D01*
X024651Y034932D02*
X025447Y034932D01*
X025421Y035049D02*
X024619Y035049D01*
X024590Y035165D02*
X025395Y035165D01*
X025370Y035282D02*
X024569Y035282D01*
X024548Y035399D02*
X025344Y035399D01*
X025318Y035515D02*
X024528Y035515D01*
X024507Y035632D02*
X025293Y035632D01*
X025267Y035749D02*
X024486Y035749D01*
X024466Y035865D02*
X025241Y035865D01*
X025216Y035982D02*
X024445Y035982D01*
X024424Y036099D02*
X025198Y036099D01*
X025183Y036215D02*
X024403Y036215D01*
X024383Y036332D02*
X025167Y036332D01*
X025151Y036449D02*
X024366Y036449D01*
X024353Y036565D02*
X025135Y036565D01*
X025122Y036682D02*
X024340Y036682D01*
X024328Y036799D02*
X025143Y036799D01*
X025117Y036725D02*
X025117Y036725D01*
X025184Y036915D02*
X024315Y036915D01*
X024307Y037032D02*
X025275Y037032D01*
X025198Y036954D02*
X025198Y036954D01*
X025370Y037126D02*
X025370Y037126D01*
X025433Y037149D02*
X024249Y037149D01*
X024162Y037265D02*
X026037Y037265D01*
X026017Y037499D02*
X026418Y037499D01*
X026502Y037615D02*
X026203Y037615D01*
X026136Y037548D02*
X026352Y037764D01*
X026468Y038046D01*
X026468Y038351D01*
X026352Y038633D01*
X026136Y038849D01*
X025854Y038966D01*
X025548Y038966D01*
X025266Y038849D01*
X025050Y038633D01*
X024933Y038351D01*
X024933Y038046D01*
X025050Y037764D01*
X025266Y037548D01*
X025548Y037431D01*
X025854Y037431D01*
X026136Y037548D01*
X026264Y037382D02*
X024000Y037382D01*
X024159Y037268D02*
X024159Y037268D01*
X023801Y037499D02*
X025384Y037499D01*
X025198Y037615D02*
X021807Y037615D01*
X021880Y037732D02*
X025082Y037732D01*
X025015Y037848D02*
X021996Y037848D01*
X022067Y037965D02*
X024966Y037965D01*
X024933Y038082D02*
X022115Y038082D01*
X022118Y038198D02*
X024933Y038198D01*
X024933Y038315D02*
X022115Y038315D01*
X022067Y038432D02*
X024966Y038432D01*
X025015Y038548D02*
X021996Y038548D01*
X021880Y038665D02*
X025082Y038665D01*
X025198Y038782D02*
X005571Y038782D01*
X005571Y038898D02*
X007113Y038898D01*
X007030Y038944D02*
X007251Y038822D01*
X007376Y038809D01*
X007449Y038802D01*
X007457Y038808D01*
X010223Y038808D01*
X010327Y038912D01*
X010327Y038913D01*
X010912Y039498D01*
X012537Y039498D01*
X013122Y038913D01*
X013122Y038912D01*
X013226Y038808D01*
X018491Y038808D01*
X018595Y038912D01*
X018595Y038913D01*
X019180Y039498D01*
X020805Y039498D01*
X021390Y038913D01*
X021390Y038912D01*
X021493Y038808D01*
X023265Y038808D01*
X023339Y038808D01*
X023344Y038808D01*
X023510Y038808D01*
X023511Y038809D01*
X023519Y038809D01*
X023520Y038809D01*
X023864Y038919D01*
X023864Y038919D01*
X024159Y039128D01*
X024159Y039128D01*
X024159Y039128D01*
X024256Y039257D01*
X024296Y039291D01*
X024298Y039314D01*
X024312Y039332D01*
X024305Y039383D01*
X024371Y039999D01*
X024594Y041257D01*
X024931Y042489D01*
X025378Y043685D01*
X025931Y044836D01*
X026221Y045346D01*
X026237Y045353D01*
X026256Y045406D01*
X026284Y045454D01*
X026280Y045473D01*
X026312Y045564D01*
X026302Y045866D01*
X026182Y046143D01*
X026182Y046143D01*
X025969Y046357D01*
X025969Y046357D01*
X025969Y046357D01*
X025691Y046477D01*
X025390Y046487D01*
X025390Y046487D01*
X025316Y046461D01*
X025316Y046461D01*
X025259Y046441D01*
X025247Y046436D01*
X025178Y046412D01*
X025178Y046411D01*
X007183Y039957D01*
X007160Y039961D01*
X007117Y039933D01*
X007068Y039915D01*
X007057Y039893D01*
X006993Y039851D01*
X006993Y039851D01*
X006993Y039851D01*
X006856Y039639D01*
X006815Y039390D01*
X006815Y039390D01*
X006876Y039145D01*
X006876Y039145D01*
X007030Y038944D01*
X007030Y038944D01*
X007030Y038944D01*
X006976Y039015D02*
X005571Y039015D01*
X005571Y039132D02*
X006886Y039132D01*
X006850Y039248D02*
X005570Y039248D01*
X005570Y039365D02*
X006821Y039365D01*
X006830Y039482D02*
X005570Y039482D01*
X005570Y039598D02*
X006850Y039598D01*
X006856Y039639D02*
X006856Y039639D01*
X006906Y039715D02*
X005570Y039715D01*
X005570Y039832D02*
X006981Y039832D01*
X007140Y039948D02*
X005674Y039948D01*
X006000Y040065D02*
X007485Y040065D01*
X007810Y040182D02*
X006326Y040182D01*
X006653Y040298D02*
X008135Y040298D01*
X008460Y040415D02*
X006979Y040415D01*
X007305Y040531D02*
X008786Y040531D01*
X009111Y040648D02*
X007631Y040648D01*
X007958Y040765D02*
X009436Y040765D01*
X009761Y040881D02*
X008284Y040881D01*
X008611Y040998D02*
X010086Y040998D01*
X010412Y041115D02*
X008937Y041115D01*
X009263Y041231D02*
X010737Y041231D01*
X011062Y041348D02*
X009590Y041348D01*
X009916Y041465D02*
X011387Y041465D01*
X011713Y041581D02*
X010242Y041581D01*
X010569Y041698D02*
X012038Y041698D01*
X012363Y041815D02*
X010895Y041815D01*
X011221Y041931D02*
X012688Y041931D01*
X013013Y042048D02*
X011548Y042048D01*
X011874Y042165D02*
X013339Y042165D01*
X013664Y042281D02*
X012200Y042281D01*
X012527Y042398D02*
X013989Y042398D01*
X014314Y042515D02*
X012853Y042515D01*
X013179Y042631D02*
X014639Y042631D01*
X014965Y042748D02*
X013506Y042748D01*
X013832Y042865D02*
X015290Y042865D01*
X015615Y042981D02*
X014158Y042981D01*
X014485Y043098D02*
X015940Y043098D01*
X016266Y043215D02*
X014811Y043215D01*
X015137Y043331D02*
X016591Y043331D01*
X016916Y043448D02*
X015464Y043448D01*
X015790Y043564D02*
X017241Y043564D01*
X017566Y043681D02*
X016116Y043681D01*
X016443Y043798D02*
X017892Y043798D01*
X018217Y043914D02*
X016769Y043914D01*
X017095Y044031D02*
X018542Y044031D01*
X018867Y044148D02*
X017422Y044148D01*
X017748Y044264D02*
X019193Y044264D01*
X019518Y044381D02*
X018074Y044381D01*
X018401Y044498D02*
X019843Y044498D01*
X020168Y044614D02*
X018727Y044614D01*
X019053Y044731D02*
X020493Y044731D01*
X020819Y044848D02*
X019380Y044848D01*
X019706Y044964D02*
X021144Y044964D01*
X021469Y045081D02*
X020032Y045081D01*
X020359Y045198D02*
X021794Y045198D01*
X022120Y045314D02*
X020685Y045314D01*
X021011Y045431D02*
X022445Y045431D01*
X022770Y045548D02*
X021338Y045548D01*
X021664Y045664D02*
X023095Y045664D01*
X023420Y045781D02*
X021990Y045781D01*
X022317Y045898D02*
X023746Y045898D01*
X024071Y046014D02*
X022643Y046014D01*
X022969Y046131D02*
X024396Y046131D01*
X024721Y046248D02*
X023296Y046248D01*
X023622Y046364D02*
X025046Y046364D01*
X025372Y046481D02*
X023948Y046481D01*
X024275Y046597D02*
X028457Y046597D01*
X028434Y046481D02*
X025577Y046481D01*
X025691Y046477D02*
X025691Y046477D01*
X025952Y046364D02*
X028411Y046364D01*
X028411Y046363D02*
X028411Y046363D01*
X028423Y046248D02*
X026078Y046248D01*
X026188Y046131D02*
X028436Y046131D01*
X028448Y046014D02*
X026238Y046014D01*
X026289Y045898D02*
X028460Y045898D01*
X028508Y045781D02*
X028046Y045781D01*
X027866Y045819D02*
X027866Y045819D01*
X027687Y045781D02*
X026305Y045781D01*
X026309Y045664D02*
X027400Y045664D01*
X027510Y045744D02*
X027510Y045744D01*
X027237Y045548D02*
X026306Y045548D01*
X026271Y045431D02*
X027156Y045431D01*
X027085Y045314D02*
X026203Y045314D01*
X026137Y045198D02*
X027013Y045198D01*
X026941Y045081D02*
X026071Y045081D01*
X026004Y044964D02*
X026869Y044964D01*
X026811Y044870D02*
X026811Y044870D01*
X026799Y044848D02*
X025938Y044848D01*
X025881Y044731D02*
X026740Y044731D01*
X026681Y044614D02*
X025825Y044614D01*
X025769Y044498D02*
X026622Y044498D01*
X026562Y044381D02*
X025712Y044381D01*
X025656Y044264D02*
X026503Y044264D01*
X026444Y044148D02*
X025600Y044148D01*
X025544Y044031D02*
X026385Y044031D01*
X026326Y043914D02*
X025488Y043914D01*
X025432Y043798D02*
X026267Y043798D01*
X026270Y043804D02*
X026270Y043804D01*
X026220Y043681D02*
X025376Y043681D01*
X025333Y043564D02*
X026173Y043564D01*
X026125Y043448D02*
X025289Y043448D01*
X025245Y043331D02*
X026078Y043331D01*
X026031Y043215D02*
X025202Y043215D01*
X025158Y043098D02*
X025984Y043098D01*
X025936Y042981D02*
X025115Y042981D01*
X025071Y042865D02*
X025889Y042865D01*
X025842Y042748D02*
X025028Y042748D01*
X024984Y042631D02*
X025801Y042631D01*
X025821Y042697D02*
X025821Y042697D01*
X025764Y042515D02*
X024940Y042515D01*
X024906Y042398D02*
X025728Y042398D01*
X025692Y042281D02*
X024874Y042281D01*
X024842Y042165D02*
X025656Y042165D01*
X025620Y042048D02*
X024810Y042048D01*
X024778Y041931D02*
X025583Y041931D01*
X025547Y041815D02*
X024747Y041815D01*
X024715Y041698D02*
X025511Y041698D01*
X025475Y041581D02*
X024683Y041581D01*
X024651Y041465D02*
X025447Y041465D01*
X025467Y041556D02*
X025467Y041556D01*
X025421Y041348D02*
X024619Y041348D01*
X024590Y041231D02*
X025396Y041231D01*
X025370Y041115D02*
X024569Y041115D01*
X024548Y040998D02*
X025344Y040998D01*
X025319Y040881D02*
X024528Y040881D01*
X024507Y040765D02*
X025293Y040765D01*
X025267Y040648D02*
X024486Y040648D01*
X024466Y040531D02*
X025242Y040531D01*
X025216Y040415D02*
X024445Y040415D01*
X024424Y040298D02*
X025198Y040298D01*
X025210Y040389D02*
X025210Y040389D01*
X025183Y040182D02*
X024403Y040182D01*
X024383Y040065D02*
X025167Y040065D01*
X025151Y039948D02*
X024366Y039948D01*
X024353Y039832D02*
X025135Y039832D01*
X025122Y039715D02*
X024340Y039715D01*
X024328Y039598D02*
X025143Y039598D01*
X025117Y039672D02*
X025117Y039672D01*
X025184Y039482D02*
X024315Y039482D01*
X024307Y039365D02*
X025275Y039365D01*
X025198Y039442D02*
X025198Y039442D01*
X025370Y039270D02*
X025370Y039270D01*
X025433Y039248D02*
X024249Y039248D01*
X024162Y039132D02*
X026037Y039132D01*
X026017Y038898D02*
X026418Y038898D01*
X026502Y038782D02*
X026203Y038782D01*
X026320Y038665D02*
X026587Y038665D01*
X026629Y038548D02*
X026387Y038548D01*
X026435Y038432D02*
X026667Y038432D01*
X026692Y038315D02*
X026468Y038315D01*
X026468Y038198D02*
X026692Y038198D01*
X026692Y038082D02*
X026468Y038082D01*
X026435Y037965D02*
X026667Y037965D01*
X026629Y037848D02*
X026387Y037848D01*
X026320Y037732D02*
X026587Y037732D01*
X025385Y038898D02*
X023801Y038898D01*
X024000Y039015D02*
X026263Y039015D01*
X025600Y039190D02*
X025599Y039190D01*
X021404Y038898D02*
X018581Y038898D01*
X018697Y039015D02*
X021287Y039015D01*
X021171Y039132D02*
X018814Y039132D01*
X018930Y039248D02*
X021054Y039248D01*
X020937Y039365D02*
X019047Y039365D01*
X019164Y039482D02*
X020821Y039482D01*
X020459Y038671D02*
X019525Y038671D01*
X019421Y038567D01*
X019421Y038420D01*
X019421Y037977D01*
X019421Y037830D01*
X019525Y037726D01*
X020459Y037726D01*
X020563Y037830D01*
X020563Y037977D01*
X020563Y038420D01*
X020563Y038567D01*
X020459Y038671D01*
X020465Y038665D02*
X021254Y038665D01*
X021137Y038548D02*
X020563Y038548D01*
X020563Y038432D02*
X021067Y038432D01*
X021019Y038315D02*
X020563Y038315D01*
X020563Y038198D02*
X021016Y038198D01*
X021019Y038082D02*
X020563Y038082D01*
X020563Y037965D02*
X021067Y037965D01*
X021137Y037848D02*
X020563Y037848D01*
X020465Y037732D02*
X021229Y037732D01*
X021112Y037615D02*
X018872Y037615D01*
X018989Y037499D02*
X020995Y037499D01*
X020879Y037382D02*
X019105Y037382D01*
X019222Y037265D02*
X020762Y037265D01*
X019519Y037732D02*
X018755Y037732D01*
X018607Y037848D02*
X019421Y037848D01*
X019421Y037965D02*
X012295Y037965D01*
X012295Y037977D02*
X012295Y038420D01*
X012295Y038567D01*
X012191Y038671D01*
X011257Y038671D01*
X011154Y038567D01*
X011154Y038420D01*
X011154Y037977D01*
X011154Y037830D01*
X011257Y037726D01*
X012191Y037726D01*
X012295Y037830D01*
X012295Y037977D01*
X012295Y038082D02*
X019421Y038082D01*
X019421Y038198D02*
X012295Y038198D01*
X012295Y038315D02*
X019421Y038315D01*
X019421Y038432D02*
X012295Y038432D01*
X012295Y038548D02*
X019421Y038548D01*
X019519Y038665D02*
X012197Y038665D01*
X012295Y037848D02*
X013110Y037848D01*
X012961Y037732D02*
X012197Y037732D01*
X012611Y037382D02*
X010838Y037382D01*
X010954Y037265D02*
X012494Y037265D01*
X012728Y037499D02*
X010721Y037499D01*
X010604Y037615D02*
X012844Y037615D01*
X013136Y038898D02*
X010313Y038898D01*
X010429Y039015D02*
X013019Y039015D01*
X012903Y039132D02*
X010546Y039132D01*
X010663Y039248D02*
X012786Y039248D01*
X012669Y039365D02*
X010779Y039365D01*
X010896Y039482D02*
X012553Y039482D01*
X011251Y038665D02*
X006666Y038665D01*
X006660Y038671D02*
X006001Y038671D01*
X005898Y038567D01*
X005898Y038526D01*
X005852Y038526D01*
X005732Y038476D01*
X005640Y038384D01*
X005590Y038264D01*
X005590Y038133D01*
X005640Y038013D01*
X005732Y037921D01*
X005852Y037871D01*
X005898Y037871D01*
X005898Y037830D01*
X006001Y037726D01*
X006660Y037726D01*
X006764Y037830D01*
X006764Y038567D01*
X006660Y038671D01*
X006764Y038548D02*
X011154Y038548D01*
X011154Y038432D02*
X009766Y038432D01*
X009904Y038315D02*
X011154Y038315D01*
X011154Y038198D02*
X010021Y038198D01*
X010138Y038082D02*
X011154Y038082D01*
X011154Y037965D02*
X010254Y037965D01*
X010371Y037848D02*
X011154Y037848D01*
X011251Y037732D02*
X010488Y037732D01*
X009877Y037615D02*
X005573Y037615D01*
X005573Y037499D02*
X007113Y037499D01*
X006976Y037382D02*
X005573Y037382D01*
X005574Y037265D02*
X006886Y037265D01*
X006851Y037149D02*
X005574Y037149D01*
X005574Y037032D02*
X006821Y037032D01*
X006830Y036915D02*
X005574Y036915D01*
X005574Y036799D02*
X006850Y036799D01*
X006906Y036682D02*
X005574Y036682D01*
X005575Y036565D02*
X006981Y036565D01*
X007140Y036449D02*
X005674Y036449D01*
X006000Y036332D02*
X007485Y036332D01*
X007810Y036215D02*
X006326Y036215D01*
X006652Y036099D02*
X008135Y036099D01*
X008460Y035982D02*
X006979Y035982D01*
X007305Y035865D02*
X008785Y035865D01*
X009111Y035749D02*
X007631Y035749D01*
X007958Y035632D02*
X009436Y035632D01*
X009761Y035515D02*
X008284Y035515D01*
X008611Y035399D02*
X010086Y035399D01*
X010411Y035282D02*
X008937Y035282D01*
X009263Y035165D02*
X010737Y035165D01*
X011062Y035049D02*
X009589Y035049D01*
X009916Y034932D02*
X011387Y034932D01*
X011712Y034815D02*
X010242Y034815D01*
X010569Y034699D02*
X012038Y034699D01*
X012363Y034582D02*
X010895Y034582D01*
X011221Y034466D02*
X012688Y034466D01*
X013013Y034349D02*
X011547Y034349D01*
X011874Y034232D02*
X013338Y034232D01*
X013664Y034116D02*
X012200Y034116D01*
X012526Y033999D02*
X013989Y033999D01*
X014314Y033882D02*
X012853Y033882D01*
X013179Y033766D02*
X014639Y033766D01*
X014965Y033649D02*
X013505Y033649D01*
X013832Y033532D02*
X015290Y033532D01*
X015615Y033416D02*
X014158Y033416D01*
X014484Y033299D02*
X015940Y033299D01*
X016265Y033182D02*
X014811Y033182D01*
X015137Y033066D02*
X016591Y033066D01*
X016916Y032949D02*
X015463Y032949D01*
X015790Y032832D02*
X017241Y032832D01*
X017566Y032716D02*
X016116Y032716D01*
X016442Y032599D02*
X017892Y032599D01*
X018217Y032482D02*
X016769Y032482D01*
X017095Y032366D02*
X018542Y032366D01*
X018867Y032249D02*
X017421Y032249D01*
X017748Y032132D02*
X019192Y032132D01*
X019518Y032016D02*
X018074Y032016D01*
X018400Y031899D02*
X019843Y031899D01*
X020168Y031782D02*
X018727Y031782D01*
X019053Y031666D02*
X020493Y031666D01*
X020819Y031549D02*
X019379Y031549D01*
X019706Y031433D02*
X021144Y031433D01*
X021469Y031316D02*
X020032Y031316D01*
X020358Y031199D02*
X021794Y031199D01*
X022119Y031083D02*
X020685Y031083D01*
X021011Y030966D02*
X022445Y030966D01*
X022770Y030849D02*
X021337Y030849D01*
X021664Y030733D02*
X023095Y030733D01*
X023420Y030616D02*
X021990Y030616D01*
X022316Y030499D02*
X023745Y030499D01*
X024071Y030383D02*
X022643Y030383D01*
X022969Y030266D02*
X024396Y030266D01*
X024721Y030149D02*
X023295Y030149D01*
X023622Y030033D02*
X025046Y030033D01*
X025372Y029916D02*
X023948Y029916D01*
X029485Y044731D02*
X029726Y044731D01*
X029799Y044710D02*
X029799Y044710D01*
X029345Y044840D02*
X029345Y044840D01*
X029333Y044848D02*
X029179Y044848D01*
X029154Y044964D02*
X028975Y044964D01*
X028975Y044964D01*
X028974Y045081D02*
X028857Y045081D01*
X028949Y045097D02*
X028949Y045097D01*
X028949Y045097D01*
X028865Y045198D02*
X028738Y045198D01*
X028767Y045314D02*
X028651Y045314D01*
X028669Y045431D02*
X028577Y045431D01*
X028572Y045438D02*
X028572Y045438D01*
X028645Y045459D02*
X028645Y045459D01*
X028608Y045548D02*
X028495Y045548D01*
X028517Y045532D02*
X028517Y045532D01*
X028558Y045664D02*
X028333Y045664D01*
X028479Y046714D02*
X024601Y046714D01*
X024927Y046831D02*
X028503Y046831D01*
X028501Y046827D02*
X028501Y046827D01*
X028565Y046947D02*
X025254Y046947D01*
X025580Y047064D02*
X028627Y047064D01*
X028689Y047181D02*
X025906Y047181D01*
X026233Y047297D02*
X028777Y047297D01*
X028893Y047414D02*
X026559Y047414D01*
X026847Y047531D02*
X029010Y047531D01*
X029188Y047647D02*
X027074Y047647D01*
X027094Y047657D02*
X027094Y047657D01*
X027240Y047764D02*
X029407Y047764D01*
X029474Y047799D02*
X029474Y047799D01*
X029892Y047881D02*
X027400Y047881D01*
X027561Y047997D02*
X030616Y047997D01*
X030550Y048114D02*
X027712Y048114D01*
X027689Y048091D02*
X027689Y048091D01*
X027829Y048231D02*
X030525Y048231D01*
X030500Y048347D02*
X027946Y048347D01*
X028062Y048464D02*
X030488Y048464D01*
X030513Y048581D02*
X028179Y048581D01*
X028210Y048612D02*
X028210Y048612D01*
X028272Y048697D02*
X030537Y048697D01*
X030557Y048790D02*
X030557Y048790D01*
X030574Y048814D02*
X028357Y048814D01*
X028442Y048931D02*
X030658Y048931D01*
X030741Y049047D02*
X028527Y049047D01*
X028612Y049164D02*
X030902Y049164D01*
X031092Y049281D02*
X028681Y049281D01*
X028643Y049207D02*
X028643Y049207D01*
X028741Y049397D02*
X031280Y049397D01*
X031477Y049514D02*
X028805Y049514D01*
X028847Y049630D02*
X031707Y049630D01*
X031937Y049747D02*
X028889Y049747D01*
X028930Y049864D02*
X032167Y049864D01*
X032397Y049980D02*
X028972Y049980D01*
X029014Y050097D02*
X030207Y050097D01*
X030157Y050119D02*
X030434Y049999D01*
X030736Y049989D01*
X030828Y050021D01*
X030847Y050016D01*
X030895Y050045D01*
X030948Y050064D01*
X030955Y050080D01*
X031465Y050370D01*
X032616Y050923D01*
X033812Y051370D01*
X035044Y051706D01*
X036301Y051930D01*
X036918Y051996D01*
X036969Y051989D01*
X036987Y052002D01*
X037009Y052004D01*
X037044Y052045D01*
X037172Y052141D01*
X037172Y052141D01*
X037172Y052142D01*
X037382Y052436D01*
X037382Y052436D01*
X037492Y052781D01*
X037492Y052781D01*
X037492Y052889D01*
X037492Y052941D01*
X037492Y052962D01*
X037492Y053036D01*
X037492Y054906D01*
X037388Y055010D01*
X036803Y055595D01*
X036803Y057219D01*
X037388Y057805D01*
X037388Y057805D01*
X037492Y057908D01*
X037492Y063173D01*
X037388Y063277D01*
X036803Y063862D01*
X039401Y063862D01*
X039402Y063862D02*
X038817Y063277D01*
X038816Y063277D01*
X038712Y063173D01*
X038712Y057908D01*
X038816Y057805D01*
X038817Y057805D01*
X039402Y057219D01*
X039402Y055595D01*
X038817Y055010D01*
X038816Y055010D01*
X038712Y054906D01*
X038712Y053036D01*
X038712Y052962D01*
X038712Y052955D01*
X038712Y052889D01*
X038712Y052889D01*
X038712Y052781D01*
X038823Y052436D01*
X039032Y052142D01*
X039032Y052141D01*
X039032Y052141D01*
X039161Y052045D01*
X039195Y052004D01*
X039218Y052002D01*
X039236Y051989D01*
X039287Y051996D01*
X039903Y051930D01*
X041161Y051706D01*
X042393Y051370D01*
X043589Y050923D01*
X044739Y050370D01*
X045249Y050080D01*
X045257Y050064D01*
X045310Y050045D01*
X045358Y050016D01*
X045377Y050021D01*
X045468Y049989D01*
X045468Y049989D01*
X045770Y049999D01*
X045770Y049999D01*
X046047Y050119D01*
X046047Y050119D01*
X046261Y050332D01*
X046261Y050332D01*
X046381Y050609D01*
X046381Y050609D01*
X046391Y050911D01*
X046391Y050911D01*
X046365Y050984D01*
X046365Y050984D01*
X046344Y051042D01*
X046340Y051053D01*
X046316Y051123D01*
X046315Y051123D01*
X039861Y069117D01*
X039865Y069141D01*
X039837Y069184D01*
X039819Y069233D01*
X039797Y069243D01*
X039755Y069307D01*
X039755Y069307D01*
X039543Y069444D01*
X039294Y069486D01*
X039049Y069424D01*
X039049Y069424D01*
X038848Y069271D01*
X038726Y069050D01*
X038719Y068988D01*
X038712Y068981D01*
X038712Y068916D01*
X038706Y068851D01*
X038712Y068844D01*
X038712Y066176D01*
X038816Y066072D01*
X038817Y066072D01*
X039402Y065487D01*
X039402Y063862D01*
X039402Y063979D02*
X036803Y063979D01*
X036803Y064096D02*
X039402Y064096D01*
X039402Y064212D02*
X038575Y064212D01*
X038575Y064208D02*
X038575Y065142D01*
X038471Y065246D01*
X038324Y065246D01*
X037880Y065246D01*
X037734Y065246D01*
X037630Y065142D01*
X037630Y064208D01*
X037734Y064104D01*
X037880Y064104D01*
X038324Y064104D01*
X038471Y064104D01*
X038575Y064208D01*
X038575Y064329D02*
X039402Y064329D01*
X039402Y064445D02*
X038575Y064445D01*
X038575Y064562D02*
X039402Y064562D01*
X039402Y064679D02*
X038575Y064679D01*
X038575Y064795D02*
X039402Y064795D01*
X039402Y064912D02*
X038575Y064912D01*
X038575Y065029D02*
X039402Y065029D01*
X039402Y065145D02*
X038571Y065145D01*
X039160Y065729D02*
X037045Y065729D01*
X037161Y065845D02*
X039043Y065845D01*
X038927Y065962D02*
X037278Y065962D01*
X037388Y066072D02*
X036803Y065487D01*
X036803Y063862D01*
X036920Y063746D02*
X039285Y063746D01*
X039168Y063629D02*
X037037Y063629D01*
X037153Y063512D02*
X039051Y063512D01*
X038935Y063396D02*
X037270Y063396D01*
X037387Y063279D02*
X038818Y063279D01*
X038712Y063162D02*
X037492Y063162D01*
X037492Y063046D02*
X038712Y063046D01*
X038712Y062929D02*
X037492Y062929D01*
X037492Y062812D02*
X038712Y062812D01*
X038712Y062696D02*
X037492Y062696D01*
X037492Y062579D02*
X038712Y062579D01*
X038712Y062462D02*
X037492Y062462D01*
X037492Y062346D02*
X038712Y062346D01*
X038712Y062229D02*
X037492Y062229D01*
X037492Y062112D02*
X038712Y062112D01*
X038712Y061996D02*
X037492Y061996D01*
X037492Y061879D02*
X038712Y061879D01*
X038712Y061762D02*
X037492Y061762D01*
X037492Y061646D02*
X038712Y061646D01*
X038712Y061529D02*
X037492Y061529D01*
X037492Y061412D02*
X038712Y061412D01*
X038712Y061296D02*
X037492Y061296D01*
X037492Y061179D02*
X038712Y061179D01*
X038712Y061063D02*
X037492Y061063D01*
X037492Y060946D02*
X038712Y060946D01*
X038712Y060829D02*
X037492Y060829D01*
X037492Y060713D02*
X038712Y060713D01*
X038712Y060596D02*
X037492Y060596D01*
X037492Y060479D02*
X038712Y060479D01*
X038712Y060363D02*
X037492Y060363D01*
X037492Y060246D02*
X038712Y060246D01*
X038712Y060129D02*
X037492Y060129D01*
X037492Y060013D02*
X038712Y060013D01*
X038712Y059896D02*
X037492Y059896D01*
X037492Y059779D02*
X038712Y059779D01*
X038712Y059663D02*
X037492Y059663D01*
X037492Y059546D02*
X038712Y059546D01*
X038712Y059429D02*
X037492Y059429D01*
X037492Y059313D02*
X038712Y059313D01*
X038712Y059196D02*
X037492Y059196D01*
X037492Y059079D02*
X038712Y059079D01*
X038712Y058963D02*
X037492Y058963D01*
X037492Y058846D02*
X038712Y058846D01*
X038712Y058729D02*
X037492Y058729D01*
X037492Y058613D02*
X038712Y058613D01*
X038712Y058496D02*
X037492Y058496D01*
X037492Y058379D02*
X038712Y058379D01*
X038712Y058263D02*
X037492Y058263D01*
X037492Y058146D02*
X038712Y058146D01*
X038712Y058030D02*
X037492Y058030D01*
X037492Y057913D02*
X038712Y057913D01*
X038825Y057796D02*
X037380Y057796D01*
X037263Y057680D02*
X038941Y057680D01*
X039058Y057563D02*
X037147Y057563D01*
X037030Y057446D02*
X039175Y057446D01*
X039291Y057330D02*
X036913Y057330D01*
X036803Y057213D02*
X039402Y057213D01*
X039402Y057096D02*
X036803Y057096D01*
X036803Y056980D02*
X039402Y056980D01*
X039402Y056863D02*
X038575Y056863D01*
X038575Y056874D02*
X038471Y056978D01*
X038324Y056978D01*
X037880Y056978D01*
X037734Y056978D01*
X037630Y056874D01*
X037630Y055940D01*
X037734Y055836D01*
X037880Y055836D01*
X038324Y055836D01*
X038471Y055836D01*
X038575Y055940D01*
X038575Y056874D01*
X038575Y056746D02*
X039402Y056746D01*
X039402Y056630D02*
X038575Y056630D01*
X038575Y056513D02*
X039402Y056513D01*
X039402Y056396D02*
X038575Y056396D01*
X038575Y056280D02*
X039402Y056280D01*
X039402Y056163D02*
X038575Y056163D01*
X038575Y056046D02*
X039402Y056046D01*
X039402Y055930D02*
X038565Y055930D01*
X039153Y055346D02*
X037051Y055346D01*
X037168Y055230D02*
X039037Y055230D01*
X038920Y055113D02*
X037285Y055113D01*
X037388Y055010D02*
X037388Y055010D01*
X037401Y054997D02*
X038803Y054997D01*
X038712Y054880D02*
X037492Y054880D01*
X037492Y054763D02*
X038712Y054763D01*
X038712Y054647D02*
X037492Y054647D01*
X037492Y054530D02*
X038712Y054530D01*
X038712Y054413D02*
X037492Y054413D01*
X037492Y054297D02*
X038712Y054297D01*
X038712Y054180D02*
X037492Y054180D01*
X037492Y054063D02*
X038712Y054063D01*
X038712Y053947D02*
X037492Y053947D01*
X037492Y053830D02*
X038712Y053830D01*
X038712Y053713D02*
X037492Y053713D01*
X037492Y053597D02*
X038712Y053597D01*
X038712Y053480D02*
X037492Y053480D01*
X037492Y053363D02*
X038712Y053363D01*
X038712Y053247D02*
X037492Y053247D01*
X037492Y053130D02*
X038712Y053130D01*
X038712Y053013D02*
X037492Y053013D01*
X037492Y052897D02*
X038712Y052897D01*
X038712Y052781D02*
X038712Y052781D01*
X038713Y052780D02*
X037492Y052780D01*
X037492Y052889D02*
X037492Y052889D01*
X037455Y052663D02*
X038750Y052663D01*
X038787Y052547D02*
X037417Y052547D01*
X037378Y052430D02*
X038827Y052430D01*
X038823Y052436D02*
X038823Y052436D01*
X038910Y052314D02*
X037295Y052314D01*
X037212Y052197D02*
X038993Y052197D01*
X039114Y052080D02*
X037091Y052080D01*
X036616Y051964D02*
X039589Y051964D01*
X040369Y051847D02*
X035835Y051847D01*
X035178Y051730D02*
X041027Y051730D01*
X041501Y051614D02*
X034704Y051614D01*
X034277Y051497D02*
X041928Y051497D01*
X042355Y051380D02*
X033849Y051380D01*
X033527Y051264D02*
X037698Y051264D01*
X037667Y051251D02*
X037452Y051035D01*
X037335Y050753D01*
X037335Y050447D01*
X037111Y050447D01*
X037101Y050564D02*
X037335Y050564D01*
X037335Y050680D02*
X037109Y050680D01*
X037077Y050797D02*
X037353Y050797D01*
X037401Y050914D02*
X037036Y050914D01*
X037030Y050931D02*
X037030Y050931D01*
X036931Y051030D02*
X037450Y051030D01*
X037564Y051147D02*
X036733Y051147D01*
X036629Y051183D02*
X036629Y051183D01*
X036508Y051170D02*
X036508Y051170D01*
X036335Y051147D02*
X033215Y051147D01*
X032903Y051030D02*
X035638Y051030D01*
X035912Y051091D02*
X035912Y051091D01*
X035108Y050914D02*
X032596Y050914D01*
X032354Y050797D02*
X034626Y050797D01*
X034250Y050680D02*
X032111Y050680D01*
X031869Y050564D02*
X033874Y050564D01*
X033604Y050480D02*
X033604Y050480D01*
X033523Y050447D02*
X031626Y050447D01*
X031396Y050330D02*
X033235Y050330D01*
X032948Y050214D02*
X031191Y050214D01*
X030986Y050097D02*
X032660Y050097D01*
X032496Y050031D02*
X032496Y050031D01*
X030736Y049989D02*
X030736Y049989D01*
X030434Y049999D02*
X030434Y049999D01*
X030157Y050119D02*
X030157Y050119D01*
X029944Y050332D01*
X029944Y050332D01*
X029824Y050609D01*
X029824Y050609D01*
X029814Y050911D01*
X029814Y050911D01*
X029864Y051053D01*
X029889Y051123D01*
X029890Y051123D01*
X036344Y069117D01*
X036339Y069141D01*
X036368Y069185D01*
X036386Y069233D01*
X036407Y069243D01*
X036450Y069307D01*
X036450Y069307D01*
X036450Y069307D01*
X036662Y069444D01*
X036662Y069444D01*
X036911Y069486D01*
X036911Y069486D01*
X037156Y069424D01*
X037156Y069424D01*
X037356Y069271D01*
X037356Y069271D01*
X037479Y069050D01*
X037479Y069050D01*
X037485Y068988D01*
X037492Y068981D01*
X037492Y068916D01*
X037499Y068851D01*
X037492Y068844D01*
X037492Y066176D01*
X037388Y066072D01*
X037388Y066072D01*
X037395Y066079D02*
X038810Y066079D01*
X038712Y066195D02*
X037492Y066195D01*
X037492Y066312D02*
X038712Y066312D01*
X038712Y066429D02*
X037492Y066429D01*
X037492Y066545D02*
X038712Y066545D01*
X038712Y066662D02*
X037492Y066662D01*
X037492Y066779D02*
X038712Y066779D01*
X038712Y066895D02*
X037492Y066895D01*
X037492Y067012D02*
X038712Y067012D01*
X038712Y067129D02*
X037492Y067129D01*
X037492Y067245D02*
X038712Y067245D01*
X038712Y067362D02*
X037492Y067362D01*
X037492Y067478D02*
X038712Y067478D01*
X038712Y067595D02*
X037492Y067595D01*
X037492Y067712D02*
X038712Y067712D01*
X038712Y067828D02*
X037492Y067828D01*
X037492Y067945D02*
X038712Y067945D01*
X038712Y068062D02*
X037492Y068062D01*
X037492Y068178D02*
X038712Y068178D01*
X038712Y068295D02*
X037492Y068295D01*
X037492Y068412D02*
X038712Y068412D01*
X038712Y068528D02*
X037492Y068528D01*
X037492Y068645D02*
X038712Y068645D01*
X038712Y068762D02*
X037492Y068762D01*
X037496Y068878D02*
X038709Y068878D01*
X038720Y068995D02*
X037485Y068995D01*
X037445Y069112D02*
X038760Y069112D01*
X038726Y069050D02*
X038726Y069050D01*
X038825Y069228D02*
X037380Y069228D01*
X037260Y069345D02*
X038945Y069345D01*
X038848Y069271D02*
X038848Y069271D01*
X038848Y069271D01*
X039197Y069462D02*
X037007Y069462D01*
X036766Y069462D02*
X035936Y069462D01*
X035978Y069578D02*
X040227Y069578D01*
X040269Y069462D02*
X039439Y069462D01*
X039543Y069444D02*
X039543Y069444D01*
X039696Y069345D02*
X040310Y069345D01*
X040352Y069228D02*
X039821Y069228D01*
X039863Y069112D02*
X040394Y069112D01*
X040436Y068995D02*
X039905Y068995D01*
X039947Y068878D02*
X040477Y068878D01*
X040519Y068762D02*
X039988Y068762D01*
X040030Y068645D02*
X040561Y068645D01*
X040602Y068528D02*
X040072Y068528D01*
X040114Y068412D02*
X040644Y068412D01*
X040686Y068295D02*
X040156Y068295D01*
X040198Y068178D02*
X040727Y068178D01*
X040769Y068062D02*
X040239Y068062D01*
X040281Y067945D02*
X040811Y067945D01*
X040853Y067828D02*
X040323Y067828D01*
X040365Y067712D02*
X040894Y067712D01*
X040936Y067595D02*
X040407Y067595D01*
X040449Y067478D02*
X040978Y067478D01*
X041019Y067362D02*
X040490Y067362D01*
X040532Y067245D02*
X041061Y067245D01*
X041103Y067129D02*
X040574Y067129D01*
X040616Y067012D02*
X041144Y067012D01*
X041186Y066895D02*
X040658Y066895D01*
X040700Y066779D02*
X041228Y066779D01*
X041270Y066662D02*
X040742Y066662D01*
X040783Y066545D02*
X041311Y066545D01*
X041353Y066429D02*
X040825Y066429D01*
X040867Y066312D02*
X041395Y066312D01*
X041436Y066195D02*
X040909Y066195D01*
X040951Y066079D02*
X041478Y066079D01*
X041520Y065962D02*
X040993Y065962D01*
X041034Y065845D02*
X041561Y065845D01*
X041603Y065729D02*
X041076Y065729D01*
X041118Y065612D02*
X041645Y065612D01*
X041687Y065495D02*
X041160Y065495D01*
X041202Y065379D02*
X041728Y065379D01*
X041770Y065262D02*
X041244Y065262D01*
X041285Y065145D02*
X041812Y065145D01*
X041853Y065029D02*
X041327Y065029D01*
X041369Y064912D02*
X041895Y064912D01*
X041937Y064795D02*
X041411Y064795D01*
X041453Y064679D02*
X041978Y064679D01*
X042020Y064562D02*
X041495Y064562D01*
X041537Y064445D02*
X042062Y064445D01*
X042104Y064329D02*
X041578Y064329D01*
X041620Y064212D02*
X042145Y064212D01*
X042187Y064096D02*
X041662Y064096D01*
X041704Y063979D02*
X042229Y063979D01*
X042270Y063862D02*
X041746Y063862D01*
X041788Y063746D02*
X042312Y063746D01*
X042354Y063629D02*
X041829Y063629D01*
X041871Y063512D02*
X042395Y063512D01*
X042437Y063396D02*
X041913Y063396D01*
X041955Y063279D02*
X042479Y063279D01*
X042521Y063162D02*
X041997Y063162D01*
X042039Y063046D02*
X042562Y063046D01*
X042604Y062929D02*
X042081Y062929D01*
X042122Y062812D02*
X042646Y062812D01*
X042687Y062696D02*
X042164Y062696D01*
X042206Y062579D02*
X042729Y062579D01*
X042771Y062462D02*
X042248Y062462D01*
X042290Y062346D02*
X042812Y062346D01*
X042854Y062229D02*
X042332Y062229D01*
X042373Y062112D02*
X042896Y062112D01*
X042938Y061996D02*
X042415Y061996D01*
X042457Y061879D02*
X042979Y061879D01*
X043021Y061762D02*
X042499Y061762D01*
X042541Y061646D02*
X043063Y061646D01*
X043104Y061529D02*
X042583Y061529D01*
X042624Y061412D02*
X043146Y061412D01*
X043188Y061296D02*
X042666Y061296D01*
X042708Y061179D02*
X043229Y061179D01*
X043271Y061063D02*
X042750Y061063D01*
X042792Y060946D02*
X043313Y060946D01*
X043355Y060829D02*
X042834Y060829D01*
X042876Y060713D02*
X043396Y060713D01*
X043438Y060596D02*
X042917Y060596D01*
X042959Y060479D02*
X043480Y060479D01*
X043521Y060363D02*
X043001Y060363D01*
X043043Y060246D02*
X043563Y060246D01*
X043605Y060129D02*
X043085Y060129D01*
X043127Y060013D02*
X043646Y060013D01*
X043688Y059896D02*
X043168Y059896D01*
X043210Y059779D02*
X043730Y059779D01*
X043772Y059663D02*
X043252Y059663D01*
X043294Y059546D02*
X043813Y059546D01*
X043855Y059429D02*
X043336Y059429D01*
X043378Y059313D02*
X043897Y059313D01*
X043938Y059196D02*
X043419Y059196D01*
X043461Y059079D02*
X043980Y059079D01*
X044022Y058963D02*
X043503Y058963D01*
X043545Y058846D02*
X044063Y058846D01*
X044105Y058729D02*
X043587Y058729D01*
X043629Y058613D02*
X044147Y058613D01*
X044189Y058496D02*
X043671Y058496D01*
X043712Y058379D02*
X044230Y058379D01*
X044272Y058263D02*
X043754Y058263D01*
X043796Y058146D02*
X044314Y058146D01*
X044355Y058030D02*
X043838Y058030D01*
X043880Y057913D02*
X044397Y057913D01*
X044439Y057796D02*
X043922Y057796D01*
X043963Y057680D02*
X044480Y057680D01*
X044522Y057563D02*
X044005Y057563D01*
X044047Y057446D02*
X044564Y057446D01*
X044606Y057330D02*
X044089Y057330D01*
X044131Y057213D02*
X044647Y057213D01*
X044689Y057096D02*
X044173Y057096D01*
X044214Y056980D02*
X044731Y056980D01*
X044772Y056863D02*
X044256Y056863D01*
X044298Y056746D02*
X044814Y056746D01*
X044856Y056630D02*
X044340Y056630D01*
X044382Y056513D02*
X044897Y056513D01*
X044939Y056396D02*
X044424Y056396D01*
X044466Y056280D02*
X044981Y056280D01*
X045023Y056163D02*
X044507Y056163D01*
X044549Y056046D02*
X045064Y056046D01*
X045106Y055930D02*
X044591Y055930D01*
X044633Y055813D02*
X045148Y055813D01*
X045189Y055696D02*
X044675Y055696D01*
X044717Y055580D02*
X045231Y055580D01*
X045273Y055463D02*
X044758Y055463D01*
X044800Y055346D02*
X045314Y055346D01*
X045356Y055230D02*
X044842Y055230D01*
X044884Y055113D02*
X045398Y055113D01*
X045440Y054997D02*
X044926Y054997D01*
X044968Y054880D02*
X045481Y054880D01*
X045523Y054763D02*
X045009Y054763D01*
X045051Y054647D02*
X045565Y054647D01*
X045606Y054530D02*
X045093Y054530D01*
X045135Y054413D02*
X045648Y054413D01*
X045690Y054297D02*
X045177Y054297D01*
X045219Y054180D02*
X045731Y054180D01*
X045773Y054063D02*
X045261Y054063D01*
X045302Y053947D02*
X045815Y053947D01*
X045857Y053830D02*
X045344Y053830D01*
X045386Y053713D02*
X045898Y053713D01*
X045940Y053597D02*
X045428Y053597D01*
X045470Y053480D02*
X045982Y053480D01*
X046023Y053363D02*
X045512Y053363D01*
X045553Y053247D02*
X046065Y053247D01*
X046107Y053130D02*
X045595Y053130D01*
X045637Y053013D02*
X046148Y053013D01*
X046190Y052897D02*
X045679Y052897D01*
X045721Y052780D02*
X046232Y052780D01*
X046274Y052663D02*
X045763Y052663D01*
X045804Y052547D02*
X046315Y052547D01*
X046357Y052430D02*
X045846Y052430D01*
X045888Y052314D02*
X046399Y052314D01*
X046440Y052197D02*
X045930Y052197D01*
X045972Y052080D02*
X046482Y052080D01*
X046524Y051964D02*
X046014Y051964D01*
X046056Y051847D02*
X046565Y051847D01*
X046607Y051730D02*
X046097Y051730D01*
X046139Y051614D02*
X046649Y051614D01*
X046691Y051497D02*
X046181Y051497D01*
X046223Y051380D02*
X046732Y051380D01*
X046774Y051264D02*
X046265Y051264D01*
X046307Y051147D02*
X046816Y051147D01*
X046857Y051030D02*
X046348Y051030D01*
X046390Y050914D02*
X046899Y050914D01*
X046941Y050797D02*
X046387Y050797D01*
X046383Y050680D02*
X046982Y050680D01*
X047024Y050564D02*
X046361Y050564D01*
X046311Y050447D02*
X047066Y050447D01*
X047108Y050330D02*
X046259Y050330D01*
X046142Y050214D02*
X047149Y050214D01*
X047191Y050097D02*
X045997Y050097D01*
X045219Y050097D02*
X043545Y050097D01*
X043708Y050031D02*
X043708Y050031D01*
X043808Y049980D02*
X047233Y049980D01*
X047274Y049864D02*
X044038Y049864D01*
X044268Y049747D02*
X047316Y049747D01*
X047358Y049630D02*
X044498Y049630D01*
X044727Y049514D02*
X047399Y049514D01*
X047464Y049397D02*
X044925Y049397D01*
X044774Y049490D02*
X044774Y049490D01*
X045113Y049281D02*
X047524Y049281D01*
X047561Y049207D02*
X047561Y049207D01*
X047593Y049164D02*
X045303Y049164D01*
X045436Y049086D02*
X045436Y049086D01*
X045436Y049086D01*
X045463Y049047D02*
X047678Y049047D01*
X047763Y048931D02*
X045547Y048931D01*
X045631Y048814D02*
X047848Y048814D01*
X047932Y048697D02*
X045667Y048697D01*
X045692Y048581D02*
X048026Y048581D01*
X047995Y048612D02*
X047995Y048612D01*
X048142Y048464D02*
X045717Y048464D01*
X045723Y048435D02*
X045723Y048435D01*
X045704Y048347D02*
X048259Y048347D01*
X048376Y048231D02*
X045680Y048231D01*
X045655Y048114D02*
X048492Y048114D01*
X048516Y048091D02*
X048516Y048091D01*
X048644Y047997D02*
X045589Y047997D01*
X045648Y048079D02*
X045648Y048079D01*
X045505Y047881D02*
X046183Y047881D01*
X046267Y047890D02*
X046267Y047890D01*
X046313Y047881D02*
X048804Y047881D01*
X048964Y047764D02*
X046798Y047764D01*
X046731Y047799D02*
X046731Y047799D01*
X047017Y047647D02*
X049130Y047647D01*
X049111Y047657D02*
X049111Y047657D01*
X049358Y047531D02*
X047195Y047531D01*
X047148Y047578D02*
X047148Y047578D01*
X047312Y047414D02*
X049646Y047414D01*
X049972Y047297D02*
X047428Y047297D01*
X047482Y047244D02*
X047482Y047244D01*
X047515Y047181D02*
X050298Y047181D01*
X050625Y047064D02*
X047577Y047064D01*
X047639Y046947D02*
X050951Y046947D01*
X051277Y046831D02*
X047701Y046831D01*
X047703Y046827D02*
X047703Y046827D01*
X047725Y046714D02*
X051604Y046714D01*
X047983Y045744D02*
X047983Y045744D01*
X047872Y045664D02*
X047647Y045664D01*
X047597Y045548D02*
X047710Y045548D01*
X047628Y045431D02*
X047536Y045431D01*
X047595Y045375D02*
X047595Y045375D01*
X047554Y045314D02*
X047438Y045314D01*
X047466Y045198D02*
X047340Y045198D01*
X047348Y045081D02*
X047231Y045081D01*
X047256Y045097D02*
X047256Y045097D01*
X047230Y044964D02*
X047051Y044964D01*
X047026Y044848D02*
X046871Y044848D01*
X046860Y044840D02*
X046860Y044840D01*
X046720Y044731D02*
X046479Y044731D01*
X046406Y044710D02*
X046406Y044710D01*
X044614Y046481D02*
X044580Y046481D01*
X044614Y046502D02*
X044614Y046502D01*
X044587Y046597D02*
X044641Y046597D01*
X044608Y046714D02*
X044675Y046714D01*
X044708Y046831D02*
X044639Y046831D01*
X044670Y046947D02*
X044742Y046947D01*
X044744Y046956D02*
X044744Y046956D01*
X044719Y047064D02*
X044814Y047064D01*
X044785Y047181D02*
X044890Y047181D01*
X044852Y047297D02*
X044966Y047297D01*
X045001Y047352D02*
X045001Y047352D01*
X045001Y047352D01*
X044955Y047414D02*
X045075Y047414D01*
X045070Y047531D02*
X045214Y047531D01*
X045214Y047647D02*
X045353Y047647D01*
X045363Y047656D02*
X045363Y047656D01*
X045342Y047729D02*
X045342Y047729D01*
X045402Y047764D02*
X045618Y047764D01*
X045436Y047784D02*
X045436Y047784D01*
X045798Y047840D02*
X045798Y047840D01*
X045014Y050214D02*
X043257Y050214D01*
X042969Y050330D02*
X044808Y050330D01*
X044578Y050447D02*
X042682Y050447D01*
X042601Y050480D02*
X042601Y050480D01*
X042331Y050564D02*
X044336Y050564D01*
X044094Y050680D02*
X041955Y050680D01*
X041579Y050797D02*
X043851Y050797D01*
X043609Y050914D02*
X041097Y050914D01*
X040567Y051030D02*
X043302Y051030D01*
X042990Y051147D02*
X039869Y051147D01*
X039576Y051183D02*
X039576Y051183D01*
X039472Y051147D02*
X038641Y051147D01*
X038537Y051251D02*
X038753Y051035D01*
X038870Y050753D01*
X038870Y050447D01*
X039094Y050447D01*
X039103Y050564D02*
X038870Y050564D01*
X038870Y050680D02*
X039096Y050680D01*
X039094Y050701D02*
X039094Y050701D01*
X039127Y050797D02*
X038852Y050797D01*
X038803Y050914D02*
X039168Y050914D01*
X039274Y051030D02*
X038755Y051030D01*
X038537Y051251D02*
X038255Y051368D01*
X037950Y051368D01*
X037667Y051251D01*
X036858Y051103D02*
X036858Y051103D01*
X037335Y050447D02*
X037452Y050165D01*
X037667Y049949D01*
X037950Y049832D01*
X038255Y049832D01*
X038537Y049949D01*
X038753Y050165D01*
X038870Y050447D01*
X038822Y050330D02*
X039057Y050330D01*
X039019Y050214D02*
X038773Y050214D01*
X038685Y050097D02*
X038962Y050097D01*
X038878Y049980D02*
X038568Y049980D01*
X038615Y049747D02*
X037590Y049747D01*
X037429Y049864D02*
X037874Y049864D01*
X037878Y049630D02*
X038327Y049630D01*
X038331Y049864D02*
X038776Y049864D01*
X037636Y049980D02*
X037327Y049980D01*
X037242Y050097D02*
X037520Y050097D01*
X037431Y050214D02*
X037185Y050214D01*
X037148Y050330D02*
X037383Y050330D01*
X038506Y051264D02*
X042678Y051264D01*
X040293Y051091D02*
X040293Y051091D01*
X039346Y051103D02*
X039346Y051103D01*
X039270Y055463D02*
X036935Y055463D01*
X036818Y055580D02*
X039387Y055580D01*
X039402Y055696D02*
X036803Y055696D01*
X036803Y055813D02*
X039402Y055813D01*
X037640Y055930D02*
X036803Y055930D01*
X036803Y056046D02*
X037630Y056046D01*
X037630Y056163D02*
X036803Y056163D01*
X036803Y056280D02*
X037630Y056280D01*
X037630Y056396D02*
X036803Y056396D01*
X036803Y056513D02*
X037630Y056513D01*
X037630Y056630D02*
X036803Y056630D01*
X036803Y056746D02*
X037630Y056746D01*
X037630Y056863D02*
X036803Y056863D01*
X032785Y059196D02*
X032266Y059196D01*
X032225Y059079D02*
X032744Y059079D01*
X032702Y058963D02*
X032183Y058963D01*
X032141Y058846D02*
X032660Y058846D01*
X032618Y058729D02*
X032099Y058729D01*
X032058Y058613D02*
X032576Y058613D01*
X032534Y058496D02*
X032016Y058496D01*
X031974Y058379D02*
X032493Y058379D01*
X032451Y058263D02*
X031933Y058263D01*
X031891Y058146D02*
X032409Y058146D01*
X032367Y058030D02*
X031849Y058030D01*
X031808Y057913D02*
X032325Y057913D01*
X032283Y057796D02*
X031766Y057796D01*
X031724Y057680D02*
X032241Y057680D01*
X032200Y057563D02*
X031682Y057563D01*
X031641Y057446D02*
X032158Y057446D01*
X032116Y057330D02*
X031599Y057330D01*
X031557Y057213D02*
X032074Y057213D01*
X032032Y057096D02*
X031516Y057096D01*
X031474Y056980D02*
X031990Y056980D01*
X031949Y056863D02*
X031432Y056863D01*
X031391Y056746D02*
X031907Y056746D01*
X031865Y056630D02*
X031349Y056630D01*
X031307Y056513D02*
X031823Y056513D01*
X031781Y056396D02*
X031265Y056396D01*
X031224Y056280D02*
X031739Y056280D01*
X031698Y056163D02*
X031182Y056163D01*
X031140Y056046D02*
X031656Y056046D01*
X031614Y055930D02*
X031099Y055930D01*
X031057Y055813D02*
X031572Y055813D01*
X031530Y055696D02*
X031015Y055696D01*
X030974Y055580D02*
X031488Y055580D01*
X031446Y055463D02*
X030932Y055463D01*
X030890Y055346D02*
X031405Y055346D01*
X031363Y055230D02*
X030848Y055230D01*
X030807Y055113D02*
X031321Y055113D01*
X031279Y054997D02*
X030765Y054997D01*
X030723Y054880D02*
X031237Y054880D01*
X031195Y054763D02*
X030682Y054763D01*
X030640Y054647D02*
X031154Y054647D01*
X031112Y054530D02*
X030598Y054530D01*
X030557Y054413D02*
X031070Y054413D01*
X031028Y054297D02*
X030515Y054297D01*
X030473Y054180D02*
X030986Y054180D01*
X030944Y054063D02*
X030431Y054063D01*
X030390Y053947D02*
X030903Y053947D01*
X030861Y053830D02*
X030348Y053830D01*
X030306Y053713D02*
X030819Y053713D01*
X030777Y053597D02*
X030265Y053597D01*
X030223Y053480D02*
X030735Y053480D01*
X030693Y053363D02*
X030181Y053363D01*
X030140Y053247D02*
X030651Y053247D01*
X030610Y053130D02*
X030098Y053130D01*
X030056Y053013D02*
X030568Y053013D01*
X030526Y052897D02*
X030014Y052897D01*
X029973Y052780D02*
X030484Y052780D01*
X030442Y052663D02*
X029931Y052663D01*
X029889Y052547D02*
X030400Y052547D01*
X030359Y052430D02*
X029848Y052430D01*
X029806Y052314D02*
X030317Y052314D01*
X030275Y052197D02*
X029764Y052197D01*
X029723Y052080D02*
X030233Y052080D01*
X030191Y051964D02*
X029681Y051964D01*
X029639Y051847D02*
X030149Y051847D01*
X030108Y051730D02*
X029597Y051730D01*
X029556Y051614D02*
X030066Y051614D01*
X030024Y051497D02*
X029514Y051497D01*
X029472Y051380D02*
X029982Y051380D01*
X029940Y051264D02*
X029431Y051264D01*
X029389Y051147D02*
X029898Y051147D01*
X029856Y051030D02*
X029347Y051030D01*
X029306Y050914D02*
X029815Y050914D01*
X029817Y050797D02*
X029264Y050797D01*
X029222Y050680D02*
X029821Y050680D01*
X029843Y050564D02*
X029181Y050564D01*
X029139Y050447D02*
X029894Y050447D01*
X029946Y050330D02*
X029097Y050330D01*
X029055Y050214D02*
X030062Y050214D01*
X029937Y047890D02*
X029937Y047890D01*
X030022Y047881D02*
X030699Y047881D01*
X030769Y047784D02*
X030769Y047784D01*
X030802Y047764D02*
X030586Y047764D01*
X030407Y047840D02*
X030407Y047840D01*
X030851Y047647D02*
X030990Y047647D01*
X030926Y047691D02*
X030926Y047691D01*
X030991Y047531D02*
X031134Y047531D01*
X031130Y047414D02*
X031249Y047414D01*
X031203Y047352D02*
X031203Y047352D01*
X031239Y047297D02*
X031353Y047297D01*
X031315Y047181D02*
X031419Y047181D01*
X031390Y047064D02*
X031486Y047064D01*
X031460Y046956D02*
X031460Y046956D01*
X031463Y046947D02*
X031535Y046947D01*
X031566Y046831D02*
X031496Y046831D01*
X031530Y046714D02*
X031597Y046714D01*
X031617Y046597D02*
X031563Y046597D01*
X031591Y046502D02*
X031591Y046502D01*
X031590Y046481D02*
X031625Y046481D01*
X032308Y059313D02*
X032827Y059313D01*
X032869Y059429D02*
X032350Y059429D01*
X032391Y059546D02*
X032911Y059546D01*
X032953Y059663D02*
X032433Y059663D01*
X032475Y059779D02*
X032995Y059779D01*
X033037Y059896D02*
X032516Y059896D01*
X032558Y060013D02*
X033078Y060013D01*
X033120Y060129D02*
X032600Y060129D01*
X032642Y060246D02*
X033162Y060246D01*
X033204Y060363D02*
X032683Y060363D01*
X032725Y060479D02*
X033246Y060479D01*
X033288Y060596D02*
X032767Y060596D01*
X032808Y060713D02*
X033329Y060713D01*
X033371Y060829D02*
X032850Y060829D01*
X032892Y060946D02*
X033413Y060946D01*
X033455Y061063D02*
X032933Y061063D01*
X032975Y061179D02*
X033497Y061179D01*
X033539Y061296D02*
X033017Y061296D01*
X033059Y061412D02*
X033580Y061412D01*
X033622Y061529D02*
X033100Y061529D01*
X033142Y061646D02*
X033664Y061646D01*
X033706Y061762D02*
X033184Y061762D01*
X033225Y061879D02*
X033748Y061879D01*
X033790Y061996D02*
X033267Y061996D01*
X033309Y062112D02*
X033832Y062112D01*
X033873Y062229D02*
X033350Y062229D01*
X033392Y062346D02*
X033915Y062346D01*
X033957Y062462D02*
X033434Y062462D01*
X033476Y062579D02*
X033999Y062579D01*
X034041Y062696D02*
X033517Y062696D01*
X033559Y062812D02*
X034083Y062812D01*
X034124Y062929D02*
X033601Y062929D01*
X033642Y063046D02*
X034166Y063046D01*
X034208Y063162D02*
X033684Y063162D01*
X033726Y063279D02*
X034250Y063279D01*
X034292Y063396D02*
X033767Y063396D01*
X033809Y063512D02*
X034334Y063512D01*
X034376Y063629D02*
X033851Y063629D01*
X033893Y063746D02*
X034417Y063746D01*
X034459Y063862D02*
X033934Y063862D01*
X033976Y063979D02*
X034501Y063979D01*
X034543Y064096D02*
X034018Y064096D01*
X034059Y064212D02*
X034585Y064212D01*
X034627Y064329D02*
X034101Y064329D01*
X034143Y064445D02*
X034668Y064445D01*
X034710Y064562D02*
X034184Y064562D01*
X034226Y064679D02*
X034752Y064679D01*
X034794Y064795D02*
X034268Y064795D01*
X034310Y064912D02*
X034836Y064912D01*
X034878Y065029D02*
X034351Y065029D01*
X034393Y065145D02*
X034919Y065145D01*
X034961Y065262D02*
X034435Y065262D01*
X034476Y065379D02*
X035003Y065379D01*
X035045Y065495D02*
X034518Y065495D01*
X034560Y065612D02*
X035087Y065612D01*
X035129Y065729D02*
X034601Y065729D01*
X034643Y065845D02*
X035171Y065845D01*
X035212Y065962D02*
X034685Y065962D01*
X034727Y066079D02*
X035254Y066079D01*
X035296Y066195D02*
X034768Y066195D01*
X034810Y066312D02*
X035338Y066312D01*
X035380Y066429D02*
X034852Y066429D01*
X034893Y066545D02*
X035422Y066545D01*
X035463Y066662D02*
X034935Y066662D01*
X034977Y066779D02*
X035505Y066779D01*
X035547Y066895D02*
X035018Y066895D01*
X035060Y067012D02*
X035589Y067012D01*
X035631Y067129D02*
X035102Y067129D01*
X035144Y067245D02*
X035673Y067245D01*
X035714Y067362D02*
X035185Y067362D01*
X035227Y067478D02*
X035756Y067478D01*
X035798Y067595D02*
X035269Y067595D01*
X035310Y067712D02*
X035840Y067712D01*
X035882Y067828D02*
X035352Y067828D01*
X035394Y067945D02*
X035924Y067945D01*
X035966Y068062D02*
X035435Y068062D01*
X035477Y068178D02*
X036007Y068178D01*
X036049Y068295D02*
X035519Y068295D01*
X035561Y068412D02*
X036091Y068412D01*
X036133Y068528D02*
X035602Y068528D01*
X035644Y068645D02*
X036175Y068645D01*
X036217Y068762D02*
X035686Y068762D01*
X035727Y068878D02*
X036258Y068878D01*
X036300Y068995D02*
X035769Y068995D01*
X035811Y069112D02*
X036342Y069112D01*
X036384Y069228D02*
X035852Y069228D01*
X035894Y069345D02*
X036508Y069345D01*
X036019Y069695D02*
X040185Y069695D01*
X040144Y069812D02*
X036061Y069812D01*
X036103Y069928D02*
X036899Y069928D01*
X037134Y069928D02*
X039071Y069928D01*
X039305Y069928D02*
X040102Y069928D01*
X039277Y065612D02*
X036928Y065612D01*
X036811Y065495D02*
X039393Y065495D01*
X039402Y065379D02*
X036803Y065379D01*
X036803Y065262D02*
X039402Y065262D01*
X037633Y065145D02*
X036803Y065145D01*
X036803Y065029D02*
X037630Y065029D01*
X037630Y064912D02*
X036803Y064912D01*
X036803Y064795D02*
X037630Y064795D01*
X037630Y064679D02*
X036803Y064679D01*
X036803Y064562D02*
X037630Y064562D01*
X037630Y064445D02*
X036803Y064445D01*
X036803Y064329D02*
X037630Y064329D01*
X037630Y064212D02*
X036803Y064212D01*
X037388Y063277D02*
X037388Y063277D01*
X065052Y038665D02*
X065815Y038665D01*
X065932Y038548D02*
X065150Y038548D01*
X065150Y038432D02*
X066049Y038432D01*
X066165Y038315D02*
X065150Y038315D01*
X070209Y038665D02*
X071024Y038665D01*
X071024Y038548D02*
X070307Y038548D01*
X070714Y038432D02*
X071024Y038432D01*
X071025Y038315D02*
X070790Y038315D01*
X070811Y038198D02*
X071025Y038198D01*
X071025Y038082D02*
X070790Y038082D01*
X070714Y037965D02*
X071025Y037965D01*
X071025Y037848D02*
X070307Y037848D01*
X070209Y037732D02*
X071026Y037732D01*
X009760Y037732D02*
X006666Y037732D01*
X006764Y037848D02*
X009644Y037848D01*
X008247Y037965D02*
X006764Y037965D01*
X006764Y038082D02*
X008171Y038082D01*
X008149Y038198D02*
X006764Y038198D01*
X006764Y038315D02*
X008171Y038315D01*
X008247Y038432D02*
X006764Y038432D01*
X007251Y038822D02*
X007251Y038822D01*
X005996Y038665D02*
X005571Y038665D01*
X005572Y038548D02*
X005898Y038548D01*
X005688Y038432D02*
X005572Y038432D01*
X005572Y038315D02*
X005612Y038315D01*
X005590Y038198D02*
X005572Y038198D01*
X005572Y038082D02*
X005611Y038082D01*
X005572Y037965D02*
X005688Y037965D01*
X005573Y037848D02*
X005898Y037848D01*
X005996Y037732D02*
X005573Y037732D01*
D15*
X005917Y038198D02*
X006331Y038198D01*
X008476Y038198D02*
X009657Y038198D01*
X010937Y036919D01*
X012512Y036919D01*
X013201Y037608D01*
X018516Y037608D01*
X019205Y036919D01*
X020780Y036919D01*
X021567Y037706D01*
X021567Y038198D01*
X038102Y021663D02*
X038496Y021663D01*
X039382Y020777D01*
X039382Y019202D01*
X038693Y018513D01*
X038693Y013198D01*
X039382Y012509D01*
X039382Y010935D01*
X038102Y009655D01*
X038102Y008474D01*
X038102Y006525D02*
X038102Y005915D01*
X054638Y038198D02*
X054638Y038592D01*
X055524Y039478D01*
X057098Y039478D01*
X057787Y038789D01*
X063102Y038789D01*
X063791Y039478D01*
X065366Y039478D01*
X066646Y038198D01*
X067827Y038198D01*
X069874Y038198D02*
X070484Y038198D01*
X039216Y070451D02*
X038890Y070777D01*
X038890Y070777D01*
X037217Y070679D02*
X037217Y070679D01*
X036989Y070451D01*
D16*
X037217Y070679D03*
X038890Y070777D03*
X067827Y038198D03*
X070484Y038198D03*
X038102Y008474D03*
X038102Y005915D03*
X008476Y038198D03*
X005917Y038198D03*
M02*
