%
M48
M72
T01C0.0394
T02C0.0787
T03C0.1181
%
T01
X700Y39868
X700Y43805
X39873Y82979
X43810Y82979
X82983Y43805
X82983Y39868
X43810Y695
X39873Y695
T02
X4637Y38786
X7688Y41837
X4637Y44790
X38790Y79042
X41842Y75990
X44794Y79042
X79046Y44888
X75995Y41837
X79046Y38884
X44893Y4632
X41842Y7683
X38889Y4632
T03
X41842Y29435
X54243Y41837
X41842Y54238
X29440Y41837
M30
