%
M48
M72
T01C0.0140
T02C0.0197
T03C0.0787
T04C0.1181
%
T01
X5265Y55049
X5015Y55299
X4765Y55549
X5140Y55674
X5390Y55424
X5640Y55174
X4890Y55924
X6015Y63049
X36265Y60549
X37515Y67549
X37265Y67799
X37015Y68049
X36765Y68299
X37140Y68424
X37390Y68174
X37640Y67924
T02
X1465Y1464
X1465Y2449
X1465Y3531
X1465Y4417
X2154Y5106
X3138Y5106
X4471Y22242
X3881Y23128
X3881Y24112
X3881Y24998
X3881Y25884
X5456Y22242
X13749Y34926
X13749Y36599
X14930Y36599
X15029Y34926
X18940Y25884
X18940Y24899
X18940Y23817
X18940Y22931
X18251Y22242
X17267Y22242
X22115Y34139
X22410Y34237
X21525Y36009
X23131Y26259
X23131Y25373
X23131Y24487
X23131Y23503
X23721Y22617
X24706Y22617
X26843Y31993
X26450Y33863
X28221Y32879
X29698Y32387
X29599Y33765
X30780Y33765
X30682Y32387
X33536Y31402
X36517Y22617
X37501Y22617
X38190Y23306
X38190Y24192
X38190Y25274
X38190Y26259
X34058Y5481
X33074Y5481
X34649Y4595
X34649Y3611
X34649Y2725
X34649Y1839
X21263Y5481
X20279Y5481
X19590Y4792
X19590Y3906
X19590Y2824
X19590Y1839
X16524Y1464
X16524Y2350
X16524Y3236
X16524Y4220
X15933Y5106
X14949Y5106
X23005Y47839
X22414Y49709
X22119Y49611
X18080Y49985
X17686Y51855
X16308Y50969
X14832Y51461
X14930Y50083
X13847Y51461
X13749Y50083
X10993Y52446
X13249Y74426
X13249Y76099
X14430Y76099
X14529Y74426
X21025Y75509
X21615Y73639
X21910Y73737
X25950Y74863
X26343Y72993
X27721Y73879
X29198Y73387
X29099Y74765
X30280Y74765
X30182Y73387
X33036Y72402
X30280Y88249
X30280Y89922
X29001Y89922
X29099Y88249
X22505Y88839
X21914Y90709
X21619Y90611
X17580Y89485
X17186Y91355
X15808Y90469
X14332Y90961
X14430Y89583
X13249Y89583
X13347Y90961
X10493Y91946
X29501Y48922
X29599Y47249
X30780Y47249
X30780Y48922
T03
X30190Y30615
X30190Y30615
X30190Y30615
X30190Y30615
X33143Y27564
X27237Y27564
X17292Y56284
X14340Y53233
X14340Y53233
X14340Y53233
X14340Y53233
X11387Y56284
X13840Y92733
X13840Y92733
X13840Y92733
X13840Y92733
X10887Y95784
X16792Y95784
X26737Y68564
X29690Y71615
X29690Y71615
X29690Y71615
X29690Y71615
X32643Y68564
T04
X33580Y61728
X33580Y61728
X33580Y61728
X33580Y61728
X33580Y61728
X33580Y61728
X33580Y61728
X33580Y61728
X33580Y61728
X33580Y61728
X33580Y61728
X33580Y61728
X33580Y61728
X33580Y61728
X33580Y61728
X33580Y61728
X33580Y61728
X33580Y61728
X33580Y61728
X33580Y61728
X33580Y61728
X33580Y61728
X33580Y61728
X33580Y61728
X35843Y61728
X35843Y61728
X35843Y61728
X35843Y61728
X35843Y61728
X35843Y61728
X35843Y61728
X35843Y61728
X35843Y61728
X35843Y61728
X35843Y61728
X35843Y61728
X35843Y61728
X35843Y61728
X35843Y61728
X35843Y61728
X35843Y61728
X35843Y61728
X35843Y61728
X35843Y61728
X30190Y52367
X30190Y52367
X30190Y50103
X30190Y50103
X30190Y50103
X30190Y50103
X14340Y33745
X14340Y33745
X14340Y33745
X14340Y33745
X14340Y31481
X14340Y31481
X8777Y61728
X8777Y61728
X8777Y61728
X8777Y61728
X8777Y61728
X8777Y61728
X8777Y61728
X8777Y61728
X8777Y61728
X8777Y61728
X8777Y61728
X8777Y61728
X6513Y61728
X6513Y61728
X6513Y61728
X6513Y61728
X6513Y61728
X6513Y61728
X6513Y61728
X6513Y61728
X6513Y61728
X6513Y61728
X13840Y70981
X13840Y70981
X13840Y73245
X13840Y73245
X13840Y73245
X13840Y73245
X29690Y91103
X29690Y91103
X29690Y91103
X29690Y91103
X29690Y93367
X29690Y93367
M30
