G75*
G70*
%OFA0B0*%
%FSLAX24Y24*%
%IPPOS*%
%LPD*%
%AMOC8*
5,1,8,0,0,1.08239X$1,0.0*
%
%ADD10R,0.0591X0.0591*%
%ADD11R,0.0787X0.0787*%
%ADD12C,0.0357*%
%ADD13C,0.0160*%
%ADD14C,0.0300*%
%ADD15C,0.0396*%
D10*
X010993Y052446D03*
X010993Y053824D03*
X017686Y053922D03*
X017686Y052544D03*
X026343Y070926D03*
X026343Y072304D03*
X033036Y072402D03*
X033036Y071024D03*
X017186Y092044D03*
X017186Y093422D03*
X010493Y093324D03*
X010493Y091946D03*
X033536Y031402D03*
X033536Y030024D03*
X026843Y029926D03*
X026843Y031304D03*
D11*
X036015Y058799D03*
X006265Y064549D03*
D12*
X010993Y052446D03*
X013749Y050083D03*
X013847Y051461D03*
X014832Y051461D03*
X014930Y050083D03*
X016308Y050969D03*
X017686Y051855D03*
X018080Y049985D03*
X022119Y049611D03*
X022414Y049709D03*
X023005Y047839D03*
X021525Y036009D03*
X022115Y034139D03*
X022410Y034237D03*
X023131Y026259D03*
X023131Y025373D03*
X023131Y024487D03*
X023131Y023503D03*
X023721Y022617D03*
X024706Y022617D03*
X026843Y031993D03*
X026450Y033863D03*
X028221Y032879D03*
X029698Y032387D03*
X029599Y033765D03*
X030780Y033765D03*
X030682Y032387D03*
X033536Y031402D03*
X036517Y022617D03*
X037501Y022617D03*
X038190Y023306D03*
X038190Y024192D03*
X038190Y025274D03*
X038190Y026259D03*
X034058Y005481D03*
X033074Y005481D03*
X034649Y004595D03*
X034649Y003611D03*
X034649Y002725D03*
X034649Y001839D03*
X021263Y005481D03*
X020279Y005481D03*
X019590Y004792D03*
X019590Y003906D03*
X019590Y002824D03*
X019590Y001839D03*
X016524Y001464D03*
X016524Y002350D03*
X016524Y003236D03*
X016524Y004220D03*
X015933Y005106D03*
X014949Y005106D03*
X017267Y022242D03*
X018251Y022242D03*
X018940Y022931D03*
X018940Y023817D03*
X018940Y024899D03*
X018940Y025884D03*
X015029Y034926D03*
X014930Y036599D03*
X013749Y036599D03*
X013749Y034926D03*
X005456Y022242D03*
X004471Y022242D03*
X003881Y023128D03*
X003881Y024112D03*
X003881Y024998D03*
X003881Y025884D03*
X003138Y005106D03*
X002154Y005106D03*
X001465Y004417D03*
X001465Y003531D03*
X001465Y002449D03*
X001465Y001464D03*
X029599Y047249D03*
X029501Y048922D03*
X030780Y048922D03*
X030780Y047249D03*
X033036Y072402D03*
X030182Y073387D03*
X030280Y074765D03*
X029099Y074765D03*
X029198Y073387D03*
X027721Y073879D03*
X026343Y072993D03*
X025950Y074863D03*
X021910Y073737D03*
X021615Y073639D03*
X021025Y075509D03*
X022505Y088839D03*
X021914Y090709D03*
X021619Y090611D03*
X017580Y089485D03*
X017186Y091355D03*
X015808Y090469D03*
X014332Y090961D03*
X014430Y089583D03*
X013249Y089583D03*
X013347Y090961D03*
X010493Y091946D03*
X013249Y076099D03*
X013249Y074426D03*
X014529Y074426D03*
X014430Y076099D03*
X029099Y088249D03*
X029001Y089922D03*
X030280Y089922D03*
X030280Y088249D03*
D13*
X001812Y000638D02*
X001117Y000638D01*
X001122Y000630D02*
X001105Y000660D01*
X001102Y000677D01*
X001102Y000731D01*
X001102Y005052D01*
X001102Y005106D01*
X001110Y005209D01*
X001174Y005405D01*
X001295Y005571D01*
X001461Y005692D01*
X001657Y005755D01*
X001760Y005764D01*
X001814Y005764D01*
X002985Y005764D01*
X003013Y005764D01*
X003093Y005764D01*
X003181Y005764D01*
X003453Y005841D01*
X003533Y005892D01*
X004878Y004547D01*
X002699Y004547D01*
X002646Y004547D01*
X002483Y004547D01*
X002483Y004547D01*
X002182Y004422D01*
X001951Y004192D01*
X001827Y003891D01*
X001827Y003782D01*
X001827Y003728D01*
X001827Y003674D01*
X001827Y000677D01*
X001824Y000660D01*
X001807Y000630D01*
X001777Y000612D01*
X001760Y000610D01*
X001169Y000610D01*
X001152Y000612D01*
X001122Y000630D01*
X001102Y000796D02*
X001827Y000796D01*
X001827Y000955D02*
X001102Y000955D01*
X001102Y001113D02*
X001827Y001113D01*
X001827Y001272D02*
X001102Y001272D01*
X001102Y001430D02*
X001827Y001430D01*
X001827Y001589D02*
X001102Y001589D01*
X001102Y001747D02*
X001827Y001747D01*
X001827Y001906D02*
X001102Y001906D01*
X001102Y002064D02*
X001827Y002064D01*
X001827Y002223D02*
X001102Y002223D01*
X001102Y002382D02*
X001827Y002382D01*
X001827Y002540D02*
X001102Y002540D01*
X001102Y002699D02*
X001827Y002699D01*
X001827Y002857D02*
X001102Y002857D01*
X001102Y003016D02*
X001827Y003016D01*
X001827Y003174D02*
X001102Y003174D01*
X001102Y003333D02*
X001827Y003333D01*
X001827Y003491D02*
X001102Y003491D01*
X001102Y003650D02*
X001827Y003650D01*
X001827Y003808D02*
X001102Y003808D01*
X001102Y003967D02*
X001858Y003967D01*
X001827Y003891D02*
X001827Y003891D01*
X001924Y004126D02*
X001102Y004126D01*
X001102Y004284D02*
X002043Y004284D01*
X001951Y004192D02*
X001951Y004192D01*
X002182Y004422D02*
X002182Y004422D01*
X002231Y004443D02*
X001102Y004443D01*
X001102Y004601D02*
X004824Y004601D01*
X004665Y004760D02*
X001102Y004760D01*
X001102Y004918D02*
X004507Y004918D01*
X004348Y005077D02*
X001102Y005077D01*
X001119Y005235D02*
X004190Y005235D01*
X004031Y005394D02*
X001171Y005394D01*
X001281Y005552D02*
X003872Y005552D01*
X003714Y005711D02*
X001520Y005711D01*
X003181Y005764D02*
X003181Y005764D01*
X003453Y005841D02*
X003453Y005841D01*
X003497Y005870D02*
X003555Y005870D01*
X003519Y021455D02*
X003519Y021504D01*
X003519Y021651D01*
X003519Y026671D01*
X003521Y026688D01*
X003538Y026718D01*
X003568Y026736D01*
X003586Y026738D01*
X003639Y026738D01*
X004122Y026738D01*
X004176Y026738D01*
X004193Y026736D01*
X004223Y026718D01*
X004241Y026688D01*
X004243Y026671D01*
X004243Y026617D01*
X004243Y023566D01*
X004243Y023457D01*
X004243Y023457D01*
X004368Y023156D01*
X004598Y022926D01*
X004899Y022801D01*
X005008Y022801D01*
X006900Y022801D01*
X005732Y021632D01*
X005517Y021577D01*
X005296Y021455D01*
X003519Y021455D01*
X003519Y021565D02*
X005496Y021565D01*
X005517Y021577D02*
X005517Y021577D01*
X005823Y021724D02*
X003519Y021724D01*
X003519Y021882D02*
X005982Y021882D01*
X006141Y022041D02*
X003519Y022041D01*
X003519Y022199D02*
X006299Y022199D01*
X006458Y022358D02*
X003519Y022358D01*
X003519Y022517D02*
X006616Y022517D01*
X006775Y022675D02*
X003519Y022675D01*
X003519Y022834D02*
X004820Y022834D01*
X004899Y022801D02*
X004899Y022801D01*
X004598Y022926D02*
X004598Y022926D01*
X004531Y022992D02*
X003519Y022992D01*
X003519Y023151D02*
X004373Y023151D01*
X004368Y023156D02*
X004368Y023156D01*
X004304Y023309D02*
X003519Y023309D01*
X003519Y023468D02*
X004243Y023468D01*
X004243Y023626D02*
X003519Y023626D01*
X003519Y023785D02*
X004243Y023785D01*
X004243Y023943D02*
X003519Y023943D01*
X003519Y024102D02*
X004243Y024102D01*
X004243Y024261D02*
X003519Y024261D01*
X003519Y024419D02*
X004243Y024419D01*
X004243Y024578D02*
X003519Y024578D01*
X003519Y024736D02*
X004243Y024736D01*
X004243Y024895D02*
X003519Y024895D01*
X003519Y025053D02*
X004243Y025053D01*
X004243Y025212D02*
X003519Y025212D01*
X003519Y025370D02*
X004243Y025370D01*
X004243Y025529D02*
X003519Y025529D01*
X003519Y025687D02*
X004243Y025687D01*
X004243Y025846D02*
X003519Y025846D01*
X003519Y026005D02*
X004243Y026005D01*
X004243Y026163D02*
X003519Y026163D01*
X003519Y026322D02*
X004243Y026322D01*
X004243Y026480D02*
X003519Y026480D01*
X003519Y026639D02*
X004243Y026639D01*
X004243Y026617D02*
X004243Y026617D01*
X005197Y028419D02*
X005270Y028486D01*
X005599Y028646D01*
X007056Y030103D01*
X005875Y031284D01*
X004611Y030153D01*
X004268Y029691D01*
X004268Y029691D01*
X004097Y029519D01*
X005197Y028419D01*
X005075Y028541D02*
X005383Y028541D01*
X005653Y028700D02*
X004916Y028700D01*
X004758Y028858D02*
X005811Y028858D01*
X005970Y029017D02*
X004599Y029017D01*
X004440Y029175D02*
X006128Y029175D01*
X006287Y029334D02*
X004282Y029334D01*
X004123Y029492D02*
X006445Y029492D01*
X006604Y029651D02*
X004229Y029651D01*
X004356Y029810D02*
X006762Y029810D01*
X006921Y029968D02*
X004474Y029968D01*
X004591Y030127D02*
X007033Y030127D01*
X006874Y030285D02*
X004758Y030285D01*
X004936Y030444D02*
X006715Y030444D01*
X006557Y030602D02*
X005113Y030602D01*
X005290Y030761D02*
X006398Y030761D01*
X006240Y030919D02*
X005467Y030919D01*
X005644Y031078D02*
X006081Y031078D01*
X005923Y031236D02*
X005822Y031236D01*
X013483Y034631D02*
X013484Y034773D01*
X013485Y034774D01*
X013485Y034827D01*
X013486Y034880D01*
X013485Y034880D01*
X013485Y036402D01*
X013492Y036473D01*
X013546Y036604D01*
X013646Y036703D01*
X013777Y036758D01*
X013847Y036764D01*
X014832Y036764D01*
X014902Y036758D01*
X015033Y036703D01*
X015133Y036604D01*
X015187Y036473D01*
X015194Y036402D01*
X015194Y034880D01*
X015193Y034880D01*
X015194Y034826D01*
X015194Y034774D01*
X015195Y034773D01*
X015196Y034631D01*
X013483Y034631D01*
X013484Y034724D02*
X015195Y034724D01*
X015194Y034883D02*
X013485Y034883D01*
X013485Y035041D02*
X015194Y035041D01*
X015194Y035200D02*
X014788Y035200D01*
X014776Y035179D02*
X014863Y035331D01*
X014863Y035364D01*
X014863Y035404D01*
X014863Y035418D01*
X014863Y035472D01*
X014863Y035955D01*
X014863Y036009D01*
X014863Y036025D01*
X014863Y036062D01*
X014863Y036096D01*
X014863Y036096D01*
X014776Y036248D01*
X014776Y036248D01*
X014776Y036248D01*
X014624Y036335D01*
X014590Y036335D01*
X014590Y036335D01*
X014549Y036335D01*
X014536Y036335D01*
X014483Y036335D01*
X014196Y036335D01*
X014143Y036335D01*
X014136Y036335D01*
X014089Y036335D01*
X014055Y036335D01*
X013903Y036248D01*
X013816Y036096D01*
X013816Y036062D01*
X013816Y036011D01*
X013816Y036009D01*
X013816Y035955D01*
X013816Y035472D01*
X013816Y035418D01*
X013816Y035364D01*
X013816Y035331D01*
X013816Y035331D01*
X013903Y035179D01*
X013903Y035179D01*
X013903Y035179D01*
X014055Y035091D01*
X014089Y035091D01*
X014483Y035091D01*
X014536Y035091D01*
X014538Y035091D01*
X014590Y035091D01*
X014590Y035091D01*
X014624Y035091D01*
X014776Y035179D01*
X014776Y035179D01*
X014776Y035179D01*
X014863Y035331D02*
X014863Y035331D01*
X014863Y035359D02*
X015194Y035359D01*
X015194Y035517D02*
X014863Y035517D01*
X014863Y035364D02*
X014863Y035364D01*
X014863Y035676D02*
X015194Y035676D01*
X015194Y035834D02*
X014863Y035834D01*
X014863Y035993D02*
X015194Y035993D01*
X015194Y036151D02*
X014831Y036151D01*
X014863Y036062D02*
X014863Y036062D01*
X014668Y036310D02*
X015194Y036310D01*
X015187Y036468D02*
X013492Y036468D01*
X013485Y036310D02*
X014011Y036310D01*
X014055Y036335D02*
X014055Y036335D01*
X014089Y036335D02*
X014089Y036335D01*
X013903Y036248D02*
X013903Y036248D01*
X013903Y036248D01*
X013848Y036151D02*
X013485Y036151D01*
X013485Y035993D02*
X013816Y035993D01*
X013816Y036062D02*
X013816Y036062D01*
X013816Y036096D02*
X013816Y036096D01*
X013816Y035834D02*
X013485Y035834D01*
X013485Y035676D02*
X013816Y035676D01*
X013816Y035517D02*
X013485Y035517D01*
X013485Y035359D02*
X013816Y035359D01*
X013816Y035364D02*
X013816Y035364D01*
X013891Y035200D02*
X013485Y035200D01*
X014055Y035091D02*
X014055Y035091D01*
X014089Y035091D02*
X014089Y035091D01*
X014624Y035091D02*
X014624Y035091D01*
X014624Y036335D02*
X014624Y036335D01*
X015109Y036627D02*
X013570Y036627D01*
X018627Y026736D02*
X018645Y026738D01*
X018698Y026738D01*
X019235Y026738D01*
X019253Y026736D01*
X019282Y026718D01*
X019300Y026688D01*
X019302Y026671D01*
X019302Y022242D01*
X019294Y022139D01*
X019230Y021943D01*
X019110Y021777D01*
X018943Y021656D01*
X018747Y021593D01*
X018645Y021584D01*
X018617Y021584D01*
X018591Y021584D01*
X017419Y021584D01*
X017409Y021584D01*
X017311Y021584D01*
X017224Y021584D01*
X017224Y021584D01*
X016952Y021507D01*
X016871Y021456D01*
X015527Y022801D01*
X017813Y022801D01*
X017922Y022801D01*
X018223Y022926D01*
X018453Y023156D01*
X018578Y023457D01*
X018578Y023620D01*
X018578Y023674D01*
X018578Y026671D01*
X018580Y026688D01*
X018597Y026718D01*
X018627Y026736D01*
X018578Y026639D02*
X019302Y026639D01*
X019302Y026480D02*
X018578Y026480D01*
X018578Y026322D02*
X019302Y026322D01*
X019302Y026163D02*
X018578Y026163D01*
X018578Y026005D02*
X019302Y026005D01*
X019302Y025846D02*
X018578Y025846D01*
X018578Y025687D02*
X019302Y025687D01*
X019302Y025529D02*
X018578Y025529D01*
X018578Y025370D02*
X019302Y025370D01*
X019302Y025212D02*
X018578Y025212D01*
X018578Y025053D02*
X019302Y025053D01*
X019302Y024895D02*
X018578Y024895D01*
X018578Y024736D02*
X019302Y024736D01*
X019302Y024578D02*
X018578Y024578D01*
X018578Y024419D02*
X019302Y024419D01*
X019302Y024261D02*
X018578Y024261D01*
X018578Y024102D02*
X019302Y024102D01*
X019302Y023943D02*
X018578Y023943D01*
X018578Y023785D02*
X019302Y023785D01*
X019302Y023626D02*
X018578Y023626D01*
X018578Y023468D02*
X019302Y023468D01*
X019302Y023309D02*
X018517Y023309D01*
X018578Y023457D02*
X018578Y023457D01*
X018453Y023156D02*
X018453Y023156D01*
X018448Y023151D02*
X019302Y023151D01*
X019302Y022992D02*
X018289Y022992D01*
X018223Y022926D02*
X018223Y022926D01*
X018001Y022834D02*
X019302Y022834D01*
X019302Y022675D02*
X015652Y022675D01*
X015811Y022517D02*
X019302Y022517D01*
X019302Y022358D02*
X015969Y022358D01*
X016128Y022199D02*
X019299Y022199D01*
X019262Y022041D02*
X016287Y022041D01*
X016445Y021882D02*
X019186Y021882D01*
X019036Y021724D02*
X016604Y021724D01*
X016762Y021565D02*
X017157Y021565D01*
X016952Y021507D02*
X016952Y021507D01*
X017922Y022801D02*
X017922Y022801D01*
X023271Y028553D02*
X021721Y030103D01*
X023001Y031383D01*
X023942Y030331D01*
X023956Y030305D01*
X023956Y030305D01*
X024411Y029691D01*
X024589Y029513D01*
X023489Y028413D01*
X023409Y028486D01*
X023271Y028553D01*
X023296Y028541D02*
X023617Y028541D01*
X023409Y028486D02*
X023409Y028486D01*
X023125Y028700D02*
X023776Y028700D01*
X023935Y028858D02*
X022966Y028858D01*
X022808Y029017D02*
X024093Y029017D01*
X024252Y029175D02*
X022649Y029175D01*
X022491Y029334D02*
X024410Y029334D01*
X024569Y029492D02*
X022332Y029492D01*
X022174Y029651D02*
X024450Y029651D01*
X024411Y029691D02*
X024411Y029691D01*
X024323Y029810D02*
X022015Y029810D01*
X021856Y029968D02*
X024205Y029968D01*
X024088Y030127D02*
X021745Y030127D01*
X021903Y030285D02*
X023970Y030285D01*
X023841Y030444D02*
X022062Y030444D01*
X022221Y030602D02*
X023699Y030602D01*
X023557Y030761D02*
X022379Y030761D01*
X022538Y030919D02*
X023415Y030919D01*
X023274Y031078D02*
X022696Y031078D01*
X022855Y031236D02*
X023132Y031236D01*
X022115Y034139D02*
X022410Y034237D01*
X022410Y034729D01*
X018080Y049985D01*
X017588Y049690D02*
X017784Y049394D01*
X021623Y036206D01*
X021525Y036009D01*
X022818Y027111D02*
X022788Y027093D01*
X022771Y027063D01*
X022769Y027046D01*
X022769Y026992D01*
X022769Y022027D01*
X022769Y022027D01*
X022769Y021879D01*
X022769Y021830D01*
X024546Y021830D01*
X024767Y021952D01*
X024767Y021952D01*
X024982Y022007D01*
X026150Y023176D01*
X024258Y023176D01*
X024149Y023176D01*
X024149Y023176D01*
X023848Y023301D01*
X023848Y023301D01*
X023618Y023531D01*
X023618Y023531D01*
X023493Y023832D01*
X023493Y023832D01*
X023493Y023941D01*
X023493Y026992D01*
X023493Y026992D01*
X023493Y027046D01*
X023491Y027063D01*
X023473Y027093D01*
X023443Y027111D01*
X023426Y027113D01*
X022889Y027113D01*
X022836Y027113D01*
X022818Y027111D01*
X022769Y026956D02*
X023493Y026956D01*
X023493Y026797D02*
X022769Y026797D01*
X022769Y026639D02*
X023493Y026639D01*
X023493Y026480D02*
X022769Y026480D01*
X022769Y026322D02*
X023493Y026322D01*
X023493Y026163D02*
X022769Y026163D01*
X022769Y026005D02*
X023493Y026005D01*
X023493Y025846D02*
X022769Y025846D01*
X022769Y025687D02*
X023493Y025687D01*
X023493Y025529D02*
X022769Y025529D01*
X022769Y025370D02*
X023493Y025370D01*
X023493Y025212D02*
X022769Y025212D01*
X022769Y025053D02*
X023493Y025053D01*
X023493Y024895D02*
X022769Y024895D01*
X022769Y024736D02*
X023493Y024736D01*
X023493Y024578D02*
X022769Y024578D01*
X022769Y024419D02*
X023493Y024419D01*
X023493Y024261D02*
X022769Y024261D01*
X022769Y024102D02*
X023493Y024102D01*
X023493Y023943D02*
X022769Y023943D01*
X022769Y023785D02*
X023512Y023785D01*
X023578Y023626D02*
X022769Y023626D01*
X022769Y023468D02*
X023681Y023468D01*
X023839Y023309D02*
X022769Y023309D01*
X022769Y023151D02*
X026125Y023151D01*
X025967Y022992D02*
X022769Y022992D01*
X022769Y022834D02*
X025808Y022834D01*
X025650Y022675D02*
X022769Y022675D01*
X022769Y022517D02*
X025491Y022517D01*
X025333Y022358D02*
X022769Y022358D01*
X022769Y022199D02*
X025174Y022199D01*
X025016Y022041D02*
X022769Y022041D01*
X022769Y021882D02*
X024641Y021882D01*
X027139Y028646D02*
X026843Y029040D01*
X026843Y029926D01*
X027139Y028646D02*
X027926Y028646D01*
X028517Y029335D01*
X029304Y029828D01*
X030780Y029828D01*
X031568Y029434D01*
X032355Y028646D01*
X033143Y028646D01*
X033536Y029040D01*
X033536Y030024D01*
X031174Y031698D02*
X029206Y031698D01*
X029206Y033435D01*
X029226Y033455D01*
X029336Y033720D01*
X029336Y033844D01*
X029360Y033914D01*
X029464Y034045D01*
X029614Y034117D01*
X029698Y034127D01*
X030682Y034127D01*
X030766Y034117D01*
X030916Y034045D01*
X031020Y033914D01*
X031044Y033844D01*
X031044Y033720D01*
X031044Y033720D01*
X031154Y033455D01*
X031154Y033455D01*
X031174Y033435D01*
X031174Y031698D01*
X031174Y031712D02*
X029206Y031712D01*
X029206Y031871D02*
X031174Y031871D01*
X031174Y032029D02*
X029206Y032029D01*
X029206Y032188D02*
X031174Y032188D01*
X031174Y032346D02*
X029206Y032346D01*
X029206Y032505D02*
X029817Y032505D01*
X029754Y032541D02*
X029905Y032454D01*
X029906Y032454D01*
X029939Y032454D01*
X029939Y032453D01*
X029977Y032453D01*
X029993Y032453D01*
X030047Y032453D01*
X030333Y032453D01*
X030387Y032453D01*
X030400Y032453D01*
X030441Y032453D01*
X030441Y032454D01*
X030474Y032454D01*
X030474Y032454D01*
X030626Y032541D01*
X030626Y032541D01*
X030626Y032541D01*
X030714Y032693D01*
X030714Y032726D01*
X030714Y032771D01*
X030714Y032780D01*
X030714Y032834D01*
X030714Y033317D01*
X030714Y033371D01*
X030714Y033378D01*
X030714Y033425D01*
X030714Y033425D01*
X030714Y033458D01*
X030714Y033458D01*
X030626Y033610D01*
X030626Y033610D01*
X030474Y033698D01*
X030441Y033698D01*
X030390Y033698D01*
X030387Y033698D01*
X030333Y033698D01*
X030047Y033698D01*
X029993Y033698D01*
X029991Y033698D01*
X029939Y033698D01*
X029939Y033698D01*
X029906Y033698D01*
X029905Y033698D02*
X029754Y033610D01*
X029754Y033610D01*
X029666Y033458D01*
X029666Y033425D01*
X029666Y033393D01*
X029666Y033371D01*
X029666Y033317D01*
X029666Y032834D01*
X029666Y032780D01*
X029666Y032761D01*
X029666Y032726D01*
X029666Y032693D01*
X029754Y032541D01*
X029754Y032541D01*
X029754Y032541D01*
X029683Y032663D02*
X029206Y032663D01*
X029206Y032822D02*
X029666Y032822D01*
X029666Y032726D02*
X029666Y032726D01*
X029666Y032693D02*
X029666Y032693D01*
X029666Y032980D02*
X029206Y032980D01*
X029206Y033139D02*
X029666Y033139D01*
X029666Y033298D02*
X029206Y033298D01*
X029226Y033455D02*
X029226Y033455D01*
X029226Y033456D02*
X029666Y033456D01*
X029666Y033458D02*
X029666Y033458D01*
X029666Y033425D02*
X029666Y033425D01*
X029754Y033610D02*
X029754Y033610D01*
X029762Y033615D02*
X029292Y033615D01*
X029336Y033720D02*
X029336Y033720D01*
X029336Y033773D02*
X031044Y033773D01*
X031006Y033932D02*
X029374Y033932D01*
X029558Y034090D02*
X030821Y034090D01*
X030618Y033615D02*
X031088Y033615D01*
X031153Y033456D02*
X030714Y033456D01*
X030714Y033298D02*
X031174Y033298D01*
X031174Y033139D02*
X030714Y033139D01*
X030714Y032980D02*
X031174Y032980D01*
X031174Y032822D02*
X030714Y032822D01*
X030714Y032726D02*
X030714Y032726D01*
X030714Y032693D02*
X030714Y032693D01*
X030697Y032663D02*
X031174Y032663D01*
X031174Y032505D02*
X030563Y032505D01*
X030626Y033610D02*
X030626Y033610D01*
X030474Y033698D02*
X030474Y033698D01*
X030441Y033698D02*
X030441Y033698D01*
X029906Y033698D02*
X029905Y033698D01*
X028221Y032879D02*
X027729Y032879D01*
X027237Y033174D01*
X026942Y034158D01*
X026745Y034454D01*
X022906Y047643D01*
X023005Y047839D01*
X022119Y049119D02*
X022119Y049611D01*
X022414Y049709D01*
X022119Y049119D02*
X026450Y033863D01*
X026843Y031993D02*
X026843Y031304D01*
X029627Y047090D02*
X029698Y047084D01*
X030682Y047084D01*
X030753Y047090D01*
X030883Y047145D01*
X030983Y047244D01*
X031037Y047375D01*
X031044Y047446D01*
X031044Y048968D01*
X031043Y048968D01*
X031044Y049022D01*
X031044Y049074D01*
X031045Y049075D01*
X031047Y049217D01*
X029333Y049217D01*
X029335Y049075D01*
X029336Y049074D01*
X029336Y049022D01*
X029336Y048968D01*
X029336Y048968D01*
X029336Y047499D01*
X029336Y047446D01*
X029343Y047375D01*
X029397Y047244D01*
X029497Y047145D01*
X029627Y047090D01*
X029626Y047091D02*
X030753Y047091D01*
X030985Y047249D02*
X029395Y047249D01*
X029339Y047408D02*
X031040Y047408D01*
X031044Y047566D02*
X030568Y047566D01*
X030626Y047600D02*
X030626Y047600D01*
X030626Y047600D01*
X030474Y047513D01*
X030474Y047513D01*
X030441Y047513D01*
X030441Y047513D01*
X029939Y047513D01*
X029939Y047513D01*
X029906Y047513D01*
X029905Y047513D01*
X029754Y047600D01*
X029754Y047600D01*
X029754Y047600D01*
X029666Y047752D01*
X029666Y047752D01*
X029666Y047786D01*
X029666Y047786D01*
X029666Y047839D01*
X029666Y047893D01*
X029666Y048376D01*
X029666Y048376D01*
X029666Y048484D01*
X029666Y048484D01*
X029666Y048517D01*
X029666Y048517D01*
X029754Y048669D01*
X029754Y048669D01*
X029754Y048669D01*
X029905Y048757D01*
X029906Y048757D01*
X029939Y048757D01*
X029939Y048757D01*
X029989Y048757D01*
X029993Y048757D01*
X030047Y048757D01*
X030333Y048757D01*
X030387Y048757D01*
X030397Y048757D01*
X030441Y048757D01*
X030441Y048757D01*
X030474Y048757D01*
X030474Y048757D01*
X030626Y048669D01*
X030626Y048669D01*
X030714Y048517D01*
X030714Y048517D01*
X030714Y048484D01*
X030714Y048484D01*
X030714Y048444D01*
X030714Y048430D01*
X030714Y048376D01*
X030714Y047893D01*
X030714Y047839D01*
X030714Y047823D01*
X030714Y047786D01*
X030714Y047786D01*
X030714Y047752D01*
X030714Y047752D01*
X030626Y047600D01*
X030698Y047725D02*
X031044Y047725D01*
X031044Y047884D02*
X030714Y047884D01*
X030714Y048042D02*
X031044Y048042D01*
X031044Y048201D02*
X030714Y048201D01*
X030714Y048359D02*
X031044Y048359D01*
X031044Y048518D02*
X030713Y048518D01*
X030626Y048669D02*
X030626Y048669D01*
X030614Y048676D02*
X031044Y048676D01*
X031044Y048835D02*
X029336Y048835D01*
X029336Y048993D02*
X031044Y048993D01*
X031046Y049152D02*
X029334Y049152D01*
X029336Y048676D02*
X029766Y048676D01*
X029666Y048518D02*
X029336Y048518D01*
X029336Y048359D02*
X029666Y048359D01*
X029666Y048201D02*
X029336Y048201D01*
X029336Y048042D02*
X029666Y048042D01*
X029666Y047884D02*
X029336Y047884D01*
X029336Y047725D02*
X029682Y047725D01*
X029812Y047566D02*
X029336Y047566D01*
X033504Y059172D02*
X010353Y059172D01*
X010273Y059174D01*
X010271Y059172D01*
X010268Y059172D01*
X010211Y059115D01*
X005842Y054940D01*
X005316Y054940D01*
X004744Y055512D01*
X004744Y056032D01*
X008167Y059264D01*
X008170Y059264D01*
X008227Y059321D01*
X008285Y059376D01*
X008285Y059379D01*
X008288Y059381D01*
X008288Y059461D01*
X008290Y059541D01*
X008288Y059544D01*
X008288Y060039D01*
X008170Y060156D01*
X007697Y060630D01*
X007580Y060747D01*
X006513Y060747D01*
X006359Y060759D01*
X006067Y060854D01*
X005819Y061034D01*
X005639Y061283D01*
X005544Y061575D01*
X005532Y061728D01*
X005532Y064500D01*
X005907Y064875D01*
X006824Y064875D01*
X007199Y064500D01*
X007199Y064106D01*
X007316Y063989D01*
X007709Y063595D01*
X007875Y063595D01*
X007982Y063595D01*
X008058Y063590D01*
X008064Y063595D01*
X008072Y063595D01*
X008126Y063649D01*
X008852Y064284D01*
X032003Y064284D01*
X032083Y064282D01*
X032085Y064284D01*
X032088Y064284D01*
X032145Y064341D01*
X036514Y068516D01*
X037040Y068516D01*
X037612Y067944D01*
X037612Y067425D01*
X034189Y064192D01*
X034186Y064192D01*
X034129Y064135D01*
X034071Y064080D01*
X034071Y064077D01*
X034069Y064075D01*
X034069Y063995D01*
X034066Y063915D01*
X034069Y063912D01*
X034069Y063417D01*
X034186Y063300D01*
X034776Y062709D01*
X034942Y062709D01*
X035844Y062709D01*
X035997Y062697D01*
X036289Y062602D01*
X036537Y062422D01*
X036718Y062174D01*
X036812Y061882D01*
X036825Y061728D01*
X036825Y061645D01*
X036825Y058957D01*
X036450Y058582D01*
X035533Y058582D01*
X035158Y058957D01*
X035158Y059350D01*
X035040Y059467D01*
X034647Y059861D01*
X034481Y059861D01*
X034374Y059861D01*
X034298Y059866D01*
X034292Y059861D01*
X034284Y059861D01*
X034230Y059807D01*
X033504Y059172D01*
X033649Y059299D02*
X008205Y059299D01*
X008288Y059457D02*
X033830Y059457D01*
X034011Y059616D02*
X008288Y059616D01*
X008288Y059774D02*
X034193Y059774D01*
X034734Y059774D02*
X036825Y059774D01*
X036825Y059616D02*
X034892Y059616D01*
X035040Y059467D02*
X035040Y059467D01*
X035051Y059457D02*
X036825Y059457D01*
X036825Y059299D02*
X035158Y059299D01*
X035158Y059140D02*
X036825Y059140D01*
X036825Y058982D02*
X035158Y058982D01*
X035291Y058823D02*
X036691Y058823D01*
X036532Y058664D02*
X035450Y058664D01*
X036825Y059933D02*
X008288Y059933D01*
X008236Y060091D02*
X010130Y060091D01*
X010268Y059953D02*
X009579Y060642D01*
X009462Y060759D01*
X009462Y060934D01*
X009457Y061010D01*
X009462Y061016D01*
X009462Y061024D01*
X009514Y061075D01*
X009585Y061167D01*
X009694Y061378D01*
X009751Y061609D01*
X009758Y061728D01*
X009758Y061728D01*
X009751Y061847D01*
X009694Y062078D01*
X009585Y062290D01*
X009514Y062381D01*
X009462Y062433D01*
X009462Y062441D01*
X009457Y062446D01*
X009462Y062522D01*
X009462Y062697D01*
X009579Y062814D01*
X009973Y063208D01*
X010139Y063208D01*
X014599Y063208D01*
X014765Y063208D01*
X015060Y062912D01*
X015177Y062795D01*
X015177Y060827D01*
X015177Y060661D01*
X014470Y059953D01*
X014304Y059953D01*
X010434Y059953D01*
X010268Y059953D01*
X009972Y060250D02*
X008077Y060250D01*
X008170Y060156D02*
X008170Y060156D01*
X007918Y060408D02*
X009813Y060408D01*
X009655Y060567D02*
X007760Y060567D01*
X007697Y060630D02*
X007697Y060630D01*
X007601Y060726D02*
X009496Y060726D01*
X009462Y060884D02*
X006026Y060884D01*
X006102Y061043D02*
X005813Y061043D01*
X005922Y061201D02*
X005698Y061201D01*
X005843Y061280D02*
X006065Y061058D01*
X006355Y060938D01*
X006670Y060938D01*
X006961Y061058D01*
X007183Y061280D01*
X007303Y061571D01*
X007303Y061885D01*
X007183Y062176D01*
X006961Y062398D01*
X006670Y062519D01*
X006355Y062519D01*
X006065Y062398D01*
X005843Y062176D01*
X005722Y061885D01*
X005722Y061571D01*
X005843Y061280D01*
X005810Y061360D02*
X005614Y061360D01*
X005562Y061518D02*
X005744Y061518D01*
X005722Y061677D02*
X005536Y061677D01*
X005532Y061835D02*
X005722Y061835D01*
X005767Y061994D02*
X005532Y061994D01*
X005532Y062152D02*
X005833Y062152D01*
X005978Y062311D02*
X005532Y062311D01*
X005532Y062469D02*
X006237Y062469D01*
X006789Y062469D02*
X008501Y062469D01*
X008619Y062519D02*
X008329Y062398D01*
X008106Y062176D01*
X007986Y061885D01*
X007986Y061571D01*
X008106Y061280D01*
X008329Y061058D01*
X008619Y060938D01*
X008934Y060938D01*
X009224Y061058D01*
X009447Y061280D01*
X009567Y061571D01*
X009567Y061885D01*
X009447Y062176D01*
X009224Y062398D01*
X008934Y062519D01*
X008619Y062519D01*
X008241Y062311D02*
X007048Y062311D01*
X007193Y062152D02*
X008097Y062152D01*
X008031Y061994D02*
X007258Y061994D01*
X007303Y061835D02*
X007986Y061835D01*
X007986Y061677D02*
X007303Y061677D01*
X007281Y061518D02*
X008008Y061518D01*
X008073Y061360D02*
X007216Y061360D01*
X007104Y061201D02*
X008186Y061201D01*
X008366Y061043D02*
X006923Y061043D01*
X007567Y063738D02*
X005532Y063738D01*
X005532Y063896D02*
X007408Y063896D01*
X007250Y064055D02*
X005532Y064055D01*
X005532Y064213D02*
X007199Y064213D01*
X007199Y064372D02*
X005532Y064372D01*
X005563Y064531D02*
X007168Y064531D01*
X007009Y064689D02*
X005721Y064689D01*
X005880Y064848D02*
X006851Y064848D01*
X005532Y063579D02*
X034069Y063579D01*
X034069Y063421D02*
X032170Y063421D01*
X032088Y063503D02*
X031922Y063503D01*
X028052Y063503D01*
X027887Y063503D01*
X027296Y062912D01*
X027179Y062795D01*
X027179Y060827D01*
X027179Y060661D01*
X027591Y060249D01*
X027757Y060249D01*
X032217Y060249D01*
X032383Y060249D01*
X032777Y060642D01*
X032894Y060759D01*
X032894Y060934D01*
X032899Y061010D01*
X032894Y061016D01*
X032894Y061024D01*
X032842Y061075D01*
X032772Y061167D01*
X032662Y061378D01*
X032606Y061609D01*
X032599Y061728D01*
X032606Y061847D01*
X032662Y062078D01*
X032772Y062290D01*
X032842Y062381D01*
X032894Y062433D01*
X032894Y062441D01*
X032899Y062446D01*
X032894Y062522D01*
X032894Y062697D01*
X032777Y062814D01*
X032088Y063503D01*
X032328Y063262D02*
X034223Y063262D01*
X034382Y063104D02*
X032487Y063104D01*
X032646Y062945D02*
X034540Y062945D01*
X034699Y062787D02*
X032804Y062787D01*
X032894Y062628D02*
X036210Y062628D01*
X036119Y062469D02*
X036472Y062469D01*
X036379Y062311D02*
X036618Y062311D01*
X036514Y062176D02*
X036291Y062398D01*
X036001Y062519D01*
X035686Y062519D01*
X035396Y062398D01*
X035173Y062176D01*
X035053Y061885D01*
X035053Y061571D01*
X035173Y061280D01*
X035396Y061058D01*
X035686Y060938D01*
X036001Y060938D01*
X036291Y061058D01*
X036514Y061280D01*
X036634Y061571D01*
X036634Y061885D01*
X036514Y062176D01*
X036523Y062152D02*
X036724Y062152D01*
X036776Y061994D02*
X036589Y061994D01*
X036634Y061835D02*
X036816Y061835D01*
X036825Y061677D02*
X036634Y061677D01*
X036612Y061518D02*
X036825Y061518D01*
X036825Y061645D02*
X036825Y061645D01*
X036825Y061360D02*
X036546Y061360D01*
X036434Y061201D02*
X036825Y061201D01*
X036825Y061043D02*
X036254Y061043D01*
X036825Y060884D02*
X032894Y060884D01*
X032875Y061043D02*
X033169Y061043D01*
X033132Y061058D02*
X033422Y060938D01*
X033737Y060938D01*
X034027Y061058D01*
X034250Y061280D01*
X034370Y061571D01*
X034370Y061885D01*
X034250Y062176D01*
X034027Y062398D01*
X033737Y062519D01*
X033422Y062519D01*
X033132Y062398D01*
X032909Y062176D01*
X032789Y061885D01*
X032789Y061571D01*
X032909Y061280D01*
X033132Y061058D01*
X032989Y061201D02*
X032754Y061201D01*
X032671Y061360D02*
X032877Y061360D01*
X032811Y061518D02*
X032628Y061518D01*
X032602Y061677D02*
X032789Y061677D01*
X032789Y061835D02*
X032605Y061835D01*
X032641Y061994D02*
X032834Y061994D01*
X032900Y062152D02*
X032700Y062152D01*
X032788Y062311D02*
X033044Y062311D01*
X032897Y062469D02*
X033304Y062469D01*
X033856Y062469D02*
X035567Y062469D01*
X035308Y062311D02*
X034115Y062311D01*
X034260Y062152D02*
X035164Y062152D01*
X035098Y061994D02*
X034325Y061994D01*
X034370Y061835D02*
X035053Y061835D01*
X035053Y061677D02*
X034370Y061677D01*
X034348Y061518D02*
X035075Y061518D01*
X035140Y061360D02*
X034283Y061360D01*
X034171Y061201D02*
X035252Y061201D01*
X035433Y061043D02*
X033990Y061043D01*
X034069Y063738D02*
X008227Y063738D01*
X008409Y063896D02*
X034069Y063896D01*
X034069Y064055D02*
X008590Y064055D01*
X008771Y064213D02*
X034212Y064213D01*
X034380Y064372D02*
X032177Y064372D01*
X032343Y064531D02*
X034548Y064531D01*
X034716Y064689D02*
X032509Y064689D01*
X032675Y064848D02*
X034883Y064848D01*
X035051Y065006D02*
X032841Y065006D01*
X033007Y065165D02*
X035219Y065165D01*
X035387Y065323D02*
X033173Y065323D01*
X033338Y065482D02*
X035555Y065482D01*
X035723Y065640D02*
X033504Y065640D01*
X033670Y065799D02*
X035891Y065799D01*
X036059Y065957D02*
X033836Y065957D01*
X034002Y066116D02*
X036226Y066116D01*
X036394Y066275D02*
X034168Y066275D01*
X034334Y066433D02*
X036562Y066433D01*
X036730Y066592D02*
X034500Y066592D01*
X034666Y066750D02*
X036898Y066750D01*
X037066Y066909D02*
X034832Y066909D01*
X034998Y067067D02*
X037234Y067067D01*
X037401Y067226D02*
X035164Y067226D01*
X035330Y067384D02*
X037569Y067384D01*
X037612Y067543D02*
X035495Y067543D01*
X035661Y067701D02*
X037612Y067701D01*
X037612Y067860D02*
X035827Y067860D01*
X035993Y068019D02*
X037538Y068019D01*
X037379Y068177D02*
X036159Y068177D01*
X036325Y068336D02*
X037221Y068336D01*
X037062Y068494D02*
X036491Y068494D01*
X033036Y070040D02*
X033036Y071024D01*
X033036Y070040D02*
X032643Y069646D01*
X031855Y069646D01*
X031068Y070434D01*
X030280Y070828D01*
X028804Y070828D01*
X028017Y070335D01*
X027426Y069646D01*
X026639Y069646D01*
X026343Y070040D01*
X026343Y070926D01*
X026343Y072304D02*
X026343Y072993D01*
X026737Y074174D02*
X026442Y075158D01*
X026245Y075454D01*
X022406Y088643D01*
X022505Y088839D01*
X021619Y090119D02*
X021619Y090611D01*
X021914Y090709D01*
X021619Y090119D02*
X025950Y074863D01*
X026737Y074174D02*
X027229Y073879D01*
X027721Y073879D01*
X028706Y073885D02*
X029166Y073885D01*
X029166Y073834D02*
X029166Y073780D01*
X029166Y073779D01*
X029166Y073726D01*
X028706Y073726D01*
X028706Y073568D02*
X029239Y073568D01*
X029254Y073541D02*
X029254Y073541D01*
X029405Y073454D01*
X029406Y073454D01*
X029439Y073454D01*
X029439Y073453D01*
X029510Y073453D01*
X029547Y073453D01*
X029833Y073453D01*
X029887Y073453D01*
X029941Y073453D01*
X029941Y073454D01*
X029974Y073454D01*
X029974Y073454D01*
X030126Y073541D01*
X030126Y073541D01*
X030126Y073541D01*
X030214Y073693D01*
X030214Y073726D01*
X030674Y073726D01*
X030674Y073568D02*
X030141Y073568D01*
X030214Y073693D02*
X030214Y073693D01*
X030214Y073726D02*
X030214Y074317D01*
X030214Y074346D01*
X030214Y074425D01*
X030214Y074425D01*
X030214Y074458D01*
X030214Y074458D01*
X030126Y074610D01*
X030126Y074610D01*
X029974Y074698D01*
X029941Y074698D01*
X029841Y074698D01*
X029833Y074698D01*
X029439Y074698D01*
X029439Y074698D01*
X029406Y074698D01*
X029405Y074698D02*
X029254Y074610D01*
X029254Y074610D01*
X029166Y074458D01*
X029166Y074425D01*
X029166Y074382D01*
X029166Y074371D01*
X029166Y074317D01*
X029166Y073834D01*
X029166Y073726D02*
X029166Y073693D01*
X029254Y073541D01*
X029254Y073541D01*
X029166Y073693D02*
X029166Y073693D01*
X029166Y073726D02*
X029166Y073726D01*
X029166Y074043D02*
X028706Y074043D01*
X028706Y074202D02*
X029166Y074202D01*
X029166Y074360D02*
X028706Y074360D01*
X028706Y074435D02*
X028726Y074455D01*
X028836Y074720D01*
X028836Y074843D01*
X028860Y074914D01*
X028964Y075045D01*
X029114Y075117D01*
X029198Y075127D01*
X029252Y075127D01*
X030128Y075127D01*
X030182Y075127D01*
X030266Y075117D01*
X030416Y075045D01*
X030520Y074914D01*
X030544Y074844D01*
X030544Y074720D01*
X030544Y074720D01*
X030654Y074455D01*
X030654Y074455D01*
X030674Y074435D01*
X030674Y072698D01*
X028706Y072698D01*
X028706Y074435D01*
X028752Y074519D02*
X029201Y074519D01*
X029166Y074458D02*
X029166Y074458D01*
X029166Y074425D02*
X029166Y074425D01*
X029254Y074610D02*
X029254Y074610D01*
X029370Y074677D02*
X028818Y074677D01*
X028836Y074836D02*
X030544Y074836D01*
X030562Y074677D02*
X030010Y074677D01*
X029974Y074698D02*
X029974Y074698D01*
X029941Y074698D02*
X029941Y074698D01*
X030126Y074610D02*
X030126Y074610D01*
X030179Y074519D02*
X030627Y074519D01*
X030674Y074360D02*
X030214Y074360D01*
X030214Y074202D02*
X030674Y074202D01*
X030674Y074043D02*
X030214Y074043D01*
X030214Y073885D02*
X030674Y073885D01*
X030674Y073409D02*
X028706Y073409D01*
X028706Y073250D02*
X030674Y073250D01*
X030674Y073092D02*
X028706Y073092D01*
X028706Y072933D02*
X030674Y072933D01*
X030674Y072775D02*
X028706Y072775D01*
X029406Y074698D02*
X029405Y074698D01*
X028924Y074994D02*
X030456Y074994D01*
X030214Y073726D02*
X030214Y073726D01*
X027804Y063421D02*
X025871Y063421D01*
X025789Y063503D02*
X025623Y063503D01*
X016733Y063503D01*
X016568Y063503D01*
X015860Y062795D01*
X015860Y062630D01*
X015860Y060827D01*
X015860Y060661D01*
X016568Y059953D01*
X016733Y059953D01*
X025623Y059953D01*
X025789Y059953D01*
X026496Y060661D01*
X026496Y060827D01*
X026496Y062630D01*
X026496Y062795D01*
X025789Y063503D01*
X026029Y063262D02*
X027646Y063262D01*
X027487Y063104D02*
X026188Y063104D01*
X026346Y062945D02*
X027329Y062945D01*
X027179Y062787D02*
X026496Y062787D01*
X026496Y062628D02*
X027179Y062628D01*
X027179Y062469D02*
X026496Y062469D01*
X026496Y062311D02*
X027179Y062311D01*
X027179Y062152D02*
X026496Y062152D01*
X026496Y061994D02*
X027179Y061994D01*
X027179Y061835D02*
X026496Y061835D01*
X026496Y061677D02*
X027179Y061677D01*
X027179Y061518D02*
X026496Y061518D01*
X026496Y061360D02*
X027179Y061360D01*
X027179Y061201D02*
X026496Y061201D01*
X026496Y061043D02*
X027179Y061043D01*
X027179Y060884D02*
X026496Y060884D01*
X026496Y060726D02*
X027179Y060726D01*
X027273Y060567D02*
X026402Y060567D01*
X026244Y060408D02*
X027431Y060408D01*
X027590Y060250D02*
X026085Y060250D01*
X025926Y060091D02*
X036825Y060091D01*
X036825Y060250D02*
X032384Y060250D01*
X032543Y060408D02*
X036825Y060408D01*
X036825Y060567D02*
X032701Y060567D01*
X032860Y060726D02*
X036825Y060726D01*
X039260Y055362D02*
X038930Y055202D01*
X037473Y053745D01*
X038654Y052564D01*
X039919Y053695D01*
X040261Y054157D01*
X040261Y054157D01*
X040261Y054157D01*
X040433Y054329D01*
X039333Y055429D01*
X039260Y055362D01*
X039260Y055362D01*
X039204Y055335D02*
X039426Y055335D01*
X039585Y055176D02*
X038905Y055176D01*
X038746Y055018D02*
X039744Y055018D01*
X039902Y054859D02*
X038588Y054859D01*
X038429Y054701D02*
X040061Y054701D01*
X040219Y054542D02*
X038271Y054542D01*
X038112Y054384D02*
X040378Y054384D01*
X040329Y054225D02*
X037954Y054225D01*
X037795Y054067D02*
X040194Y054067D01*
X040077Y053908D02*
X037637Y053908D01*
X037478Y053750D02*
X039959Y053750D01*
X039803Y053591D02*
X037627Y053591D01*
X037786Y053433D02*
X039625Y053433D01*
X039448Y053274D02*
X037944Y053274D01*
X038103Y053115D02*
X039271Y053115D01*
X039094Y052957D02*
X038261Y052957D01*
X038420Y052798D02*
X038917Y052798D01*
X038739Y052640D02*
X038578Y052640D01*
X038485Y027113D02*
X037895Y027113D01*
X037877Y027111D01*
X037847Y027093D01*
X037830Y027063D01*
X037828Y027046D01*
X037828Y024049D01*
X037828Y023995D01*
X037828Y023941D01*
X037828Y023832D01*
X037828Y023832D01*
X037703Y023531D01*
X037703Y023531D01*
X037473Y023301D01*
X037473Y023301D01*
X037172Y023176D01*
X037172Y023176D01*
X037063Y023176D01*
X034777Y023176D01*
X036121Y021831D01*
X036202Y021882D01*
X036202Y021882D01*
X036474Y021959D01*
X036474Y021959D01*
X036615Y021959D01*
X036669Y021959D01*
X037841Y021959D01*
X037895Y021959D01*
X037997Y021968D01*
X038193Y022031D01*
X038359Y022152D01*
X038480Y022318D01*
X038544Y022514D01*
X038552Y022617D01*
X038552Y022671D01*
X038552Y026992D01*
X038552Y027046D01*
X038550Y027063D01*
X038532Y027093D01*
X038502Y027111D01*
X038485Y027113D01*
X038552Y026956D02*
X037828Y026956D01*
X037828Y026797D02*
X038552Y026797D01*
X038552Y026639D02*
X037828Y026639D01*
X037828Y026480D02*
X038552Y026480D01*
X038552Y026322D02*
X037828Y026322D01*
X037828Y026163D02*
X038552Y026163D01*
X038552Y026005D02*
X037828Y026005D01*
X037828Y025846D02*
X038552Y025846D01*
X038552Y025687D02*
X037828Y025687D01*
X037828Y025529D02*
X038552Y025529D01*
X038552Y025370D02*
X037828Y025370D01*
X037828Y025212D02*
X038552Y025212D01*
X038552Y025053D02*
X037828Y025053D01*
X037828Y024895D02*
X038552Y024895D01*
X038552Y024736D02*
X037828Y024736D01*
X037828Y024578D02*
X038552Y024578D01*
X038552Y024419D02*
X037828Y024419D01*
X037828Y024261D02*
X038552Y024261D01*
X038552Y024102D02*
X037828Y024102D01*
X037828Y023943D02*
X038552Y023943D01*
X038552Y023785D02*
X037808Y023785D01*
X037743Y023626D02*
X038552Y023626D01*
X038552Y023468D02*
X037640Y023468D01*
X037481Y023309D02*
X038552Y023309D01*
X038552Y023151D02*
X034802Y023151D01*
X034960Y022992D02*
X038552Y022992D01*
X038552Y022834D02*
X035119Y022834D01*
X035277Y022675D02*
X038552Y022675D01*
X038544Y022517D02*
X035436Y022517D01*
X035594Y022358D02*
X038493Y022358D01*
X038394Y022199D02*
X035753Y022199D01*
X035912Y022041D02*
X038207Y022041D01*
X036205Y021882D02*
X036070Y021882D01*
X035011Y006269D02*
X033234Y006269D01*
X033012Y006146D01*
X033012Y006146D01*
X032798Y006091D01*
X031629Y004922D01*
X033521Y004922D01*
X033630Y004922D01*
X033630Y004922D01*
X033931Y004797D01*
X033931Y004797D01*
X034162Y004567D01*
X034162Y004567D01*
X034286Y004266D01*
X034286Y004266D01*
X034286Y004157D01*
X034286Y001106D01*
X034286Y001106D01*
X034286Y001052D01*
X034289Y001035D01*
X034306Y001005D01*
X034336Y000987D01*
X034353Y000985D01*
X034944Y000985D01*
X034961Y000987D01*
X034991Y001005D01*
X035008Y001035D01*
X035011Y001052D01*
X035011Y006072D01*
X035010Y006219D01*
X035011Y006269D01*
X035010Y006187D02*
X033086Y006187D01*
X032735Y006028D02*
X035011Y006028D01*
X035011Y005870D02*
X032576Y005870D01*
X032418Y005711D02*
X035011Y005711D01*
X035011Y005552D02*
X032259Y005552D01*
X032101Y005394D02*
X035011Y005394D01*
X035011Y005235D02*
X031942Y005235D01*
X031784Y005077D02*
X035011Y005077D01*
X035011Y004918D02*
X033640Y004918D01*
X033969Y004760D02*
X035011Y004760D01*
X035011Y004601D02*
X034128Y004601D01*
X034213Y004443D02*
X035011Y004443D01*
X035011Y004284D02*
X034279Y004284D01*
X034286Y004126D02*
X035011Y004126D01*
X035011Y003967D02*
X034286Y003967D01*
X034286Y003808D02*
X035011Y003808D01*
X035011Y003650D02*
X034286Y003650D01*
X034286Y003491D02*
X035011Y003491D01*
X035011Y003333D02*
X034286Y003333D01*
X034286Y003174D02*
X035011Y003174D01*
X035011Y003016D02*
X034286Y003016D01*
X034286Y002857D02*
X035011Y002857D01*
X035011Y002699D02*
X034286Y002699D01*
X034286Y002540D02*
X035011Y002540D01*
X035011Y002382D02*
X034286Y002382D01*
X034286Y002223D02*
X035011Y002223D01*
X035011Y002064D02*
X034286Y002064D01*
X034286Y001906D02*
X035011Y001906D01*
X035011Y001747D02*
X034286Y001747D01*
X034286Y001589D02*
X035011Y001589D01*
X035011Y001430D02*
X034286Y001430D01*
X034286Y001272D02*
X035011Y001272D01*
X035011Y001113D02*
X034286Y001113D01*
X023003Y004922D02*
X020717Y004922D01*
X020608Y004922D01*
X020307Y004797D01*
X020076Y004567D01*
X019952Y004266D01*
X019952Y004157D01*
X019952Y001052D01*
X019949Y001035D01*
X019932Y001005D01*
X019902Y000987D01*
X019885Y000985D01*
X019294Y000985D01*
X019277Y000987D01*
X019247Y001005D01*
X019230Y001035D01*
X019227Y001052D01*
X019227Y001106D01*
X019227Y005427D01*
X019227Y005481D01*
X019235Y005584D01*
X019299Y005780D01*
X019420Y005946D01*
X019586Y006067D01*
X019782Y006130D01*
X019885Y006139D01*
X019901Y006139D01*
X019939Y006139D01*
X021110Y006139D01*
X021124Y006139D01*
X021218Y006139D01*
X021306Y006139D01*
X021578Y006216D01*
X021658Y006267D01*
X023003Y004922D01*
X022848Y005077D02*
X019227Y005077D01*
X019227Y005235D02*
X022690Y005235D01*
X022531Y005394D02*
X019227Y005394D01*
X019233Y005552D02*
X022372Y005552D01*
X022214Y005711D02*
X019277Y005711D01*
X019364Y005870D02*
X022055Y005870D01*
X021897Y006028D02*
X019533Y006028D01*
X019227Y004918D02*
X020599Y004918D01*
X020307Y004797D02*
X020307Y004797D01*
X020269Y004760D02*
X019227Y004760D01*
X019227Y004601D02*
X020111Y004601D01*
X020076Y004567D02*
X020076Y004567D01*
X020076Y004567D01*
X020025Y004443D02*
X019227Y004443D01*
X019227Y004284D02*
X019959Y004284D01*
X019952Y004266D02*
X019952Y004266D01*
X019952Y004126D02*
X019227Y004126D01*
X019227Y003967D02*
X019952Y003967D01*
X019952Y003808D02*
X019227Y003808D01*
X019227Y003650D02*
X019952Y003650D01*
X019952Y003491D02*
X019227Y003491D01*
X019227Y003333D02*
X019952Y003333D01*
X019952Y003174D02*
X019227Y003174D01*
X019227Y003016D02*
X019952Y003016D01*
X019952Y002857D02*
X019227Y002857D01*
X019227Y002699D02*
X019952Y002699D01*
X019952Y002540D02*
X019227Y002540D01*
X019227Y002382D02*
X019952Y002382D01*
X019952Y002223D02*
X019227Y002223D01*
X019227Y002064D02*
X019952Y002064D01*
X019952Y001906D02*
X019227Y001906D01*
X019227Y001747D02*
X019952Y001747D01*
X019952Y001589D02*
X019227Y001589D01*
X019227Y001430D02*
X019952Y001430D01*
X019952Y001272D02*
X019227Y001272D01*
X019227Y001113D02*
X019952Y001113D01*
X021306Y006139D02*
X021306Y006139D01*
X021473Y006187D02*
X021738Y006187D01*
X021578Y006216D02*
X021578Y006216D01*
X016886Y005894D02*
X016885Y005844D01*
X016886Y005696D01*
X016886Y000677D01*
X016883Y000660D01*
X016866Y000630D01*
X016836Y000612D01*
X016819Y000610D01*
X016819Y000610D01*
X016765Y000610D01*
X016228Y000610D01*
X016211Y000612D01*
X016181Y000630D01*
X016164Y000660D01*
X016161Y000677D01*
X016161Y000731D01*
X016161Y003674D01*
X016161Y003728D01*
X016161Y003891D01*
X016037Y004192D01*
X016037Y004192D01*
X015806Y004422D01*
X015806Y004422D01*
X015505Y004547D01*
X015396Y004547D01*
X013504Y004547D01*
X014673Y005716D01*
X014887Y005771D01*
X015109Y005894D01*
X016886Y005894D01*
X016885Y005870D02*
X015065Y005870D01*
X014887Y005771D02*
X014887Y005771D01*
X014668Y005711D02*
X016886Y005711D01*
X016886Y005696D02*
X016886Y005696D01*
X016886Y005552D02*
X014509Y005552D01*
X014351Y005394D02*
X016886Y005394D01*
X016886Y005235D02*
X014192Y005235D01*
X014034Y005077D02*
X016886Y005077D01*
X016886Y004918D02*
X013875Y004918D01*
X013717Y004760D02*
X016886Y004760D01*
X016886Y004601D02*
X013558Y004601D01*
X015758Y004443D02*
X016886Y004443D01*
X016886Y004284D02*
X015945Y004284D01*
X016064Y004126D02*
X016886Y004126D01*
X016886Y003967D02*
X016130Y003967D01*
X016161Y003891D02*
X016161Y003891D01*
X016161Y003808D02*
X016886Y003808D01*
X016886Y003650D02*
X016161Y003650D01*
X016161Y003491D02*
X016886Y003491D01*
X016886Y003333D02*
X016161Y003333D01*
X016161Y003174D02*
X016886Y003174D01*
X016886Y003016D02*
X016161Y003016D01*
X016161Y002857D02*
X016886Y002857D01*
X016886Y002699D02*
X016161Y002699D01*
X016161Y002540D02*
X016886Y002540D01*
X016886Y002382D02*
X016161Y002382D01*
X016161Y002223D02*
X016886Y002223D01*
X016886Y002064D02*
X016161Y002064D01*
X016161Y001906D02*
X016886Y001906D01*
X016886Y001747D02*
X016161Y001747D01*
X016161Y001589D02*
X016886Y001589D01*
X016886Y001430D02*
X016161Y001430D01*
X016161Y001272D02*
X016886Y001272D01*
X016886Y001113D02*
X016161Y001113D01*
X016161Y000955D02*
X016886Y000955D01*
X016886Y000796D02*
X016161Y000796D01*
X016161Y000731D02*
X016161Y000731D01*
X016176Y000638D02*
X016871Y000638D01*
X017588Y049690D02*
X017292Y050674D01*
X016800Y050969D01*
X016308Y050969D01*
X015324Y050896D02*
X014863Y050896D01*
X014863Y051014D02*
X014863Y050531D01*
X014863Y050477D01*
X014863Y050466D01*
X014863Y050423D01*
X014863Y050423D01*
X014863Y050390D01*
X014863Y050390D01*
X014776Y050238D01*
X014776Y050238D01*
X014776Y050238D01*
X014624Y050150D01*
X014590Y050150D01*
X014590Y050150D01*
X014196Y050150D01*
X014188Y050150D01*
X014089Y050150D01*
X014089Y050150D01*
X014055Y050150D01*
X014055Y050150D01*
X013903Y050238D01*
X013903Y050238D01*
X013903Y050238D01*
X013816Y050390D01*
X013816Y050390D01*
X013816Y050423D01*
X013816Y050423D01*
X013816Y050502D01*
X013816Y050531D01*
X013816Y051122D01*
X013816Y051122D01*
X013816Y051155D01*
X013816Y051155D01*
X013903Y051307D01*
X013903Y051307D01*
X013903Y051307D01*
X014055Y051394D01*
X014055Y051394D01*
X014089Y051394D01*
X014089Y051395D01*
X014143Y051395D01*
X014196Y051395D01*
X014483Y051395D01*
X014520Y051395D01*
X014590Y051395D01*
X014590Y051394D01*
X014624Y051394D01*
X014624Y051394D01*
X014776Y051307D01*
X014776Y051307D01*
X014776Y051307D01*
X014863Y051155D01*
X014863Y051155D01*
X014863Y051122D01*
X014863Y051122D01*
X014863Y051069D01*
X014863Y051068D01*
X014863Y051014D01*
X014863Y051054D02*
X015324Y051054D01*
X015324Y051213D02*
X014830Y051213D01*
X014664Y051371D02*
X015324Y051371D01*
X015324Y051530D02*
X013355Y051530D01*
X013355Y051689D02*
X015324Y051689D01*
X015324Y051847D02*
X013355Y051847D01*
X013355Y052006D02*
X015324Y052006D01*
X015324Y052150D02*
X015324Y050413D01*
X015304Y050393D01*
X015194Y050128D01*
X015194Y050005D01*
X015169Y049934D01*
X015066Y049803D01*
X014915Y049731D01*
X014832Y049721D01*
X014778Y049721D01*
X013901Y049721D01*
X013847Y049721D01*
X013764Y049731D01*
X013613Y049803D01*
X013510Y049934D01*
X013485Y050004D01*
X013485Y050128D01*
X013485Y050128D01*
X013376Y050393D01*
X013355Y050413D01*
X013355Y052150D01*
X015324Y052150D01*
X015324Y050737D02*
X014863Y050737D01*
X014863Y050579D02*
X015324Y050579D01*
X015324Y050420D02*
X014863Y050420D01*
X014789Y050262D02*
X015249Y050262D01*
X015194Y050103D02*
X013485Y050103D01*
X013506Y049945D02*
X015173Y049945D01*
X015030Y049786D02*
X013649Y049786D01*
X013430Y050262D02*
X013890Y050262D01*
X013816Y050420D02*
X013355Y050420D01*
X013376Y050393D02*
X013376Y050393D01*
X013355Y050579D02*
X013816Y050579D01*
X013816Y050737D02*
X013355Y050737D01*
X013355Y050896D02*
X013816Y050896D01*
X013816Y051054D02*
X013355Y051054D01*
X013355Y051213D02*
X013849Y051213D01*
X014015Y051371D02*
X013355Y051371D01*
X014624Y050150D02*
X014624Y050150D01*
X015225Y054020D02*
X013749Y054020D01*
X012962Y054414D01*
X012174Y055202D01*
X011387Y055202D01*
X010993Y054808D01*
X010993Y053824D01*
X008578Y057555D02*
X006357Y057555D01*
X006525Y057713D02*
X008744Y057713D01*
X008910Y057872D02*
X006692Y057872D01*
X006860Y058030D02*
X009076Y058030D01*
X009242Y058189D02*
X007028Y058189D01*
X007196Y058347D02*
X009408Y058347D01*
X009574Y058506D02*
X007364Y058506D01*
X007532Y058664D02*
X009740Y058664D01*
X009906Y058823D02*
X007700Y058823D01*
X007868Y058982D02*
X010072Y058982D01*
X010236Y059140D02*
X008035Y059140D01*
X008412Y057396D02*
X006189Y057396D01*
X006021Y057238D02*
X008247Y057238D01*
X008081Y057079D02*
X005853Y057079D01*
X005685Y056920D02*
X007915Y056920D01*
X007749Y056762D02*
X005517Y056762D01*
X005350Y056603D02*
X007583Y056603D01*
X007417Y056445D02*
X005182Y056445D01*
X005014Y056286D02*
X007251Y056286D01*
X007085Y056128D02*
X004846Y056128D01*
X004744Y055969D02*
X006919Y055969D01*
X006753Y055811D02*
X004744Y055811D01*
X004744Y055652D02*
X006587Y055652D01*
X006421Y055494D02*
X004762Y055494D01*
X004921Y055335D02*
X006256Y055335D01*
X006090Y055176D02*
X005079Y055176D01*
X005238Y055018D02*
X005924Y055018D01*
X005532Y062628D02*
X009462Y062628D01*
X009459Y062469D02*
X009053Y062469D01*
X009312Y062311D02*
X009568Y062311D01*
X009656Y062152D02*
X009456Y062152D01*
X009522Y061994D02*
X009715Y061994D01*
X009751Y061835D02*
X009567Y061835D01*
X009567Y061677D02*
X009755Y061677D01*
X009728Y061518D02*
X009545Y061518D01*
X009480Y061360D02*
X009685Y061360D01*
X009603Y061201D02*
X009368Y061201D01*
X009481Y061043D02*
X009187Y061043D01*
X009552Y062787D02*
X005532Y062787D01*
X005532Y062945D02*
X009711Y062945D01*
X009869Y063104D02*
X005532Y063104D01*
X005532Y063262D02*
X016327Y063262D01*
X016168Y063104D02*
X014869Y063104D01*
X015027Y062945D02*
X016010Y062945D01*
X015860Y062787D02*
X015177Y062787D01*
X015177Y062628D02*
X015860Y062628D01*
X015860Y062469D02*
X015177Y062469D01*
X015177Y062311D02*
X015860Y062311D01*
X015860Y062152D02*
X015177Y062152D01*
X015177Y061994D02*
X015860Y061994D01*
X015860Y061835D02*
X015177Y061835D01*
X015177Y061677D02*
X015860Y061677D01*
X015860Y061518D02*
X015177Y061518D01*
X015177Y061360D02*
X015860Y061360D01*
X015860Y061201D02*
X015177Y061201D01*
X015177Y061043D02*
X015860Y061043D01*
X015860Y060884D02*
X015177Y060884D01*
X015177Y060726D02*
X015860Y060726D01*
X015954Y060567D02*
X015083Y060567D01*
X014925Y060408D02*
X016113Y060408D01*
X016271Y060250D02*
X014766Y060250D01*
X014608Y060091D02*
X016430Y060091D01*
X016486Y063421D02*
X005532Y063421D01*
X004697Y067919D02*
X003597Y069019D01*
X003768Y069191D01*
X003768Y069191D01*
X004111Y069653D01*
X005375Y070784D01*
X006556Y069603D01*
X005099Y068146D01*
X004770Y067986D01*
X004770Y067986D01*
X004697Y067919D01*
X004597Y068019D02*
X004836Y068019D01*
X005130Y068177D02*
X004439Y068177D01*
X004280Y068336D02*
X005289Y068336D01*
X005447Y068494D02*
X004122Y068494D01*
X003963Y068653D02*
X005606Y068653D01*
X005764Y068811D02*
X003805Y068811D01*
X003646Y068970D02*
X005923Y068970D01*
X006081Y069128D02*
X003706Y069128D01*
X003840Y069287D02*
X006240Y069287D01*
X006398Y069445D02*
X003957Y069445D01*
X004074Y069604D02*
X006555Y069604D01*
X006397Y069762D02*
X004233Y069762D01*
X004410Y069921D02*
X006238Y069921D01*
X006080Y070080D02*
X004587Y070080D01*
X004765Y070238D02*
X005921Y070238D01*
X005763Y070397D02*
X004942Y070397D01*
X005119Y070555D02*
X005604Y070555D01*
X005445Y070714D02*
X005296Y070714D01*
X012983Y074131D02*
X012984Y074273D01*
X012985Y074274D01*
X012985Y074326D01*
X012986Y074380D01*
X012985Y074380D01*
X012985Y075902D01*
X012992Y075973D01*
X013046Y076104D01*
X013146Y076203D01*
X013277Y076258D01*
X013347Y076264D01*
X014278Y076264D01*
X014332Y076264D01*
X014402Y076258D01*
X014533Y076203D01*
X014633Y076104D01*
X014687Y075973D01*
X014694Y075902D01*
X014694Y075849D01*
X014694Y074380D01*
X014693Y074380D01*
X014694Y074326D01*
X014694Y074326D01*
X014694Y074274D01*
X014695Y074273D01*
X014696Y074131D01*
X012983Y074131D01*
X012984Y074202D02*
X014696Y074202D01*
X014693Y074360D02*
X012986Y074360D01*
X012985Y074326D02*
X012985Y074326D01*
X012985Y074519D02*
X014694Y074519D01*
X014694Y074677D02*
X014273Y074677D01*
X014276Y074679D02*
X014276Y074679D01*
X014363Y074831D01*
X014363Y074864D01*
X014363Y074972D01*
X014363Y075455D01*
X014363Y075509D01*
X014363Y075562D01*
X014363Y075596D01*
X014363Y075596D01*
X014276Y075748D01*
X014276Y075748D01*
X014276Y075748D01*
X014124Y075835D01*
X014090Y075835D01*
X014090Y075835D01*
X014023Y075835D01*
X013983Y075835D01*
X013696Y075835D01*
X013687Y075835D01*
X013589Y075835D01*
X013555Y075835D01*
X013403Y075748D01*
X013316Y075596D01*
X013316Y075562D01*
X013316Y075531D01*
X013316Y075509D01*
X013316Y075455D01*
X013316Y074972D01*
X013316Y074918D01*
X013316Y074902D01*
X013316Y074864D01*
X013316Y074831D01*
X013316Y074831D01*
X013403Y074679D01*
X013403Y074679D01*
X013403Y074679D01*
X013555Y074591D01*
X013589Y074591D01*
X013631Y074591D01*
X013643Y074591D01*
X013696Y074591D01*
X013983Y074591D01*
X014036Y074591D01*
X014042Y074591D01*
X014090Y074591D01*
X014090Y074591D01*
X014124Y074591D01*
X014276Y074679D01*
X014276Y074679D01*
X014363Y074831D02*
X014363Y074831D01*
X014363Y074836D02*
X014694Y074836D01*
X014694Y074994D02*
X014363Y074994D01*
X014363Y074972D02*
X014363Y074972D01*
X014363Y074864D02*
X014363Y074864D01*
X014363Y075153D02*
X014694Y075153D01*
X014694Y075311D02*
X014363Y075311D01*
X014363Y075470D02*
X014694Y075470D01*
X014694Y075629D02*
X014344Y075629D01*
X014363Y075562D02*
X014363Y075562D01*
X014363Y075509D02*
X014363Y075509D01*
X014208Y075787D02*
X014694Y075787D01*
X014689Y075946D02*
X012989Y075946D01*
X012985Y075787D02*
X013471Y075787D01*
X013403Y075748D02*
X013403Y075748D01*
X013403Y075748D01*
X013335Y075629D02*
X012985Y075629D01*
X012985Y075470D02*
X013316Y075470D01*
X013316Y075562D02*
X013316Y075562D01*
X013316Y075596D02*
X013316Y075596D01*
X013316Y075311D02*
X012985Y075311D01*
X012985Y075153D02*
X013316Y075153D01*
X013316Y074994D02*
X012985Y074994D01*
X012985Y074836D02*
X013316Y074836D01*
X013316Y074864D02*
X013316Y074864D01*
X013406Y074677D02*
X012985Y074677D01*
X013047Y076104D02*
X014632Y076104D01*
X014349Y076263D02*
X013330Y076263D01*
X013555Y075835D02*
X013555Y075835D01*
X013589Y075835D02*
X013589Y075835D01*
X014124Y075835D02*
X014124Y075835D01*
X014124Y074591D02*
X014124Y074591D01*
X013589Y074591D02*
X013589Y074591D01*
X013555Y074591D02*
X013555Y074591D01*
X021123Y075706D02*
X017284Y088894D01*
X017088Y089190D01*
X016792Y090174D01*
X016300Y090469D01*
X015808Y090469D01*
X014824Y090532D02*
X014363Y090532D01*
X014363Y090514D02*
X014363Y090554D01*
X014363Y090622D01*
X014363Y090655D01*
X014363Y090655D01*
X014276Y090807D01*
X014276Y090807D01*
X014276Y090807D01*
X014124Y090894D01*
X014090Y090894D01*
X014090Y090895D02*
X014059Y090895D01*
X014036Y090895D01*
X013983Y090895D01*
X013696Y090895D01*
X013643Y090895D01*
X013624Y090895D01*
X013589Y090895D01*
X013589Y090894D02*
X013555Y090894D01*
X013403Y090807D01*
X013316Y090655D01*
X013316Y090622D01*
X013316Y090582D01*
X013316Y090568D01*
X013316Y090514D01*
X013316Y090031D01*
X013316Y089977D01*
X013316Y089964D01*
X013316Y089923D01*
X013316Y089890D01*
X013316Y089890D01*
X013403Y089738D01*
X013403Y089738D01*
X013403Y089738D01*
X013555Y089650D01*
X013589Y089650D01*
X013634Y089650D01*
X013643Y089650D01*
X013696Y089650D01*
X013983Y089650D01*
X014036Y089650D01*
X014043Y089650D01*
X014090Y089650D01*
X014090Y089650D01*
X014124Y089650D01*
X014276Y089738D01*
X014363Y089890D01*
X014363Y089923D01*
X014363Y089923D01*
X014363Y089998D01*
X014363Y090031D01*
X014363Y090514D01*
X014363Y090622D02*
X014363Y090622D01*
X014343Y090690D02*
X014824Y090690D01*
X014824Y090849D02*
X014203Y090849D01*
X014124Y090894D02*
X014124Y090894D01*
X014090Y090894D02*
X014090Y090895D01*
X013589Y090895D02*
X013589Y090894D01*
X013555Y090894D02*
X013555Y090894D01*
X013476Y090849D02*
X012855Y090849D01*
X012855Y091007D02*
X014824Y091007D01*
X014824Y091166D02*
X012855Y091166D01*
X012855Y091324D02*
X014824Y091324D01*
X014824Y091483D02*
X012855Y091483D01*
X012855Y091641D02*
X014824Y091641D01*
X014824Y091650D02*
X014824Y089913D01*
X014804Y089893D01*
X014694Y089628D01*
X014694Y089504D01*
X014669Y089434D01*
X014566Y089303D01*
X014415Y089231D01*
X014332Y089221D01*
X014332Y089221D01*
X014278Y089221D01*
X013347Y089221D01*
X013264Y089231D01*
X013113Y089303D01*
X013010Y089434D01*
X012985Y089504D01*
X012985Y089628D01*
X012985Y089628D01*
X012876Y089893D01*
X012855Y089913D01*
X012855Y091650D01*
X014824Y091650D01*
X014824Y090373D02*
X014363Y090373D01*
X014363Y090215D02*
X014824Y090215D01*
X014824Y090056D02*
X014363Y090056D01*
X014363Y089897D02*
X014808Y089897D01*
X014804Y089893D02*
X014804Y089893D01*
X014740Y089739D02*
X014276Y089739D01*
X014276Y089738D02*
X014276Y089738D01*
X014276Y089738D01*
X014363Y089890D02*
X014363Y089890D01*
X014124Y089650D02*
X014124Y089650D01*
X014483Y089263D02*
X013196Y089263D01*
X013019Y089422D02*
X014660Y089422D01*
X014694Y089580D02*
X012985Y089580D01*
X012939Y089739D02*
X013403Y089739D01*
X013555Y089650D02*
X013555Y089650D01*
X013589Y089650D02*
X013589Y089650D01*
X013316Y089897D02*
X012871Y089897D01*
X012876Y089893D02*
X012876Y089893D01*
X012855Y090056D02*
X013316Y090056D01*
X013316Y089923D02*
X013316Y089923D01*
X013316Y090215D02*
X012855Y090215D01*
X012855Y090373D02*
X013316Y090373D01*
X013316Y090532D02*
X012855Y090532D01*
X012855Y090690D02*
X013336Y090690D01*
X013316Y090655D02*
X013316Y090655D01*
X013316Y090622D02*
X013316Y090622D01*
X013403Y090807D02*
X013403Y090807D01*
X013403Y090807D01*
X013249Y093520D02*
X012462Y093914D01*
X011674Y094702D01*
X010887Y094702D01*
X010493Y094308D01*
X010493Y093324D01*
X013249Y093520D02*
X014725Y093520D01*
X015513Y094013D01*
X016103Y094702D01*
X016891Y094702D01*
X017186Y094308D01*
X017186Y093422D01*
X017186Y092044D02*
X017186Y091355D01*
X017580Y089485D02*
X021910Y074229D01*
X021910Y073737D01*
X021615Y073639D01*
X021025Y075509D02*
X021123Y075706D01*
X022501Y070883D02*
X023442Y069831D01*
X023456Y069805D01*
X023456Y069805D01*
X023911Y069191D01*
X023911Y069191D01*
X024089Y069013D01*
X022989Y067913D01*
X022909Y067986D01*
X022771Y068053D01*
X021221Y069603D01*
X022501Y070883D01*
X022491Y070872D02*
X022510Y070872D01*
X022652Y070714D02*
X022332Y070714D01*
X022173Y070555D02*
X022794Y070555D01*
X022936Y070397D02*
X022015Y070397D01*
X021856Y070238D02*
X023078Y070238D01*
X023219Y070080D02*
X021698Y070080D01*
X021539Y069921D02*
X023361Y069921D01*
X023487Y069762D02*
X021381Y069762D01*
X021222Y069604D02*
X023605Y069604D01*
X023722Y069445D02*
X021379Y069445D01*
X021538Y069287D02*
X023839Y069287D01*
X023973Y069128D02*
X021696Y069128D01*
X021855Y068970D02*
X024046Y068970D01*
X023887Y068811D02*
X022013Y068811D01*
X022172Y068653D02*
X023729Y068653D01*
X023570Y068494D02*
X022330Y068494D01*
X022489Y068336D02*
X023412Y068336D01*
X023253Y068177D02*
X022648Y068177D01*
X022843Y068019D02*
X023095Y068019D01*
X022909Y067986D02*
X022909Y067986D01*
X021040Y055435D02*
X021120Y055362D01*
X021120Y055362D01*
X021258Y055295D01*
X022808Y053745D01*
X021529Y052465D01*
X020587Y053517D01*
X020573Y053543D01*
X020573Y053543D01*
X020119Y054157D01*
X020119Y054157D01*
X019941Y054335D01*
X021040Y055435D01*
X020940Y055335D02*
X021175Y055335D01*
X021376Y055176D02*
X020782Y055176D01*
X020623Y055018D02*
X021535Y055018D01*
X021693Y054859D02*
X020465Y054859D01*
X020306Y054701D02*
X021852Y054701D01*
X022011Y054542D02*
X020148Y054542D01*
X019989Y054384D02*
X022169Y054384D01*
X022328Y054225D02*
X020051Y054225D01*
X020186Y054067D02*
X022486Y054067D01*
X022645Y053908D02*
X020303Y053908D01*
X020421Y053750D02*
X022803Y053750D01*
X022654Y053591D02*
X020538Y053591D01*
X020663Y053433D02*
X022496Y053433D01*
X022337Y053274D02*
X020805Y053274D01*
X020947Y053115D02*
X022179Y053115D01*
X022020Y052957D02*
X021089Y052957D01*
X021231Y052798D02*
X021861Y052798D01*
X021703Y052640D02*
X021372Y052640D01*
X021514Y052481D02*
X021544Y052481D01*
X017686Y052544D02*
X017686Y051855D01*
X017686Y053922D02*
X017686Y054808D01*
X017391Y055202D01*
X016603Y055202D01*
X016013Y054513D01*
X015225Y054020D01*
X029127Y088090D02*
X029198Y088084D01*
X030182Y088084D01*
X030253Y088090D01*
X030383Y088145D01*
X030483Y088244D01*
X030537Y088375D01*
X030544Y088446D01*
X030544Y089968D01*
X030543Y089968D01*
X030544Y090021D01*
X030544Y090074D01*
X030545Y090075D01*
X030547Y090217D01*
X028833Y090217D01*
X028835Y090075D01*
X028836Y090074D01*
X028836Y090022D01*
X028836Y089968D01*
X028836Y089968D01*
X028836Y088446D01*
X028843Y088375D01*
X028897Y088244D01*
X028997Y088145D01*
X029127Y088090D01*
X028988Y088154D02*
X030392Y088154D01*
X030511Y088312D02*
X028869Y088312D01*
X028836Y088471D02*
X030544Y088471D01*
X030544Y088629D02*
X030143Y088629D01*
X030126Y088600D02*
X030214Y088752D01*
X030214Y088786D01*
X030214Y088837D01*
X030214Y088839D01*
X030214Y088893D01*
X030214Y089376D01*
X030214Y089430D01*
X030214Y089484D01*
X030214Y089517D01*
X030126Y089669D01*
X030126Y089669D01*
X029974Y089757D01*
X029941Y089757D01*
X029547Y089757D01*
X029493Y089757D01*
X029492Y089757D01*
X029439Y089757D01*
X029439Y089757D01*
X029406Y089757D01*
X029405Y089757D01*
X029254Y089669D01*
X029166Y089517D01*
X029166Y089484D01*
X029166Y089444D01*
X029166Y089430D01*
X029166Y089376D01*
X029166Y088893D01*
X029166Y088839D01*
X029166Y088823D01*
X029166Y088786D01*
X029166Y088752D01*
X029166Y088752D01*
X029254Y088600D01*
X029405Y088513D01*
X029406Y088513D01*
X029439Y088513D01*
X029439Y088513D01*
X029481Y088513D01*
X029493Y088513D01*
X029547Y088513D01*
X029833Y088513D01*
X029887Y088513D01*
X029893Y088513D01*
X029941Y088513D01*
X029974Y088513D01*
X030126Y088600D01*
X030126Y088600D01*
X030126Y088600D01*
X029974Y088513D02*
X029974Y088513D01*
X029941Y088513D02*
X029941Y088513D01*
X030214Y088752D02*
X030214Y088752D01*
X030214Y088786D02*
X030214Y088786D01*
X030214Y088788D02*
X030544Y088788D01*
X030544Y088946D02*
X030214Y088946D01*
X030214Y089105D02*
X030544Y089105D01*
X030544Y089263D02*
X030214Y089263D01*
X030214Y089422D02*
X030544Y089422D01*
X030544Y089580D02*
X030177Y089580D01*
X030214Y089517D02*
X030214Y089517D01*
X030214Y089484D02*
X030214Y089484D01*
X030126Y089669D02*
X030126Y089669D01*
X030005Y089739D02*
X030544Y089739D01*
X030544Y089897D02*
X028836Y089897D01*
X028836Y089739D02*
X029375Y089739D01*
X029254Y089669D02*
X029254Y089669D01*
X029254Y089669D01*
X029203Y089580D02*
X028836Y089580D01*
X028836Y089422D02*
X029166Y089422D01*
X029166Y089484D02*
X029166Y089484D01*
X029166Y089517D02*
X029166Y089517D01*
X029166Y089263D02*
X028836Y089263D01*
X028836Y089105D02*
X029166Y089105D01*
X029166Y088946D02*
X028836Y088946D01*
X028836Y088788D02*
X029166Y088788D01*
X029166Y088786D02*
X029166Y088786D01*
X029237Y088629D02*
X028836Y088629D01*
X029254Y088600D02*
X029254Y088600D01*
X029254Y088600D01*
X028836Y090056D02*
X030544Y090056D01*
X030547Y090215D02*
X028833Y090215D01*
X029941Y089757D02*
X029941Y089757D01*
X029974Y089757D02*
X029974Y089757D01*
X036973Y094745D02*
X038430Y096202D01*
X038760Y096362D01*
X038833Y096429D01*
X039933Y095329D01*
X039761Y095157D01*
X039419Y094695D01*
X038154Y093564D01*
X036973Y094745D01*
X037041Y094812D02*
X039506Y094812D01*
X039623Y094971D02*
X037199Y094971D01*
X037358Y095129D02*
X039740Y095129D01*
X039761Y095157D02*
X039761Y095157D01*
X039892Y095288D02*
X037516Y095288D01*
X037675Y095446D02*
X039815Y095446D01*
X039656Y095605D02*
X037834Y095605D01*
X037992Y095764D02*
X039498Y095764D01*
X039339Y095922D02*
X038151Y095922D01*
X038309Y096081D02*
X039181Y096081D01*
X039022Y096239D02*
X038507Y096239D01*
X038799Y096398D02*
X038864Y096398D01*
X039373Y094654D02*
X037064Y094654D01*
X037223Y094495D02*
X039196Y094495D01*
X039018Y094337D02*
X037382Y094337D01*
X037540Y094178D02*
X038841Y094178D01*
X038664Y094020D02*
X037699Y094020D01*
X037857Y093861D02*
X038487Y093861D01*
X038310Y093703D02*
X038016Y093703D01*
X022308Y094745D02*
X020758Y096295D01*
X020620Y096362D01*
X020620Y096362D01*
X020540Y096435D01*
X019441Y095335D01*
X019619Y095157D01*
X019619Y095157D01*
X020073Y094543D01*
X020073Y094543D01*
X020087Y094517D01*
X021029Y093465D01*
X022308Y094745D01*
X022241Y094812D02*
X019874Y094812D01*
X019992Y094654D02*
X022217Y094654D01*
X022058Y094495D02*
X020107Y094495D01*
X020249Y094337D02*
X021900Y094337D01*
X021741Y094178D02*
X020391Y094178D01*
X020533Y094020D02*
X021583Y094020D01*
X021424Y093861D02*
X020674Y093861D01*
X020816Y093703D02*
X021266Y093703D01*
X021107Y093544D02*
X020958Y093544D01*
X021923Y095129D02*
X019639Y095129D01*
X019757Y094971D02*
X022082Y094971D01*
X021765Y095288D02*
X019488Y095288D01*
X019552Y095446D02*
X021606Y095446D01*
X021448Y095605D02*
X019710Y095605D01*
X019869Y095764D02*
X021289Y095764D01*
X021131Y095922D02*
X020027Y095922D01*
X020186Y096081D02*
X020972Y096081D01*
X020814Y096239D02*
X020344Y096239D01*
X020503Y096398D02*
X020581Y096398D01*
X014694Y089628D02*
X014694Y089628D01*
D14*
X006015Y063049D03*
X004890Y055924D03*
X005140Y055674D03*
X005390Y055424D03*
X005640Y055174D03*
X005265Y055049D03*
X005015Y055299D03*
X004765Y055549D03*
X036265Y060549D03*
X037515Y067549D03*
X037265Y067799D03*
X037015Y068049D03*
X036765Y068299D03*
X037140Y068424D03*
X037390Y068174D03*
X037640Y067924D03*
D15*
X038890Y054799D03*
X038890Y053299D03*
X039640Y054049D03*
X038140Y054049D03*
X024140Y029674D03*
X023390Y028924D03*
X022640Y029674D03*
X023390Y030424D03*
X021265Y053299D03*
X021265Y054799D03*
X022015Y054049D03*
X020515Y054049D03*
X022765Y068549D03*
X022015Y069299D03*
X022765Y070049D03*
X023515Y069299D03*
X020765Y094299D03*
X020015Y095049D03*
X020765Y095799D03*
X021515Y095049D03*
X005640Y069174D03*
X004890Y068424D03*
X004140Y069174D03*
X004890Y069924D03*
X005390Y030424D03*
X006140Y029674D03*
X005390Y028924D03*
X004640Y029674D03*
X037640Y095049D03*
X038390Y094299D03*
X038390Y095799D03*
X039140Y095049D03*
M02*
