%
M48
M72
T01C0.0140
T02C0.0787
T03C0.1181
%
T01
X38102Y5915
X38102Y8474
X8476Y38198
X5917Y38198
X37217Y70679
X38890Y70777
X67827Y38198
X70484Y38198
T02
X898Y35147
X3949Y38198
X898Y41151
X35051Y75403
X38102Y72352
X41055Y75403
X75307Y41250
X72256Y38198
X75307Y35246
X41154Y994
X38102Y4045
X35150Y994
T03
X38102Y25797
X25701Y38198
X38102Y50600
X27374Y61033
X23437Y54242
X17433Y54242
X12709Y54242
X6508Y54242
X2571Y61033
X6508Y67824
X12610Y67824
X17335Y67824
X23437Y67824
X50504Y38198
M30
