G75*
G70*
%OFA0B0*%
%FSLAX24Y24*%
%IPPOS*%
%LPD*%
%AMOC8*
5,1,8,0,0,1.08239X$1,0.0*
%
%ADD10R,0.0354X0.0315*%
%ADD11R,0.0709X0.0551*%
%ADD12R,0.0591X0.0512*%
%ADD13R,0.0512X0.0630*%
%ADD14R,0.0551X0.0551*%
%ADD15R,0.0315X0.0354*%
%ADD16R,0.0551X0.0709*%
%ADD17R,0.0512X0.0591*%
%ADD18R,0.0630X0.0512*%
%ADD19R,0.0551X0.0551*%
%ADD20C,0.0394*%
D10*
X012314Y041463D03*
X012314Y042211D03*
X011487Y041837D03*
X071369Y041463D03*
X071369Y042211D03*
X072196Y041837D03*
D11*
X074125Y042506D03*
X074125Y041168D03*
X009558Y041168D03*
X009558Y042506D03*
D12*
X010542Y042211D03*
X010542Y041463D03*
X073141Y041463D03*
X073141Y042211D03*
D13*
X070365Y042231D03*
X069617Y042231D03*
X014066Y041443D03*
X013318Y041443D03*
D14*
X009558Y040459D03*
X009558Y043215D03*
X026684Y041443D03*
X041448Y056797D03*
X056015Y042231D03*
X042235Y027073D03*
X043220Y009553D03*
X040464Y009553D03*
X074125Y040459D03*
X074125Y043215D03*
X043220Y074317D03*
X040464Y074317D03*
D15*
X041842Y072191D03*
X042216Y071364D03*
X041468Y071364D03*
X041468Y012309D03*
X042216Y012309D03*
X041842Y011483D03*
D16*
X042511Y009553D03*
X041172Y009553D03*
X041172Y074317D03*
X042511Y074317D03*
D17*
X042216Y073333D03*
X041468Y073333D03*
X041468Y010538D03*
X042216Y010538D03*
D18*
X042235Y013510D03*
X042235Y014258D03*
X041448Y069612D03*
X041448Y070360D03*
D19*
G36*
X033962Y053057D02*
X033574Y052669D01*
X033186Y053057D01*
X033574Y053445D01*
X033962Y053057D01*
G37*
G36*
X050694Y053451D02*
X050306Y053063D01*
X049918Y053451D01*
X050306Y053839D01*
X050694Y053451D01*
G37*
G36*
X053647Y033766D02*
X053259Y033378D01*
X052871Y033766D01*
X053259Y034154D01*
X053647Y033766D01*
G37*
G36*
X033765Y030223D02*
X033377Y029835D01*
X032989Y030223D01*
X033377Y030611D01*
X033765Y030223D01*
G37*
D20*
X027274Y042231D02*
X027078Y042231D01*
X012314Y042211D01*
X012314Y041463D02*
X013298Y041463D01*
X013318Y041443D01*
X014066Y041443D02*
X026684Y041443D01*
X027275Y042230D02*
X027337Y042232D01*
X027399Y042237D01*
X027460Y042246D01*
X027520Y042259D01*
X027580Y042276D01*
X027639Y042297D01*
X027696Y042321D01*
X027751Y042348D01*
X027805Y042379D01*
X027857Y042413D01*
X027906Y042450D01*
X027953Y042490D01*
X027998Y042533D01*
X028040Y042579D01*
X028079Y042627D01*
X028115Y042677D01*
X028147Y042730D01*
X028177Y042785D01*
X028203Y042841D01*
X028225Y042898D01*
X028244Y042957D01*
X028259Y043017D01*
X030031Y032979D02*
X010739Y039868D01*
X010346Y040262D01*
X010346Y041246D01*
X010542Y041443D01*
X010542Y041463D01*
X010247Y041168D01*
X009558Y041168D01*
X009558Y040459D01*
X010542Y042211D02*
X011113Y042211D01*
X011487Y041837D01*
X010542Y042211D02*
X010247Y042506D01*
X009558Y042506D01*
X009558Y043215D01*
X030031Y032979D02*
X030236Y032908D01*
X030438Y032829D01*
X030636Y032739D01*
X030829Y032640D01*
X031017Y032532D01*
X031200Y032415D01*
X031377Y032289D01*
X031547Y032155D01*
X031711Y032013D01*
X031869Y031864D01*
X032018Y031706D01*
X032160Y031542D01*
X032294Y031372D01*
X032420Y031195D01*
X032537Y031012D01*
X032645Y030824D01*
X032744Y030631D01*
X032834Y030433D01*
X032913Y030231D01*
X032984Y030026D01*
X032983Y030026D02*
X033377Y030223D01*
X032983Y030026D02*
X039873Y010734D01*
X040267Y010341D01*
X041271Y010341D01*
X041468Y010538D01*
X041172Y010242D01*
X041172Y009553D01*
X040464Y009553D01*
X042216Y010538D02*
X042216Y011109D01*
X041842Y011483D01*
X042216Y012309D02*
X042216Y013490D01*
X042235Y013510D01*
X042235Y014258D02*
X042235Y027073D01*
X041448Y027467D02*
X041450Y027521D01*
X041455Y027574D01*
X041465Y027627D01*
X041477Y027679D01*
X041494Y027730D01*
X041513Y027780D01*
X041537Y027829D01*
X041563Y027876D01*
X041592Y027921D01*
X041625Y027963D01*
X041660Y028004D01*
X041698Y028042D01*
X041739Y028077D01*
X041781Y028110D01*
X041826Y028139D01*
X041873Y028165D01*
X041922Y028189D01*
X041972Y028208D01*
X042023Y028225D01*
X042075Y028237D01*
X042128Y028247D01*
X042181Y028252D01*
X042235Y028254D01*
X041448Y027073D02*
X041468Y012309D01*
X042216Y010538D02*
X042511Y010242D01*
X042511Y009553D01*
X043220Y009553D01*
X053259Y033766D02*
X052865Y034160D01*
X055424Y040853D02*
X055439Y040906D01*
X055458Y040957D01*
X055480Y041007D01*
X055505Y041056D01*
X055534Y041103D01*
X055566Y041148D01*
X055600Y041190D01*
X055638Y041230D01*
X055678Y041268D01*
X055720Y041302D01*
X055765Y041334D01*
X055812Y041363D01*
X055861Y041388D01*
X055911Y041410D01*
X055962Y041429D01*
X056015Y041444D01*
X056015Y041443D02*
X071369Y041463D01*
X071369Y042211D02*
X070365Y042231D01*
X069617Y042231D02*
X056015Y042231D01*
X053849Y050695D02*
X072944Y043805D01*
X073338Y043412D01*
X073338Y042408D01*
X073141Y042211D01*
X073436Y042506D01*
X074125Y042506D01*
X074125Y043215D01*
X073141Y041463D02*
X072570Y041463D01*
X072196Y041837D01*
X073141Y041463D02*
X073436Y041168D01*
X074125Y041168D01*
X074125Y040459D01*
X041448Y027467D02*
X041448Y027073D01*
X028258Y043018D02*
X028343Y043679D01*
X028459Y044337D01*
X028607Y044987D01*
X028786Y045630D01*
X028995Y046264D01*
X029235Y046886D01*
X029505Y047497D01*
X029803Y048094D01*
X030130Y048675D01*
X030485Y049241D01*
X030866Y049788D01*
X031274Y050317D01*
X031706Y050825D01*
X032162Y051312D01*
X032642Y051776D01*
X033142Y052217D01*
X033664Y052634D01*
X034205Y053024D01*
X034764Y053388D01*
X035340Y053725D01*
X035932Y054034D01*
X036538Y054314D01*
X037156Y054564D01*
X037786Y054784D01*
X038426Y054974D01*
X039074Y055133D01*
X039729Y055260D01*
X040390Y055356D01*
X041054Y055419D01*
X041054Y055420D02*
X041117Y055416D01*
X041181Y055415D01*
X041244Y055419D01*
X041307Y055426D01*
X041369Y055437D01*
X041431Y055451D01*
X041491Y055469D01*
X041551Y055490D01*
X041609Y055515D01*
X041666Y055543D01*
X041721Y055575D01*
X041774Y055609D01*
X041825Y055647D01*
X041873Y055687D01*
X041919Y055731D01*
X041963Y055776D01*
X042004Y055825D01*
X042042Y055875D01*
X042077Y055928D01*
X042108Y055983D01*
X042137Y056039D01*
X042162Y056097D01*
X042184Y056157D01*
X042202Y056217D01*
X042217Y056279D01*
X042228Y056341D01*
X042236Y056404D01*
X042235Y056404D02*
X042216Y071364D01*
X041468Y071364D02*
X041448Y071345D01*
X041448Y070360D01*
X041448Y069612D02*
X041448Y056797D01*
X033968Y052860D02*
X033574Y053057D01*
X055425Y040852D02*
X055334Y040175D01*
X055210Y039504D01*
X055054Y038839D01*
X054866Y038182D01*
X054646Y037535D01*
X054396Y036899D01*
X054116Y036277D01*
X053806Y035668D01*
X053467Y035075D01*
X053099Y034499D01*
X052705Y033941D01*
X052284Y033404D01*
X051838Y032886D01*
X051367Y032391D01*
X050873Y031920D01*
X050357Y031472D01*
X049820Y031050D01*
X049264Y030654D01*
X048689Y030286D01*
X048096Y029945D01*
X047488Y029634D01*
X046866Y029352D01*
X046231Y029100D01*
X045585Y028879D01*
X044929Y028690D01*
X044264Y028532D01*
X043593Y028407D01*
X042916Y028314D01*
X042236Y028253D01*
X051094Y052860D02*
X050306Y053451D01*
X051094Y052860D02*
X043613Y073333D01*
X043416Y073530D01*
X042432Y073530D01*
X042235Y073333D01*
X042216Y073333D01*
X042511Y073628D01*
X042511Y074317D01*
X043220Y074317D01*
X041468Y073333D02*
X041468Y072565D01*
X041842Y072191D01*
X041468Y073333D02*
X041172Y073628D01*
X041172Y074317D01*
X040464Y074317D01*
X051093Y052860D02*
X051201Y052678D01*
X051318Y052501D01*
X051442Y052330D01*
X051574Y052165D01*
X051713Y052006D01*
X051860Y051853D01*
X052013Y051708D01*
X052174Y051570D01*
X052340Y051439D01*
X052512Y051316D01*
X052690Y051201D01*
X052873Y051095D01*
X053060Y050997D01*
X053252Y050908D01*
X053448Y050828D01*
X053647Y050757D01*
X053849Y050695D01*
M02*
