%
M48
M72
T01C0.0140
T02C0.0787
T03C0.1181
%
T01
X16520Y43883
X19079Y43883
X48705Y14158
X48705Y11599
X78430Y43883
X81087Y43883
X49493Y76462
X47819Y76363
T02
X11500Y40832
X14552Y43883
X11500Y46836
X45654Y81088
X48705Y78036
X51658Y81088
X85910Y46934
X82859Y43883
X85910Y40930
X51756Y6678
X48705Y9729
X45752Y6678
T03
X48705Y31481
X36304Y43883
X48705Y56284
X61107Y64257
X65044Y71048
X71146Y71048
X75871Y71048
X81973Y71048
X85910Y64257
X81973Y57466
X75969Y57466
X71245Y57466
X65044Y57466
X61107Y43883
M30
